G04 #@! TF.GenerationSoftware,KiCad,Pcbnew,(5.1.0)-1*
G04 #@! TF.CreationDate,2019-05-24T17:58:47+02:00*
G04 #@! TF.ProjectId,TiN_analog_sensor_emulation,54694e5f-616e-4616-9c6f-675f73656e73,rev?*
G04 #@! TF.SameCoordinates,Original*
G04 #@! TF.FileFunction,Soldermask,Bot*
G04 #@! TF.FilePolarity,Negative*
%FSLAX46Y46*%
G04 Gerber Fmt 4.6, Leading zero omitted, Abs format (unit mm)*
G04 Created by KiCad (PCBNEW (5.1.0)-1) date 2019-05-24 17:58:47*
%MOMM*%
%LPD*%
G04 APERTURE LIST*
%ADD10C,0.100000*%
G04 APERTURE END LIST*
D10*
G36*
X192589756Y-145584298D02*
G01*
X192696079Y-145605447D01*
X192904667Y-145691847D01*
X192964687Y-145716708D01*
X192996542Y-145729903D01*
X193266951Y-145910585D01*
X193496915Y-146140549D01*
X193677597Y-146410958D01*
X193677598Y-146410960D01*
X193688983Y-146438446D01*
X193739619Y-146560691D01*
X193802053Y-146711422D01*
X193865500Y-147030389D01*
X193865500Y-147355611D01*
X193843401Y-147466708D01*
X193802053Y-147674579D01*
X193677597Y-147975042D01*
X193496915Y-148245451D01*
X193266951Y-148475415D01*
X192996542Y-148656097D01*
X192696079Y-148780553D01*
X192589756Y-148801702D01*
X192377111Y-148844000D01*
X192051889Y-148844000D01*
X191839244Y-148801702D01*
X191732921Y-148780553D01*
X191432458Y-148656097D01*
X191162049Y-148475415D01*
X190932085Y-148245451D01*
X190751403Y-147975042D01*
X190626947Y-147674579D01*
X190585599Y-147466708D01*
X190563500Y-147355611D01*
X190563500Y-147030389D01*
X190626947Y-146711422D01*
X190689382Y-146560691D01*
X190740017Y-146438446D01*
X190751402Y-146410960D01*
X190751403Y-146410958D01*
X190932085Y-146140549D01*
X191162049Y-145910585D01*
X191432458Y-145729903D01*
X191464314Y-145716708D01*
X191524333Y-145691847D01*
X191732921Y-145605447D01*
X191839244Y-145584298D01*
X192051889Y-145542000D01*
X192377111Y-145542000D01*
X192589756Y-145584298D01*
X192589756Y-145584298D01*
G37*
G36*
X98546256Y-144758798D02*
G01*
X98652579Y-144779947D01*
X98953042Y-144904403D01*
X99223451Y-145085085D01*
X99453415Y-145315049D01*
X99625351Y-145572369D01*
X99634098Y-145585460D01*
X99660583Y-145649400D01*
X99758553Y-145885921D01*
X99822000Y-146204891D01*
X99822000Y-146530109D01*
X99758553Y-146849079D01*
X99634097Y-147149542D01*
X99453415Y-147419951D01*
X99223451Y-147649915D01*
X98953042Y-147830597D01*
X98652579Y-147955053D01*
X98552097Y-147975040D01*
X98333611Y-148018500D01*
X98008389Y-148018500D01*
X97789903Y-147975040D01*
X97689421Y-147955053D01*
X97388958Y-147830597D01*
X97118549Y-147649915D01*
X96888585Y-147419951D01*
X96707903Y-147149542D01*
X96583447Y-146849079D01*
X96520000Y-146530109D01*
X96520000Y-146204891D01*
X96583447Y-145885921D01*
X96681417Y-145649400D01*
X96707902Y-145585460D01*
X96716649Y-145572369D01*
X96888585Y-145315049D01*
X97118549Y-145085085D01*
X97388958Y-144904403D01*
X97689421Y-144779947D01*
X97795744Y-144758798D01*
X98008389Y-144716500D01*
X98333611Y-144716500D01*
X98546256Y-144758798D01*
X98546256Y-144758798D01*
G37*
G36*
X136889499Y-146353445D02*
G01*
X136926995Y-146364820D01*
X136961554Y-146383292D01*
X136991847Y-146408153D01*
X137016708Y-146438446D01*
X137035180Y-146473005D01*
X137046555Y-146510501D01*
X137051000Y-146555638D01*
X137051000Y-147294362D01*
X137046555Y-147339499D01*
X137035180Y-147376995D01*
X137016708Y-147411554D01*
X136991847Y-147441847D01*
X136961554Y-147466708D01*
X136926995Y-147485180D01*
X136889499Y-147496555D01*
X136844362Y-147501000D01*
X136205638Y-147501000D01*
X136160501Y-147496555D01*
X136123005Y-147485180D01*
X136088446Y-147466708D01*
X136058153Y-147441847D01*
X136033292Y-147411554D01*
X136014820Y-147376995D01*
X136003445Y-147339499D01*
X135999000Y-147294362D01*
X135999000Y-146555638D01*
X136003445Y-146510501D01*
X136014820Y-146473005D01*
X136033292Y-146438446D01*
X136058153Y-146408153D01*
X136088446Y-146383292D01*
X136123005Y-146364820D01*
X136160501Y-146353445D01*
X136205638Y-146349000D01*
X136844362Y-146349000D01*
X136889499Y-146353445D01*
X136889499Y-146353445D01*
G37*
G36*
X139099299Y-146251845D02*
G01*
X139136795Y-146263220D01*
X139171354Y-146281692D01*
X139201647Y-146306553D01*
X139226508Y-146336846D01*
X139244980Y-146371405D01*
X139256355Y-146408901D01*
X139260800Y-146454038D01*
X139260800Y-147192762D01*
X139256355Y-147237899D01*
X139244980Y-147275395D01*
X139226508Y-147309954D01*
X139201647Y-147340247D01*
X139171354Y-147365108D01*
X139136795Y-147383580D01*
X139099299Y-147394955D01*
X139054162Y-147399400D01*
X138415438Y-147399400D01*
X138370301Y-147394955D01*
X138332805Y-147383580D01*
X138298246Y-147365108D01*
X138267953Y-147340247D01*
X138243092Y-147309954D01*
X138224620Y-147275395D01*
X138213245Y-147237899D01*
X138208800Y-147192762D01*
X138208800Y-146454038D01*
X138213245Y-146408901D01*
X138224620Y-146371405D01*
X138243092Y-146336846D01*
X138267953Y-146306553D01*
X138298246Y-146281692D01*
X138332805Y-146263220D01*
X138370301Y-146251845D01*
X138415438Y-146247400D01*
X139054162Y-146247400D01*
X139099299Y-146251845D01*
X139099299Y-146251845D01*
G37*
G36*
X136889499Y-144603445D02*
G01*
X136926995Y-144614820D01*
X136961554Y-144633292D01*
X136991847Y-144658153D01*
X137016708Y-144688446D01*
X137035180Y-144723005D01*
X137046555Y-144760501D01*
X137051000Y-144805638D01*
X137051000Y-145544362D01*
X137046555Y-145589499D01*
X137035180Y-145626995D01*
X137016708Y-145661554D01*
X136991847Y-145691847D01*
X136961554Y-145716708D01*
X136926995Y-145735180D01*
X136889499Y-145746555D01*
X136844362Y-145751000D01*
X136205638Y-145751000D01*
X136160501Y-145746555D01*
X136123005Y-145735180D01*
X136088446Y-145716708D01*
X136058153Y-145691847D01*
X136033292Y-145661554D01*
X136014820Y-145626995D01*
X136003445Y-145589499D01*
X135999000Y-145544362D01*
X135999000Y-144805638D01*
X136003445Y-144760501D01*
X136014820Y-144723005D01*
X136033292Y-144688446D01*
X136058153Y-144658153D01*
X136088446Y-144633292D01*
X136123005Y-144614820D01*
X136160501Y-144603445D01*
X136205638Y-144599000D01*
X136844362Y-144599000D01*
X136889499Y-144603445D01*
X136889499Y-144603445D01*
G37*
G36*
X139099299Y-144501845D02*
G01*
X139136795Y-144513220D01*
X139171354Y-144531692D01*
X139201647Y-144556553D01*
X139226508Y-144586846D01*
X139244980Y-144621405D01*
X139256355Y-144658901D01*
X139260800Y-144704038D01*
X139260800Y-145442762D01*
X139256355Y-145487899D01*
X139244980Y-145525395D01*
X139226508Y-145559954D01*
X139201647Y-145590247D01*
X139171354Y-145615108D01*
X139136795Y-145633580D01*
X139099299Y-145644955D01*
X139054162Y-145649400D01*
X138415438Y-145649400D01*
X138370301Y-145644955D01*
X138332805Y-145633580D01*
X138298246Y-145615108D01*
X138267953Y-145590247D01*
X138243092Y-145559954D01*
X138224620Y-145525395D01*
X138213245Y-145487899D01*
X138208800Y-145442762D01*
X138208800Y-144704038D01*
X138213245Y-144658901D01*
X138224620Y-144621405D01*
X138243092Y-144586846D01*
X138267953Y-144556553D01*
X138298246Y-144531692D01*
X138332805Y-144513220D01*
X138370301Y-144501845D01*
X138415438Y-144497400D01*
X139054162Y-144497400D01*
X139099299Y-144501845D01*
X139099299Y-144501845D01*
G37*
G36*
X166999099Y-144258445D02*
G01*
X167036595Y-144269820D01*
X167071154Y-144288292D01*
X167101447Y-144313153D01*
X167126308Y-144343446D01*
X167144780Y-144378005D01*
X167156155Y-144415501D01*
X167160600Y-144460638D01*
X167160600Y-145099362D01*
X167156155Y-145144499D01*
X167144780Y-145181995D01*
X167126308Y-145216554D01*
X167101447Y-145246847D01*
X167071154Y-145271708D01*
X167036595Y-145290180D01*
X166999099Y-145301555D01*
X166953962Y-145306000D01*
X166215238Y-145306000D01*
X166170101Y-145301555D01*
X166132605Y-145290180D01*
X166098046Y-145271708D01*
X166067753Y-145246847D01*
X166042892Y-145216554D01*
X166024420Y-145181995D01*
X166013045Y-145144499D01*
X166008600Y-145099362D01*
X166008600Y-144460638D01*
X166013045Y-144415501D01*
X166024420Y-144378005D01*
X166042892Y-144343446D01*
X166067753Y-144313153D01*
X166098046Y-144288292D01*
X166132605Y-144269820D01*
X166170101Y-144258445D01*
X166215238Y-144254000D01*
X166953962Y-144254000D01*
X166999099Y-144258445D01*
X166999099Y-144258445D01*
G37*
G36*
X165249099Y-144258445D02*
G01*
X165286595Y-144269820D01*
X165321154Y-144288292D01*
X165351447Y-144313153D01*
X165376308Y-144343446D01*
X165394780Y-144378005D01*
X165406155Y-144415501D01*
X165410600Y-144460638D01*
X165410600Y-145099362D01*
X165406155Y-145144499D01*
X165394780Y-145181995D01*
X165376308Y-145216554D01*
X165351447Y-145246847D01*
X165321154Y-145271708D01*
X165286595Y-145290180D01*
X165249099Y-145301555D01*
X165203962Y-145306000D01*
X164465238Y-145306000D01*
X164420101Y-145301555D01*
X164382605Y-145290180D01*
X164348046Y-145271708D01*
X164317753Y-145246847D01*
X164292892Y-145216554D01*
X164274420Y-145181995D01*
X164263045Y-145144499D01*
X164258600Y-145099362D01*
X164258600Y-144460638D01*
X164263045Y-144415501D01*
X164274420Y-144378005D01*
X164292892Y-144343446D01*
X164317753Y-144313153D01*
X164348046Y-144288292D01*
X164382605Y-144269820D01*
X164420101Y-144258445D01*
X164465238Y-144254000D01*
X165203962Y-144254000D01*
X165249099Y-144258445D01*
X165249099Y-144258445D01*
G37*
G36*
X151370600Y-144411000D02*
G01*
X149568600Y-144411000D01*
X149568600Y-142609000D01*
X151370600Y-142609000D01*
X151370600Y-144411000D01*
X151370600Y-144411000D01*
G37*
G36*
X148040042Y-142615518D02*
G01*
X148106227Y-142622037D01*
X148276066Y-142673557D01*
X148432591Y-142757222D01*
X148468329Y-142786552D01*
X148569786Y-142869814D01*
X148653048Y-142971271D01*
X148682378Y-143007009D01*
X148766043Y-143163534D01*
X148817563Y-143333373D01*
X148834959Y-143510000D01*
X148817563Y-143686627D01*
X148766043Y-143856466D01*
X148682378Y-144012991D01*
X148653048Y-144048729D01*
X148569786Y-144150186D01*
X148468329Y-144233448D01*
X148432591Y-144262778D01*
X148276066Y-144346443D01*
X148106227Y-144397963D01*
X148040043Y-144404481D01*
X147973860Y-144411000D01*
X147885340Y-144411000D01*
X147819157Y-144404481D01*
X147752973Y-144397963D01*
X147583134Y-144346443D01*
X147426609Y-144262778D01*
X147390871Y-144233448D01*
X147289414Y-144150186D01*
X147206152Y-144048729D01*
X147176822Y-144012991D01*
X147093157Y-143856466D01*
X147041637Y-143686627D01*
X147024241Y-143510000D01*
X147041637Y-143333373D01*
X147093157Y-143163534D01*
X147176822Y-143007009D01*
X147206152Y-142971271D01*
X147289414Y-142869814D01*
X147390871Y-142786552D01*
X147426609Y-142757222D01*
X147583134Y-142673557D01*
X147752973Y-142622037D01*
X147819158Y-142615518D01*
X147885340Y-142609000D01*
X147973860Y-142609000D01*
X148040042Y-142615518D01*
X148040042Y-142615518D01*
G37*
G36*
X145500042Y-142615518D02*
G01*
X145566227Y-142622037D01*
X145736066Y-142673557D01*
X145892591Y-142757222D01*
X145928329Y-142786552D01*
X146029786Y-142869814D01*
X146113048Y-142971271D01*
X146142378Y-143007009D01*
X146226043Y-143163534D01*
X146277563Y-143333373D01*
X146294959Y-143510000D01*
X146277563Y-143686627D01*
X146226043Y-143856466D01*
X146142378Y-144012991D01*
X146113048Y-144048729D01*
X146029786Y-144150186D01*
X145928329Y-144233448D01*
X145892591Y-144262778D01*
X145736066Y-144346443D01*
X145566227Y-144397963D01*
X145500043Y-144404481D01*
X145433860Y-144411000D01*
X145345340Y-144411000D01*
X145279157Y-144404481D01*
X145212973Y-144397963D01*
X145043134Y-144346443D01*
X144886609Y-144262778D01*
X144850871Y-144233448D01*
X144749414Y-144150186D01*
X144666152Y-144048729D01*
X144636822Y-144012991D01*
X144553157Y-143856466D01*
X144501637Y-143686627D01*
X144484241Y-143510000D01*
X144501637Y-143333373D01*
X144553157Y-143163534D01*
X144636822Y-143007009D01*
X144666152Y-142971271D01*
X144749414Y-142869814D01*
X144850871Y-142786552D01*
X144886609Y-142757222D01*
X145043134Y-142673557D01*
X145212973Y-142622037D01*
X145279158Y-142615518D01*
X145345340Y-142609000D01*
X145433860Y-142609000D01*
X145500042Y-142615518D01*
X145500042Y-142615518D01*
G37*
G36*
X142960042Y-142615518D02*
G01*
X143026227Y-142622037D01*
X143196066Y-142673557D01*
X143352591Y-142757222D01*
X143388329Y-142786552D01*
X143489786Y-142869814D01*
X143573048Y-142971271D01*
X143602378Y-143007009D01*
X143686043Y-143163534D01*
X143737563Y-143333373D01*
X143754959Y-143510000D01*
X143737563Y-143686627D01*
X143686043Y-143856466D01*
X143602378Y-144012991D01*
X143573048Y-144048729D01*
X143489786Y-144150186D01*
X143388329Y-144233448D01*
X143352591Y-144262778D01*
X143196066Y-144346443D01*
X143026227Y-144397963D01*
X142960043Y-144404481D01*
X142893860Y-144411000D01*
X142805340Y-144411000D01*
X142739157Y-144404481D01*
X142672973Y-144397963D01*
X142503134Y-144346443D01*
X142346609Y-144262778D01*
X142310871Y-144233448D01*
X142209414Y-144150186D01*
X142126152Y-144048729D01*
X142096822Y-144012991D01*
X142013157Y-143856466D01*
X141961637Y-143686627D01*
X141944241Y-143510000D01*
X141961637Y-143333373D01*
X142013157Y-143163534D01*
X142096822Y-143007009D01*
X142126152Y-142971271D01*
X142209414Y-142869814D01*
X142310871Y-142786552D01*
X142346609Y-142757222D01*
X142503134Y-142673557D01*
X142672973Y-142622037D01*
X142739158Y-142615518D01*
X142805340Y-142609000D01*
X142893860Y-142609000D01*
X142960042Y-142615518D01*
X142960042Y-142615518D01*
G37*
G36*
X135773200Y-143852200D02*
G01*
X135021200Y-143852200D01*
X135021200Y-143350200D01*
X135773200Y-143350200D01*
X135773200Y-143852200D01*
X135773200Y-143852200D01*
G37*
G36*
X137673200Y-143852200D02*
G01*
X136921200Y-143852200D01*
X136921200Y-142050200D01*
X137673200Y-142050200D01*
X137673200Y-143852200D01*
X137673200Y-143852200D01*
G37*
G36*
X135773200Y-142552200D02*
G01*
X135021200Y-142552200D01*
X135021200Y-142050200D01*
X135773200Y-142050200D01*
X135773200Y-142552200D01*
X135773200Y-142552200D01*
G37*
G36*
X139902500Y-140855000D02*
G01*
X138100500Y-140855000D01*
X138100500Y-139053000D01*
X139902500Y-139053000D01*
X139902500Y-140855000D01*
X139902500Y-140855000D01*
G37*
G36*
X136571942Y-139059518D02*
G01*
X136638127Y-139066037D01*
X136807966Y-139117557D01*
X136964491Y-139201222D01*
X137000229Y-139230552D01*
X137101686Y-139313814D01*
X137184948Y-139415271D01*
X137214278Y-139451009D01*
X137297943Y-139607534D01*
X137349463Y-139777373D01*
X137366859Y-139954000D01*
X137349463Y-140130627D01*
X137297943Y-140300466D01*
X137214278Y-140456991D01*
X137184948Y-140492729D01*
X137101686Y-140594186D01*
X137000229Y-140677448D01*
X136964491Y-140706778D01*
X136807966Y-140790443D01*
X136638127Y-140841963D01*
X136571943Y-140848481D01*
X136505760Y-140855000D01*
X136417240Y-140855000D01*
X136351057Y-140848481D01*
X136284873Y-140841963D01*
X136115034Y-140790443D01*
X135958509Y-140706778D01*
X135922771Y-140677448D01*
X135821314Y-140594186D01*
X135738052Y-140492729D01*
X135708722Y-140456991D01*
X135625057Y-140300466D01*
X135573537Y-140130627D01*
X135556141Y-139954000D01*
X135573537Y-139777373D01*
X135625057Y-139607534D01*
X135708722Y-139451009D01*
X135738052Y-139415271D01*
X135821314Y-139313814D01*
X135922771Y-139230552D01*
X135958509Y-139201222D01*
X136115034Y-139117557D01*
X136284873Y-139066037D01*
X136351058Y-139059518D01*
X136417240Y-139053000D01*
X136505760Y-139053000D01*
X136571942Y-139059518D01*
X136571942Y-139059518D01*
G37*
G36*
X134031942Y-139059518D02*
G01*
X134098127Y-139066037D01*
X134267966Y-139117557D01*
X134424491Y-139201222D01*
X134460229Y-139230552D01*
X134561686Y-139313814D01*
X134644948Y-139415271D01*
X134674278Y-139451009D01*
X134757943Y-139607534D01*
X134809463Y-139777373D01*
X134826859Y-139954000D01*
X134809463Y-140130627D01*
X134757943Y-140300466D01*
X134674278Y-140456991D01*
X134644948Y-140492729D01*
X134561686Y-140594186D01*
X134460229Y-140677448D01*
X134424491Y-140706778D01*
X134267966Y-140790443D01*
X134098127Y-140841963D01*
X134031943Y-140848481D01*
X133965760Y-140855000D01*
X133877240Y-140855000D01*
X133811057Y-140848481D01*
X133744873Y-140841963D01*
X133575034Y-140790443D01*
X133418509Y-140706778D01*
X133382771Y-140677448D01*
X133281314Y-140594186D01*
X133198052Y-140492729D01*
X133168722Y-140456991D01*
X133085057Y-140300466D01*
X133033537Y-140130627D01*
X133016141Y-139954000D01*
X133033537Y-139777373D01*
X133085057Y-139607534D01*
X133168722Y-139451009D01*
X133198052Y-139415271D01*
X133281314Y-139313814D01*
X133382771Y-139230552D01*
X133418509Y-139201222D01*
X133575034Y-139117557D01*
X133744873Y-139066037D01*
X133811058Y-139059518D01*
X133877240Y-139053000D01*
X133965760Y-139053000D01*
X134031942Y-139059518D01*
X134031942Y-139059518D01*
G37*
G36*
X134324099Y-136549045D02*
G01*
X134361595Y-136560420D01*
X134396154Y-136578892D01*
X134426447Y-136603753D01*
X134451308Y-136634046D01*
X134469780Y-136668605D01*
X134481155Y-136706101D01*
X134485600Y-136751238D01*
X134485600Y-137489962D01*
X134481155Y-137535099D01*
X134469780Y-137572595D01*
X134451308Y-137607154D01*
X134426447Y-137637447D01*
X134396154Y-137662308D01*
X134361595Y-137680780D01*
X134324099Y-137692155D01*
X134278962Y-137696600D01*
X133640238Y-137696600D01*
X133595101Y-137692155D01*
X133557605Y-137680780D01*
X133523046Y-137662308D01*
X133492753Y-137637447D01*
X133467892Y-137607154D01*
X133449420Y-137572595D01*
X133438045Y-137535099D01*
X133433600Y-137489962D01*
X133433600Y-136751238D01*
X133438045Y-136706101D01*
X133449420Y-136668605D01*
X133467892Y-136634046D01*
X133492753Y-136603753D01*
X133523046Y-136578892D01*
X133557605Y-136560420D01*
X133595101Y-136549045D01*
X133640238Y-136544600D01*
X134278962Y-136544600D01*
X134324099Y-136549045D01*
X134324099Y-136549045D01*
G37*
G36*
X134324099Y-134799045D02*
G01*
X134361595Y-134810420D01*
X134396154Y-134828892D01*
X134426447Y-134853753D01*
X134451308Y-134884046D01*
X134469780Y-134918605D01*
X134481155Y-134956101D01*
X134485600Y-135001238D01*
X134485600Y-135739962D01*
X134481155Y-135785099D01*
X134469780Y-135822595D01*
X134451308Y-135857154D01*
X134426447Y-135887447D01*
X134396154Y-135912308D01*
X134361595Y-135930780D01*
X134324099Y-135942155D01*
X134278962Y-135946600D01*
X133640238Y-135946600D01*
X133595101Y-135942155D01*
X133557605Y-135930780D01*
X133523046Y-135912308D01*
X133492753Y-135887447D01*
X133467892Y-135857154D01*
X133449420Y-135822595D01*
X133438045Y-135785099D01*
X133433600Y-135739962D01*
X133433600Y-135001238D01*
X133438045Y-134956101D01*
X133449420Y-134918605D01*
X133467892Y-134884046D01*
X133492753Y-134853753D01*
X133523046Y-134828892D01*
X133557605Y-134810420D01*
X133595101Y-134799045D01*
X133640238Y-134794600D01*
X134278962Y-134794600D01*
X134324099Y-134799045D01*
X134324099Y-134799045D01*
G37*
G36*
X169132699Y-134860445D02*
G01*
X169170195Y-134871820D01*
X169204754Y-134890292D01*
X169235047Y-134915153D01*
X169259908Y-134945446D01*
X169278380Y-134980005D01*
X169289755Y-135017501D01*
X169294200Y-135062638D01*
X169294200Y-135701362D01*
X169289755Y-135746499D01*
X169278380Y-135783995D01*
X169259908Y-135818554D01*
X169235047Y-135848847D01*
X169204754Y-135873708D01*
X169170195Y-135892180D01*
X169132699Y-135903555D01*
X169087562Y-135908000D01*
X168348838Y-135908000D01*
X168303701Y-135903555D01*
X168266205Y-135892180D01*
X168231646Y-135873708D01*
X168201353Y-135848847D01*
X168176492Y-135818554D01*
X168158020Y-135783995D01*
X168146645Y-135746499D01*
X168142200Y-135701362D01*
X168142200Y-135062638D01*
X168146645Y-135017501D01*
X168158020Y-134980005D01*
X168176492Y-134945446D01*
X168201353Y-134915153D01*
X168231646Y-134890292D01*
X168266205Y-134871820D01*
X168303701Y-134860445D01*
X168348838Y-134856000D01*
X169087562Y-134856000D01*
X169132699Y-134860445D01*
X169132699Y-134860445D01*
G37*
G36*
X167382699Y-134860445D02*
G01*
X167420195Y-134871820D01*
X167454754Y-134890292D01*
X167485047Y-134915153D01*
X167509908Y-134945446D01*
X167528380Y-134980005D01*
X167539755Y-135017501D01*
X167544200Y-135062638D01*
X167544200Y-135701362D01*
X167539755Y-135746499D01*
X167528380Y-135783995D01*
X167509908Y-135818554D01*
X167485047Y-135848847D01*
X167454754Y-135873708D01*
X167420195Y-135892180D01*
X167382699Y-135903555D01*
X167337562Y-135908000D01*
X166598838Y-135908000D01*
X166553701Y-135903555D01*
X166516205Y-135892180D01*
X166481646Y-135873708D01*
X166451353Y-135848847D01*
X166426492Y-135818554D01*
X166408020Y-135783995D01*
X166396645Y-135746499D01*
X166392200Y-135701362D01*
X166392200Y-135062638D01*
X166396645Y-135017501D01*
X166408020Y-134980005D01*
X166426492Y-134945446D01*
X166451353Y-134915153D01*
X166481646Y-134890292D01*
X166516205Y-134871820D01*
X166553701Y-134860445D01*
X166598838Y-134856000D01*
X167337562Y-134856000D01*
X167382699Y-134860445D01*
X167382699Y-134860445D01*
G37*
G36*
X167151499Y-132930045D02*
G01*
X167188995Y-132941420D01*
X167223554Y-132959892D01*
X167253847Y-132984753D01*
X167278708Y-133015046D01*
X167297180Y-133049605D01*
X167308555Y-133087101D01*
X167313000Y-133132238D01*
X167313000Y-133770962D01*
X167308555Y-133816099D01*
X167297180Y-133853595D01*
X167278708Y-133888154D01*
X167253847Y-133918447D01*
X167223554Y-133943308D01*
X167188995Y-133961780D01*
X167151499Y-133973155D01*
X167106362Y-133977600D01*
X166367638Y-133977600D01*
X166322501Y-133973155D01*
X166285005Y-133961780D01*
X166250446Y-133943308D01*
X166220153Y-133918447D01*
X166195292Y-133888154D01*
X166176820Y-133853595D01*
X166165445Y-133816099D01*
X166161000Y-133770962D01*
X166161000Y-133132238D01*
X166165445Y-133087101D01*
X166176820Y-133049605D01*
X166195292Y-133015046D01*
X166220153Y-132984753D01*
X166250446Y-132959892D01*
X166285005Y-132941420D01*
X166322501Y-132930045D01*
X166367638Y-132925600D01*
X167106362Y-132925600D01*
X167151499Y-132930045D01*
X167151499Y-132930045D01*
G37*
G36*
X165401499Y-132930045D02*
G01*
X165438995Y-132941420D01*
X165473554Y-132959892D01*
X165503847Y-132984753D01*
X165528708Y-133015046D01*
X165547180Y-133049605D01*
X165558555Y-133087101D01*
X165563000Y-133132238D01*
X165563000Y-133770962D01*
X165558555Y-133816099D01*
X165547180Y-133853595D01*
X165528708Y-133888154D01*
X165503847Y-133918447D01*
X165473554Y-133943308D01*
X165438995Y-133961780D01*
X165401499Y-133973155D01*
X165356362Y-133977600D01*
X164617638Y-133977600D01*
X164572501Y-133973155D01*
X164535005Y-133961780D01*
X164500446Y-133943308D01*
X164470153Y-133918447D01*
X164445292Y-133888154D01*
X164426820Y-133853595D01*
X164415445Y-133816099D01*
X164411000Y-133770962D01*
X164411000Y-133132238D01*
X164415445Y-133087101D01*
X164426820Y-133049605D01*
X164445292Y-133015046D01*
X164470153Y-132984753D01*
X164500446Y-132959892D01*
X164535005Y-132941420D01*
X164572501Y-132930045D01*
X164617638Y-132925600D01*
X165356362Y-132925600D01*
X165401499Y-132930045D01*
X165401499Y-132930045D01*
G37*
G36*
X169105999Y-123481245D02*
G01*
X169143495Y-123492620D01*
X169178054Y-123511092D01*
X169208347Y-123535953D01*
X169233208Y-123566246D01*
X169251680Y-123600805D01*
X169263055Y-123638301D01*
X169267500Y-123683438D01*
X169267500Y-124322162D01*
X169263055Y-124367299D01*
X169251680Y-124404795D01*
X169233208Y-124439354D01*
X169208347Y-124469647D01*
X169178054Y-124494508D01*
X169143495Y-124512980D01*
X169105999Y-124524355D01*
X169060862Y-124528800D01*
X168322138Y-124528800D01*
X168277001Y-124524355D01*
X168239505Y-124512980D01*
X168204946Y-124494508D01*
X168174653Y-124469647D01*
X168149792Y-124439354D01*
X168131320Y-124404795D01*
X168119945Y-124367299D01*
X168115500Y-124322162D01*
X168115500Y-123683438D01*
X168119945Y-123638301D01*
X168131320Y-123600805D01*
X168149792Y-123566246D01*
X168174653Y-123535953D01*
X168204946Y-123511092D01*
X168239505Y-123492620D01*
X168277001Y-123481245D01*
X168322138Y-123476800D01*
X169060862Y-123476800D01*
X169105999Y-123481245D01*
X169105999Y-123481245D01*
G37*
G36*
X167355999Y-123481245D02*
G01*
X167393495Y-123492620D01*
X167428054Y-123511092D01*
X167458347Y-123535953D01*
X167483208Y-123566246D01*
X167501680Y-123600805D01*
X167513055Y-123638301D01*
X167517500Y-123683438D01*
X167517500Y-124322162D01*
X167513055Y-124367299D01*
X167501680Y-124404795D01*
X167483208Y-124439354D01*
X167458347Y-124469647D01*
X167428054Y-124494508D01*
X167393495Y-124512980D01*
X167355999Y-124524355D01*
X167310862Y-124528800D01*
X166572138Y-124528800D01*
X166527001Y-124524355D01*
X166489505Y-124512980D01*
X166454946Y-124494508D01*
X166424653Y-124469647D01*
X166399792Y-124439354D01*
X166381320Y-124404795D01*
X166369945Y-124367299D01*
X166365500Y-124322162D01*
X166365500Y-123683438D01*
X166369945Y-123638301D01*
X166381320Y-123600805D01*
X166399792Y-123566246D01*
X166424653Y-123535953D01*
X166454946Y-123511092D01*
X166489505Y-123492620D01*
X166527001Y-123481245D01*
X166572138Y-123476800D01*
X167310862Y-123476800D01*
X167355999Y-123481245D01*
X167355999Y-123481245D01*
G37*
G36*
X99370000Y-123142001D02*
G01*
X99372402Y-123166387D01*
X99379515Y-123189836D01*
X99391066Y-123211447D01*
X99406611Y-123230389D01*
X99425553Y-123245934D01*
X99447164Y-123257485D01*
X99470613Y-123264598D01*
X99494999Y-123267000D01*
X100720000Y-123267000D01*
X100720000Y-124229000D01*
X97818000Y-124229000D01*
X97818000Y-123267000D01*
X98043001Y-123267000D01*
X98067387Y-123264598D01*
X98090836Y-123257485D01*
X98112447Y-123245934D01*
X98131389Y-123230389D01*
X98146934Y-123211447D01*
X98158485Y-123189836D01*
X98165598Y-123166387D01*
X98168000Y-123142001D01*
X98168000Y-122267000D01*
X99370000Y-122267000D01*
X99370000Y-123142001D01*
X99370000Y-123142001D01*
G37*
G36*
X111750000Y-124229000D02*
G01*
X108318000Y-124229000D01*
X108318000Y-123427000D01*
X111750000Y-123427000D01*
X111750000Y-124229000D01*
X111750000Y-124229000D01*
G37*
G36*
X167303899Y-121674215D02*
G01*
X167341395Y-121685590D01*
X167375954Y-121704062D01*
X167406247Y-121728923D01*
X167431108Y-121759216D01*
X167449580Y-121793775D01*
X167460955Y-121831271D01*
X167465400Y-121876408D01*
X167465400Y-122515132D01*
X167460955Y-122560269D01*
X167449580Y-122597765D01*
X167431108Y-122632324D01*
X167406247Y-122662617D01*
X167375954Y-122687478D01*
X167341395Y-122705950D01*
X167303899Y-122717325D01*
X167258762Y-122721770D01*
X166520038Y-122721770D01*
X166474901Y-122717325D01*
X166437405Y-122705950D01*
X166402846Y-122687478D01*
X166372553Y-122662617D01*
X166347692Y-122632324D01*
X166329220Y-122597765D01*
X166317845Y-122560269D01*
X166313400Y-122515132D01*
X166313400Y-121876408D01*
X166317845Y-121831271D01*
X166329220Y-121793775D01*
X166347692Y-121759216D01*
X166372553Y-121728923D01*
X166402846Y-121704062D01*
X166437405Y-121685590D01*
X166474901Y-121674215D01*
X166520038Y-121669770D01*
X167258762Y-121669770D01*
X167303899Y-121674215D01*
X167303899Y-121674215D01*
G37*
G36*
X165553899Y-121674215D02*
G01*
X165591395Y-121685590D01*
X165625954Y-121704062D01*
X165656247Y-121728923D01*
X165681108Y-121759216D01*
X165699580Y-121793775D01*
X165710955Y-121831271D01*
X165715400Y-121876408D01*
X165715400Y-122515132D01*
X165710955Y-122560269D01*
X165699580Y-122597765D01*
X165681108Y-122632324D01*
X165656247Y-122662617D01*
X165625954Y-122687478D01*
X165591395Y-122705950D01*
X165553899Y-122717325D01*
X165508762Y-122721770D01*
X164770038Y-122721770D01*
X164724901Y-122717325D01*
X164687405Y-122705950D01*
X164652846Y-122687478D01*
X164622553Y-122662617D01*
X164597692Y-122632324D01*
X164579220Y-122597765D01*
X164567845Y-122560269D01*
X164563400Y-122515132D01*
X164563400Y-121876408D01*
X164567845Y-121831271D01*
X164579220Y-121793775D01*
X164597692Y-121759216D01*
X164622553Y-121728923D01*
X164652846Y-121704062D01*
X164687405Y-121685590D01*
X164724901Y-121674215D01*
X164770038Y-121669770D01*
X165508762Y-121669770D01*
X165553899Y-121674215D01*
X165553899Y-121674215D01*
G37*
G36*
X137025500Y-122186000D02*
G01*
X136273500Y-122186000D01*
X136273500Y-121684000D01*
X137025500Y-121684000D01*
X137025500Y-122186000D01*
X137025500Y-122186000D01*
G37*
G36*
X135125500Y-122186000D02*
G01*
X134373500Y-122186000D01*
X134373500Y-120384000D01*
X135125500Y-120384000D01*
X135125500Y-122186000D01*
X135125500Y-122186000D01*
G37*
G36*
X99370000Y-121969000D02*
G01*
X98168000Y-121969000D01*
X98168000Y-121167000D01*
X99370000Y-121167000D01*
X99370000Y-121969000D01*
X99370000Y-121969000D01*
G37*
G36*
X156775756Y-118596798D02*
G01*
X156882079Y-118617947D01*
X157094537Y-118705950D01*
X157166551Y-118735779D01*
X157182542Y-118742403D01*
X157452951Y-118923085D01*
X157682915Y-119153049D01*
X157863597Y-119423458D01*
X157988053Y-119723921D01*
X158051500Y-120042891D01*
X158051500Y-120368109D01*
X157988053Y-120687079D01*
X157863597Y-120987542D01*
X157682915Y-121257951D01*
X157452951Y-121487915D01*
X157182542Y-121668597D01*
X157182541Y-121668598D01*
X157182540Y-121668598D01*
X157131378Y-121689790D01*
X156882079Y-121793053D01*
X156775756Y-121814202D01*
X156563111Y-121856500D01*
X156237889Y-121856500D01*
X156025244Y-121814202D01*
X155918921Y-121793053D01*
X155669622Y-121689790D01*
X155618460Y-121668598D01*
X155618459Y-121668598D01*
X155618458Y-121668597D01*
X155348049Y-121487915D01*
X155118085Y-121257951D01*
X154937403Y-120987542D01*
X154812947Y-120687079D01*
X154749500Y-120368109D01*
X154749500Y-120042891D01*
X154812947Y-119723921D01*
X154937403Y-119423458D01*
X155118085Y-119153049D01*
X155348049Y-118923085D01*
X155618458Y-118742403D01*
X155634450Y-118735779D01*
X155706463Y-118705950D01*
X155918921Y-118617947D01*
X156025244Y-118596798D01*
X156237889Y-118554500D01*
X156563111Y-118554500D01*
X156775756Y-118596798D01*
X156775756Y-118596798D01*
G37*
G36*
X137025500Y-120886000D02*
G01*
X136273500Y-120886000D01*
X136273500Y-120384000D01*
X137025500Y-120384000D01*
X137025500Y-120886000D01*
X137025500Y-120886000D01*
G37*
G36*
X99370000Y-120869000D02*
G01*
X98168000Y-120869000D01*
X98168000Y-120067000D01*
X99370000Y-120067000D01*
X99370000Y-120869000D01*
X99370000Y-120869000D01*
G37*
G36*
X99370000Y-119769000D02*
G01*
X98168000Y-119769000D01*
X98168000Y-118967000D01*
X99370000Y-118967000D01*
X99370000Y-119769000D01*
X99370000Y-119769000D01*
G37*
G36*
X139302442Y-117088518D02*
G01*
X139368627Y-117095037D01*
X139538466Y-117146557D01*
X139694991Y-117230222D01*
X139730729Y-117259552D01*
X139832186Y-117342814D01*
X139915448Y-117444271D01*
X139944778Y-117480009D01*
X140028443Y-117636534D01*
X140079963Y-117806373D01*
X140097359Y-117983000D01*
X140079963Y-118159627D01*
X140028443Y-118329466D01*
X139944778Y-118485991D01*
X139915448Y-118521729D01*
X139832186Y-118623186D01*
X139730729Y-118706448D01*
X139694991Y-118735778D01*
X139538466Y-118819443D01*
X139368627Y-118870963D01*
X139302442Y-118877482D01*
X139236260Y-118884000D01*
X139147740Y-118884000D01*
X139081558Y-118877482D01*
X139015373Y-118870963D01*
X138845534Y-118819443D01*
X138689009Y-118735778D01*
X138653271Y-118706448D01*
X138551814Y-118623186D01*
X138468552Y-118521729D01*
X138439222Y-118485991D01*
X138355557Y-118329466D01*
X138304037Y-118159627D01*
X138286641Y-117983000D01*
X138304037Y-117806373D01*
X138355557Y-117636534D01*
X138439222Y-117480009D01*
X138468552Y-117444271D01*
X138551814Y-117342814D01*
X138653271Y-117259552D01*
X138689009Y-117230222D01*
X138845534Y-117146557D01*
X139015373Y-117095037D01*
X139081558Y-117088518D01*
X139147740Y-117082000D01*
X139236260Y-117082000D01*
X139302442Y-117088518D01*
X139302442Y-117088518D01*
G37*
G36*
X135013000Y-118884000D02*
G01*
X133211000Y-118884000D01*
X133211000Y-117082000D01*
X135013000Y-117082000D01*
X135013000Y-118884000D01*
X135013000Y-118884000D01*
G37*
G36*
X136762442Y-117088518D02*
G01*
X136828627Y-117095037D01*
X136998466Y-117146557D01*
X137154991Y-117230222D01*
X137190729Y-117259552D01*
X137292186Y-117342814D01*
X137375448Y-117444271D01*
X137404778Y-117480009D01*
X137488443Y-117636534D01*
X137539963Y-117806373D01*
X137557359Y-117983000D01*
X137539963Y-118159627D01*
X137488443Y-118329466D01*
X137404778Y-118485991D01*
X137375448Y-118521729D01*
X137292186Y-118623186D01*
X137190729Y-118706448D01*
X137154991Y-118735778D01*
X136998466Y-118819443D01*
X136828627Y-118870963D01*
X136762442Y-118877482D01*
X136696260Y-118884000D01*
X136607740Y-118884000D01*
X136541558Y-118877482D01*
X136475373Y-118870963D01*
X136305534Y-118819443D01*
X136149009Y-118735778D01*
X136113271Y-118706448D01*
X136011814Y-118623186D01*
X135928552Y-118521729D01*
X135899222Y-118485991D01*
X135815557Y-118329466D01*
X135764037Y-118159627D01*
X135746641Y-117983000D01*
X135764037Y-117806373D01*
X135815557Y-117636534D01*
X135899222Y-117480009D01*
X135928552Y-117444271D01*
X136011814Y-117342814D01*
X136113271Y-117259552D01*
X136149009Y-117230222D01*
X136305534Y-117146557D01*
X136475373Y-117095037D01*
X136541558Y-117088518D01*
X136607740Y-117082000D01*
X136696260Y-117082000D01*
X136762442Y-117088518D01*
X136762442Y-117088518D01*
G37*
G36*
X99370000Y-118669000D02*
G01*
X98168000Y-118669000D01*
X98168000Y-117867000D01*
X99370000Y-117867000D01*
X99370000Y-118669000D01*
X99370000Y-118669000D01*
G37*
G36*
X111750000Y-118019000D02*
G01*
X110868000Y-118019000D01*
X110868000Y-116867000D01*
X111750000Y-116867000D01*
X111750000Y-118019000D01*
X111750000Y-118019000D01*
G37*
G36*
X99370000Y-117569000D02*
G01*
X98168000Y-117569000D01*
X98168000Y-116767000D01*
X99370000Y-116767000D01*
X99370000Y-117569000D01*
X99370000Y-117569000D01*
G37*
G36*
X99370000Y-116469000D02*
G01*
X98168000Y-116469000D01*
X98168000Y-115667000D01*
X99370000Y-115667000D01*
X99370000Y-116469000D01*
X99370000Y-116469000D01*
G37*
G36*
X99370000Y-115369000D02*
G01*
X98168000Y-115369000D01*
X98168000Y-114567000D01*
X99370000Y-114567000D01*
X99370000Y-115369000D01*
X99370000Y-115369000D01*
G37*
G36*
X139277043Y-113303919D02*
G01*
X139343227Y-113310437D01*
X139513066Y-113361957D01*
X139669591Y-113445622D01*
X139705329Y-113474952D01*
X139806786Y-113558214D01*
X139890048Y-113659671D01*
X139919378Y-113695409D01*
X140003043Y-113851934D01*
X140054563Y-114021773D01*
X140071959Y-114198400D01*
X140054563Y-114375027D01*
X140003043Y-114544866D01*
X139919378Y-114701391D01*
X139890048Y-114737129D01*
X139806786Y-114838586D01*
X139705329Y-114921848D01*
X139669591Y-114951178D01*
X139513066Y-115034843D01*
X139343227Y-115086363D01*
X139277043Y-115092881D01*
X139210860Y-115099400D01*
X139122340Y-115099400D01*
X139056157Y-115092881D01*
X138989973Y-115086363D01*
X138820134Y-115034843D01*
X138663609Y-114951178D01*
X138627871Y-114921848D01*
X138526414Y-114838586D01*
X138443152Y-114737129D01*
X138413822Y-114701391D01*
X138330157Y-114544866D01*
X138278637Y-114375027D01*
X138261241Y-114198400D01*
X138278637Y-114021773D01*
X138330157Y-113851934D01*
X138413822Y-113695409D01*
X138443152Y-113659671D01*
X138526414Y-113558214D01*
X138627871Y-113474952D01*
X138663609Y-113445622D01*
X138820134Y-113361957D01*
X138989973Y-113310437D01*
X139056157Y-113303919D01*
X139122340Y-113297400D01*
X139210860Y-113297400D01*
X139277043Y-113303919D01*
X139277043Y-113303919D01*
G37*
G36*
X132447600Y-115099400D02*
G01*
X130645600Y-115099400D01*
X130645600Y-113297400D01*
X132447600Y-113297400D01*
X132447600Y-115099400D01*
X132447600Y-115099400D01*
G37*
G36*
X136737043Y-113303919D02*
G01*
X136803227Y-113310437D01*
X136973066Y-113361957D01*
X137129591Y-113445622D01*
X137165329Y-113474952D01*
X137266786Y-113558214D01*
X137350048Y-113659671D01*
X137379378Y-113695409D01*
X137463043Y-113851934D01*
X137514563Y-114021773D01*
X137531959Y-114198400D01*
X137514563Y-114375027D01*
X137463043Y-114544866D01*
X137379378Y-114701391D01*
X137350048Y-114737129D01*
X137266786Y-114838586D01*
X137165329Y-114921848D01*
X137129591Y-114951178D01*
X136973066Y-115034843D01*
X136803227Y-115086363D01*
X136737043Y-115092881D01*
X136670860Y-115099400D01*
X136582340Y-115099400D01*
X136516157Y-115092881D01*
X136449973Y-115086363D01*
X136280134Y-115034843D01*
X136123609Y-114951178D01*
X136087871Y-114921848D01*
X135986414Y-114838586D01*
X135903152Y-114737129D01*
X135873822Y-114701391D01*
X135790157Y-114544866D01*
X135738637Y-114375027D01*
X135721241Y-114198400D01*
X135738637Y-114021773D01*
X135790157Y-113851934D01*
X135873822Y-113695409D01*
X135903152Y-113659671D01*
X135986414Y-113558214D01*
X136087871Y-113474952D01*
X136123609Y-113445622D01*
X136280134Y-113361957D01*
X136449973Y-113310437D01*
X136516157Y-113303919D01*
X136582340Y-113297400D01*
X136670860Y-113297400D01*
X136737043Y-113303919D01*
X136737043Y-113303919D01*
G37*
G36*
X134197043Y-113303919D02*
G01*
X134263227Y-113310437D01*
X134433066Y-113361957D01*
X134589591Y-113445622D01*
X134625329Y-113474952D01*
X134726786Y-113558214D01*
X134810048Y-113659671D01*
X134839378Y-113695409D01*
X134923043Y-113851934D01*
X134974563Y-114021773D01*
X134991959Y-114198400D01*
X134974563Y-114375027D01*
X134923043Y-114544866D01*
X134839378Y-114701391D01*
X134810048Y-114737129D01*
X134726786Y-114838586D01*
X134625329Y-114921848D01*
X134589591Y-114951178D01*
X134433066Y-115034843D01*
X134263227Y-115086363D01*
X134197043Y-115092881D01*
X134130860Y-115099400D01*
X134042340Y-115099400D01*
X133976157Y-115092881D01*
X133909973Y-115086363D01*
X133740134Y-115034843D01*
X133583609Y-114951178D01*
X133547871Y-114921848D01*
X133446414Y-114838586D01*
X133363152Y-114737129D01*
X133333822Y-114701391D01*
X133250157Y-114544866D01*
X133198637Y-114375027D01*
X133181241Y-114198400D01*
X133198637Y-114021773D01*
X133250157Y-113851934D01*
X133333822Y-113695409D01*
X133363152Y-113659671D01*
X133446414Y-113558214D01*
X133547871Y-113474952D01*
X133583609Y-113445622D01*
X133740134Y-113361957D01*
X133909973Y-113310437D01*
X133976157Y-113303919D01*
X134042340Y-113297400D01*
X134130860Y-113297400D01*
X134197043Y-113303919D01*
X134197043Y-113303919D01*
G37*
G36*
X111750000Y-113679000D02*
G01*
X110718000Y-113679000D01*
X110718000Y-112677000D01*
X111750000Y-112677000D01*
X111750000Y-113679000D01*
X111750000Y-113679000D01*
G37*
G36*
X167382699Y-112127445D02*
G01*
X167420195Y-112138820D01*
X167454754Y-112157292D01*
X167485047Y-112182153D01*
X167509908Y-112212446D01*
X167528380Y-112247005D01*
X167539755Y-112284501D01*
X167544200Y-112329638D01*
X167544200Y-112968362D01*
X167539755Y-113013499D01*
X167528380Y-113050995D01*
X167509908Y-113085554D01*
X167485047Y-113115847D01*
X167454754Y-113140708D01*
X167420195Y-113159180D01*
X167382699Y-113170555D01*
X167337562Y-113175000D01*
X166598838Y-113175000D01*
X166553701Y-113170555D01*
X166516205Y-113159180D01*
X166481646Y-113140708D01*
X166451353Y-113115847D01*
X166426492Y-113085554D01*
X166408020Y-113050995D01*
X166396645Y-113013499D01*
X166392200Y-112968362D01*
X166392200Y-112329638D01*
X166396645Y-112284501D01*
X166408020Y-112247005D01*
X166426492Y-112212446D01*
X166451353Y-112182153D01*
X166481646Y-112157292D01*
X166516205Y-112138820D01*
X166553701Y-112127445D01*
X166598838Y-112123000D01*
X167337562Y-112123000D01*
X167382699Y-112127445D01*
X167382699Y-112127445D01*
G37*
G36*
X169132699Y-112127445D02*
G01*
X169170195Y-112138820D01*
X169204754Y-112157292D01*
X169235047Y-112182153D01*
X169259908Y-112212446D01*
X169278380Y-112247005D01*
X169289755Y-112284501D01*
X169294200Y-112329638D01*
X169294200Y-112968362D01*
X169289755Y-113013499D01*
X169278380Y-113050995D01*
X169259908Y-113085554D01*
X169235047Y-113115847D01*
X169204754Y-113140708D01*
X169170195Y-113159180D01*
X169132699Y-113170555D01*
X169087562Y-113175000D01*
X168348838Y-113175000D01*
X168303701Y-113170555D01*
X168266205Y-113159180D01*
X168231646Y-113140708D01*
X168201353Y-113115847D01*
X168176492Y-113085554D01*
X168158020Y-113050995D01*
X168146645Y-113013499D01*
X168142200Y-112968362D01*
X168142200Y-112329638D01*
X168146645Y-112284501D01*
X168158020Y-112247005D01*
X168176492Y-112212446D01*
X168201353Y-112182153D01*
X168231646Y-112157292D01*
X168266205Y-112138820D01*
X168303701Y-112127445D01*
X168348838Y-112123000D01*
X169087562Y-112123000D01*
X169132699Y-112127445D01*
X169132699Y-112127445D01*
G37*
G36*
X99750000Y-111709000D02*
G01*
X97818000Y-111709000D01*
X97818000Y-110467000D01*
X99750000Y-110467000D01*
X99750000Y-111709000D01*
X99750000Y-111709000D01*
G37*
G36*
X111750000Y-111269000D02*
G01*
X108318000Y-111269000D01*
X108318000Y-110467000D01*
X111750000Y-110467000D01*
X111750000Y-111269000D01*
X111750000Y-111269000D01*
G37*
G36*
X165034499Y-109968445D02*
G01*
X165071995Y-109979820D01*
X165106554Y-109998292D01*
X165136847Y-110023153D01*
X165161708Y-110053446D01*
X165180180Y-110088005D01*
X165191555Y-110125501D01*
X165196000Y-110170638D01*
X165196000Y-110809362D01*
X165191555Y-110854499D01*
X165180180Y-110891995D01*
X165161708Y-110926554D01*
X165136847Y-110956847D01*
X165106554Y-110981708D01*
X165071995Y-111000180D01*
X165034499Y-111011555D01*
X164989362Y-111016000D01*
X164250638Y-111016000D01*
X164205501Y-111011555D01*
X164168005Y-111000180D01*
X164133446Y-110981708D01*
X164103153Y-110956847D01*
X164078292Y-110926554D01*
X164059820Y-110891995D01*
X164048445Y-110854499D01*
X164044000Y-110809362D01*
X164044000Y-110170638D01*
X164048445Y-110125501D01*
X164059820Y-110088005D01*
X164078292Y-110053446D01*
X164103153Y-110023153D01*
X164133446Y-109998292D01*
X164168005Y-109979820D01*
X164205501Y-109968445D01*
X164250638Y-109964000D01*
X164989362Y-109964000D01*
X165034499Y-109968445D01*
X165034499Y-109968445D01*
G37*
G36*
X166784499Y-109968445D02*
G01*
X166821995Y-109979820D01*
X166856554Y-109998292D01*
X166886847Y-110023153D01*
X166911708Y-110053446D01*
X166930180Y-110088005D01*
X166941555Y-110125501D01*
X166946000Y-110170638D01*
X166946000Y-110809362D01*
X166941555Y-110854499D01*
X166930180Y-110891995D01*
X166911708Y-110926554D01*
X166886847Y-110956847D01*
X166856554Y-110981708D01*
X166821995Y-111000180D01*
X166784499Y-111011555D01*
X166739362Y-111016000D01*
X166000638Y-111016000D01*
X165955501Y-111011555D01*
X165918005Y-111000180D01*
X165883446Y-110981708D01*
X165853153Y-110956847D01*
X165828292Y-110926554D01*
X165809820Y-110891995D01*
X165798445Y-110854499D01*
X165794000Y-110809362D01*
X165794000Y-110170638D01*
X165798445Y-110125501D01*
X165809820Y-110088005D01*
X165828292Y-110053446D01*
X165853153Y-110023153D01*
X165883446Y-109998292D01*
X165918005Y-109979820D01*
X165955501Y-109968445D01*
X166000638Y-109964000D01*
X166739362Y-109964000D01*
X166784499Y-109968445D01*
X166784499Y-109968445D01*
G37*
G36*
X169132699Y-100773645D02*
G01*
X169170195Y-100785020D01*
X169204754Y-100803492D01*
X169235047Y-100828353D01*
X169259908Y-100858646D01*
X169278380Y-100893205D01*
X169289755Y-100930701D01*
X169294200Y-100975838D01*
X169294200Y-101614562D01*
X169289755Y-101659699D01*
X169278380Y-101697195D01*
X169259908Y-101731754D01*
X169235047Y-101762047D01*
X169204754Y-101786908D01*
X169170195Y-101805380D01*
X169132699Y-101816755D01*
X169087562Y-101821200D01*
X168348838Y-101821200D01*
X168303701Y-101816755D01*
X168266205Y-101805380D01*
X168231646Y-101786908D01*
X168201353Y-101762047D01*
X168176492Y-101731754D01*
X168158020Y-101697195D01*
X168146645Y-101659699D01*
X168142200Y-101614562D01*
X168142200Y-100975838D01*
X168146645Y-100930701D01*
X168158020Y-100893205D01*
X168176492Y-100858646D01*
X168201353Y-100828353D01*
X168231646Y-100803492D01*
X168266205Y-100785020D01*
X168303701Y-100773645D01*
X168348838Y-100769200D01*
X169087562Y-100769200D01*
X169132699Y-100773645D01*
X169132699Y-100773645D01*
G37*
G36*
X167382699Y-100773645D02*
G01*
X167420195Y-100785020D01*
X167454754Y-100803492D01*
X167485047Y-100828353D01*
X167509908Y-100858646D01*
X167528380Y-100893205D01*
X167539755Y-100930701D01*
X167544200Y-100975838D01*
X167544200Y-101614562D01*
X167539755Y-101659699D01*
X167528380Y-101697195D01*
X167509908Y-101731754D01*
X167485047Y-101762047D01*
X167454754Y-101786908D01*
X167420195Y-101805380D01*
X167382699Y-101816755D01*
X167337562Y-101821200D01*
X166598838Y-101821200D01*
X166553701Y-101816755D01*
X166516205Y-101805380D01*
X166481646Y-101786908D01*
X166451353Y-101762047D01*
X166426492Y-101731754D01*
X166408020Y-101697195D01*
X166396645Y-101659699D01*
X166392200Y-101614562D01*
X166392200Y-100975838D01*
X166396645Y-100930701D01*
X166408020Y-100893205D01*
X166426492Y-100858646D01*
X166451353Y-100828353D01*
X166481646Y-100803492D01*
X166516205Y-100785020D01*
X166553701Y-100773645D01*
X166598838Y-100769200D01*
X167337562Y-100769200D01*
X167382699Y-100773645D01*
X167382699Y-100773645D01*
G37*
G36*
X165553899Y-98886787D02*
G01*
X165591395Y-98898162D01*
X165625954Y-98916634D01*
X165656247Y-98941495D01*
X165681108Y-98971788D01*
X165699580Y-99006347D01*
X165710955Y-99043843D01*
X165715400Y-99088980D01*
X165715400Y-99727704D01*
X165710955Y-99772841D01*
X165699580Y-99810337D01*
X165681108Y-99844896D01*
X165656247Y-99875189D01*
X165625954Y-99900050D01*
X165591395Y-99918522D01*
X165553899Y-99929897D01*
X165508762Y-99934342D01*
X164770038Y-99934342D01*
X164724901Y-99929897D01*
X164687405Y-99918522D01*
X164652846Y-99900050D01*
X164622553Y-99875189D01*
X164597692Y-99844896D01*
X164579220Y-99810337D01*
X164567845Y-99772841D01*
X164563400Y-99727704D01*
X164563400Y-99088980D01*
X164567845Y-99043843D01*
X164579220Y-99006347D01*
X164597692Y-98971788D01*
X164622553Y-98941495D01*
X164652846Y-98916634D01*
X164687405Y-98898162D01*
X164724901Y-98886787D01*
X164770038Y-98882342D01*
X165508762Y-98882342D01*
X165553899Y-98886787D01*
X165553899Y-98886787D01*
G37*
G36*
X167303899Y-98886787D02*
G01*
X167341395Y-98898162D01*
X167375954Y-98916634D01*
X167406247Y-98941495D01*
X167431108Y-98971788D01*
X167449580Y-99006347D01*
X167460955Y-99043843D01*
X167465400Y-99088980D01*
X167465400Y-99727704D01*
X167460955Y-99772841D01*
X167449580Y-99810337D01*
X167431108Y-99844896D01*
X167406247Y-99875189D01*
X167375954Y-99900050D01*
X167341395Y-99918522D01*
X167303899Y-99929897D01*
X167258762Y-99934342D01*
X166520038Y-99934342D01*
X166474901Y-99929897D01*
X166437405Y-99918522D01*
X166402846Y-99900050D01*
X166372553Y-99875189D01*
X166347692Y-99844896D01*
X166329220Y-99810337D01*
X166317845Y-99772841D01*
X166313400Y-99727704D01*
X166313400Y-99088980D01*
X166317845Y-99043843D01*
X166329220Y-99006347D01*
X166347692Y-98971788D01*
X166372553Y-98941495D01*
X166402846Y-98916634D01*
X166437405Y-98898162D01*
X166474901Y-98886787D01*
X166520038Y-98882342D01*
X167258762Y-98882342D01*
X167303899Y-98886787D01*
X167303899Y-98886787D01*
G37*
G36*
X169132699Y-89394445D02*
G01*
X169170195Y-89405820D01*
X169204754Y-89424292D01*
X169235047Y-89449153D01*
X169259908Y-89479446D01*
X169278380Y-89514005D01*
X169289755Y-89551501D01*
X169294200Y-89596638D01*
X169294200Y-90235362D01*
X169289755Y-90280499D01*
X169278380Y-90317995D01*
X169259908Y-90352554D01*
X169235047Y-90382847D01*
X169204754Y-90407708D01*
X169170195Y-90426180D01*
X169132699Y-90437555D01*
X169087562Y-90442000D01*
X168348838Y-90442000D01*
X168303701Y-90437555D01*
X168266205Y-90426180D01*
X168231646Y-90407708D01*
X168201353Y-90382847D01*
X168176492Y-90352554D01*
X168158020Y-90317995D01*
X168146645Y-90280499D01*
X168142200Y-90235362D01*
X168142200Y-89596638D01*
X168146645Y-89551501D01*
X168158020Y-89514005D01*
X168176492Y-89479446D01*
X168201353Y-89449153D01*
X168231646Y-89424292D01*
X168266205Y-89405820D01*
X168303701Y-89394445D01*
X168348838Y-89390000D01*
X169087562Y-89390000D01*
X169132699Y-89394445D01*
X169132699Y-89394445D01*
G37*
G36*
X167382699Y-89394445D02*
G01*
X167420195Y-89405820D01*
X167454754Y-89424292D01*
X167485047Y-89449153D01*
X167509908Y-89479446D01*
X167528380Y-89514005D01*
X167539755Y-89551501D01*
X167544200Y-89596638D01*
X167544200Y-90235362D01*
X167539755Y-90280499D01*
X167528380Y-90317995D01*
X167509908Y-90352554D01*
X167485047Y-90382847D01*
X167454754Y-90407708D01*
X167420195Y-90426180D01*
X167382699Y-90437555D01*
X167337562Y-90442000D01*
X166598838Y-90442000D01*
X166553701Y-90437555D01*
X166516205Y-90426180D01*
X166481646Y-90407708D01*
X166451353Y-90382847D01*
X166426492Y-90352554D01*
X166408020Y-90317995D01*
X166396645Y-90280499D01*
X166392200Y-90235362D01*
X166392200Y-89596638D01*
X166396645Y-89551501D01*
X166408020Y-89514005D01*
X166426492Y-89479446D01*
X166451353Y-89449153D01*
X166481646Y-89424292D01*
X166516205Y-89405820D01*
X166553701Y-89394445D01*
X166598838Y-89390000D01*
X167337562Y-89390000D01*
X167382699Y-89394445D01*
X167382699Y-89394445D01*
G37*
G36*
X167100699Y-87493073D02*
G01*
X167138195Y-87504448D01*
X167172754Y-87522920D01*
X167203047Y-87547781D01*
X167227908Y-87578074D01*
X167246380Y-87612633D01*
X167257755Y-87650129D01*
X167262200Y-87695266D01*
X167262200Y-88333990D01*
X167257755Y-88379127D01*
X167246380Y-88416623D01*
X167227908Y-88451182D01*
X167203047Y-88481475D01*
X167172754Y-88506336D01*
X167138195Y-88524808D01*
X167100699Y-88536183D01*
X167055562Y-88540628D01*
X166316838Y-88540628D01*
X166271701Y-88536183D01*
X166234205Y-88524808D01*
X166199646Y-88506336D01*
X166169353Y-88481475D01*
X166144492Y-88451182D01*
X166126020Y-88416623D01*
X166114645Y-88379127D01*
X166110200Y-88333990D01*
X166110200Y-87695266D01*
X166114645Y-87650129D01*
X166126020Y-87612633D01*
X166144492Y-87578074D01*
X166169353Y-87547781D01*
X166199646Y-87522920D01*
X166234205Y-87504448D01*
X166271701Y-87493073D01*
X166316838Y-87488628D01*
X167055562Y-87488628D01*
X167100699Y-87493073D01*
X167100699Y-87493073D01*
G37*
G36*
X165350699Y-87493073D02*
G01*
X165388195Y-87504448D01*
X165422754Y-87522920D01*
X165453047Y-87547781D01*
X165477908Y-87578074D01*
X165496380Y-87612633D01*
X165507755Y-87650129D01*
X165512200Y-87695266D01*
X165512200Y-88333990D01*
X165507755Y-88379127D01*
X165496380Y-88416623D01*
X165477908Y-88451182D01*
X165453047Y-88481475D01*
X165422754Y-88506336D01*
X165388195Y-88524808D01*
X165350699Y-88536183D01*
X165305562Y-88540628D01*
X164566838Y-88540628D01*
X164521701Y-88536183D01*
X164484205Y-88524808D01*
X164449646Y-88506336D01*
X164419353Y-88481475D01*
X164394492Y-88451182D01*
X164376020Y-88416623D01*
X164364645Y-88379127D01*
X164360200Y-88333990D01*
X164360200Y-87695266D01*
X164364645Y-87650129D01*
X164376020Y-87612633D01*
X164394492Y-87578074D01*
X164419353Y-87547781D01*
X164449646Y-87522920D01*
X164484205Y-87504448D01*
X164521701Y-87493073D01*
X164566838Y-87488628D01*
X165305562Y-87488628D01*
X165350699Y-87493073D01*
X165350699Y-87493073D01*
G37*
G36*
X169132699Y-78167645D02*
G01*
X169170195Y-78179020D01*
X169204754Y-78197492D01*
X169235047Y-78222353D01*
X169259908Y-78252646D01*
X169278380Y-78287205D01*
X169289755Y-78324701D01*
X169294200Y-78369838D01*
X169294200Y-79008562D01*
X169289755Y-79053699D01*
X169278380Y-79091195D01*
X169259908Y-79125754D01*
X169235047Y-79156047D01*
X169204754Y-79180908D01*
X169170195Y-79199380D01*
X169132699Y-79210755D01*
X169087562Y-79215200D01*
X168348838Y-79215200D01*
X168303701Y-79210755D01*
X168266205Y-79199380D01*
X168231646Y-79180908D01*
X168201353Y-79156047D01*
X168176492Y-79125754D01*
X168158020Y-79091195D01*
X168146645Y-79053699D01*
X168142200Y-79008562D01*
X168142200Y-78369838D01*
X168146645Y-78324701D01*
X168158020Y-78287205D01*
X168176492Y-78252646D01*
X168201353Y-78222353D01*
X168231646Y-78197492D01*
X168266205Y-78179020D01*
X168303701Y-78167645D01*
X168348838Y-78163200D01*
X169087562Y-78163200D01*
X169132699Y-78167645D01*
X169132699Y-78167645D01*
G37*
G36*
X167382699Y-78167645D02*
G01*
X167420195Y-78179020D01*
X167454754Y-78197492D01*
X167485047Y-78222353D01*
X167509908Y-78252646D01*
X167528380Y-78287205D01*
X167539755Y-78324701D01*
X167544200Y-78369838D01*
X167544200Y-79008562D01*
X167539755Y-79053699D01*
X167528380Y-79091195D01*
X167509908Y-79125754D01*
X167485047Y-79156047D01*
X167454754Y-79180908D01*
X167420195Y-79199380D01*
X167382699Y-79210755D01*
X167337562Y-79215200D01*
X166598838Y-79215200D01*
X166553701Y-79210755D01*
X166516205Y-79199380D01*
X166481646Y-79180908D01*
X166451353Y-79156047D01*
X166426492Y-79125754D01*
X166408020Y-79091195D01*
X166396645Y-79053699D01*
X166392200Y-79008562D01*
X166392200Y-78369838D01*
X166396645Y-78324701D01*
X166408020Y-78287205D01*
X166426492Y-78252646D01*
X166451353Y-78222353D01*
X166481646Y-78197492D01*
X166516205Y-78179020D01*
X166553701Y-78167645D01*
X166598838Y-78163200D01*
X167337562Y-78163200D01*
X167382699Y-78167645D01*
X167382699Y-78167645D01*
G37*
G36*
X165553899Y-76099359D02*
G01*
X165591395Y-76110734D01*
X165625954Y-76129206D01*
X165656247Y-76154067D01*
X165681108Y-76184360D01*
X165699580Y-76218919D01*
X165710955Y-76256415D01*
X165715400Y-76301552D01*
X165715400Y-76940276D01*
X165710955Y-76985413D01*
X165699580Y-77022909D01*
X165681108Y-77057468D01*
X165656247Y-77087761D01*
X165625954Y-77112622D01*
X165591395Y-77131094D01*
X165553899Y-77142469D01*
X165508762Y-77146914D01*
X164770038Y-77146914D01*
X164724901Y-77142469D01*
X164687405Y-77131094D01*
X164652846Y-77112622D01*
X164622553Y-77087761D01*
X164597692Y-77057468D01*
X164579220Y-77022909D01*
X164567845Y-76985413D01*
X164563400Y-76940276D01*
X164563400Y-76301552D01*
X164567845Y-76256415D01*
X164579220Y-76218919D01*
X164597692Y-76184360D01*
X164622553Y-76154067D01*
X164652846Y-76129206D01*
X164687405Y-76110734D01*
X164724901Y-76099359D01*
X164770038Y-76094914D01*
X165508762Y-76094914D01*
X165553899Y-76099359D01*
X165553899Y-76099359D01*
G37*
G36*
X167303899Y-76099359D02*
G01*
X167341395Y-76110734D01*
X167375954Y-76129206D01*
X167406247Y-76154067D01*
X167431108Y-76184360D01*
X167449580Y-76218919D01*
X167460955Y-76256415D01*
X167465400Y-76301552D01*
X167465400Y-76940276D01*
X167460955Y-76985413D01*
X167449580Y-77022909D01*
X167431108Y-77057468D01*
X167406247Y-77087761D01*
X167375954Y-77112622D01*
X167341395Y-77131094D01*
X167303899Y-77142469D01*
X167258762Y-77146914D01*
X166520038Y-77146914D01*
X166474901Y-77142469D01*
X166437405Y-77131094D01*
X166402846Y-77112622D01*
X166372553Y-77087761D01*
X166347692Y-77057468D01*
X166329220Y-77022909D01*
X166317845Y-76985413D01*
X166313400Y-76940276D01*
X166313400Y-76301552D01*
X166317845Y-76256415D01*
X166329220Y-76218919D01*
X166347692Y-76184360D01*
X166372553Y-76154067D01*
X166402846Y-76129206D01*
X166437405Y-76110734D01*
X166474901Y-76099359D01*
X166520038Y-76094914D01*
X167258762Y-76094914D01*
X167303899Y-76099359D01*
X167303899Y-76099359D01*
G37*
G36*
X123986299Y-71982245D02*
G01*
X124023795Y-71993620D01*
X124058354Y-72012092D01*
X124088647Y-72036953D01*
X124113508Y-72067246D01*
X124131980Y-72101805D01*
X124143355Y-72139301D01*
X124147800Y-72184438D01*
X124147800Y-72923162D01*
X124143355Y-72968299D01*
X124131980Y-73005795D01*
X124113508Y-73040354D01*
X124088647Y-73070647D01*
X124058354Y-73095508D01*
X124023795Y-73113980D01*
X123986299Y-73125355D01*
X123941162Y-73129800D01*
X123302438Y-73129800D01*
X123257301Y-73125355D01*
X123219805Y-73113980D01*
X123185246Y-73095508D01*
X123154953Y-73070647D01*
X123130092Y-73040354D01*
X123111620Y-73005795D01*
X123100245Y-72968299D01*
X123095800Y-72923162D01*
X123095800Y-72184438D01*
X123100245Y-72139301D01*
X123111620Y-72101805D01*
X123130092Y-72067246D01*
X123154953Y-72036953D01*
X123185246Y-72012092D01*
X123219805Y-71993620D01*
X123257301Y-71982245D01*
X123302438Y-71977800D01*
X123941162Y-71977800D01*
X123986299Y-71982245D01*
X123986299Y-71982245D01*
G37*
G36*
X144143009Y-71893345D02*
G01*
X144180505Y-71904720D01*
X144215064Y-71923192D01*
X144245357Y-71948053D01*
X144270218Y-71978346D01*
X144288690Y-72012905D01*
X144300065Y-72050401D01*
X144304510Y-72095538D01*
X144304510Y-72834262D01*
X144300065Y-72879399D01*
X144288690Y-72916895D01*
X144270218Y-72951454D01*
X144245357Y-72981747D01*
X144215064Y-73006608D01*
X144180505Y-73025080D01*
X144143009Y-73036455D01*
X144097872Y-73040900D01*
X143459148Y-73040900D01*
X143414011Y-73036455D01*
X143376515Y-73025080D01*
X143341956Y-73006608D01*
X143311663Y-72981747D01*
X143286802Y-72951454D01*
X143268330Y-72916895D01*
X143256955Y-72879399D01*
X143252510Y-72834262D01*
X143252510Y-72095538D01*
X143256955Y-72050401D01*
X143268330Y-72012905D01*
X143286802Y-71978346D01*
X143311663Y-71948053D01*
X143341956Y-71923192D01*
X143376515Y-71904720D01*
X143414011Y-71893345D01*
X143459148Y-71888900D01*
X144097872Y-71888900D01*
X144143009Y-71893345D01*
X144143009Y-71893345D01*
G37*
G36*
X141521367Y-71893345D02*
G01*
X141558863Y-71904720D01*
X141593422Y-71923192D01*
X141623715Y-71948053D01*
X141648576Y-71978346D01*
X141667048Y-72012905D01*
X141678423Y-72050401D01*
X141682868Y-72095538D01*
X141682868Y-72834262D01*
X141678423Y-72879399D01*
X141667048Y-72916895D01*
X141648576Y-72951454D01*
X141623715Y-72981747D01*
X141593422Y-73006608D01*
X141558863Y-73025080D01*
X141521367Y-73036455D01*
X141476230Y-73040900D01*
X140837506Y-73040900D01*
X140792369Y-73036455D01*
X140754873Y-73025080D01*
X140720314Y-73006608D01*
X140690021Y-72981747D01*
X140665160Y-72951454D01*
X140646688Y-72916895D01*
X140635313Y-72879399D01*
X140630868Y-72834262D01*
X140630868Y-72095538D01*
X140635313Y-72050401D01*
X140646688Y-72012905D01*
X140665160Y-71978346D01*
X140690021Y-71948053D01*
X140720314Y-71923192D01*
X140754873Y-71904720D01*
X140792369Y-71893345D01*
X140837506Y-71888900D01*
X141476230Y-71888900D01*
X141521367Y-71893345D01*
X141521367Y-71893345D01*
G37*
G36*
X131034799Y-71893345D02*
G01*
X131072295Y-71904720D01*
X131106854Y-71923192D01*
X131137147Y-71948053D01*
X131162008Y-71978346D01*
X131180480Y-72012905D01*
X131191855Y-72050401D01*
X131196300Y-72095538D01*
X131196300Y-72834262D01*
X131191855Y-72879399D01*
X131180480Y-72916895D01*
X131162008Y-72951454D01*
X131137147Y-72981747D01*
X131106854Y-73006608D01*
X131072295Y-73025080D01*
X131034799Y-73036455D01*
X130989662Y-73040900D01*
X130350938Y-73040900D01*
X130305801Y-73036455D01*
X130268305Y-73025080D01*
X130233746Y-73006608D01*
X130203453Y-72981747D01*
X130178592Y-72951454D01*
X130160120Y-72916895D01*
X130148745Y-72879399D01*
X130144300Y-72834262D01*
X130144300Y-72095538D01*
X130148745Y-72050401D01*
X130160120Y-72012905D01*
X130178592Y-71978346D01*
X130203453Y-71948053D01*
X130233746Y-71923192D01*
X130268305Y-71904720D01*
X130305801Y-71893345D01*
X130350938Y-71888900D01*
X130989662Y-71888900D01*
X131034799Y-71893345D01*
X131034799Y-71893345D01*
G37*
G36*
X146764651Y-71893345D02*
G01*
X146802147Y-71904720D01*
X146836706Y-71923192D01*
X146866999Y-71948053D01*
X146891860Y-71978346D01*
X146910332Y-72012905D01*
X146921707Y-72050401D01*
X146926152Y-72095538D01*
X146926152Y-72834262D01*
X146921707Y-72879399D01*
X146910332Y-72916895D01*
X146891860Y-72951454D01*
X146866999Y-72981747D01*
X146836706Y-73006608D01*
X146802147Y-73025080D01*
X146764651Y-73036455D01*
X146719514Y-73040900D01*
X146080790Y-73040900D01*
X146035653Y-73036455D01*
X145998157Y-73025080D01*
X145963598Y-73006608D01*
X145933305Y-72981747D01*
X145908444Y-72951454D01*
X145889972Y-72916895D01*
X145878597Y-72879399D01*
X145874152Y-72834262D01*
X145874152Y-72095538D01*
X145878597Y-72050401D01*
X145889972Y-72012905D01*
X145908444Y-71978346D01*
X145933305Y-71948053D01*
X145963598Y-71923192D01*
X145998157Y-71904720D01*
X146035653Y-71893345D01*
X146080790Y-71888900D01*
X146719514Y-71888900D01*
X146764651Y-71893345D01*
X146764651Y-71893345D01*
G37*
G36*
X133656441Y-71893345D02*
G01*
X133693937Y-71904720D01*
X133728496Y-71923192D01*
X133758789Y-71948053D01*
X133783650Y-71978346D01*
X133802122Y-72012905D01*
X133813497Y-72050401D01*
X133817942Y-72095538D01*
X133817942Y-72834262D01*
X133813497Y-72879399D01*
X133802122Y-72916895D01*
X133783650Y-72951454D01*
X133758789Y-72981747D01*
X133728496Y-73006608D01*
X133693937Y-73025080D01*
X133656441Y-73036455D01*
X133611304Y-73040900D01*
X132972580Y-73040900D01*
X132927443Y-73036455D01*
X132889947Y-73025080D01*
X132855388Y-73006608D01*
X132825095Y-72981747D01*
X132800234Y-72951454D01*
X132781762Y-72916895D01*
X132770387Y-72879399D01*
X132765942Y-72834262D01*
X132765942Y-72095538D01*
X132770387Y-72050401D01*
X132781762Y-72012905D01*
X132800234Y-71978346D01*
X132825095Y-71948053D01*
X132855388Y-71923192D01*
X132889947Y-71904720D01*
X132927443Y-71893345D01*
X132972580Y-71888900D01*
X133611304Y-71888900D01*
X133656441Y-71893345D01*
X133656441Y-71893345D01*
G37*
G36*
X138899725Y-71893345D02*
G01*
X138937221Y-71904720D01*
X138971780Y-71923192D01*
X139002073Y-71948053D01*
X139026934Y-71978346D01*
X139045406Y-72012905D01*
X139056781Y-72050401D01*
X139061226Y-72095538D01*
X139061226Y-72834262D01*
X139056781Y-72879399D01*
X139045406Y-72916895D01*
X139026934Y-72951454D01*
X139002073Y-72981747D01*
X138971780Y-73006608D01*
X138937221Y-73025080D01*
X138899725Y-73036455D01*
X138854588Y-73040900D01*
X138215864Y-73040900D01*
X138170727Y-73036455D01*
X138133231Y-73025080D01*
X138098672Y-73006608D01*
X138068379Y-72981747D01*
X138043518Y-72951454D01*
X138025046Y-72916895D01*
X138013671Y-72879399D01*
X138009226Y-72834262D01*
X138009226Y-72095538D01*
X138013671Y-72050401D01*
X138025046Y-72012905D01*
X138043518Y-71978346D01*
X138068379Y-71948053D01*
X138098672Y-71923192D01*
X138133231Y-71904720D01*
X138170727Y-71893345D01*
X138215864Y-71888900D01*
X138854588Y-71888900D01*
X138899725Y-71893345D01*
X138899725Y-71893345D01*
G37*
G36*
X149386299Y-71893345D02*
G01*
X149423795Y-71904720D01*
X149458354Y-71923192D01*
X149488647Y-71948053D01*
X149513508Y-71978346D01*
X149531980Y-72012905D01*
X149543355Y-72050401D01*
X149547800Y-72095538D01*
X149547800Y-72834262D01*
X149543355Y-72879399D01*
X149531980Y-72916895D01*
X149513508Y-72951454D01*
X149488647Y-72981747D01*
X149458354Y-73006608D01*
X149423795Y-73025080D01*
X149386299Y-73036455D01*
X149341162Y-73040900D01*
X148702438Y-73040900D01*
X148657301Y-73036455D01*
X148619805Y-73025080D01*
X148585246Y-73006608D01*
X148554953Y-72981747D01*
X148530092Y-72951454D01*
X148511620Y-72916895D01*
X148500245Y-72879399D01*
X148495800Y-72834262D01*
X148495800Y-72095538D01*
X148500245Y-72050401D01*
X148511620Y-72012905D01*
X148530092Y-71978346D01*
X148554953Y-71948053D01*
X148585246Y-71923192D01*
X148619805Y-71904720D01*
X148657301Y-71893345D01*
X148702438Y-71888900D01*
X149341162Y-71888900D01*
X149386299Y-71893345D01*
X149386299Y-71893345D01*
G37*
G36*
X136278083Y-71893345D02*
G01*
X136315579Y-71904720D01*
X136350138Y-71923192D01*
X136380431Y-71948053D01*
X136405292Y-71978346D01*
X136423764Y-72012905D01*
X136435139Y-72050401D01*
X136439584Y-72095538D01*
X136439584Y-72834262D01*
X136435139Y-72879399D01*
X136423764Y-72916895D01*
X136405292Y-72951454D01*
X136380431Y-72981747D01*
X136350138Y-73006608D01*
X136315579Y-73025080D01*
X136278083Y-73036455D01*
X136232946Y-73040900D01*
X135594222Y-73040900D01*
X135549085Y-73036455D01*
X135511589Y-73025080D01*
X135477030Y-73006608D01*
X135446737Y-72981747D01*
X135421876Y-72951454D01*
X135403404Y-72916895D01*
X135392029Y-72879399D01*
X135387584Y-72834262D01*
X135387584Y-72095538D01*
X135392029Y-72050401D01*
X135403404Y-72012905D01*
X135421876Y-71978346D01*
X135446737Y-71948053D01*
X135477030Y-71923192D01*
X135511589Y-71904720D01*
X135549085Y-71893345D01*
X135594222Y-71888900D01*
X136232946Y-71888900D01*
X136278083Y-71893345D01*
X136278083Y-71893345D01*
G37*
G36*
X127923299Y-71880645D02*
G01*
X127960795Y-71892020D01*
X127995354Y-71910492D01*
X128025647Y-71935353D01*
X128050508Y-71965646D01*
X128068980Y-72000205D01*
X128080355Y-72037701D01*
X128084800Y-72082838D01*
X128084800Y-72821562D01*
X128080355Y-72866699D01*
X128068980Y-72904195D01*
X128050508Y-72938754D01*
X128025647Y-72969047D01*
X127995354Y-72993908D01*
X127960795Y-73012380D01*
X127923299Y-73023755D01*
X127878162Y-73028200D01*
X127239438Y-73028200D01*
X127194301Y-73023755D01*
X127156805Y-73012380D01*
X127122246Y-72993908D01*
X127091953Y-72969047D01*
X127067092Y-72938754D01*
X127048620Y-72904195D01*
X127037245Y-72866699D01*
X127032800Y-72821562D01*
X127032800Y-72082838D01*
X127037245Y-72037701D01*
X127048620Y-72000205D01*
X127067092Y-71965646D01*
X127091953Y-71935353D01*
X127122246Y-71910492D01*
X127156805Y-71892020D01*
X127194301Y-71880645D01*
X127239438Y-71876200D01*
X127878162Y-71876200D01*
X127923299Y-71880645D01*
X127923299Y-71880645D01*
G37*
G36*
X123986299Y-70232245D02*
G01*
X124023795Y-70243620D01*
X124058354Y-70262092D01*
X124088647Y-70286953D01*
X124113508Y-70317246D01*
X124131980Y-70351805D01*
X124143355Y-70389301D01*
X124147800Y-70434438D01*
X124147800Y-71173162D01*
X124143355Y-71218299D01*
X124131980Y-71255795D01*
X124113508Y-71290354D01*
X124088647Y-71320647D01*
X124058354Y-71345508D01*
X124023795Y-71363980D01*
X123986299Y-71375355D01*
X123941162Y-71379800D01*
X123302438Y-71379800D01*
X123257301Y-71375355D01*
X123219805Y-71363980D01*
X123185246Y-71345508D01*
X123154953Y-71320647D01*
X123130092Y-71290354D01*
X123111620Y-71255795D01*
X123100245Y-71218299D01*
X123095800Y-71173162D01*
X123095800Y-70434438D01*
X123100245Y-70389301D01*
X123111620Y-70351805D01*
X123130092Y-70317246D01*
X123154953Y-70286953D01*
X123185246Y-70262092D01*
X123219805Y-70243620D01*
X123257301Y-70232245D01*
X123302438Y-70227800D01*
X123941162Y-70227800D01*
X123986299Y-70232245D01*
X123986299Y-70232245D01*
G37*
G36*
X138899725Y-70143345D02*
G01*
X138937221Y-70154720D01*
X138971780Y-70173192D01*
X139002073Y-70198053D01*
X139026934Y-70228346D01*
X139045406Y-70262905D01*
X139056781Y-70300401D01*
X139061226Y-70345538D01*
X139061226Y-71084262D01*
X139056781Y-71129399D01*
X139045406Y-71166895D01*
X139026934Y-71201454D01*
X139002073Y-71231747D01*
X138971780Y-71256608D01*
X138937221Y-71275080D01*
X138899725Y-71286455D01*
X138854588Y-71290900D01*
X138215864Y-71290900D01*
X138170727Y-71286455D01*
X138133231Y-71275080D01*
X138098672Y-71256608D01*
X138068379Y-71231747D01*
X138043518Y-71201454D01*
X138025046Y-71166895D01*
X138013671Y-71129399D01*
X138009226Y-71084262D01*
X138009226Y-70345538D01*
X138013671Y-70300401D01*
X138025046Y-70262905D01*
X138043518Y-70228346D01*
X138068379Y-70198053D01*
X138098672Y-70173192D01*
X138133231Y-70154720D01*
X138170727Y-70143345D01*
X138215864Y-70138900D01*
X138854588Y-70138900D01*
X138899725Y-70143345D01*
X138899725Y-70143345D01*
G37*
G36*
X131034799Y-70143345D02*
G01*
X131072295Y-70154720D01*
X131106854Y-70173192D01*
X131137147Y-70198053D01*
X131162008Y-70228346D01*
X131180480Y-70262905D01*
X131191855Y-70300401D01*
X131196300Y-70345538D01*
X131196300Y-71084262D01*
X131191855Y-71129399D01*
X131180480Y-71166895D01*
X131162008Y-71201454D01*
X131137147Y-71231747D01*
X131106854Y-71256608D01*
X131072295Y-71275080D01*
X131034799Y-71286455D01*
X130989662Y-71290900D01*
X130350938Y-71290900D01*
X130305801Y-71286455D01*
X130268305Y-71275080D01*
X130233746Y-71256608D01*
X130203453Y-71231747D01*
X130178592Y-71201454D01*
X130160120Y-71166895D01*
X130148745Y-71129399D01*
X130144300Y-71084262D01*
X130144300Y-70345538D01*
X130148745Y-70300401D01*
X130160120Y-70262905D01*
X130178592Y-70228346D01*
X130203453Y-70198053D01*
X130233746Y-70173192D01*
X130268305Y-70154720D01*
X130305801Y-70143345D01*
X130350938Y-70138900D01*
X130989662Y-70138900D01*
X131034799Y-70143345D01*
X131034799Y-70143345D01*
G37*
G36*
X141521367Y-70143345D02*
G01*
X141558863Y-70154720D01*
X141593422Y-70173192D01*
X141623715Y-70198053D01*
X141648576Y-70228346D01*
X141667048Y-70262905D01*
X141678423Y-70300401D01*
X141682868Y-70345538D01*
X141682868Y-71084262D01*
X141678423Y-71129399D01*
X141667048Y-71166895D01*
X141648576Y-71201454D01*
X141623715Y-71231747D01*
X141593422Y-71256608D01*
X141558863Y-71275080D01*
X141521367Y-71286455D01*
X141476230Y-71290900D01*
X140837506Y-71290900D01*
X140792369Y-71286455D01*
X140754873Y-71275080D01*
X140720314Y-71256608D01*
X140690021Y-71231747D01*
X140665160Y-71201454D01*
X140646688Y-71166895D01*
X140635313Y-71129399D01*
X140630868Y-71084262D01*
X140630868Y-70345538D01*
X140635313Y-70300401D01*
X140646688Y-70262905D01*
X140665160Y-70228346D01*
X140690021Y-70198053D01*
X140720314Y-70173192D01*
X140754873Y-70154720D01*
X140792369Y-70143345D01*
X140837506Y-70138900D01*
X141476230Y-70138900D01*
X141521367Y-70143345D01*
X141521367Y-70143345D01*
G37*
G36*
X144143009Y-70143345D02*
G01*
X144180505Y-70154720D01*
X144215064Y-70173192D01*
X144245357Y-70198053D01*
X144270218Y-70228346D01*
X144288690Y-70262905D01*
X144300065Y-70300401D01*
X144304510Y-70345538D01*
X144304510Y-71084262D01*
X144300065Y-71129399D01*
X144288690Y-71166895D01*
X144270218Y-71201454D01*
X144245357Y-71231747D01*
X144215064Y-71256608D01*
X144180505Y-71275080D01*
X144143009Y-71286455D01*
X144097872Y-71290900D01*
X143459148Y-71290900D01*
X143414011Y-71286455D01*
X143376515Y-71275080D01*
X143341956Y-71256608D01*
X143311663Y-71231747D01*
X143286802Y-71201454D01*
X143268330Y-71166895D01*
X143256955Y-71129399D01*
X143252510Y-71084262D01*
X143252510Y-70345538D01*
X143256955Y-70300401D01*
X143268330Y-70262905D01*
X143286802Y-70228346D01*
X143311663Y-70198053D01*
X143341956Y-70173192D01*
X143376515Y-70154720D01*
X143414011Y-70143345D01*
X143459148Y-70138900D01*
X144097872Y-70138900D01*
X144143009Y-70143345D01*
X144143009Y-70143345D01*
G37*
G36*
X149386299Y-70143345D02*
G01*
X149423795Y-70154720D01*
X149458354Y-70173192D01*
X149488647Y-70198053D01*
X149513508Y-70228346D01*
X149531980Y-70262905D01*
X149543355Y-70300401D01*
X149547800Y-70345538D01*
X149547800Y-71084262D01*
X149543355Y-71129399D01*
X149531980Y-71166895D01*
X149513508Y-71201454D01*
X149488647Y-71231747D01*
X149458354Y-71256608D01*
X149423795Y-71275080D01*
X149386299Y-71286455D01*
X149341162Y-71290900D01*
X148702438Y-71290900D01*
X148657301Y-71286455D01*
X148619805Y-71275080D01*
X148585246Y-71256608D01*
X148554953Y-71231747D01*
X148530092Y-71201454D01*
X148511620Y-71166895D01*
X148500245Y-71129399D01*
X148495800Y-71084262D01*
X148495800Y-70345538D01*
X148500245Y-70300401D01*
X148511620Y-70262905D01*
X148530092Y-70228346D01*
X148554953Y-70198053D01*
X148585246Y-70173192D01*
X148619805Y-70154720D01*
X148657301Y-70143345D01*
X148702438Y-70138900D01*
X149341162Y-70138900D01*
X149386299Y-70143345D01*
X149386299Y-70143345D01*
G37*
G36*
X146764651Y-70143345D02*
G01*
X146802147Y-70154720D01*
X146836706Y-70173192D01*
X146866999Y-70198053D01*
X146891860Y-70228346D01*
X146910332Y-70262905D01*
X146921707Y-70300401D01*
X146926152Y-70345538D01*
X146926152Y-71084262D01*
X146921707Y-71129399D01*
X146910332Y-71166895D01*
X146891860Y-71201454D01*
X146866999Y-71231747D01*
X146836706Y-71256608D01*
X146802147Y-71275080D01*
X146764651Y-71286455D01*
X146719514Y-71290900D01*
X146080790Y-71290900D01*
X146035653Y-71286455D01*
X145998157Y-71275080D01*
X145963598Y-71256608D01*
X145933305Y-71231747D01*
X145908444Y-71201454D01*
X145889972Y-71166895D01*
X145878597Y-71129399D01*
X145874152Y-71084262D01*
X145874152Y-70345538D01*
X145878597Y-70300401D01*
X145889972Y-70262905D01*
X145908444Y-70228346D01*
X145933305Y-70198053D01*
X145963598Y-70173192D01*
X145998157Y-70154720D01*
X146035653Y-70143345D01*
X146080790Y-70138900D01*
X146719514Y-70138900D01*
X146764651Y-70143345D01*
X146764651Y-70143345D01*
G37*
G36*
X136278083Y-70143345D02*
G01*
X136315579Y-70154720D01*
X136350138Y-70173192D01*
X136380431Y-70198053D01*
X136405292Y-70228346D01*
X136423764Y-70262905D01*
X136435139Y-70300401D01*
X136439584Y-70345538D01*
X136439584Y-71084262D01*
X136435139Y-71129399D01*
X136423764Y-71166895D01*
X136405292Y-71201454D01*
X136380431Y-71231747D01*
X136350138Y-71256608D01*
X136315579Y-71275080D01*
X136278083Y-71286455D01*
X136232946Y-71290900D01*
X135594222Y-71290900D01*
X135549085Y-71286455D01*
X135511589Y-71275080D01*
X135477030Y-71256608D01*
X135446737Y-71231747D01*
X135421876Y-71201454D01*
X135403404Y-71166895D01*
X135392029Y-71129399D01*
X135387584Y-71084262D01*
X135387584Y-70345538D01*
X135392029Y-70300401D01*
X135403404Y-70262905D01*
X135421876Y-70228346D01*
X135446737Y-70198053D01*
X135477030Y-70173192D01*
X135511589Y-70154720D01*
X135549085Y-70143345D01*
X135594222Y-70138900D01*
X136232946Y-70138900D01*
X136278083Y-70143345D01*
X136278083Y-70143345D01*
G37*
G36*
X133656441Y-70143345D02*
G01*
X133693937Y-70154720D01*
X133728496Y-70173192D01*
X133758789Y-70198053D01*
X133783650Y-70228346D01*
X133802122Y-70262905D01*
X133813497Y-70300401D01*
X133817942Y-70345538D01*
X133817942Y-71084262D01*
X133813497Y-71129399D01*
X133802122Y-71166895D01*
X133783650Y-71201454D01*
X133758789Y-71231747D01*
X133728496Y-71256608D01*
X133693937Y-71275080D01*
X133656441Y-71286455D01*
X133611304Y-71290900D01*
X132972580Y-71290900D01*
X132927443Y-71286455D01*
X132889947Y-71275080D01*
X132855388Y-71256608D01*
X132825095Y-71231747D01*
X132800234Y-71201454D01*
X132781762Y-71166895D01*
X132770387Y-71129399D01*
X132765942Y-71084262D01*
X132765942Y-70345538D01*
X132770387Y-70300401D01*
X132781762Y-70262905D01*
X132800234Y-70228346D01*
X132825095Y-70198053D01*
X132855388Y-70173192D01*
X132889947Y-70154720D01*
X132927443Y-70143345D01*
X132972580Y-70138900D01*
X133611304Y-70138900D01*
X133656441Y-70143345D01*
X133656441Y-70143345D01*
G37*
G36*
X127923299Y-70130645D02*
G01*
X127960795Y-70142020D01*
X127995354Y-70160492D01*
X128025647Y-70185353D01*
X128050508Y-70215646D01*
X128068980Y-70250205D01*
X128080355Y-70287701D01*
X128084800Y-70332838D01*
X128084800Y-71071562D01*
X128080355Y-71116699D01*
X128068980Y-71154195D01*
X128050508Y-71188754D01*
X128025647Y-71219047D01*
X127995354Y-71243908D01*
X127960795Y-71262380D01*
X127923299Y-71273755D01*
X127878162Y-71278200D01*
X127239438Y-71278200D01*
X127194301Y-71273755D01*
X127156805Y-71262380D01*
X127122246Y-71243908D01*
X127091953Y-71219047D01*
X127067092Y-71188754D01*
X127048620Y-71154195D01*
X127037245Y-71116699D01*
X127032800Y-71071562D01*
X127032800Y-70332838D01*
X127037245Y-70287701D01*
X127048620Y-70250205D01*
X127067092Y-70215646D01*
X127091953Y-70185353D01*
X127122246Y-70160492D01*
X127156805Y-70142020D01*
X127194301Y-70130645D01*
X127239438Y-70126200D01*
X127878162Y-70126200D01*
X127923299Y-70130645D01*
X127923299Y-70130645D01*
G37*
G36*
X144237354Y-67829345D02*
G01*
X144274850Y-67840720D01*
X144309409Y-67859192D01*
X144339702Y-67884053D01*
X144364563Y-67914346D01*
X144383035Y-67948905D01*
X144394410Y-67986401D01*
X144398855Y-68031538D01*
X144398855Y-68770262D01*
X144394410Y-68815399D01*
X144383035Y-68852895D01*
X144364563Y-68887454D01*
X144339702Y-68917747D01*
X144309409Y-68942608D01*
X144274850Y-68961080D01*
X144237354Y-68972455D01*
X144192217Y-68976900D01*
X143553493Y-68976900D01*
X143508356Y-68972455D01*
X143470860Y-68961080D01*
X143436301Y-68942608D01*
X143406008Y-68917747D01*
X143381147Y-68887454D01*
X143362675Y-68852895D01*
X143351300Y-68815399D01*
X143346855Y-68770262D01*
X143346855Y-68031538D01*
X143351300Y-67986401D01*
X143362675Y-67948905D01*
X143381147Y-67914346D01*
X143406008Y-67884053D01*
X143436301Y-67859192D01*
X143470860Y-67840720D01*
X143508356Y-67829345D01*
X143553493Y-67824900D01*
X144192217Y-67824900D01*
X144237354Y-67829345D01*
X144237354Y-67829345D01*
G37*
G36*
X146849925Y-67829345D02*
G01*
X146887421Y-67840720D01*
X146921980Y-67859192D01*
X146952273Y-67884053D01*
X146977134Y-67914346D01*
X146995606Y-67948905D01*
X147006981Y-67986401D01*
X147011426Y-68031538D01*
X147011426Y-68770262D01*
X147006981Y-68815399D01*
X146995606Y-68852895D01*
X146977134Y-68887454D01*
X146952273Y-68917747D01*
X146921980Y-68942608D01*
X146887421Y-68961080D01*
X146849925Y-68972455D01*
X146804788Y-68976900D01*
X146166064Y-68976900D01*
X146120927Y-68972455D01*
X146083431Y-68961080D01*
X146048872Y-68942608D01*
X146018579Y-68917747D01*
X145993718Y-68887454D01*
X145975246Y-68852895D01*
X145963871Y-68815399D01*
X145959426Y-68770262D01*
X145959426Y-68031538D01*
X145963871Y-67986401D01*
X145975246Y-67948905D01*
X145993718Y-67914346D01*
X146018579Y-67884053D01*
X146048872Y-67859192D01*
X146083431Y-67840720D01*
X146120927Y-67829345D01*
X146166064Y-67824900D01*
X146804788Y-67824900D01*
X146849925Y-67829345D01*
X146849925Y-67829345D01*
G37*
G36*
X149462499Y-67829345D02*
G01*
X149499995Y-67840720D01*
X149534554Y-67859192D01*
X149564847Y-67884053D01*
X149589708Y-67914346D01*
X149608180Y-67948905D01*
X149619555Y-67986401D01*
X149624000Y-68031538D01*
X149624000Y-68770262D01*
X149619555Y-68815399D01*
X149608180Y-68852895D01*
X149589708Y-68887454D01*
X149564847Y-68917747D01*
X149534554Y-68942608D01*
X149499995Y-68961080D01*
X149462499Y-68972455D01*
X149417362Y-68976900D01*
X148778638Y-68976900D01*
X148733501Y-68972455D01*
X148696005Y-68961080D01*
X148661446Y-68942608D01*
X148631153Y-68917747D01*
X148606292Y-68887454D01*
X148587820Y-68852895D01*
X148576445Y-68815399D01*
X148572000Y-68770262D01*
X148572000Y-68031538D01*
X148576445Y-67986401D01*
X148587820Y-67948905D01*
X148606292Y-67914346D01*
X148631153Y-67884053D01*
X148661446Y-67859192D01*
X148696005Y-67840720D01*
X148733501Y-67829345D01*
X148778638Y-67824900D01*
X149417362Y-67824900D01*
X149462499Y-67829345D01*
X149462499Y-67829345D01*
G37*
G36*
X131174499Y-67829345D02*
G01*
X131211995Y-67840720D01*
X131246554Y-67859192D01*
X131276847Y-67884053D01*
X131301708Y-67914346D01*
X131320180Y-67948905D01*
X131331555Y-67986401D01*
X131336000Y-68031538D01*
X131336000Y-68770262D01*
X131331555Y-68815399D01*
X131320180Y-68852895D01*
X131301708Y-68887454D01*
X131276847Y-68917747D01*
X131246554Y-68942608D01*
X131211995Y-68961080D01*
X131174499Y-68972455D01*
X131129362Y-68976900D01*
X130490638Y-68976900D01*
X130445501Y-68972455D01*
X130408005Y-68961080D01*
X130373446Y-68942608D01*
X130343153Y-68917747D01*
X130318292Y-68887454D01*
X130299820Y-68852895D01*
X130288445Y-68815399D01*
X130284000Y-68770262D01*
X130284000Y-68031538D01*
X130288445Y-67986401D01*
X130299820Y-67948905D01*
X130318292Y-67914346D01*
X130343153Y-67884053D01*
X130373446Y-67859192D01*
X130408005Y-67840720D01*
X130445501Y-67829345D01*
X130490638Y-67824900D01*
X131129362Y-67824900D01*
X131174499Y-67829345D01*
X131174499Y-67829345D01*
G37*
G36*
X141624783Y-67829345D02*
G01*
X141662279Y-67840720D01*
X141696838Y-67859192D01*
X141727131Y-67884053D01*
X141751992Y-67914346D01*
X141770464Y-67948905D01*
X141781839Y-67986401D01*
X141786284Y-68031538D01*
X141786284Y-68770262D01*
X141781839Y-68815399D01*
X141770464Y-68852895D01*
X141751992Y-68887454D01*
X141727131Y-68917747D01*
X141696838Y-68942608D01*
X141662279Y-68961080D01*
X141624783Y-68972455D01*
X141579646Y-68976900D01*
X140940922Y-68976900D01*
X140895785Y-68972455D01*
X140858289Y-68961080D01*
X140823730Y-68942608D01*
X140793437Y-68917747D01*
X140768576Y-68887454D01*
X140750104Y-68852895D01*
X140738729Y-68815399D01*
X140734284Y-68770262D01*
X140734284Y-68031538D01*
X140738729Y-67986401D01*
X140750104Y-67948905D01*
X140768576Y-67914346D01*
X140793437Y-67884053D01*
X140823730Y-67859192D01*
X140858289Y-67840720D01*
X140895785Y-67829345D01*
X140940922Y-67824900D01*
X141579646Y-67824900D01*
X141624783Y-67829345D01*
X141624783Y-67829345D01*
G37*
G36*
X136399641Y-67829345D02*
G01*
X136437137Y-67840720D01*
X136471696Y-67859192D01*
X136501989Y-67884053D01*
X136526850Y-67914346D01*
X136545322Y-67948905D01*
X136556697Y-67986401D01*
X136561142Y-68031538D01*
X136561142Y-68770262D01*
X136556697Y-68815399D01*
X136545322Y-68852895D01*
X136526850Y-68887454D01*
X136501989Y-68917747D01*
X136471696Y-68942608D01*
X136437137Y-68961080D01*
X136399641Y-68972455D01*
X136354504Y-68976900D01*
X135715780Y-68976900D01*
X135670643Y-68972455D01*
X135633147Y-68961080D01*
X135598588Y-68942608D01*
X135568295Y-68917747D01*
X135543434Y-68887454D01*
X135524962Y-68852895D01*
X135513587Y-68815399D01*
X135509142Y-68770262D01*
X135509142Y-68031538D01*
X135513587Y-67986401D01*
X135524962Y-67948905D01*
X135543434Y-67914346D01*
X135568295Y-67884053D01*
X135598588Y-67859192D01*
X135633147Y-67840720D01*
X135670643Y-67829345D01*
X135715780Y-67824900D01*
X136354504Y-67824900D01*
X136399641Y-67829345D01*
X136399641Y-67829345D01*
G37*
G36*
X139012212Y-67829345D02*
G01*
X139049708Y-67840720D01*
X139084267Y-67859192D01*
X139114560Y-67884053D01*
X139139421Y-67914346D01*
X139157893Y-67948905D01*
X139169268Y-67986401D01*
X139173713Y-68031538D01*
X139173713Y-68770262D01*
X139169268Y-68815399D01*
X139157893Y-68852895D01*
X139139421Y-68887454D01*
X139114560Y-68917747D01*
X139084267Y-68942608D01*
X139049708Y-68961080D01*
X139012212Y-68972455D01*
X138967075Y-68976900D01*
X138328351Y-68976900D01*
X138283214Y-68972455D01*
X138245718Y-68961080D01*
X138211159Y-68942608D01*
X138180866Y-68917747D01*
X138156005Y-68887454D01*
X138137533Y-68852895D01*
X138126158Y-68815399D01*
X138121713Y-68770262D01*
X138121713Y-68031538D01*
X138126158Y-67986401D01*
X138137533Y-67948905D01*
X138156005Y-67914346D01*
X138180866Y-67884053D01*
X138211159Y-67859192D01*
X138245718Y-67840720D01*
X138283214Y-67829345D01*
X138328351Y-67824900D01*
X138967075Y-67824900D01*
X139012212Y-67829345D01*
X139012212Y-67829345D01*
G37*
G36*
X133787070Y-67829345D02*
G01*
X133824566Y-67840720D01*
X133859125Y-67859192D01*
X133889418Y-67884053D01*
X133914279Y-67914346D01*
X133932751Y-67948905D01*
X133944126Y-67986401D01*
X133948571Y-68031538D01*
X133948571Y-68770262D01*
X133944126Y-68815399D01*
X133932751Y-68852895D01*
X133914279Y-68887454D01*
X133889418Y-68917747D01*
X133859125Y-68942608D01*
X133824566Y-68961080D01*
X133787070Y-68972455D01*
X133741933Y-68976900D01*
X133103209Y-68976900D01*
X133058072Y-68972455D01*
X133020576Y-68961080D01*
X132986017Y-68942608D01*
X132955724Y-68917747D01*
X132930863Y-68887454D01*
X132912391Y-68852895D01*
X132901016Y-68815399D01*
X132896571Y-68770262D01*
X132896571Y-68031538D01*
X132901016Y-67986401D01*
X132912391Y-67948905D01*
X132930863Y-67914346D01*
X132955724Y-67884053D01*
X132986017Y-67859192D01*
X133020576Y-67840720D01*
X133058072Y-67829345D01*
X133103209Y-67824900D01*
X133741933Y-67824900D01*
X133787070Y-67829345D01*
X133787070Y-67829345D01*
G37*
G36*
X124037099Y-67816645D02*
G01*
X124074595Y-67828020D01*
X124109154Y-67846492D01*
X124139447Y-67871353D01*
X124164308Y-67901646D01*
X124182780Y-67936205D01*
X124194155Y-67973701D01*
X124198600Y-68018838D01*
X124198600Y-68757562D01*
X124194155Y-68802699D01*
X124182780Y-68840195D01*
X124164308Y-68874754D01*
X124139447Y-68905047D01*
X124109154Y-68929908D01*
X124074595Y-68948380D01*
X124037099Y-68959755D01*
X123991962Y-68964200D01*
X123353238Y-68964200D01*
X123308101Y-68959755D01*
X123270605Y-68948380D01*
X123236046Y-68929908D01*
X123205753Y-68905047D01*
X123180892Y-68874754D01*
X123162420Y-68840195D01*
X123151045Y-68802699D01*
X123146600Y-68757562D01*
X123146600Y-68018838D01*
X123151045Y-67973701D01*
X123162420Y-67936205D01*
X123180892Y-67901646D01*
X123205753Y-67871353D01*
X123236046Y-67846492D01*
X123270605Y-67828020D01*
X123308101Y-67816645D01*
X123353238Y-67812200D01*
X123991962Y-67812200D01*
X124037099Y-67816645D01*
X124037099Y-67816645D01*
G37*
G36*
X127821699Y-67715045D02*
G01*
X127859195Y-67726420D01*
X127893754Y-67744892D01*
X127924047Y-67769753D01*
X127948908Y-67800046D01*
X127967380Y-67834605D01*
X127978755Y-67872101D01*
X127983200Y-67917238D01*
X127983200Y-68655962D01*
X127978755Y-68701099D01*
X127967380Y-68738595D01*
X127948908Y-68773154D01*
X127924047Y-68803447D01*
X127893754Y-68828308D01*
X127859195Y-68846780D01*
X127821699Y-68858155D01*
X127776562Y-68862600D01*
X127137838Y-68862600D01*
X127092701Y-68858155D01*
X127055205Y-68846780D01*
X127020646Y-68828308D01*
X126990353Y-68803447D01*
X126965492Y-68773154D01*
X126947020Y-68738595D01*
X126935645Y-68701099D01*
X126931200Y-68655962D01*
X126931200Y-67917238D01*
X126935645Y-67872101D01*
X126947020Y-67834605D01*
X126965492Y-67800046D01*
X126990353Y-67769753D01*
X127020646Y-67744892D01*
X127055205Y-67726420D01*
X127092701Y-67715045D01*
X127137838Y-67710600D01*
X127776562Y-67710600D01*
X127821699Y-67715045D01*
X127821699Y-67715045D01*
G37*
G36*
X107600366Y-64764695D02*
G01*
X107757460Y-64812349D01*
X107902231Y-64889731D01*
X108029128Y-64993872D01*
X108133269Y-65120769D01*
X108210651Y-65265540D01*
X108258305Y-65422634D01*
X108275000Y-65592140D01*
X108275000Y-67505860D01*
X108258305Y-67675366D01*
X108210651Y-67832460D01*
X108133269Y-67977231D01*
X108029128Y-68104128D01*
X107902231Y-68208269D01*
X107757460Y-68285651D01*
X107600366Y-68333305D01*
X107430860Y-68350000D01*
X105517140Y-68350000D01*
X105347634Y-68333305D01*
X105190540Y-68285651D01*
X105045769Y-68208269D01*
X104918872Y-68104128D01*
X104814731Y-67977231D01*
X104737349Y-67832460D01*
X104689695Y-67675366D01*
X104673000Y-67505860D01*
X104673000Y-65592140D01*
X104689695Y-65422634D01*
X104737349Y-65265540D01*
X104814731Y-65120769D01*
X104918872Y-64993872D01*
X105045769Y-64889731D01*
X105190540Y-64812349D01*
X105347634Y-64764695D01*
X105517140Y-64748000D01*
X107430860Y-64748000D01*
X107600366Y-64764695D01*
X107600366Y-64764695D01*
G37*
G36*
X169132699Y-66723130D02*
G01*
X169170195Y-66734505D01*
X169204754Y-66752977D01*
X169235047Y-66777838D01*
X169259908Y-66808131D01*
X169278380Y-66842690D01*
X169289755Y-66880186D01*
X169294200Y-66925323D01*
X169294200Y-67564047D01*
X169289755Y-67609184D01*
X169278380Y-67646680D01*
X169259908Y-67681239D01*
X169235047Y-67711532D01*
X169204754Y-67736393D01*
X169170195Y-67754865D01*
X169132699Y-67766240D01*
X169087562Y-67770685D01*
X168348838Y-67770685D01*
X168303701Y-67766240D01*
X168266205Y-67754865D01*
X168231646Y-67736393D01*
X168201353Y-67711532D01*
X168176492Y-67681239D01*
X168158020Y-67646680D01*
X168146645Y-67609184D01*
X168142200Y-67564047D01*
X168142200Y-66925323D01*
X168146645Y-66880186D01*
X168158020Y-66842690D01*
X168176492Y-66808131D01*
X168201353Y-66777838D01*
X168231646Y-66752977D01*
X168266205Y-66734505D01*
X168303701Y-66723130D01*
X168348838Y-66718685D01*
X169087562Y-66718685D01*
X169132699Y-66723130D01*
X169132699Y-66723130D01*
G37*
G36*
X167382699Y-66723130D02*
G01*
X167420195Y-66734505D01*
X167454754Y-66752977D01*
X167485047Y-66777838D01*
X167509908Y-66808131D01*
X167528380Y-66842690D01*
X167539755Y-66880186D01*
X167544200Y-66925323D01*
X167544200Y-67564047D01*
X167539755Y-67609184D01*
X167528380Y-67646680D01*
X167509908Y-67681239D01*
X167485047Y-67711532D01*
X167454754Y-67736393D01*
X167420195Y-67754865D01*
X167382699Y-67766240D01*
X167337562Y-67770685D01*
X166598838Y-67770685D01*
X166553701Y-67766240D01*
X166516205Y-67754865D01*
X166481646Y-67736393D01*
X166451353Y-67711532D01*
X166426492Y-67681239D01*
X166408020Y-67646680D01*
X166396645Y-67609184D01*
X166392200Y-67564047D01*
X166392200Y-66925323D01*
X166396645Y-66880186D01*
X166408020Y-66842690D01*
X166426492Y-66808131D01*
X166451353Y-66777838D01*
X166481646Y-66752977D01*
X166516205Y-66734505D01*
X166553701Y-66723130D01*
X166598838Y-66718685D01*
X167337562Y-66718685D01*
X167382699Y-66723130D01*
X167382699Y-66723130D01*
G37*
G36*
X149462499Y-66079345D02*
G01*
X149499995Y-66090720D01*
X149534554Y-66109192D01*
X149564847Y-66134053D01*
X149589708Y-66164346D01*
X149608180Y-66198905D01*
X149619555Y-66236401D01*
X149624000Y-66281538D01*
X149624000Y-67020262D01*
X149619555Y-67065399D01*
X149608180Y-67102895D01*
X149589708Y-67137454D01*
X149564847Y-67167747D01*
X149534554Y-67192608D01*
X149499995Y-67211080D01*
X149462499Y-67222455D01*
X149417362Y-67226900D01*
X148778638Y-67226900D01*
X148733501Y-67222455D01*
X148696005Y-67211080D01*
X148661446Y-67192608D01*
X148631153Y-67167747D01*
X148606292Y-67137454D01*
X148587820Y-67102895D01*
X148576445Y-67065399D01*
X148572000Y-67020262D01*
X148572000Y-66281538D01*
X148576445Y-66236401D01*
X148587820Y-66198905D01*
X148606292Y-66164346D01*
X148631153Y-66134053D01*
X148661446Y-66109192D01*
X148696005Y-66090720D01*
X148733501Y-66079345D01*
X148778638Y-66074900D01*
X149417362Y-66074900D01*
X149462499Y-66079345D01*
X149462499Y-66079345D01*
G37*
G36*
X131174499Y-66079345D02*
G01*
X131211995Y-66090720D01*
X131246554Y-66109192D01*
X131276847Y-66134053D01*
X131301708Y-66164346D01*
X131320180Y-66198905D01*
X131331555Y-66236401D01*
X131336000Y-66281538D01*
X131336000Y-67020262D01*
X131331555Y-67065399D01*
X131320180Y-67102895D01*
X131301708Y-67137454D01*
X131276847Y-67167747D01*
X131246554Y-67192608D01*
X131211995Y-67211080D01*
X131174499Y-67222455D01*
X131129362Y-67226900D01*
X130490638Y-67226900D01*
X130445501Y-67222455D01*
X130408005Y-67211080D01*
X130373446Y-67192608D01*
X130343153Y-67167747D01*
X130318292Y-67137454D01*
X130299820Y-67102895D01*
X130288445Y-67065399D01*
X130284000Y-67020262D01*
X130284000Y-66281538D01*
X130288445Y-66236401D01*
X130299820Y-66198905D01*
X130318292Y-66164346D01*
X130343153Y-66134053D01*
X130373446Y-66109192D01*
X130408005Y-66090720D01*
X130445501Y-66079345D01*
X130490638Y-66074900D01*
X131129362Y-66074900D01*
X131174499Y-66079345D01*
X131174499Y-66079345D01*
G37*
G36*
X141624783Y-66079345D02*
G01*
X141662279Y-66090720D01*
X141696838Y-66109192D01*
X141727131Y-66134053D01*
X141751992Y-66164346D01*
X141770464Y-66198905D01*
X141781839Y-66236401D01*
X141786284Y-66281538D01*
X141786284Y-67020262D01*
X141781839Y-67065399D01*
X141770464Y-67102895D01*
X141751992Y-67137454D01*
X141727131Y-67167747D01*
X141696838Y-67192608D01*
X141662279Y-67211080D01*
X141624783Y-67222455D01*
X141579646Y-67226900D01*
X140940922Y-67226900D01*
X140895785Y-67222455D01*
X140858289Y-67211080D01*
X140823730Y-67192608D01*
X140793437Y-67167747D01*
X140768576Y-67137454D01*
X140750104Y-67102895D01*
X140738729Y-67065399D01*
X140734284Y-67020262D01*
X140734284Y-66281538D01*
X140738729Y-66236401D01*
X140750104Y-66198905D01*
X140768576Y-66164346D01*
X140793437Y-66134053D01*
X140823730Y-66109192D01*
X140858289Y-66090720D01*
X140895785Y-66079345D01*
X140940922Y-66074900D01*
X141579646Y-66074900D01*
X141624783Y-66079345D01*
X141624783Y-66079345D01*
G37*
G36*
X144237354Y-66079345D02*
G01*
X144274850Y-66090720D01*
X144309409Y-66109192D01*
X144339702Y-66134053D01*
X144364563Y-66164346D01*
X144383035Y-66198905D01*
X144394410Y-66236401D01*
X144398855Y-66281538D01*
X144398855Y-67020262D01*
X144394410Y-67065399D01*
X144383035Y-67102895D01*
X144364563Y-67137454D01*
X144339702Y-67167747D01*
X144309409Y-67192608D01*
X144274850Y-67211080D01*
X144237354Y-67222455D01*
X144192217Y-67226900D01*
X143553493Y-67226900D01*
X143508356Y-67222455D01*
X143470860Y-67211080D01*
X143436301Y-67192608D01*
X143406008Y-67167747D01*
X143381147Y-67137454D01*
X143362675Y-67102895D01*
X143351300Y-67065399D01*
X143346855Y-67020262D01*
X143346855Y-66281538D01*
X143351300Y-66236401D01*
X143362675Y-66198905D01*
X143381147Y-66164346D01*
X143406008Y-66134053D01*
X143436301Y-66109192D01*
X143470860Y-66090720D01*
X143508356Y-66079345D01*
X143553493Y-66074900D01*
X144192217Y-66074900D01*
X144237354Y-66079345D01*
X144237354Y-66079345D01*
G37*
G36*
X146849925Y-66079345D02*
G01*
X146887421Y-66090720D01*
X146921980Y-66109192D01*
X146952273Y-66134053D01*
X146977134Y-66164346D01*
X146995606Y-66198905D01*
X147006981Y-66236401D01*
X147011426Y-66281538D01*
X147011426Y-67020262D01*
X147006981Y-67065399D01*
X146995606Y-67102895D01*
X146977134Y-67137454D01*
X146952273Y-67167747D01*
X146921980Y-67192608D01*
X146887421Y-67211080D01*
X146849925Y-67222455D01*
X146804788Y-67226900D01*
X146166064Y-67226900D01*
X146120927Y-67222455D01*
X146083431Y-67211080D01*
X146048872Y-67192608D01*
X146018579Y-67167747D01*
X145993718Y-67137454D01*
X145975246Y-67102895D01*
X145963871Y-67065399D01*
X145959426Y-67020262D01*
X145959426Y-66281538D01*
X145963871Y-66236401D01*
X145975246Y-66198905D01*
X145993718Y-66164346D01*
X146018579Y-66134053D01*
X146048872Y-66109192D01*
X146083431Y-66090720D01*
X146120927Y-66079345D01*
X146166064Y-66074900D01*
X146804788Y-66074900D01*
X146849925Y-66079345D01*
X146849925Y-66079345D01*
G37*
G36*
X139012212Y-66079345D02*
G01*
X139049708Y-66090720D01*
X139084267Y-66109192D01*
X139114560Y-66134053D01*
X139139421Y-66164346D01*
X139157893Y-66198905D01*
X139169268Y-66236401D01*
X139173713Y-66281538D01*
X139173713Y-67020262D01*
X139169268Y-67065399D01*
X139157893Y-67102895D01*
X139139421Y-67137454D01*
X139114560Y-67167747D01*
X139084267Y-67192608D01*
X139049708Y-67211080D01*
X139012212Y-67222455D01*
X138967075Y-67226900D01*
X138328351Y-67226900D01*
X138283214Y-67222455D01*
X138245718Y-67211080D01*
X138211159Y-67192608D01*
X138180866Y-67167747D01*
X138156005Y-67137454D01*
X138137533Y-67102895D01*
X138126158Y-67065399D01*
X138121713Y-67020262D01*
X138121713Y-66281538D01*
X138126158Y-66236401D01*
X138137533Y-66198905D01*
X138156005Y-66164346D01*
X138180866Y-66134053D01*
X138211159Y-66109192D01*
X138245718Y-66090720D01*
X138283214Y-66079345D01*
X138328351Y-66074900D01*
X138967075Y-66074900D01*
X139012212Y-66079345D01*
X139012212Y-66079345D01*
G37*
G36*
X133787070Y-66079345D02*
G01*
X133824566Y-66090720D01*
X133859125Y-66109192D01*
X133889418Y-66134053D01*
X133914279Y-66164346D01*
X133932751Y-66198905D01*
X133944126Y-66236401D01*
X133948571Y-66281538D01*
X133948571Y-67020262D01*
X133944126Y-67065399D01*
X133932751Y-67102895D01*
X133914279Y-67137454D01*
X133889418Y-67167747D01*
X133859125Y-67192608D01*
X133824566Y-67211080D01*
X133787070Y-67222455D01*
X133741933Y-67226900D01*
X133103209Y-67226900D01*
X133058072Y-67222455D01*
X133020576Y-67211080D01*
X132986017Y-67192608D01*
X132955724Y-67167747D01*
X132930863Y-67137454D01*
X132912391Y-67102895D01*
X132901016Y-67065399D01*
X132896571Y-67020262D01*
X132896571Y-66281538D01*
X132901016Y-66236401D01*
X132912391Y-66198905D01*
X132930863Y-66164346D01*
X132955724Y-66134053D01*
X132986017Y-66109192D01*
X133020576Y-66090720D01*
X133058072Y-66079345D01*
X133103209Y-66074900D01*
X133741933Y-66074900D01*
X133787070Y-66079345D01*
X133787070Y-66079345D01*
G37*
G36*
X136399641Y-66079345D02*
G01*
X136437137Y-66090720D01*
X136471696Y-66109192D01*
X136501989Y-66134053D01*
X136526850Y-66164346D01*
X136545322Y-66198905D01*
X136556697Y-66236401D01*
X136561142Y-66281538D01*
X136561142Y-67020262D01*
X136556697Y-67065399D01*
X136545322Y-67102895D01*
X136526850Y-67137454D01*
X136501989Y-67167747D01*
X136471696Y-67192608D01*
X136437137Y-67211080D01*
X136399641Y-67222455D01*
X136354504Y-67226900D01*
X135715780Y-67226900D01*
X135670643Y-67222455D01*
X135633147Y-67211080D01*
X135598588Y-67192608D01*
X135568295Y-67167747D01*
X135543434Y-67137454D01*
X135524962Y-67102895D01*
X135513587Y-67065399D01*
X135509142Y-67020262D01*
X135509142Y-66281538D01*
X135513587Y-66236401D01*
X135524962Y-66198905D01*
X135543434Y-66164346D01*
X135568295Y-66134053D01*
X135598588Y-66109192D01*
X135633147Y-66090720D01*
X135670643Y-66079345D01*
X135715780Y-66074900D01*
X136354504Y-66074900D01*
X136399641Y-66079345D01*
X136399641Y-66079345D01*
G37*
G36*
X124037099Y-66066645D02*
G01*
X124074595Y-66078020D01*
X124109154Y-66096492D01*
X124139447Y-66121353D01*
X124164308Y-66151646D01*
X124182780Y-66186205D01*
X124194155Y-66223701D01*
X124198600Y-66268838D01*
X124198600Y-67007562D01*
X124194155Y-67052699D01*
X124182780Y-67090195D01*
X124164308Y-67124754D01*
X124139447Y-67155047D01*
X124109154Y-67179908D01*
X124074595Y-67198380D01*
X124037099Y-67209755D01*
X123991962Y-67214200D01*
X123353238Y-67214200D01*
X123308101Y-67209755D01*
X123270605Y-67198380D01*
X123236046Y-67179908D01*
X123205753Y-67155047D01*
X123180892Y-67124754D01*
X123162420Y-67090195D01*
X123151045Y-67052699D01*
X123146600Y-67007562D01*
X123146600Y-66268838D01*
X123151045Y-66223701D01*
X123162420Y-66186205D01*
X123180892Y-66151646D01*
X123205753Y-66121353D01*
X123236046Y-66096492D01*
X123270605Y-66078020D01*
X123308101Y-66066645D01*
X123353238Y-66062200D01*
X123991962Y-66062200D01*
X124037099Y-66066645D01*
X124037099Y-66066645D01*
G37*
G36*
X127821699Y-65965045D02*
G01*
X127859195Y-65976420D01*
X127893754Y-65994892D01*
X127924047Y-66019753D01*
X127948908Y-66050046D01*
X127967380Y-66084605D01*
X127978755Y-66122101D01*
X127983200Y-66167238D01*
X127983200Y-66905962D01*
X127978755Y-66951099D01*
X127967380Y-66988595D01*
X127948908Y-67023154D01*
X127924047Y-67053447D01*
X127893754Y-67078308D01*
X127859195Y-67096780D01*
X127821699Y-67108155D01*
X127776562Y-67112600D01*
X127137838Y-67112600D01*
X127092701Y-67108155D01*
X127055205Y-67096780D01*
X127020646Y-67078308D01*
X126990353Y-67053447D01*
X126965492Y-67023154D01*
X126947020Y-66988595D01*
X126935645Y-66951099D01*
X126931200Y-66905962D01*
X126931200Y-66167238D01*
X126935645Y-66122101D01*
X126947020Y-66084605D01*
X126965492Y-66050046D01*
X126990353Y-66019753D01*
X127020646Y-65994892D01*
X127055205Y-65976420D01*
X127092701Y-65965045D01*
X127137838Y-65960600D01*
X127776562Y-65960600D01*
X127821699Y-65965045D01*
X127821699Y-65965045D01*
G37*
G36*
X165350699Y-64756445D02*
G01*
X165388195Y-64767820D01*
X165422754Y-64786292D01*
X165453047Y-64811153D01*
X165477908Y-64841446D01*
X165496380Y-64876005D01*
X165507755Y-64913501D01*
X165512200Y-64958638D01*
X165512200Y-65597362D01*
X165507755Y-65642499D01*
X165496380Y-65679995D01*
X165477908Y-65714554D01*
X165453047Y-65744847D01*
X165422754Y-65769708D01*
X165388195Y-65788180D01*
X165350699Y-65799555D01*
X165305562Y-65804000D01*
X164566838Y-65804000D01*
X164521701Y-65799555D01*
X164484205Y-65788180D01*
X164449646Y-65769708D01*
X164419353Y-65744847D01*
X164394492Y-65714554D01*
X164376020Y-65679995D01*
X164364645Y-65642499D01*
X164360200Y-65597362D01*
X164360200Y-64958638D01*
X164364645Y-64913501D01*
X164376020Y-64876005D01*
X164394492Y-64841446D01*
X164419353Y-64811153D01*
X164449646Y-64786292D01*
X164484205Y-64767820D01*
X164521701Y-64756445D01*
X164566838Y-64752000D01*
X165305562Y-64752000D01*
X165350699Y-64756445D01*
X165350699Y-64756445D01*
G37*
G36*
X167100699Y-64756445D02*
G01*
X167138195Y-64767820D01*
X167172754Y-64786292D01*
X167203047Y-64811153D01*
X167227908Y-64841446D01*
X167246380Y-64876005D01*
X167257755Y-64913501D01*
X167262200Y-64958638D01*
X167262200Y-65597362D01*
X167257755Y-65642499D01*
X167246380Y-65679995D01*
X167227908Y-65714554D01*
X167203047Y-65744847D01*
X167172754Y-65769708D01*
X167138195Y-65788180D01*
X167100699Y-65799555D01*
X167055562Y-65804000D01*
X166316838Y-65804000D01*
X166271701Y-65799555D01*
X166234205Y-65788180D01*
X166199646Y-65769708D01*
X166169353Y-65744847D01*
X166144492Y-65714554D01*
X166126020Y-65679995D01*
X166114645Y-65642499D01*
X166110200Y-65597362D01*
X166110200Y-64958638D01*
X166114645Y-64913501D01*
X166126020Y-64876005D01*
X166144492Y-64841446D01*
X166169353Y-64811153D01*
X166199646Y-64786292D01*
X166234205Y-64767820D01*
X166271701Y-64756445D01*
X166316838Y-64752000D01*
X167055562Y-64752000D01*
X167100699Y-64756445D01*
X167100699Y-64756445D01*
G37*
G36*
X104450979Y-60062293D02*
G01*
X104584625Y-60102834D01*
X104707784Y-60168664D01*
X104815740Y-60257260D01*
X104904336Y-60365216D01*
X104970166Y-60488375D01*
X105010707Y-60622021D01*
X105025000Y-60767140D01*
X105025000Y-62930860D01*
X105010707Y-63075979D01*
X104970166Y-63209625D01*
X104904336Y-63332784D01*
X104815740Y-63440740D01*
X104707784Y-63529336D01*
X104584625Y-63595166D01*
X104450979Y-63635707D01*
X104305860Y-63650000D01*
X102642140Y-63650000D01*
X102497021Y-63635707D01*
X102363375Y-63595166D01*
X102240216Y-63529336D01*
X102132260Y-63440740D01*
X102043664Y-63332784D01*
X101977834Y-63209625D01*
X101937293Y-63075979D01*
X101923000Y-62930860D01*
X101923000Y-60767140D01*
X101937293Y-60622021D01*
X101977834Y-60488375D01*
X102043664Y-60365216D01*
X102132260Y-60257260D01*
X102240216Y-60168664D01*
X102363375Y-60102834D01*
X102497021Y-60062293D01*
X102642140Y-60048000D01*
X104305860Y-60048000D01*
X104450979Y-60062293D01*
X104450979Y-60062293D01*
G37*
G36*
X111275000Y-63650000D02*
G01*
X107673000Y-63650000D01*
X107673000Y-60048000D01*
X111275000Y-60048000D01*
X111275000Y-63650000D01*
X111275000Y-63650000D01*
G37*
G36*
X146262042Y-57322318D02*
G01*
X146328227Y-57328837D01*
X146498066Y-57380357D01*
X146654591Y-57464022D01*
X146690329Y-57493352D01*
X146791786Y-57576614D01*
X146862687Y-57663009D01*
X146904378Y-57713809D01*
X146988043Y-57870334D01*
X147039563Y-58040173D01*
X147056959Y-58216800D01*
X147039563Y-58393427D01*
X146988043Y-58563266D01*
X146904378Y-58719791D01*
X146875048Y-58755529D01*
X146791786Y-58856986D01*
X146690329Y-58940248D01*
X146654591Y-58969578D01*
X146498066Y-59053243D01*
X146328227Y-59104763D01*
X146262043Y-59111281D01*
X146195860Y-59117800D01*
X146107340Y-59117800D01*
X146041157Y-59111281D01*
X145974973Y-59104763D01*
X145805134Y-59053243D01*
X145648609Y-58969578D01*
X145612871Y-58940248D01*
X145511414Y-58856986D01*
X145428152Y-58755529D01*
X145398822Y-58719791D01*
X145315157Y-58563266D01*
X145263637Y-58393427D01*
X145246241Y-58216800D01*
X145263637Y-58040173D01*
X145315157Y-57870334D01*
X145398822Y-57713809D01*
X145440513Y-57663009D01*
X145511414Y-57576614D01*
X145612871Y-57493352D01*
X145648609Y-57464022D01*
X145805134Y-57380357D01*
X145974973Y-57328837D01*
X146041158Y-57322318D01*
X146107340Y-57315800D01*
X146195860Y-57315800D01*
X146262042Y-57322318D01*
X146262042Y-57322318D01*
G37*
G36*
X148802042Y-57322318D02*
G01*
X148868227Y-57328837D01*
X149038066Y-57380357D01*
X149194591Y-57464022D01*
X149230329Y-57493352D01*
X149331786Y-57576614D01*
X149402687Y-57663009D01*
X149444378Y-57713809D01*
X149528043Y-57870334D01*
X149579563Y-58040173D01*
X149596959Y-58216800D01*
X149579563Y-58393427D01*
X149528043Y-58563266D01*
X149444378Y-58719791D01*
X149415048Y-58755529D01*
X149331786Y-58856986D01*
X149230329Y-58940248D01*
X149194591Y-58969578D01*
X149038066Y-59053243D01*
X148868227Y-59104763D01*
X148802043Y-59111281D01*
X148735860Y-59117800D01*
X148647340Y-59117800D01*
X148581157Y-59111281D01*
X148514973Y-59104763D01*
X148345134Y-59053243D01*
X148188609Y-58969578D01*
X148152871Y-58940248D01*
X148051414Y-58856986D01*
X147968152Y-58755529D01*
X147938822Y-58719791D01*
X147855157Y-58563266D01*
X147803637Y-58393427D01*
X147786241Y-58216800D01*
X147803637Y-58040173D01*
X147855157Y-57870334D01*
X147938822Y-57713809D01*
X147980513Y-57663009D01*
X148051414Y-57576614D01*
X148152871Y-57493352D01*
X148188609Y-57464022D01*
X148345134Y-57380357D01*
X148514973Y-57328837D01*
X148581158Y-57322318D01*
X148647340Y-57315800D01*
X148735860Y-57315800D01*
X148802042Y-57322318D01*
X148802042Y-57322318D01*
G37*
G36*
X143722042Y-57322318D02*
G01*
X143788227Y-57328837D01*
X143958066Y-57380357D01*
X144114591Y-57464022D01*
X144150329Y-57493352D01*
X144251786Y-57576614D01*
X144322687Y-57663009D01*
X144364378Y-57713809D01*
X144448043Y-57870334D01*
X144499563Y-58040173D01*
X144516959Y-58216800D01*
X144499563Y-58393427D01*
X144448043Y-58563266D01*
X144364378Y-58719791D01*
X144335048Y-58755529D01*
X144251786Y-58856986D01*
X144150329Y-58940248D01*
X144114591Y-58969578D01*
X143958066Y-59053243D01*
X143788227Y-59104763D01*
X143722043Y-59111281D01*
X143655860Y-59117800D01*
X143567340Y-59117800D01*
X143501157Y-59111281D01*
X143434973Y-59104763D01*
X143265134Y-59053243D01*
X143108609Y-58969578D01*
X143072871Y-58940248D01*
X142971414Y-58856986D01*
X142888152Y-58755529D01*
X142858822Y-58719791D01*
X142775157Y-58563266D01*
X142723637Y-58393427D01*
X142706241Y-58216800D01*
X142723637Y-58040173D01*
X142775157Y-57870334D01*
X142858822Y-57713809D01*
X142900513Y-57663009D01*
X142971414Y-57576614D01*
X143072871Y-57493352D01*
X143108609Y-57464022D01*
X143265134Y-57380357D01*
X143434973Y-57328837D01*
X143501158Y-57322318D01*
X143567340Y-57315800D01*
X143655860Y-57315800D01*
X143722042Y-57322318D01*
X143722042Y-57322318D01*
G37*
G36*
X141182042Y-57322318D02*
G01*
X141248227Y-57328837D01*
X141418066Y-57380357D01*
X141574591Y-57464022D01*
X141610329Y-57493352D01*
X141711786Y-57576614D01*
X141782687Y-57663009D01*
X141824378Y-57713809D01*
X141908043Y-57870334D01*
X141959563Y-58040173D01*
X141976959Y-58216800D01*
X141959563Y-58393427D01*
X141908043Y-58563266D01*
X141824378Y-58719791D01*
X141795048Y-58755529D01*
X141711786Y-58856986D01*
X141610329Y-58940248D01*
X141574591Y-58969578D01*
X141418066Y-59053243D01*
X141248227Y-59104763D01*
X141182043Y-59111281D01*
X141115860Y-59117800D01*
X141027340Y-59117800D01*
X140961157Y-59111281D01*
X140894973Y-59104763D01*
X140725134Y-59053243D01*
X140568609Y-58969578D01*
X140532871Y-58940248D01*
X140431414Y-58856986D01*
X140348152Y-58755529D01*
X140318822Y-58719791D01*
X140235157Y-58563266D01*
X140183637Y-58393427D01*
X140166241Y-58216800D01*
X140183637Y-58040173D01*
X140235157Y-57870334D01*
X140318822Y-57713809D01*
X140360513Y-57663009D01*
X140431414Y-57576614D01*
X140532871Y-57493352D01*
X140568609Y-57464022D01*
X140725134Y-57380357D01*
X140894973Y-57328837D01*
X140961158Y-57322318D01*
X141027340Y-57315800D01*
X141115860Y-57315800D01*
X141182042Y-57322318D01*
X141182042Y-57322318D01*
G37*
G36*
X138642042Y-57322318D02*
G01*
X138708227Y-57328837D01*
X138878066Y-57380357D01*
X139034591Y-57464022D01*
X139070329Y-57493352D01*
X139171786Y-57576614D01*
X139242687Y-57663009D01*
X139284378Y-57713809D01*
X139368043Y-57870334D01*
X139419563Y-58040173D01*
X139436959Y-58216800D01*
X139419563Y-58393427D01*
X139368043Y-58563266D01*
X139284378Y-58719791D01*
X139255048Y-58755529D01*
X139171786Y-58856986D01*
X139070329Y-58940248D01*
X139034591Y-58969578D01*
X138878066Y-59053243D01*
X138708227Y-59104763D01*
X138642043Y-59111281D01*
X138575860Y-59117800D01*
X138487340Y-59117800D01*
X138421157Y-59111281D01*
X138354973Y-59104763D01*
X138185134Y-59053243D01*
X138028609Y-58969578D01*
X137992871Y-58940248D01*
X137891414Y-58856986D01*
X137808152Y-58755529D01*
X137778822Y-58719791D01*
X137695157Y-58563266D01*
X137643637Y-58393427D01*
X137626241Y-58216800D01*
X137643637Y-58040173D01*
X137695157Y-57870334D01*
X137778822Y-57713809D01*
X137820513Y-57663009D01*
X137891414Y-57576614D01*
X137992871Y-57493352D01*
X138028609Y-57464022D01*
X138185134Y-57380357D01*
X138354973Y-57328837D01*
X138421158Y-57322318D01*
X138487340Y-57315800D01*
X138575860Y-57315800D01*
X138642042Y-57322318D01*
X138642042Y-57322318D01*
G37*
G36*
X136102042Y-57322318D02*
G01*
X136168227Y-57328837D01*
X136338066Y-57380357D01*
X136494591Y-57464022D01*
X136530329Y-57493352D01*
X136631786Y-57576614D01*
X136702687Y-57663009D01*
X136744378Y-57713809D01*
X136828043Y-57870334D01*
X136879563Y-58040173D01*
X136896959Y-58216800D01*
X136879563Y-58393427D01*
X136828043Y-58563266D01*
X136744378Y-58719791D01*
X136715048Y-58755529D01*
X136631786Y-58856986D01*
X136530329Y-58940248D01*
X136494591Y-58969578D01*
X136338066Y-59053243D01*
X136168227Y-59104763D01*
X136102043Y-59111281D01*
X136035860Y-59117800D01*
X135947340Y-59117800D01*
X135881157Y-59111281D01*
X135814973Y-59104763D01*
X135645134Y-59053243D01*
X135488609Y-58969578D01*
X135452871Y-58940248D01*
X135351414Y-58856986D01*
X135268152Y-58755529D01*
X135238822Y-58719791D01*
X135155157Y-58563266D01*
X135103637Y-58393427D01*
X135086241Y-58216800D01*
X135103637Y-58040173D01*
X135155157Y-57870334D01*
X135238822Y-57713809D01*
X135280513Y-57663009D01*
X135351414Y-57576614D01*
X135452871Y-57493352D01*
X135488609Y-57464022D01*
X135645134Y-57380357D01*
X135814973Y-57328837D01*
X135881158Y-57322318D01*
X135947340Y-57315800D01*
X136035860Y-57315800D01*
X136102042Y-57322318D01*
X136102042Y-57322318D01*
G37*
G36*
X133562042Y-57322318D02*
G01*
X133628227Y-57328837D01*
X133798066Y-57380357D01*
X133954591Y-57464022D01*
X133990329Y-57493352D01*
X134091786Y-57576614D01*
X134162687Y-57663009D01*
X134204378Y-57713809D01*
X134288043Y-57870334D01*
X134339563Y-58040173D01*
X134356959Y-58216800D01*
X134339563Y-58393427D01*
X134288043Y-58563266D01*
X134204378Y-58719791D01*
X134175048Y-58755529D01*
X134091786Y-58856986D01*
X133990329Y-58940248D01*
X133954591Y-58969578D01*
X133798066Y-59053243D01*
X133628227Y-59104763D01*
X133562043Y-59111281D01*
X133495860Y-59117800D01*
X133407340Y-59117800D01*
X133341157Y-59111281D01*
X133274973Y-59104763D01*
X133105134Y-59053243D01*
X132948609Y-58969578D01*
X132912871Y-58940248D01*
X132811414Y-58856986D01*
X132728152Y-58755529D01*
X132698822Y-58719791D01*
X132615157Y-58563266D01*
X132563637Y-58393427D01*
X132546241Y-58216800D01*
X132563637Y-58040173D01*
X132615157Y-57870334D01*
X132698822Y-57713809D01*
X132740513Y-57663009D01*
X132811414Y-57576614D01*
X132912871Y-57493352D01*
X132948609Y-57464022D01*
X133105134Y-57380357D01*
X133274973Y-57328837D01*
X133341158Y-57322318D01*
X133407340Y-57315800D01*
X133495860Y-57315800D01*
X133562042Y-57322318D01*
X133562042Y-57322318D01*
G37*
G36*
X131812600Y-59117800D02*
G01*
X130010600Y-59117800D01*
X130010600Y-57315800D01*
X131812600Y-57315800D01*
X131812600Y-59117800D01*
X131812600Y-59117800D01*
G37*
G36*
X124418043Y-57271519D02*
G01*
X124484227Y-57278037D01*
X124654066Y-57329557D01*
X124810591Y-57413222D01*
X124846329Y-57442552D01*
X124947786Y-57525814D01*
X125031048Y-57627271D01*
X125060378Y-57663009D01*
X125144043Y-57819534D01*
X125195563Y-57989373D01*
X125212959Y-58166000D01*
X125195563Y-58342627D01*
X125144043Y-58512466D01*
X125060378Y-58668991D01*
X125031048Y-58704729D01*
X124947786Y-58806186D01*
X124846329Y-58889448D01*
X124810591Y-58918778D01*
X124654066Y-59002443D01*
X124484227Y-59053963D01*
X124418043Y-59060481D01*
X124351860Y-59067000D01*
X124263340Y-59067000D01*
X124197157Y-59060481D01*
X124130973Y-59053963D01*
X123961134Y-59002443D01*
X123804609Y-58918778D01*
X123768871Y-58889448D01*
X123667414Y-58806186D01*
X123584152Y-58704729D01*
X123554822Y-58668991D01*
X123471157Y-58512466D01*
X123419637Y-58342627D01*
X123402241Y-58166000D01*
X123419637Y-57989373D01*
X123471157Y-57819534D01*
X123554822Y-57663009D01*
X123584152Y-57627271D01*
X123667414Y-57525814D01*
X123768871Y-57442552D01*
X123804609Y-57413222D01*
X123961134Y-57329557D01*
X124130973Y-57278037D01*
X124197157Y-57271519D01*
X124263340Y-57265000D01*
X124351860Y-57265000D01*
X124418043Y-57271519D01*
X124418043Y-57271519D01*
G37*
G36*
X121878043Y-57271519D02*
G01*
X121944227Y-57278037D01*
X122114066Y-57329557D01*
X122270591Y-57413222D01*
X122306329Y-57442552D01*
X122407786Y-57525814D01*
X122491048Y-57627271D01*
X122520378Y-57663009D01*
X122604043Y-57819534D01*
X122655563Y-57989373D01*
X122672959Y-58166000D01*
X122655563Y-58342627D01*
X122604043Y-58512466D01*
X122520378Y-58668991D01*
X122491048Y-58704729D01*
X122407786Y-58806186D01*
X122306329Y-58889448D01*
X122270591Y-58918778D01*
X122114066Y-59002443D01*
X121944227Y-59053963D01*
X121878043Y-59060481D01*
X121811860Y-59067000D01*
X121723340Y-59067000D01*
X121657157Y-59060481D01*
X121590973Y-59053963D01*
X121421134Y-59002443D01*
X121264609Y-58918778D01*
X121228871Y-58889448D01*
X121127414Y-58806186D01*
X121044152Y-58704729D01*
X121014822Y-58668991D01*
X120931157Y-58512466D01*
X120879637Y-58342627D01*
X120862241Y-58166000D01*
X120879637Y-57989373D01*
X120931157Y-57819534D01*
X121014822Y-57663009D01*
X121044152Y-57627271D01*
X121127414Y-57525814D01*
X121228871Y-57442552D01*
X121264609Y-57413222D01*
X121421134Y-57329557D01*
X121590973Y-57278037D01*
X121657157Y-57271519D01*
X121723340Y-57265000D01*
X121811860Y-57265000D01*
X121878043Y-57271519D01*
X121878043Y-57271519D01*
G37*
G36*
X104862170Y-50538379D02*
G01*
X105156868Y-50596998D01*
X105712067Y-50826969D01*
X105997867Y-51017935D01*
X106211733Y-51160835D01*
X106636665Y-51585767D01*
X106779565Y-51799633D01*
X106970531Y-52085433D01*
X107166257Y-52557958D01*
X107200502Y-52640633D01*
X107307270Y-53177389D01*
X107317740Y-53230028D01*
X107317740Y-53830972D01*
X107200502Y-54420368D01*
X106970531Y-54975567D01*
X106838068Y-55173811D01*
X106636665Y-55475233D01*
X106211733Y-55900165D01*
X105997867Y-56043065D01*
X105712067Y-56234031D01*
X105156868Y-56464002D01*
X104909321Y-56513242D01*
X104567473Y-56581240D01*
X103966527Y-56581240D01*
X103624679Y-56513242D01*
X103377132Y-56464002D01*
X102821933Y-56234031D01*
X102536133Y-56043065D01*
X102322267Y-55900165D01*
X101897335Y-55475233D01*
X101695932Y-55173811D01*
X101563469Y-54975567D01*
X101333498Y-54420368D01*
X101216260Y-53830972D01*
X101216260Y-53230028D01*
X101226731Y-53177389D01*
X101333498Y-52640633D01*
X101367743Y-52557958D01*
X101563469Y-52085433D01*
X101754435Y-51799633D01*
X101897335Y-51585767D01*
X102322267Y-51160835D01*
X102536133Y-51017935D01*
X102821933Y-50826969D01*
X103377132Y-50596998D01*
X103671830Y-50538379D01*
X103966527Y-50479760D01*
X104567473Y-50479760D01*
X104862170Y-50538379D01*
X104862170Y-50538379D01*
G37*
G36*
X113307670Y-50538379D02*
G01*
X113602368Y-50596998D01*
X114157567Y-50826969D01*
X114443367Y-51017935D01*
X114657233Y-51160835D01*
X115082165Y-51585767D01*
X115225065Y-51799633D01*
X115416031Y-52085433D01*
X115611757Y-52557958D01*
X115646002Y-52640633D01*
X115752770Y-53177389D01*
X115763240Y-53230028D01*
X115763240Y-53830972D01*
X115646002Y-54420368D01*
X115416031Y-54975567D01*
X115283568Y-55173811D01*
X115082165Y-55475233D01*
X114657233Y-55900165D01*
X114443367Y-56043065D01*
X114157567Y-56234031D01*
X113602368Y-56464002D01*
X113354821Y-56513242D01*
X113012973Y-56581240D01*
X112412027Y-56581240D01*
X112070179Y-56513242D01*
X111822632Y-56464002D01*
X111267433Y-56234031D01*
X110981633Y-56043065D01*
X110767767Y-55900165D01*
X110342835Y-55475233D01*
X110141432Y-55173811D01*
X110008969Y-54975567D01*
X109778998Y-54420368D01*
X109661760Y-53830972D01*
X109661760Y-53230028D01*
X109672231Y-53177389D01*
X109778998Y-52640633D01*
X109813243Y-52557958D01*
X110008969Y-52085433D01*
X110199935Y-51799633D01*
X110342835Y-51585767D01*
X110767767Y-51160835D01*
X110981633Y-51017935D01*
X111267433Y-50826969D01*
X111822632Y-50596998D01*
X112117330Y-50538379D01*
X112412027Y-50479760D01*
X113012973Y-50479760D01*
X113307670Y-50538379D01*
X113307670Y-50538379D01*
G37*
G36*
X146262043Y-54782319D02*
G01*
X146328227Y-54788837D01*
X146498066Y-54840357D01*
X146654591Y-54924022D01*
X146690329Y-54953352D01*
X146791786Y-55036614D01*
X146862687Y-55123009D01*
X146904378Y-55173809D01*
X146988043Y-55330334D01*
X147039563Y-55500173D01*
X147056959Y-55676800D01*
X147039563Y-55853427D01*
X146988043Y-56023266D01*
X146904378Y-56179791D01*
X146892463Y-56194309D01*
X146791786Y-56316986D01*
X146690329Y-56400248D01*
X146654591Y-56429578D01*
X146498066Y-56513243D01*
X146328227Y-56564763D01*
X146262042Y-56571282D01*
X146195860Y-56577800D01*
X146107340Y-56577800D01*
X146041158Y-56571282D01*
X145974973Y-56564763D01*
X145805134Y-56513243D01*
X145648609Y-56429578D01*
X145612871Y-56400248D01*
X145511414Y-56316986D01*
X145410737Y-56194309D01*
X145398822Y-56179791D01*
X145315157Y-56023266D01*
X145263637Y-55853427D01*
X145246241Y-55676800D01*
X145263637Y-55500173D01*
X145315157Y-55330334D01*
X145398822Y-55173809D01*
X145440513Y-55123009D01*
X145511414Y-55036614D01*
X145612871Y-54953352D01*
X145648609Y-54924022D01*
X145805134Y-54840357D01*
X145974973Y-54788837D01*
X146041157Y-54782319D01*
X146107340Y-54775800D01*
X146195860Y-54775800D01*
X146262043Y-54782319D01*
X146262043Y-54782319D01*
G37*
G36*
X133562043Y-54782319D02*
G01*
X133628227Y-54788837D01*
X133798066Y-54840357D01*
X133954591Y-54924022D01*
X133990329Y-54953352D01*
X134091786Y-55036614D01*
X134162687Y-55123009D01*
X134204378Y-55173809D01*
X134288043Y-55330334D01*
X134339563Y-55500173D01*
X134356959Y-55676800D01*
X134339563Y-55853427D01*
X134288043Y-56023266D01*
X134204378Y-56179791D01*
X134192463Y-56194309D01*
X134091786Y-56316986D01*
X133990329Y-56400248D01*
X133954591Y-56429578D01*
X133798066Y-56513243D01*
X133628227Y-56564763D01*
X133562042Y-56571282D01*
X133495860Y-56577800D01*
X133407340Y-56577800D01*
X133341158Y-56571282D01*
X133274973Y-56564763D01*
X133105134Y-56513243D01*
X132948609Y-56429578D01*
X132912871Y-56400248D01*
X132811414Y-56316986D01*
X132710737Y-56194309D01*
X132698822Y-56179791D01*
X132615157Y-56023266D01*
X132563637Y-55853427D01*
X132546241Y-55676800D01*
X132563637Y-55500173D01*
X132615157Y-55330334D01*
X132698822Y-55173809D01*
X132740513Y-55123009D01*
X132811414Y-55036614D01*
X132912871Y-54953352D01*
X132948609Y-54924022D01*
X133105134Y-54840357D01*
X133274973Y-54788837D01*
X133341157Y-54782319D01*
X133407340Y-54775800D01*
X133495860Y-54775800D01*
X133562043Y-54782319D01*
X133562043Y-54782319D01*
G37*
G36*
X136102043Y-54782319D02*
G01*
X136168227Y-54788837D01*
X136338066Y-54840357D01*
X136494591Y-54924022D01*
X136530329Y-54953352D01*
X136631786Y-55036614D01*
X136702687Y-55123009D01*
X136744378Y-55173809D01*
X136828043Y-55330334D01*
X136879563Y-55500173D01*
X136896959Y-55676800D01*
X136879563Y-55853427D01*
X136828043Y-56023266D01*
X136744378Y-56179791D01*
X136732463Y-56194309D01*
X136631786Y-56316986D01*
X136530329Y-56400248D01*
X136494591Y-56429578D01*
X136338066Y-56513243D01*
X136168227Y-56564763D01*
X136102042Y-56571282D01*
X136035860Y-56577800D01*
X135947340Y-56577800D01*
X135881158Y-56571282D01*
X135814973Y-56564763D01*
X135645134Y-56513243D01*
X135488609Y-56429578D01*
X135452871Y-56400248D01*
X135351414Y-56316986D01*
X135250737Y-56194309D01*
X135238822Y-56179791D01*
X135155157Y-56023266D01*
X135103637Y-55853427D01*
X135086241Y-55676800D01*
X135103637Y-55500173D01*
X135155157Y-55330334D01*
X135238822Y-55173809D01*
X135280513Y-55123009D01*
X135351414Y-55036614D01*
X135452871Y-54953352D01*
X135488609Y-54924022D01*
X135645134Y-54840357D01*
X135814973Y-54788837D01*
X135881157Y-54782319D01*
X135947340Y-54775800D01*
X136035860Y-54775800D01*
X136102043Y-54782319D01*
X136102043Y-54782319D01*
G37*
G36*
X138642043Y-54782319D02*
G01*
X138708227Y-54788837D01*
X138878066Y-54840357D01*
X139034591Y-54924022D01*
X139070329Y-54953352D01*
X139171786Y-55036614D01*
X139242687Y-55123009D01*
X139284378Y-55173809D01*
X139368043Y-55330334D01*
X139419563Y-55500173D01*
X139436959Y-55676800D01*
X139419563Y-55853427D01*
X139368043Y-56023266D01*
X139284378Y-56179791D01*
X139272463Y-56194309D01*
X139171786Y-56316986D01*
X139070329Y-56400248D01*
X139034591Y-56429578D01*
X138878066Y-56513243D01*
X138708227Y-56564763D01*
X138642042Y-56571282D01*
X138575860Y-56577800D01*
X138487340Y-56577800D01*
X138421158Y-56571282D01*
X138354973Y-56564763D01*
X138185134Y-56513243D01*
X138028609Y-56429578D01*
X137992871Y-56400248D01*
X137891414Y-56316986D01*
X137790737Y-56194309D01*
X137778822Y-56179791D01*
X137695157Y-56023266D01*
X137643637Y-55853427D01*
X137626241Y-55676800D01*
X137643637Y-55500173D01*
X137695157Y-55330334D01*
X137778822Y-55173809D01*
X137820513Y-55123009D01*
X137891414Y-55036614D01*
X137992871Y-54953352D01*
X138028609Y-54924022D01*
X138185134Y-54840357D01*
X138354973Y-54788837D01*
X138421157Y-54782319D01*
X138487340Y-54775800D01*
X138575860Y-54775800D01*
X138642043Y-54782319D01*
X138642043Y-54782319D01*
G37*
G36*
X148802043Y-54782319D02*
G01*
X148868227Y-54788837D01*
X149038066Y-54840357D01*
X149194591Y-54924022D01*
X149230329Y-54953352D01*
X149331786Y-55036614D01*
X149402687Y-55123009D01*
X149444378Y-55173809D01*
X149528043Y-55330334D01*
X149579563Y-55500173D01*
X149596959Y-55676800D01*
X149579563Y-55853427D01*
X149528043Y-56023266D01*
X149444378Y-56179791D01*
X149432463Y-56194309D01*
X149331786Y-56316986D01*
X149230329Y-56400248D01*
X149194591Y-56429578D01*
X149038066Y-56513243D01*
X148868227Y-56564763D01*
X148802042Y-56571282D01*
X148735860Y-56577800D01*
X148647340Y-56577800D01*
X148581158Y-56571282D01*
X148514973Y-56564763D01*
X148345134Y-56513243D01*
X148188609Y-56429578D01*
X148152871Y-56400248D01*
X148051414Y-56316986D01*
X147950737Y-56194309D01*
X147938822Y-56179791D01*
X147855157Y-56023266D01*
X147803637Y-55853427D01*
X147786241Y-55676800D01*
X147803637Y-55500173D01*
X147855157Y-55330334D01*
X147938822Y-55173809D01*
X147980513Y-55123009D01*
X148051414Y-55036614D01*
X148152871Y-54953352D01*
X148188609Y-54924022D01*
X148345134Y-54840357D01*
X148514973Y-54788837D01*
X148581157Y-54782319D01*
X148647340Y-54775800D01*
X148735860Y-54775800D01*
X148802043Y-54782319D01*
X148802043Y-54782319D01*
G37*
G36*
X131022043Y-54782319D02*
G01*
X131088227Y-54788837D01*
X131258066Y-54840357D01*
X131414591Y-54924022D01*
X131450329Y-54953352D01*
X131551786Y-55036614D01*
X131622687Y-55123009D01*
X131664378Y-55173809D01*
X131748043Y-55330334D01*
X131799563Y-55500173D01*
X131816959Y-55676800D01*
X131799563Y-55853427D01*
X131748043Y-56023266D01*
X131664378Y-56179791D01*
X131652463Y-56194309D01*
X131551786Y-56316986D01*
X131450329Y-56400248D01*
X131414591Y-56429578D01*
X131258066Y-56513243D01*
X131088227Y-56564763D01*
X131022042Y-56571282D01*
X130955860Y-56577800D01*
X130867340Y-56577800D01*
X130801158Y-56571282D01*
X130734973Y-56564763D01*
X130565134Y-56513243D01*
X130408609Y-56429578D01*
X130372871Y-56400248D01*
X130271414Y-56316986D01*
X130170737Y-56194309D01*
X130158822Y-56179791D01*
X130075157Y-56023266D01*
X130023637Y-55853427D01*
X130006241Y-55676800D01*
X130023637Y-55500173D01*
X130075157Y-55330334D01*
X130158822Y-55173809D01*
X130200513Y-55123009D01*
X130271414Y-55036614D01*
X130372871Y-54953352D01*
X130408609Y-54924022D01*
X130565134Y-54840357D01*
X130734973Y-54788837D01*
X130801157Y-54782319D01*
X130867340Y-54775800D01*
X130955860Y-54775800D01*
X131022043Y-54782319D01*
X131022043Y-54782319D01*
G37*
G36*
X141182043Y-54782319D02*
G01*
X141248227Y-54788837D01*
X141418066Y-54840357D01*
X141574591Y-54924022D01*
X141610329Y-54953352D01*
X141711786Y-55036614D01*
X141782687Y-55123009D01*
X141824378Y-55173809D01*
X141908043Y-55330334D01*
X141959563Y-55500173D01*
X141976959Y-55676800D01*
X141959563Y-55853427D01*
X141908043Y-56023266D01*
X141824378Y-56179791D01*
X141812463Y-56194309D01*
X141711786Y-56316986D01*
X141610329Y-56400248D01*
X141574591Y-56429578D01*
X141418066Y-56513243D01*
X141248227Y-56564763D01*
X141182042Y-56571282D01*
X141115860Y-56577800D01*
X141027340Y-56577800D01*
X140961158Y-56571282D01*
X140894973Y-56564763D01*
X140725134Y-56513243D01*
X140568609Y-56429578D01*
X140532871Y-56400248D01*
X140431414Y-56316986D01*
X140330737Y-56194309D01*
X140318822Y-56179791D01*
X140235157Y-56023266D01*
X140183637Y-55853427D01*
X140166241Y-55676800D01*
X140183637Y-55500173D01*
X140235157Y-55330334D01*
X140318822Y-55173809D01*
X140360513Y-55123009D01*
X140431414Y-55036614D01*
X140532871Y-54953352D01*
X140568609Y-54924022D01*
X140725134Y-54840357D01*
X140894973Y-54788837D01*
X140961157Y-54782319D01*
X141027340Y-54775800D01*
X141115860Y-54775800D01*
X141182043Y-54782319D01*
X141182043Y-54782319D01*
G37*
G36*
X143722043Y-54782319D02*
G01*
X143788227Y-54788837D01*
X143958066Y-54840357D01*
X144114591Y-54924022D01*
X144150329Y-54953352D01*
X144251786Y-55036614D01*
X144322687Y-55123009D01*
X144364378Y-55173809D01*
X144448043Y-55330334D01*
X144499563Y-55500173D01*
X144516959Y-55676800D01*
X144499563Y-55853427D01*
X144448043Y-56023266D01*
X144364378Y-56179791D01*
X144352463Y-56194309D01*
X144251786Y-56316986D01*
X144150329Y-56400248D01*
X144114591Y-56429578D01*
X143958066Y-56513243D01*
X143788227Y-56564763D01*
X143722042Y-56571282D01*
X143655860Y-56577800D01*
X143567340Y-56577800D01*
X143501158Y-56571282D01*
X143434973Y-56564763D01*
X143265134Y-56513243D01*
X143108609Y-56429578D01*
X143072871Y-56400248D01*
X142971414Y-56316986D01*
X142870737Y-56194309D01*
X142858822Y-56179791D01*
X142775157Y-56023266D01*
X142723637Y-55853427D01*
X142706241Y-55676800D01*
X142723637Y-55500173D01*
X142775157Y-55330334D01*
X142858822Y-55173809D01*
X142900513Y-55123009D01*
X142971414Y-55036614D01*
X143072871Y-54953352D01*
X143108609Y-54924022D01*
X143265134Y-54840357D01*
X143434973Y-54788837D01*
X143501157Y-54782319D01*
X143567340Y-54775800D01*
X143655860Y-54775800D01*
X143722043Y-54782319D01*
X143722043Y-54782319D01*
G37*
G36*
X125208600Y-56527000D02*
G01*
X123406600Y-56527000D01*
X123406600Y-54725000D01*
X125208600Y-54725000D01*
X125208600Y-56527000D01*
X125208600Y-56527000D01*
G37*
G36*
X121878042Y-54731518D02*
G01*
X121944227Y-54738037D01*
X122114066Y-54789557D01*
X122270591Y-54873222D01*
X122306329Y-54902552D01*
X122407786Y-54985814D01*
X122491048Y-55087271D01*
X122520378Y-55123009D01*
X122604043Y-55279534D01*
X122655563Y-55449373D01*
X122672959Y-55626000D01*
X122655563Y-55802627D01*
X122604043Y-55972466D01*
X122520378Y-56128991D01*
X122508881Y-56143000D01*
X122407786Y-56266186D01*
X122309499Y-56346847D01*
X122270591Y-56378778D01*
X122114066Y-56462443D01*
X121944227Y-56513963D01*
X121878042Y-56520482D01*
X121811860Y-56527000D01*
X121723340Y-56527000D01*
X121657158Y-56520482D01*
X121590973Y-56513963D01*
X121421134Y-56462443D01*
X121264609Y-56378778D01*
X121225701Y-56346847D01*
X121127414Y-56266186D01*
X121026319Y-56143000D01*
X121014822Y-56128991D01*
X120931157Y-55972466D01*
X120879637Y-55802627D01*
X120862241Y-55626000D01*
X120879637Y-55449373D01*
X120931157Y-55279534D01*
X121014822Y-55123009D01*
X121044152Y-55087271D01*
X121127414Y-54985814D01*
X121228871Y-54902552D01*
X121264609Y-54873222D01*
X121421134Y-54789557D01*
X121590973Y-54738037D01*
X121657158Y-54731518D01*
X121723340Y-54725000D01*
X121811860Y-54725000D01*
X121878042Y-54731518D01*
X121878042Y-54731518D01*
G37*
G36*
X169031099Y-55358445D02*
G01*
X169068595Y-55369820D01*
X169103154Y-55388292D01*
X169133447Y-55413153D01*
X169158308Y-55443446D01*
X169176780Y-55478005D01*
X169188155Y-55515501D01*
X169192600Y-55560638D01*
X169192600Y-56199362D01*
X169188155Y-56244499D01*
X169176780Y-56281995D01*
X169158308Y-56316554D01*
X169133447Y-56346847D01*
X169103154Y-56371708D01*
X169068595Y-56390180D01*
X169031099Y-56401555D01*
X168985962Y-56406000D01*
X168247238Y-56406000D01*
X168202101Y-56401555D01*
X168164605Y-56390180D01*
X168130046Y-56371708D01*
X168099753Y-56346847D01*
X168074892Y-56316554D01*
X168056420Y-56281995D01*
X168045045Y-56244499D01*
X168040600Y-56199362D01*
X168040600Y-55560638D01*
X168045045Y-55515501D01*
X168056420Y-55478005D01*
X168074892Y-55443446D01*
X168099753Y-55413153D01*
X168130046Y-55388292D01*
X168164605Y-55369820D01*
X168202101Y-55358445D01*
X168247238Y-55354000D01*
X168985962Y-55354000D01*
X169031099Y-55358445D01*
X169031099Y-55358445D01*
G37*
G36*
X167281099Y-55358445D02*
G01*
X167318595Y-55369820D01*
X167353154Y-55388292D01*
X167383447Y-55413153D01*
X167408308Y-55443446D01*
X167426780Y-55478005D01*
X167438155Y-55515501D01*
X167442600Y-55560638D01*
X167442600Y-56199362D01*
X167438155Y-56244499D01*
X167426780Y-56281995D01*
X167408308Y-56316554D01*
X167383447Y-56346847D01*
X167353154Y-56371708D01*
X167318595Y-56390180D01*
X167281099Y-56401555D01*
X167235962Y-56406000D01*
X166497238Y-56406000D01*
X166452101Y-56401555D01*
X166414605Y-56390180D01*
X166380046Y-56371708D01*
X166349753Y-56346847D01*
X166324892Y-56316554D01*
X166306420Y-56281995D01*
X166295045Y-56244499D01*
X166290600Y-56199362D01*
X166290600Y-55560638D01*
X166295045Y-55515501D01*
X166306420Y-55478005D01*
X166324892Y-55443446D01*
X166349753Y-55413153D01*
X166380046Y-55388292D01*
X166414605Y-55369820D01*
X166452101Y-55358445D01*
X166497238Y-55354000D01*
X167235962Y-55354000D01*
X167281099Y-55358445D01*
X167281099Y-55358445D01*
G37*
G36*
X98419256Y-51731298D02*
G01*
X98525579Y-51752447D01*
X98826042Y-51876903D01*
X99096451Y-52057585D01*
X99326415Y-52287549D01*
X99507097Y-52557958D01*
X99631553Y-52858421D01*
X99695000Y-53177391D01*
X99695000Y-53502609D01*
X99631553Y-53821579D01*
X99507097Y-54122042D01*
X99326415Y-54392451D01*
X99096451Y-54622415D01*
X98826042Y-54803097D01*
X98525579Y-54927553D01*
X98419256Y-54948702D01*
X98206611Y-54991000D01*
X97881389Y-54991000D01*
X97668744Y-54948702D01*
X97562421Y-54927553D01*
X97261958Y-54803097D01*
X96991549Y-54622415D01*
X96761585Y-54392451D01*
X96580903Y-54122042D01*
X96456447Y-53821579D01*
X96393000Y-53502609D01*
X96393000Y-53177391D01*
X96456447Y-52858421D01*
X96580903Y-52557958D01*
X96761585Y-52287549D01*
X96991549Y-52057585D01*
X97261958Y-51876903D01*
X97562421Y-51752447D01*
X97668744Y-51731298D01*
X97881389Y-51689000D01*
X98206611Y-51689000D01*
X98419256Y-51731298D01*
X98419256Y-51731298D01*
G37*
G36*
X191510256Y-51667798D02*
G01*
X191616579Y-51688947D01*
X191917042Y-51813403D01*
X192187451Y-51994085D01*
X192417415Y-52224049D01*
X192598097Y-52494458D01*
X192722553Y-52794921D01*
X192786000Y-53113891D01*
X192786000Y-53439109D01*
X192722553Y-53758079D01*
X192598097Y-54058542D01*
X192417415Y-54328951D01*
X192187451Y-54558915D01*
X191917042Y-54739597D01*
X191616579Y-54864053D01*
X191570488Y-54873221D01*
X191297611Y-54927500D01*
X190972389Y-54927500D01*
X190699512Y-54873221D01*
X190653421Y-54864053D01*
X190352958Y-54739597D01*
X190082549Y-54558915D01*
X189852585Y-54328951D01*
X189671903Y-54058542D01*
X189547447Y-53758079D01*
X189484000Y-53439109D01*
X189484000Y-53113891D01*
X189547447Y-52794921D01*
X189671903Y-52494458D01*
X189852585Y-52224049D01*
X190082549Y-51994085D01*
X190352958Y-51813403D01*
X190653421Y-51688947D01*
X190759744Y-51667798D01*
X190972389Y-51625500D01*
X191297611Y-51625500D01*
X191510256Y-51667798D01*
X191510256Y-51667798D01*
G37*
G36*
X138973600Y-53885400D02*
G01*
X138221600Y-53885400D01*
X138221600Y-52083400D01*
X138973600Y-52083400D01*
X138973600Y-53885400D01*
X138973600Y-53885400D01*
G37*
G36*
X140873600Y-53885400D02*
G01*
X140121600Y-53885400D01*
X140121600Y-53383400D01*
X140873600Y-53383400D01*
X140873600Y-53885400D01*
X140873600Y-53885400D01*
G37*
G36*
X148424200Y-53726200D02*
G01*
X146622200Y-53726200D01*
X146622200Y-52974200D01*
X148424200Y-52974200D01*
X148424200Y-53726200D01*
X148424200Y-53726200D01*
G37*
G36*
X140873600Y-52585400D02*
G01*
X140121600Y-52585400D01*
X140121600Y-52083400D01*
X140873600Y-52083400D01*
X140873600Y-52585400D01*
X140873600Y-52585400D01*
G37*
G36*
X148424200Y-51826200D02*
G01*
X147922200Y-51826200D01*
X147922200Y-51074200D01*
X148424200Y-51074200D01*
X148424200Y-51826200D01*
X148424200Y-51826200D01*
G37*
G36*
X147124200Y-51826200D02*
G01*
X146622200Y-51826200D01*
X146622200Y-51074200D01*
X147124200Y-51074200D01*
X147124200Y-51826200D01*
X147124200Y-51826200D01*
G37*
M02*
