G04 #@! TF.GenerationSoftware,KiCad,Pcbnew,(5.1.0)-1*
G04 #@! TF.CreationDate,2019-05-24T17:58:47+02:00*
G04 #@! TF.ProjectId,TiN_analog_sensor_emulation,54694e5f-616e-4616-9c6f-675f73656e73,rev?*
G04 #@! TF.SameCoordinates,Original*
G04 #@! TF.FileFunction,Legend,Bot*
G04 #@! TF.FilePolarity,Positive*
%FSLAX46Y46*%
G04 Gerber Fmt 4.6, Leading zero omitted, Abs format (unit mm)*
G04 Created by KiCad (PCBNEW (5.1.0)-1) date 2019-05-24 17:58:47*
%MOMM*%
%LPD*%
G04 APERTURE LIST*
%ADD10C,0.127000*%
%ADD11C,0.200000*%
%ADD12C,0.010000*%
%ADD13C,0.120000*%
%ADD14C,0.050000*%
%ADD15C,0.150000*%
G04 APERTURE END LIST*
D10*
X105969000Y-110798000D02*
X108069000Y-110798000D01*
X100069000Y-110798000D02*
X102969000Y-110798000D01*
D11*
X97019000Y-114968000D02*
G75*
G03X97019000Y-114968000I-100000J0D01*
G01*
D10*
X111419000Y-111472000D02*
X111419000Y-112474000D01*
X111419000Y-118222000D02*
X111419000Y-123224000D01*
X97369000Y-110798000D02*
X97369000Y-123898000D01*
D12*
G36*
X101842533Y-143007823D02*
G01*
X101864776Y-143039202D01*
X101892485Y-143066911D01*
X102201920Y-143066911D01*
X102293799Y-143066838D01*
X102365840Y-143066495D01*
X102420780Y-143065692D01*
X102461360Y-143064241D01*
X102490317Y-143061952D01*
X102510391Y-143058636D01*
X102524321Y-143054105D01*
X102534845Y-143048169D01*
X102541100Y-143043514D01*
X102565673Y-143012783D01*
X102568341Y-142977496D01*
X102553271Y-142945245D01*
X102544374Y-142934588D01*
X102532557Y-142927464D01*
X102513526Y-142923167D01*
X102482992Y-142920991D01*
X102436662Y-142920228D01*
X102400871Y-142920155D01*
X102266045Y-142920155D01*
X102266045Y-142423444D01*
X102388700Y-142423444D01*
X102444787Y-142422931D01*
X102483333Y-142420876D01*
X102509361Y-142416508D01*
X102527897Y-142409056D01*
X102541100Y-142400047D01*
X102565604Y-142369144D01*
X102568506Y-142334196D01*
X102551089Y-142300738D01*
X102541959Y-142291604D01*
X102529855Y-142285152D01*
X102511001Y-142280897D01*
X102481620Y-142278352D01*
X102437937Y-142277029D01*
X102376175Y-142276443D01*
X102362000Y-142276375D01*
X102245631Y-142275891D01*
X102149727Y-142275641D01*
X102072177Y-142275723D01*
X102010869Y-142276231D01*
X101963690Y-142277262D01*
X101928530Y-142278913D01*
X101903276Y-142281279D01*
X101885817Y-142284457D01*
X101874041Y-142288544D01*
X101865835Y-142293634D01*
X101859645Y-142299266D01*
X101839844Y-142331128D01*
X101842533Y-142364357D01*
X101864776Y-142395735D01*
X101879126Y-142408433D01*
X101894978Y-142416526D01*
X101917554Y-142421042D01*
X101952078Y-142423006D01*
X102003776Y-142423444D01*
X102119289Y-142423444D01*
X102119289Y-142920155D01*
X102000756Y-142920155D01*
X101946148Y-142920662D01*
X101909275Y-142922698D01*
X101885307Y-142927035D01*
X101869415Y-142934447D01*
X101859645Y-142942733D01*
X101839844Y-142974594D01*
X101842533Y-143007823D01*
X101842533Y-143007823D01*
G37*
X101842533Y-143007823D02*
X101864776Y-143039202D01*
X101892485Y-143066911D01*
X102201920Y-143066911D01*
X102293799Y-143066838D01*
X102365840Y-143066495D01*
X102420780Y-143065692D01*
X102461360Y-143064241D01*
X102490317Y-143061952D01*
X102510391Y-143058636D01*
X102524321Y-143054105D01*
X102534845Y-143048169D01*
X102541100Y-143043514D01*
X102565673Y-143012783D01*
X102568341Y-142977496D01*
X102553271Y-142945245D01*
X102544374Y-142934588D01*
X102532557Y-142927464D01*
X102513526Y-142923167D01*
X102482992Y-142920991D01*
X102436662Y-142920228D01*
X102400871Y-142920155D01*
X102266045Y-142920155D01*
X102266045Y-142423444D01*
X102388700Y-142423444D01*
X102444787Y-142422931D01*
X102483333Y-142420876D01*
X102509361Y-142416508D01*
X102527897Y-142409056D01*
X102541100Y-142400047D01*
X102565604Y-142369144D01*
X102568506Y-142334196D01*
X102551089Y-142300738D01*
X102541959Y-142291604D01*
X102529855Y-142285152D01*
X102511001Y-142280897D01*
X102481620Y-142278352D01*
X102437937Y-142277029D01*
X102376175Y-142276443D01*
X102362000Y-142276375D01*
X102245631Y-142275891D01*
X102149727Y-142275641D01*
X102072177Y-142275723D01*
X102010869Y-142276231D01*
X101963690Y-142277262D01*
X101928530Y-142278913D01*
X101903276Y-142281279D01*
X101885817Y-142284457D01*
X101874041Y-142288544D01*
X101865835Y-142293634D01*
X101859645Y-142299266D01*
X101839844Y-142331128D01*
X101842533Y-142364357D01*
X101864776Y-142395735D01*
X101879126Y-142408433D01*
X101894978Y-142416526D01*
X101917554Y-142421042D01*
X101952078Y-142423006D01*
X102003776Y-142423444D01*
X102119289Y-142423444D01*
X102119289Y-142920155D01*
X102000756Y-142920155D01*
X101946148Y-142920662D01*
X101909275Y-142922698D01*
X101885307Y-142927035D01*
X101869415Y-142934447D01*
X101859645Y-142942733D01*
X101839844Y-142974594D01*
X101842533Y-143007823D01*
G36*
X101837163Y-141742065D02*
G01*
X101837542Y-141820772D01*
X101838333Y-141881863D01*
X101839670Y-141927817D01*
X101841683Y-141961114D01*
X101844506Y-141984236D01*
X101848269Y-141999662D01*
X101853105Y-142009871D01*
X101856822Y-142014813D01*
X101889358Y-142040457D01*
X101923138Y-142043559D01*
X101953826Y-142027711D01*
X101966089Y-142017348D01*
X101974450Y-142006196D01*
X101979657Y-141990035D01*
X101982457Y-141964642D01*
X101983596Y-141925798D01*
X101983821Y-141869280D01*
X101983822Y-141858180D01*
X101983822Y-141712244D01*
X102254756Y-141712244D01*
X102340154Y-141712148D01*
X102405864Y-141711711D01*
X102454774Y-141710712D01*
X102489773Y-141708928D01*
X102513749Y-141706137D01*
X102529593Y-141702117D01*
X102540191Y-141696645D01*
X102548267Y-141689666D01*
X102568112Y-141656734D01*
X102566548Y-141622354D01*
X102543906Y-141591176D01*
X102541100Y-141588886D01*
X102530492Y-141581429D01*
X102518081Y-141575747D01*
X102500850Y-141571601D01*
X102475784Y-141568750D01*
X102439867Y-141566954D01*
X102390083Y-141565972D01*
X102323417Y-141565564D01*
X102247589Y-141565489D01*
X101983822Y-141565489D01*
X101983822Y-141426127D01*
X101983418Y-141366322D01*
X101981840Y-141324918D01*
X101978547Y-141297748D01*
X101972992Y-141280646D01*
X101964631Y-141269443D01*
X101963178Y-141268083D01*
X101929939Y-141251725D01*
X101892362Y-141253172D01*
X101859645Y-141271978D01*
X101853298Y-141279250D01*
X101848266Y-141288627D01*
X101844396Y-141302609D01*
X101841537Y-141323696D01*
X101839535Y-141354389D01*
X101838239Y-141397189D01*
X101837498Y-141454595D01*
X101837158Y-141529110D01*
X101837068Y-141623233D01*
X101837067Y-141643260D01*
X101837163Y-141742065D01*
X101837163Y-141742065D01*
G37*
X101837163Y-141742065D02*
X101837542Y-141820772D01*
X101838333Y-141881863D01*
X101839670Y-141927817D01*
X101841683Y-141961114D01*
X101844506Y-141984236D01*
X101848269Y-141999662D01*
X101853105Y-142009871D01*
X101856822Y-142014813D01*
X101889358Y-142040457D01*
X101923138Y-142043559D01*
X101953826Y-142027711D01*
X101966089Y-142017348D01*
X101974450Y-142006196D01*
X101979657Y-141990035D01*
X101982457Y-141964642D01*
X101983596Y-141925798D01*
X101983821Y-141869280D01*
X101983822Y-141858180D01*
X101983822Y-141712244D01*
X102254756Y-141712244D01*
X102340154Y-141712148D01*
X102405864Y-141711711D01*
X102454774Y-141710712D01*
X102489773Y-141708928D01*
X102513749Y-141706137D01*
X102529593Y-141702117D01*
X102540191Y-141696645D01*
X102548267Y-141689666D01*
X102568112Y-141656734D01*
X102566548Y-141622354D01*
X102543906Y-141591176D01*
X102541100Y-141588886D01*
X102530492Y-141581429D01*
X102518081Y-141575747D01*
X102500850Y-141571601D01*
X102475784Y-141568750D01*
X102439867Y-141566954D01*
X102390083Y-141565972D01*
X102323417Y-141565564D01*
X102247589Y-141565489D01*
X101983822Y-141565489D01*
X101983822Y-141426127D01*
X101983418Y-141366322D01*
X101981840Y-141324918D01*
X101978547Y-141297748D01*
X101972992Y-141280646D01*
X101964631Y-141269443D01*
X101963178Y-141268083D01*
X101929939Y-141251725D01*
X101892362Y-141253172D01*
X101859645Y-141271978D01*
X101853298Y-141279250D01*
X101848266Y-141288627D01*
X101844396Y-141302609D01*
X101841537Y-141323696D01*
X101839535Y-141354389D01*
X101838239Y-141397189D01*
X101837498Y-141454595D01*
X101837158Y-141529110D01*
X101837068Y-141623233D01*
X101837067Y-141643260D01*
X101837163Y-141742065D01*
G36*
X101843877Y-140967614D02*
G01*
X101858647Y-140991327D01*
X101880227Y-141017978D01*
X102201773Y-141017978D01*
X102295830Y-141017893D01*
X102369932Y-141017529D01*
X102426704Y-141016724D01*
X102468768Y-141015313D01*
X102498748Y-141013133D01*
X102519267Y-141010021D01*
X102532949Y-141005814D01*
X102542416Y-141000348D01*
X102547082Y-140996472D01*
X102567575Y-140965034D01*
X102566739Y-140929233D01*
X102549264Y-140897873D01*
X102527684Y-140871222D01*
X101880227Y-140871222D01*
X101858647Y-140897873D01*
X101842949Y-140923594D01*
X101837067Y-140944600D01*
X101843877Y-140967614D01*
X101843877Y-140967614D01*
G37*
X101843877Y-140967614D02*
X101858647Y-140991327D01*
X101880227Y-141017978D01*
X102201773Y-141017978D01*
X102295830Y-141017893D01*
X102369932Y-141017529D01*
X102426704Y-141016724D01*
X102468768Y-141015313D01*
X102498748Y-141013133D01*
X102519267Y-141010021D01*
X102532949Y-141005814D01*
X102542416Y-141000348D01*
X102547082Y-140996472D01*
X102567575Y-140965034D01*
X102566739Y-140929233D01*
X102549264Y-140897873D01*
X102527684Y-140871222D01*
X101880227Y-140871222D01*
X101858647Y-140897873D01*
X101842949Y-140923594D01*
X101837067Y-140944600D01*
X101843877Y-140967614D01*
G36*
X101839034Y-140523665D02*
G01*
X101846035Y-140543255D01*
X101846377Y-140544010D01*
X101866678Y-140570613D01*
X101887561Y-140585270D01*
X101897352Y-140588138D01*
X101910361Y-140587996D01*
X101928895Y-140583961D01*
X101955257Y-140575146D01*
X101991752Y-140560669D01*
X102040687Y-140539645D01*
X102104365Y-140511188D01*
X102185093Y-140474415D01*
X102229216Y-140454175D01*
X102307985Y-140417625D01*
X102380423Y-140383315D01*
X102443880Y-140352552D01*
X102495708Y-140326648D01*
X102533259Y-140306910D01*
X102553884Y-140294650D01*
X102556733Y-140292224D01*
X102569302Y-140261183D01*
X102567619Y-140226121D01*
X102552332Y-140198000D01*
X102551089Y-140196854D01*
X102534154Y-140185668D01*
X102501170Y-140166904D01*
X102456380Y-140142875D01*
X102404032Y-140115897D01*
X102384742Y-140106201D01*
X102238150Y-140033014D01*
X102397393Y-139953240D01*
X102452415Y-139924767D01*
X102500132Y-139898350D01*
X102536893Y-139876148D01*
X102559044Y-139860319D01*
X102563741Y-139854954D01*
X102570102Y-139813257D01*
X102556733Y-139778849D01*
X102542446Y-139768728D01*
X102510692Y-139751214D01*
X102464597Y-139727735D01*
X102407285Y-139699720D01*
X102341880Y-139668599D01*
X102271507Y-139635799D01*
X102199291Y-139602750D01*
X102128355Y-139570881D01*
X102061825Y-139541619D01*
X102002826Y-139516395D01*
X101954481Y-139496636D01*
X101919915Y-139483772D01*
X101902253Y-139479231D01*
X101901613Y-139479277D01*
X101879388Y-139490326D01*
X101856753Y-139512410D01*
X101855768Y-139513710D01*
X101840425Y-139540853D01*
X101840574Y-139565958D01*
X101843466Y-139575368D01*
X101849718Y-139586834D01*
X101862014Y-139599010D01*
X101882908Y-139613357D01*
X101914949Y-139631336D01*
X101960688Y-139654407D01*
X102022677Y-139684030D01*
X102079898Y-139710745D01*
X102146226Y-139741480D01*
X102205874Y-139769021D01*
X102255725Y-139791938D01*
X102292664Y-139808798D01*
X102313573Y-139818173D01*
X102316845Y-139819540D01*
X102311497Y-139825689D01*
X102289109Y-139839822D01*
X102252946Y-139860057D01*
X102206277Y-139884515D01*
X102187022Y-139894248D01*
X102122004Y-139927217D01*
X102074654Y-139952643D01*
X102042219Y-139972612D01*
X102021946Y-139989210D01*
X102011082Y-140004524D01*
X102006875Y-140020640D01*
X102006400Y-140031143D01*
X102008042Y-140049670D01*
X102014831Y-140065904D01*
X102029566Y-140082035D01*
X102055044Y-140100251D01*
X102094061Y-140122739D01*
X102149414Y-140151689D01*
X102180903Y-140167662D01*
X102231087Y-140193570D01*
X102272704Y-140216167D01*
X102302242Y-140233458D01*
X102316189Y-140243450D01*
X102316770Y-140244809D01*
X102305793Y-140251261D01*
X102277290Y-140265708D01*
X102234244Y-140286703D01*
X102179638Y-140312797D01*
X102116454Y-140342546D01*
X102085071Y-140357180D01*
X102004078Y-140395250D01*
X101941756Y-140425905D01*
X101896071Y-140450737D01*
X101864989Y-140471337D01*
X101846478Y-140489298D01*
X101838504Y-140506210D01*
X101839034Y-140523665D01*
X101839034Y-140523665D01*
G37*
X101839034Y-140523665D02*
X101846035Y-140543255D01*
X101846377Y-140544010D01*
X101866678Y-140570613D01*
X101887561Y-140585270D01*
X101897352Y-140588138D01*
X101910361Y-140587996D01*
X101928895Y-140583961D01*
X101955257Y-140575146D01*
X101991752Y-140560669D01*
X102040687Y-140539645D01*
X102104365Y-140511188D01*
X102185093Y-140474415D01*
X102229216Y-140454175D01*
X102307985Y-140417625D01*
X102380423Y-140383315D01*
X102443880Y-140352552D01*
X102495708Y-140326648D01*
X102533259Y-140306910D01*
X102553884Y-140294650D01*
X102556733Y-140292224D01*
X102569302Y-140261183D01*
X102567619Y-140226121D01*
X102552332Y-140198000D01*
X102551089Y-140196854D01*
X102534154Y-140185668D01*
X102501170Y-140166904D01*
X102456380Y-140142875D01*
X102404032Y-140115897D01*
X102384742Y-140106201D01*
X102238150Y-140033014D01*
X102397393Y-139953240D01*
X102452415Y-139924767D01*
X102500132Y-139898350D01*
X102536893Y-139876148D01*
X102559044Y-139860319D01*
X102563741Y-139854954D01*
X102570102Y-139813257D01*
X102556733Y-139778849D01*
X102542446Y-139768728D01*
X102510692Y-139751214D01*
X102464597Y-139727735D01*
X102407285Y-139699720D01*
X102341880Y-139668599D01*
X102271507Y-139635799D01*
X102199291Y-139602750D01*
X102128355Y-139570881D01*
X102061825Y-139541619D01*
X102002826Y-139516395D01*
X101954481Y-139496636D01*
X101919915Y-139483772D01*
X101902253Y-139479231D01*
X101901613Y-139479277D01*
X101879388Y-139490326D01*
X101856753Y-139512410D01*
X101855768Y-139513710D01*
X101840425Y-139540853D01*
X101840574Y-139565958D01*
X101843466Y-139575368D01*
X101849718Y-139586834D01*
X101862014Y-139599010D01*
X101882908Y-139613357D01*
X101914949Y-139631336D01*
X101960688Y-139654407D01*
X102022677Y-139684030D01*
X102079898Y-139710745D01*
X102146226Y-139741480D01*
X102205874Y-139769021D01*
X102255725Y-139791938D01*
X102292664Y-139808798D01*
X102313573Y-139818173D01*
X102316845Y-139819540D01*
X102311497Y-139825689D01*
X102289109Y-139839822D01*
X102252946Y-139860057D01*
X102206277Y-139884515D01*
X102187022Y-139894248D01*
X102122004Y-139927217D01*
X102074654Y-139952643D01*
X102042219Y-139972612D01*
X102021946Y-139989210D01*
X102011082Y-140004524D01*
X102006875Y-140020640D01*
X102006400Y-140031143D01*
X102008042Y-140049670D01*
X102014831Y-140065904D01*
X102029566Y-140082035D01*
X102055044Y-140100251D01*
X102094061Y-140122739D01*
X102149414Y-140151689D01*
X102180903Y-140167662D01*
X102231087Y-140193570D01*
X102272704Y-140216167D01*
X102302242Y-140233458D01*
X102316189Y-140243450D01*
X102316770Y-140244809D01*
X102305793Y-140251261D01*
X102277290Y-140265708D01*
X102234244Y-140286703D01*
X102179638Y-140312797D01*
X102116454Y-140342546D01*
X102085071Y-140357180D01*
X102004078Y-140395250D01*
X101941756Y-140425905D01*
X101896071Y-140450737D01*
X101864989Y-140471337D01*
X101846478Y-140489298D01*
X101838504Y-140506210D01*
X101839034Y-140523665D01*
G36*
X101837275Y-137797309D02*
G01*
X101841636Y-137926288D01*
X101854861Y-138035991D01*
X101877741Y-138128226D01*
X101911070Y-138204802D01*
X101955638Y-138267527D01*
X102012236Y-138318212D01*
X102081658Y-138358663D01*
X102083351Y-138359459D01*
X102145483Y-138383601D01*
X102200509Y-138392203D01*
X102255887Y-138385231D01*
X102319073Y-138362654D01*
X102328689Y-138358372D01*
X102384966Y-138329172D01*
X102428451Y-138296356D01*
X102465417Y-138254002D01*
X102502135Y-138196190D01*
X102504052Y-138192831D01*
X102528227Y-138142504D01*
X102546282Y-138085621D01*
X102558839Y-138018527D01*
X102566522Y-137937565D01*
X102569953Y-137839082D01*
X102570251Y-137804286D01*
X102570845Y-137638594D01*
X102541100Y-137615197D01*
X102531319Y-137608257D01*
X102519897Y-137602842D01*
X102504095Y-137598765D01*
X102481175Y-137595837D01*
X102448396Y-137593867D01*
X102424089Y-137593225D01*
X102424089Y-137749844D01*
X102424089Y-137843726D01*
X102422483Y-137898664D01*
X102418255Y-137955060D01*
X102412292Y-138001345D01*
X102411790Y-138004139D01*
X102389736Y-138086348D01*
X102356600Y-138150114D01*
X102310847Y-138197452D01*
X102250939Y-138230382D01*
X102235061Y-138236108D01*
X102210333Y-138241721D01*
X102185902Y-138239291D01*
X102153400Y-138227467D01*
X102137434Y-138220340D01*
X102095006Y-138197000D01*
X102065240Y-138168880D01*
X102044511Y-138137940D01*
X102017537Y-138075966D01*
X101997998Y-137996651D01*
X101986746Y-137904253D01*
X101984270Y-137837333D01*
X101983822Y-137749844D01*
X102424089Y-137749844D01*
X102424089Y-137593225D01*
X102403021Y-137592668D01*
X102342311Y-137592050D01*
X102263526Y-137591825D01*
X102201920Y-137591800D01*
X101892485Y-137591800D01*
X101864776Y-137619509D01*
X101853544Y-137631806D01*
X101845853Y-137645103D01*
X101841040Y-137663672D01*
X101838446Y-137691786D01*
X101837410Y-137733717D01*
X101837270Y-137793737D01*
X101837275Y-137797309D01*
X101837275Y-137797309D01*
G37*
X101837275Y-137797309D02*
X101841636Y-137926288D01*
X101854861Y-138035991D01*
X101877741Y-138128226D01*
X101911070Y-138204802D01*
X101955638Y-138267527D01*
X102012236Y-138318212D01*
X102081658Y-138358663D01*
X102083351Y-138359459D01*
X102145483Y-138383601D01*
X102200509Y-138392203D01*
X102255887Y-138385231D01*
X102319073Y-138362654D01*
X102328689Y-138358372D01*
X102384966Y-138329172D01*
X102428451Y-138296356D01*
X102465417Y-138254002D01*
X102502135Y-138196190D01*
X102504052Y-138192831D01*
X102528227Y-138142504D01*
X102546282Y-138085621D01*
X102558839Y-138018527D01*
X102566522Y-137937565D01*
X102569953Y-137839082D01*
X102570251Y-137804286D01*
X102570845Y-137638594D01*
X102541100Y-137615197D01*
X102531319Y-137608257D01*
X102519897Y-137602842D01*
X102504095Y-137598765D01*
X102481175Y-137595837D01*
X102448396Y-137593867D01*
X102424089Y-137593225D01*
X102424089Y-137749844D01*
X102424089Y-137843726D01*
X102422483Y-137898664D01*
X102418255Y-137955060D01*
X102412292Y-138001345D01*
X102411790Y-138004139D01*
X102389736Y-138086348D01*
X102356600Y-138150114D01*
X102310847Y-138197452D01*
X102250939Y-138230382D01*
X102235061Y-138236108D01*
X102210333Y-138241721D01*
X102185902Y-138239291D01*
X102153400Y-138227467D01*
X102137434Y-138220340D01*
X102095006Y-138197000D01*
X102065240Y-138168880D01*
X102044511Y-138137940D01*
X102017537Y-138075966D01*
X101997998Y-137996651D01*
X101986746Y-137904253D01*
X101984270Y-137837333D01*
X101983822Y-137749844D01*
X102424089Y-137749844D01*
X102424089Y-137593225D01*
X102403021Y-137592668D01*
X102342311Y-137592050D01*
X102263526Y-137591825D01*
X102201920Y-137591800D01*
X101892485Y-137591800D01*
X101864776Y-137619509D01*
X101853544Y-137631806D01*
X101845853Y-137645103D01*
X101841040Y-137663672D01*
X101838446Y-137691786D01*
X101837410Y-137733717D01*
X101837270Y-137793737D01*
X101837275Y-137797309D01*
G36*
X101837260Y-137009343D02*
G01*
X101838174Y-137085701D01*
X101840311Y-137144217D01*
X101844175Y-137187255D01*
X101850267Y-137217183D01*
X101859090Y-137236368D01*
X101871146Y-137247176D01*
X101886939Y-137251973D01*
X101906970Y-137253127D01*
X101909335Y-137253133D01*
X101931992Y-137252131D01*
X101949503Y-137247396D01*
X101962574Y-137236333D01*
X101971913Y-137216348D01*
X101978227Y-137184846D01*
X101982222Y-137139232D01*
X101984606Y-137076913D01*
X101986086Y-136995293D01*
X101986414Y-136970277D01*
X101989467Y-136728200D01*
X102054378Y-136724814D01*
X102119289Y-136721429D01*
X102119289Y-136889576D01*
X102119531Y-136955266D01*
X102120556Y-137002172D01*
X102122811Y-137034083D01*
X102126742Y-137054791D01*
X102132798Y-137068084D01*
X102141424Y-137077755D01*
X102141493Y-137077817D01*
X102175112Y-137095356D01*
X102211448Y-137094722D01*
X102242423Y-137076314D01*
X102245607Y-137072671D01*
X102253812Y-137059741D01*
X102259521Y-137042024D01*
X102263162Y-137015570D01*
X102265167Y-136976432D01*
X102265964Y-136920662D01*
X102266045Y-136884994D01*
X102266045Y-136722555D01*
X102424089Y-136722555D01*
X102424089Y-136969161D01*
X102424231Y-137050580D01*
X102424814Y-137112410D01*
X102426068Y-137157637D01*
X102428227Y-137189248D01*
X102431523Y-137210231D01*
X102436189Y-137223573D01*
X102442457Y-137232261D01*
X102444733Y-137234450D01*
X102476280Y-137250614D01*
X102512168Y-137251797D01*
X102543285Y-137238536D01*
X102553271Y-137228043D01*
X102558769Y-137217129D01*
X102563022Y-137200217D01*
X102566180Y-137174633D01*
X102568392Y-137137701D01*
X102569806Y-137086746D01*
X102570572Y-137019094D01*
X102570838Y-136932069D01*
X102570845Y-136912394D01*
X102570787Y-136823911D01*
X102570467Y-136755227D01*
X102569667Y-136703564D01*
X102568167Y-136666145D01*
X102565749Y-136640190D01*
X102562194Y-136622922D01*
X102557282Y-136611562D01*
X102550795Y-136603332D01*
X102546138Y-136598817D01*
X102537889Y-136592021D01*
X102527669Y-136586712D01*
X102512800Y-136582706D01*
X102490602Y-136579821D01*
X102458393Y-136577874D01*
X102413496Y-136576681D01*
X102353228Y-136576061D01*
X102274911Y-136575829D01*
X102208994Y-136575800D01*
X102116628Y-136575871D01*
X102044117Y-136576208D01*
X101988737Y-136576998D01*
X101947765Y-136578426D01*
X101918478Y-136580679D01*
X101898153Y-136583943D01*
X101884066Y-136588404D01*
X101873495Y-136594248D01*
X101866811Y-136599197D01*
X101837067Y-136622594D01*
X101837067Y-136912774D01*
X101837260Y-137009343D01*
X101837260Y-137009343D01*
G37*
X101837260Y-137009343D02*
X101838174Y-137085701D01*
X101840311Y-137144217D01*
X101844175Y-137187255D01*
X101850267Y-137217183D01*
X101859090Y-137236368D01*
X101871146Y-137247176D01*
X101886939Y-137251973D01*
X101906970Y-137253127D01*
X101909335Y-137253133D01*
X101931992Y-137252131D01*
X101949503Y-137247396D01*
X101962574Y-137236333D01*
X101971913Y-137216348D01*
X101978227Y-137184846D01*
X101982222Y-137139232D01*
X101984606Y-137076913D01*
X101986086Y-136995293D01*
X101986414Y-136970277D01*
X101989467Y-136728200D01*
X102054378Y-136724814D01*
X102119289Y-136721429D01*
X102119289Y-136889576D01*
X102119531Y-136955266D01*
X102120556Y-137002172D01*
X102122811Y-137034083D01*
X102126742Y-137054791D01*
X102132798Y-137068084D01*
X102141424Y-137077755D01*
X102141493Y-137077817D01*
X102175112Y-137095356D01*
X102211448Y-137094722D01*
X102242423Y-137076314D01*
X102245607Y-137072671D01*
X102253812Y-137059741D01*
X102259521Y-137042024D01*
X102263162Y-137015570D01*
X102265167Y-136976432D01*
X102265964Y-136920662D01*
X102266045Y-136884994D01*
X102266045Y-136722555D01*
X102424089Y-136722555D01*
X102424089Y-136969161D01*
X102424231Y-137050580D01*
X102424814Y-137112410D01*
X102426068Y-137157637D01*
X102428227Y-137189248D01*
X102431523Y-137210231D01*
X102436189Y-137223573D01*
X102442457Y-137232261D01*
X102444733Y-137234450D01*
X102476280Y-137250614D01*
X102512168Y-137251797D01*
X102543285Y-137238536D01*
X102553271Y-137228043D01*
X102558769Y-137217129D01*
X102563022Y-137200217D01*
X102566180Y-137174633D01*
X102568392Y-137137701D01*
X102569806Y-137086746D01*
X102570572Y-137019094D01*
X102570838Y-136932069D01*
X102570845Y-136912394D01*
X102570787Y-136823911D01*
X102570467Y-136755227D01*
X102569667Y-136703564D01*
X102568167Y-136666145D01*
X102565749Y-136640190D01*
X102562194Y-136622922D01*
X102557282Y-136611562D01*
X102550795Y-136603332D01*
X102546138Y-136598817D01*
X102537889Y-136592021D01*
X102527669Y-136586712D01*
X102512800Y-136582706D01*
X102490602Y-136579821D01*
X102458393Y-136577874D01*
X102413496Y-136576681D01*
X102353228Y-136576061D01*
X102274911Y-136575829D01*
X102208994Y-136575800D01*
X102116628Y-136575871D01*
X102044117Y-136576208D01*
X101988737Y-136576998D01*
X101947765Y-136578426D01*
X101918478Y-136580679D01*
X101898153Y-136583943D01*
X101884066Y-136588404D01*
X101873495Y-136594248D01*
X101866811Y-136599197D01*
X101837067Y-136622594D01*
X101837067Y-136912774D01*
X101837260Y-137009343D01*
G36*
X101841448Y-135478886D02*
G01*
X101855273Y-135502452D01*
X101877881Y-135533265D01*
X101910338Y-135572922D01*
X101953708Y-135623020D01*
X102009058Y-135685157D01*
X102077451Y-135760928D01*
X102156084Y-135847666D01*
X102319878Y-136028289D01*
X102100029Y-136033933D01*
X102024351Y-136035971D01*
X101967994Y-136037937D01*
X101927706Y-136040266D01*
X101900235Y-136043394D01*
X101882329Y-136047755D01*
X101870737Y-136053784D01*
X101862208Y-136061916D01*
X101858623Y-136066228D01*
X101839670Y-136100759D01*
X101842441Y-136133617D01*
X101858633Y-136159682D01*
X101880199Y-136186333D01*
X102195151Y-136189648D01*
X102287779Y-136190565D01*
X102360544Y-136191032D01*
X102416161Y-136190887D01*
X102457342Y-136189968D01*
X102486803Y-136188113D01*
X102507255Y-136185161D01*
X102521413Y-136180950D01*
X102531991Y-136175318D01*
X102540474Y-136169073D01*
X102556207Y-136155561D01*
X102566636Y-136142117D01*
X102570639Y-136126876D01*
X102567094Y-136107974D01*
X102554879Y-136083545D01*
X102532871Y-136051727D01*
X102499949Y-136010652D01*
X102454991Y-135958458D01*
X102396875Y-135893278D01*
X102330099Y-135819444D01*
X102089458Y-135554155D01*
X102308589Y-135548511D01*
X102384128Y-135546469D01*
X102440354Y-135544498D01*
X102480524Y-135542161D01*
X102507896Y-135539019D01*
X102525728Y-135534636D01*
X102537279Y-135528576D01*
X102545807Y-135520400D01*
X102549282Y-135516216D01*
X102568372Y-135479235D01*
X102565493Y-135444292D01*
X102541100Y-135413864D01*
X102531286Y-135406903D01*
X102519826Y-135401477D01*
X102503968Y-135397397D01*
X102480963Y-135394471D01*
X102448062Y-135392508D01*
X102402516Y-135391317D01*
X102341573Y-135390708D01*
X102262486Y-135390489D01*
X102203956Y-135390466D01*
X102112407Y-135390540D01*
X102040687Y-135390887D01*
X101986045Y-135391699D01*
X101945732Y-135393167D01*
X101916998Y-135395481D01*
X101897093Y-135398833D01*
X101883268Y-135403412D01*
X101872772Y-135409411D01*
X101866811Y-135413864D01*
X101852691Y-135425150D01*
X101842029Y-135435699D01*
X101835892Y-135447107D01*
X101835343Y-135460970D01*
X101841448Y-135478886D01*
X101841448Y-135478886D01*
G37*
X101841448Y-135478886D02*
X101855273Y-135502452D01*
X101877881Y-135533265D01*
X101910338Y-135572922D01*
X101953708Y-135623020D01*
X102009058Y-135685157D01*
X102077451Y-135760928D01*
X102156084Y-135847666D01*
X102319878Y-136028289D01*
X102100029Y-136033933D01*
X102024351Y-136035971D01*
X101967994Y-136037937D01*
X101927706Y-136040266D01*
X101900235Y-136043394D01*
X101882329Y-136047755D01*
X101870737Y-136053784D01*
X101862208Y-136061916D01*
X101858623Y-136066228D01*
X101839670Y-136100759D01*
X101842441Y-136133617D01*
X101858633Y-136159682D01*
X101880199Y-136186333D01*
X102195151Y-136189648D01*
X102287779Y-136190565D01*
X102360544Y-136191032D01*
X102416161Y-136190887D01*
X102457342Y-136189968D01*
X102486803Y-136188113D01*
X102507255Y-136185161D01*
X102521413Y-136180950D01*
X102531991Y-136175318D01*
X102540474Y-136169073D01*
X102556207Y-136155561D01*
X102566636Y-136142117D01*
X102570639Y-136126876D01*
X102567094Y-136107974D01*
X102554879Y-136083545D01*
X102532871Y-136051727D01*
X102499949Y-136010652D01*
X102454991Y-135958458D01*
X102396875Y-135893278D01*
X102330099Y-135819444D01*
X102089458Y-135554155D01*
X102308589Y-135548511D01*
X102384128Y-135546469D01*
X102440354Y-135544498D01*
X102480524Y-135542161D01*
X102507896Y-135539019D01*
X102525728Y-135534636D01*
X102537279Y-135528576D01*
X102545807Y-135520400D01*
X102549282Y-135516216D01*
X102568372Y-135479235D01*
X102565493Y-135444292D01*
X102541100Y-135413864D01*
X102531286Y-135406903D01*
X102519826Y-135401477D01*
X102503968Y-135397397D01*
X102480963Y-135394471D01*
X102448062Y-135392508D01*
X102402516Y-135391317D01*
X102341573Y-135390708D01*
X102262486Y-135390489D01*
X102203956Y-135390466D01*
X102112407Y-135390540D01*
X102040687Y-135390887D01*
X101986045Y-135391699D01*
X101945732Y-135393167D01*
X101916998Y-135395481D01*
X101897093Y-135398833D01*
X101883268Y-135403412D01*
X101872772Y-135409411D01*
X101866811Y-135413864D01*
X101852691Y-135425150D01*
X101842029Y-135435699D01*
X101835892Y-135447107D01*
X101835343Y-135460970D01*
X101841448Y-135478886D01*
G36*
X101842599Y-134828919D02*
G01*
X101854095Y-134897435D01*
X101871967Y-134950057D01*
X101895499Y-134984292D01*
X101908924Y-134993621D01*
X101940148Y-135003107D01*
X101968395Y-134996723D01*
X101995182Y-134976570D01*
X102007713Y-134945255D01*
X102006696Y-134899817D01*
X101999906Y-134864674D01*
X101986971Y-134786581D01*
X101985742Y-134706774D01*
X101996241Y-134617445D01*
X102000690Y-134592771D01*
X102024108Y-134509709D01*
X102058945Y-134444727D01*
X102104604Y-134398539D01*
X102160494Y-134371855D01*
X102189388Y-134366337D01*
X102248012Y-134369949D01*
X102299879Y-134393271D01*
X102343978Y-134434176D01*
X102379299Y-134490541D01*
X102404829Y-134560240D01*
X102419559Y-134641148D01*
X102422478Y-134731140D01*
X102412575Y-134828090D01*
X102411641Y-134833564D01*
X102404459Y-134872125D01*
X102397521Y-134893506D01*
X102387227Y-134902773D01*
X102369976Y-134904994D01*
X102360841Y-134905044D01*
X102322489Y-134905044D01*
X102322489Y-134836569D01*
X102318347Y-134776100D01*
X102305147Y-134734835D01*
X102281730Y-134710825D01*
X102246936Y-134702123D01*
X102242394Y-134702017D01*
X102212654Y-134707108D01*
X102191419Y-134724567D01*
X102177366Y-134757061D01*
X102169173Y-134807257D01*
X102166161Y-134855877D01*
X102164433Y-134926544D01*
X102167070Y-134977802D01*
X102176800Y-135012761D01*
X102196353Y-135034530D01*
X102228456Y-135046220D01*
X102275838Y-135050940D01*
X102338071Y-135051800D01*
X102407535Y-135050391D01*
X102454786Y-135046152D01*
X102480012Y-135039064D01*
X102481988Y-135037689D01*
X102513508Y-134998772D01*
X102538470Y-134941714D01*
X102556340Y-134870131D01*
X102566586Y-134787642D01*
X102568673Y-134697861D01*
X102562068Y-134604408D01*
X102553956Y-134549444D01*
X102529554Y-134463234D01*
X102489662Y-134383108D01*
X102437887Y-134316023D01*
X102427539Y-134305827D01*
X102384035Y-134272698D01*
X102330118Y-134242806D01*
X102273592Y-134219643D01*
X102222259Y-134206702D01*
X102202544Y-134205142D01*
X102161419Y-134211782D01*
X102110252Y-134229432D01*
X102056394Y-134254703D01*
X102007195Y-134284211D01*
X101974334Y-134310281D01*
X101925452Y-134371235D01*
X101886545Y-134450031D01*
X101858494Y-134543843D01*
X101842179Y-134649850D01*
X101838192Y-134747000D01*
X101842599Y-134828919D01*
X101842599Y-134828919D01*
G37*
X101842599Y-134828919D02*
X101854095Y-134897435D01*
X101871967Y-134950057D01*
X101895499Y-134984292D01*
X101908924Y-134993621D01*
X101940148Y-135003107D01*
X101968395Y-134996723D01*
X101995182Y-134976570D01*
X102007713Y-134945255D01*
X102006696Y-134899817D01*
X101999906Y-134864674D01*
X101986971Y-134786581D01*
X101985742Y-134706774D01*
X101996241Y-134617445D01*
X102000690Y-134592771D01*
X102024108Y-134509709D01*
X102058945Y-134444727D01*
X102104604Y-134398539D01*
X102160494Y-134371855D01*
X102189388Y-134366337D01*
X102248012Y-134369949D01*
X102299879Y-134393271D01*
X102343978Y-134434176D01*
X102379299Y-134490541D01*
X102404829Y-134560240D01*
X102419559Y-134641148D01*
X102422478Y-134731140D01*
X102412575Y-134828090D01*
X102411641Y-134833564D01*
X102404459Y-134872125D01*
X102397521Y-134893506D01*
X102387227Y-134902773D01*
X102369976Y-134904994D01*
X102360841Y-134905044D01*
X102322489Y-134905044D01*
X102322489Y-134836569D01*
X102318347Y-134776100D01*
X102305147Y-134734835D01*
X102281730Y-134710825D01*
X102246936Y-134702123D01*
X102242394Y-134702017D01*
X102212654Y-134707108D01*
X102191419Y-134724567D01*
X102177366Y-134757061D01*
X102169173Y-134807257D01*
X102166161Y-134855877D01*
X102164433Y-134926544D01*
X102167070Y-134977802D01*
X102176800Y-135012761D01*
X102196353Y-135034530D01*
X102228456Y-135046220D01*
X102275838Y-135050940D01*
X102338071Y-135051800D01*
X102407535Y-135050391D01*
X102454786Y-135046152D01*
X102480012Y-135039064D01*
X102481988Y-135037689D01*
X102513508Y-134998772D01*
X102538470Y-134941714D01*
X102556340Y-134870131D01*
X102566586Y-134787642D01*
X102568673Y-134697861D01*
X102562068Y-134604408D01*
X102553956Y-134549444D01*
X102529554Y-134463234D01*
X102489662Y-134383108D01*
X102437887Y-134316023D01*
X102427539Y-134305827D01*
X102384035Y-134272698D01*
X102330118Y-134242806D01*
X102273592Y-134219643D01*
X102222259Y-134206702D01*
X102202544Y-134205142D01*
X102161419Y-134211782D01*
X102110252Y-134229432D01*
X102056394Y-134254703D01*
X102007195Y-134284211D01*
X101974334Y-134310281D01*
X101925452Y-134371235D01*
X101886545Y-134450031D01*
X101858494Y-134543843D01*
X101842179Y-134649850D01*
X101838192Y-134747000D01*
X101842599Y-134828919D01*
G36*
X101859645Y-133855178D02*
G01*
X101867218Y-133861758D01*
X101876987Y-133866921D01*
X101891571Y-133870836D01*
X101913585Y-133873676D01*
X101945648Y-133875613D01*
X101990375Y-133876817D01*
X102050385Y-133877461D01*
X102128294Y-133877716D01*
X102203956Y-133877755D01*
X102297802Y-133877686D01*
X102371689Y-133877362D01*
X102428232Y-133876614D01*
X102470049Y-133875268D01*
X102499757Y-133873154D01*
X102519973Y-133870100D01*
X102533314Y-133865934D01*
X102542398Y-133860484D01*
X102548267Y-133855178D01*
X102567947Y-133822174D01*
X102566181Y-133787009D01*
X102544717Y-133755545D01*
X102536337Y-133748316D01*
X102526614Y-133742666D01*
X102512861Y-133738401D01*
X102492389Y-133735327D01*
X102462512Y-133733248D01*
X102420541Y-133731970D01*
X102363789Y-133731299D01*
X102289567Y-133731041D01*
X102205537Y-133731000D01*
X101892485Y-133731000D01*
X101864776Y-133758709D01*
X101841463Y-133792863D01*
X101840623Y-133825994D01*
X101859645Y-133855178D01*
X101859645Y-133855178D01*
G37*
X101859645Y-133855178D02*
X101867218Y-133861758D01*
X101876987Y-133866921D01*
X101891571Y-133870836D01*
X101913585Y-133873676D01*
X101945648Y-133875613D01*
X101990375Y-133876817D01*
X102050385Y-133877461D01*
X102128294Y-133877716D01*
X102203956Y-133877755D01*
X102297802Y-133877686D01*
X102371689Y-133877362D01*
X102428232Y-133876614D01*
X102470049Y-133875268D01*
X102499757Y-133873154D01*
X102519973Y-133870100D01*
X102533314Y-133865934D01*
X102542398Y-133860484D01*
X102548267Y-133855178D01*
X102567947Y-133822174D01*
X102566181Y-133787009D01*
X102544717Y-133755545D01*
X102536337Y-133748316D01*
X102526614Y-133742666D01*
X102512861Y-133738401D01*
X102492389Y-133735327D01*
X102462512Y-133733248D01*
X102420541Y-133731970D01*
X102363789Y-133731299D01*
X102289567Y-133731041D01*
X102205537Y-133731000D01*
X101892485Y-133731000D01*
X101864776Y-133758709D01*
X101841463Y-133792863D01*
X101840623Y-133825994D01*
X101859645Y-133855178D01*
G36*
X101838351Y-133087297D02*
G01*
X101843581Y-133162112D01*
X101851750Y-133231694D01*
X101862550Y-133291998D01*
X101875673Y-133338980D01*
X101890813Y-133368594D01*
X101895269Y-133373140D01*
X101929850Y-133388946D01*
X101965351Y-133384153D01*
X101995725Y-133359636D01*
X101996596Y-133358466D01*
X102005954Y-133344046D01*
X102010876Y-133328992D01*
X102011473Y-133307995D01*
X102007861Y-133275743D01*
X102000154Y-133226927D01*
X101999505Y-133223000D01*
X101990569Y-133150261D01*
X101986161Y-133071783D01*
X101986119Y-132993073D01*
X101990279Y-132919639D01*
X101998479Y-132856989D01*
X102010557Y-132810630D01*
X102011771Y-132807584D01*
X102030615Y-132773952D01*
X102049685Y-132762136D01*
X102068439Y-132771386D01*
X102086337Y-132800953D01*
X102102837Y-132850089D01*
X102117396Y-132918043D01*
X102124406Y-132963355D01*
X102137889Y-133057544D01*
X102150214Y-133132456D01*
X102162449Y-133191283D01*
X102175661Y-133237215D01*
X102190917Y-133273445D01*
X102209285Y-133303162D01*
X102231831Y-133329558D01*
X102253971Y-133350770D01*
X102284819Y-133375935D01*
X102311345Y-133388319D01*
X102344026Y-133392192D01*
X102355995Y-133392333D01*
X102395712Y-133389424D01*
X102425259Y-133377798D01*
X102451486Y-133357677D01*
X102491576Y-133316784D01*
X102522149Y-133271183D01*
X102544203Y-133217487D01*
X102558735Y-133152308D01*
X102566741Y-133072256D01*
X102569218Y-132973943D01*
X102569177Y-132957711D01*
X102567818Y-132892151D01*
X102564730Y-132827134D01*
X102560356Y-132769748D01*
X102555140Y-132727078D01*
X102554541Y-132723628D01*
X102544491Y-132681204D01*
X102531796Y-132645220D01*
X102520190Y-132624850D01*
X102489572Y-132605893D01*
X102453918Y-132604573D01*
X102422144Y-132620915D01*
X102418551Y-132624571D01*
X102407876Y-132639685D01*
X102403276Y-132658585D01*
X102404059Y-132687838D01*
X102408127Y-132723349D01*
X102411762Y-132763030D01*
X102414828Y-132818655D01*
X102417053Y-132883594D01*
X102418164Y-132951215D01*
X102418237Y-132969000D01*
X102417964Y-133036872D01*
X102416646Y-133086546D01*
X102413827Y-133122390D01*
X102409050Y-133148776D01*
X102401857Y-133170074D01*
X102395867Y-133182874D01*
X102379233Y-133211000D01*
X102364168Y-133228932D01*
X102359897Y-133231553D01*
X102342263Y-133226024D01*
X102325192Y-133199740D01*
X102309458Y-133154522D01*
X102295838Y-133092192D01*
X102292804Y-133073829D01*
X102277738Y-132977910D01*
X102265146Y-132901359D01*
X102254111Y-132841220D01*
X102243720Y-132794540D01*
X102233056Y-132758363D01*
X102221205Y-132729735D01*
X102207251Y-132705702D01*
X102190281Y-132683308D01*
X102169378Y-132659598D01*
X102162049Y-132651620D01*
X102134699Y-132623647D01*
X102113029Y-132608840D01*
X102088232Y-132603048D01*
X102056983Y-132602111D01*
X101995705Y-132612425D01*
X101943640Y-132643248D01*
X101900958Y-132694405D01*
X101867825Y-132765717D01*
X101852964Y-132816600D01*
X101843366Y-132871900D01*
X101837936Y-132938147D01*
X101836367Y-133011294D01*
X101838351Y-133087297D01*
X101838351Y-133087297D01*
G37*
X101838351Y-133087297D02*
X101843581Y-133162112D01*
X101851750Y-133231694D01*
X101862550Y-133291998D01*
X101875673Y-133338980D01*
X101890813Y-133368594D01*
X101895269Y-133373140D01*
X101929850Y-133388946D01*
X101965351Y-133384153D01*
X101995725Y-133359636D01*
X101996596Y-133358466D01*
X102005954Y-133344046D01*
X102010876Y-133328992D01*
X102011473Y-133307995D01*
X102007861Y-133275743D01*
X102000154Y-133226927D01*
X101999505Y-133223000D01*
X101990569Y-133150261D01*
X101986161Y-133071783D01*
X101986119Y-132993073D01*
X101990279Y-132919639D01*
X101998479Y-132856989D01*
X102010557Y-132810630D01*
X102011771Y-132807584D01*
X102030615Y-132773952D01*
X102049685Y-132762136D01*
X102068439Y-132771386D01*
X102086337Y-132800953D01*
X102102837Y-132850089D01*
X102117396Y-132918043D01*
X102124406Y-132963355D01*
X102137889Y-133057544D01*
X102150214Y-133132456D01*
X102162449Y-133191283D01*
X102175661Y-133237215D01*
X102190917Y-133273445D01*
X102209285Y-133303162D01*
X102231831Y-133329558D01*
X102253971Y-133350770D01*
X102284819Y-133375935D01*
X102311345Y-133388319D01*
X102344026Y-133392192D01*
X102355995Y-133392333D01*
X102395712Y-133389424D01*
X102425259Y-133377798D01*
X102451486Y-133357677D01*
X102491576Y-133316784D01*
X102522149Y-133271183D01*
X102544203Y-133217487D01*
X102558735Y-133152308D01*
X102566741Y-133072256D01*
X102569218Y-132973943D01*
X102569177Y-132957711D01*
X102567818Y-132892151D01*
X102564730Y-132827134D01*
X102560356Y-132769748D01*
X102555140Y-132727078D01*
X102554541Y-132723628D01*
X102544491Y-132681204D01*
X102531796Y-132645220D01*
X102520190Y-132624850D01*
X102489572Y-132605893D01*
X102453918Y-132604573D01*
X102422144Y-132620915D01*
X102418551Y-132624571D01*
X102407876Y-132639685D01*
X102403276Y-132658585D01*
X102404059Y-132687838D01*
X102408127Y-132723349D01*
X102411762Y-132763030D01*
X102414828Y-132818655D01*
X102417053Y-132883594D01*
X102418164Y-132951215D01*
X102418237Y-132969000D01*
X102417964Y-133036872D01*
X102416646Y-133086546D01*
X102413827Y-133122390D01*
X102409050Y-133148776D01*
X102401857Y-133170074D01*
X102395867Y-133182874D01*
X102379233Y-133211000D01*
X102364168Y-133228932D01*
X102359897Y-133231553D01*
X102342263Y-133226024D01*
X102325192Y-133199740D01*
X102309458Y-133154522D01*
X102295838Y-133092192D01*
X102292804Y-133073829D01*
X102277738Y-132977910D01*
X102265146Y-132901359D01*
X102254111Y-132841220D01*
X102243720Y-132794540D01*
X102233056Y-132758363D01*
X102221205Y-132729735D01*
X102207251Y-132705702D01*
X102190281Y-132683308D01*
X102169378Y-132659598D01*
X102162049Y-132651620D01*
X102134699Y-132623647D01*
X102113029Y-132608840D01*
X102088232Y-132603048D01*
X102056983Y-132602111D01*
X101995705Y-132612425D01*
X101943640Y-132643248D01*
X101900958Y-132694405D01*
X101867825Y-132765717D01*
X101852964Y-132816600D01*
X101843366Y-132871900D01*
X101837936Y-132938147D01*
X101836367Y-133011294D01*
X101838351Y-133087297D01*
G36*
X101837146Y-132066206D02*
G01*
X101837518Y-132135614D01*
X101838385Y-132188003D01*
X101839946Y-132226153D01*
X101842403Y-132252841D01*
X101845957Y-132270847D01*
X101850810Y-132282951D01*
X101857161Y-132291931D01*
X101860084Y-132295182D01*
X101891142Y-132314957D01*
X101926828Y-132318518D01*
X101958510Y-132305509D01*
X101964913Y-132299494D01*
X101971121Y-132289765D01*
X101975910Y-132274099D01*
X101979514Y-132249592D01*
X101982164Y-132213339D01*
X101984095Y-132162435D01*
X101985539Y-132093974D01*
X101986418Y-132031383D01*
X101989467Y-131783666D01*
X102054378Y-131780281D01*
X102119289Y-131776895D01*
X102119289Y-131945042D01*
X102119919Y-132018041D01*
X102122553Y-132071483D01*
X102128309Y-132108372D01*
X102138304Y-132131712D01*
X102153656Y-132144506D01*
X102175482Y-132149758D01*
X102195738Y-132150555D01*
X102220592Y-132148077D01*
X102238906Y-132138723D01*
X102251637Y-132119617D01*
X102259741Y-132087882D01*
X102264176Y-132040641D01*
X102265899Y-131975017D01*
X102266045Y-131939199D01*
X102266045Y-131778022D01*
X102424089Y-131778022D01*
X102424089Y-132026378D01*
X102424202Y-132107787D01*
X102424712Y-132169658D01*
X102425870Y-132215032D01*
X102427930Y-132246946D01*
X102431146Y-132268441D01*
X102435772Y-132282557D01*
X102442059Y-132292332D01*
X102446667Y-132297311D01*
X102473560Y-132314390D01*
X102497467Y-132319889D01*
X102526667Y-132312037D01*
X102548267Y-132297311D01*
X102555066Y-132289454D01*
X102560346Y-132279312D01*
X102564298Y-132264156D01*
X102567113Y-132241259D01*
X102568982Y-132207891D01*
X102570098Y-132161325D01*
X102570651Y-132098833D01*
X102570833Y-132017686D01*
X102570845Y-131975578D01*
X102570765Y-131885402D01*
X102570398Y-131815076D01*
X102569552Y-131761871D01*
X102568036Y-131723060D01*
X102565659Y-131695913D01*
X102562229Y-131677702D01*
X102557554Y-131665700D01*
X102551444Y-131657178D01*
X102548267Y-131653844D01*
X102540670Y-131647245D01*
X102530870Y-131642073D01*
X102516239Y-131638154D01*
X102494152Y-131635316D01*
X102461982Y-131633385D01*
X102417103Y-131632188D01*
X102356889Y-131631552D01*
X102278713Y-131631303D01*
X102205923Y-131631266D01*
X102112707Y-131631300D01*
X102039431Y-131631535D01*
X101983458Y-131632170D01*
X101942151Y-131633406D01*
X101912872Y-131635444D01*
X101892984Y-131638483D01*
X101879850Y-131642723D01*
X101870832Y-131648365D01*
X101863293Y-131655609D01*
X101861612Y-131657394D01*
X101854172Y-131666055D01*
X101848409Y-131676118D01*
X101844112Y-131690375D01*
X101841064Y-131711617D01*
X101839051Y-131742636D01*
X101837860Y-131786223D01*
X101837275Y-131845169D01*
X101837083Y-131922266D01*
X101837067Y-131976999D01*
X101837146Y-132066206D01*
X101837146Y-132066206D01*
G37*
X101837146Y-132066206D02*
X101837518Y-132135614D01*
X101838385Y-132188003D01*
X101839946Y-132226153D01*
X101842403Y-132252841D01*
X101845957Y-132270847D01*
X101850810Y-132282951D01*
X101857161Y-132291931D01*
X101860084Y-132295182D01*
X101891142Y-132314957D01*
X101926828Y-132318518D01*
X101958510Y-132305509D01*
X101964913Y-132299494D01*
X101971121Y-132289765D01*
X101975910Y-132274099D01*
X101979514Y-132249592D01*
X101982164Y-132213339D01*
X101984095Y-132162435D01*
X101985539Y-132093974D01*
X101986418Y-132031383D01*
X101989467Y-131783666D01*
X102054378Y-131780281D01*
X102119289Y-131776895D01*
X102119289Y-131945042D01*
X102119919Y-132018041D01*
X102122553Y-132071483D01*
X102128309Y-132108372D01*
X102138304Y-132131712D01*
X102153656Y-132144506D01*
X102175482Y-132149758D01*
X102195738Y-132150555D01*
X102220592Y-132148077D01*
X102238906Y-132138723D01*
X102251637Y-132119617D01*
X102259741Y-132087882D01*
X102264176Y-132040641D01*
X102265899Y-131975017D01*
X102266045Y-131939199D01*
X102266045Y-131778022D01*
X102424089Y-131778022D01*
X102424089Y-132026378D01*
X102424202Y-132107787D01*
X102424712Y-132169658D01*
X102425870Y-132215032D01*
X102427930Y-132246946D01*
X102431146Y-132268441D01*
X102435772Y-132282557D01*
X102442059Y-132292332D01*
X102446667Y-132297311D01*
X102473560Y-132314390D01*
X102497467Y-132319889D01*
X102526667Y-132312037D01*
X102548267Y-132297311D01*
X102555066Y-132289454D01*
X102560346Y-132279312D01*
X102564298Y-132264156D01*
X102567113Y-132241259D01*
X102568982Y-132207891D01*
X102570098Y-132161325D01*
X102570651Y-132098833D01*
X102570833Y-132017686D01*
X102570845Y-131975578D01*
X102570765Y-131885402D01*
X102570398Y-131815076D01*
X102569552Y-131761871D01*
X102568036Y-131723060D01*
X102565659Y-131695913D01*
X102562229Y-131677702D01*
X102557554Y-131665700D01*
X102551444Y-131657178D01*
X102548267Y-131653844D01*
X102540670Y-131647245D01*
X102530870Y-131642073D01*
X102516239Y-131638154D01*
X102494152Y-131635316D01*
X102461982Y-131633385D01*
X102417103Y-131632188D01*
X102356889Y-131631552D01*
X102278713Y-131631303D01*
X102205923Y-131631266D01*
X102112707Y-131631300D01*
X102039431Y-131631535D01*
X101983458Y-131632170D01*
X101942151Y-131633406D01*
X101912872Y-131635444D01*
X101892984Y-131638483D01*
X101879850Y-131642723D01*
X101870832Y-131648365D01*
X101863293Y-131655609D01*
X101861612Y-131657394D01*
X101854172Y-131666055D01*
X101848409Y-131676118D01*
X101844112Y-131690375D01*
X101841064Y-131711617D01*
X101839051Y-131742636D01*
X101837860Y-131786223D01*
X101837275Y-131845169D01*
X101837083Y-131922266D01*
X101837067Y-131976999D01*
X101837146Y-132066206D01*
G36*
X101837066Y-130657629D02*
G01*
X101837467Y-130697111D01*
X101840259Y-130812800D01*
X101848550Y-130909689D01*
X101863232Y-130991081D01*
X101885193Y-131060277D01*
X101915322Y-131120580D01*
X101954510Y-131175292D01*
X101971532Y-131194833D01*
X102011363Y-131227250D01*
X102065413Y-131256480D01*
X102125323Y-131279009D01*
X102182739Y-131291321D01*
X102203956Y-131292600D01*
X102262769Y-131284583D01*
X102327013Y-131263101D01*
X102387821Y-131232001D01*
X102436330Y-131195134D01*
X102442182Y-131189146D01*
X102483321Y-131138421D01*
X102515435Y-131082875D01*
X102539365Y-131019304D01*
X102555953Y-130944506D01*
X102566041Y-130855278D01*
X102570469Y-130748418D01*
X102570845Y-130699472D01*
X102570545Y-130637238D01*
X102569292Y-130593472D01*
X102566554Y-130564069D01*
X102561801Y-130544921D01*
X102554501Y-130531923D01*
X102548267Y-130524955D01*
X102540694Y-130518374D01*
X102530924Y-130513212D01*
X102516340Y-130509297D01*
X102494326Y-130506457D01*
X102462264Y-130504520D01*
X102417536Y-130503316D01*
X102357526Y-130502672D01*
X102279617Y-130502417D01*
X102203956Y-130502378D01*
X102103041Y-130502130D01*
X102022427Y-130502183D01*
X101983822Y-130503143D01*
X101983822Y-130649133D01*
X102424089Y-130649133D01*
X102424004Y-130742266D01*
X102422396Y-130798307D01*
X102418256Y-130857001D01*
X102412464Y-130905972D01*
X102412226Y-130907462D01*
X102393090Y-130986608D01*
X102363287Y-131047998D01*
X102320878Y-131094695D01*
X102274961Y-131124365D01*
X102224026Y-131142647D01*
X102176200Y-131141229D01*
X102124933Y-131120012D01*
X102071899Y-131078511D01*
X102032600Y-131021002D01*
X102006331Y-130946250D01*
X101997035Y-130896292D01*
X101990507Y-130839584D01*
X101985782Y-130779481D01*
X101983817Y-130728361D01*
X101983808Y-130725333D01*
X101983822Y-130649133D01*
X101983822Y-130503143D01*
X101959851Y-130503740D01*
X101913055Y-130508002D01*
X101879778Y-130516170D01*
X101857759Y-130529444D01*
X101844739Y-130549026D01*
X101838457Y-130576117D01*
X101836653Y-130611918D01*
X101837066Y-130657629D01*
X101837066Y-130657629D01*
G37*
X101837066Y-130657629D02*
X101837467Y-130697111D01*
X101840259Y-130812800D01*
X101848550Y-130909689D01*
X101863232Y-130991081D01*
X101885193Y-131060277D01*
X101915322Y-131120580D01*
X101954510Y-131175292D01*
X101971532Y-131194833D01*
X102011363Y-131227250D01*
X102065413Y-131256480D01*
X102125323Y-131279009D01*
X102182739Y-131291321D01*
X102203956Y-131292600D01*
X102262769Y-131284583D01*
X102327013Y-131263101D01*
X102387821Y-131232001D01*
X102436330Y-131195134D01*
X102442182Y-131189146D01*
X102483321Y-131138421D01*
X102515435Y-131082875D01*
X102539365Y-131019304D01*
X102555953Y-130944506D01*
X102566041Y-130855278D01*
X102570469Y-130748418D01*
X102570845Y-130699472D01*
X102570545Y-130637238D01*
X102569292Y-130593472D01*
X102566554Y-130564069D01*
X102561801Y-130544921D01*
X102554501Y-130531923D01*
X102548267Y-130524955D01*
X102540694Y-130518374D01*
X102530924Y-130513212D01*
X102516340Y-130509297D01*
X102494326Y-130506457D01*
X102462264Y-130504520D01*
X102417536Y-130503316D01*
X102357526Y-130502672D01*
X102279617Y-130502417D01*
X102203956Y-130502378D01*
X102103041Y-130502130D01*
X102022427Y-130502183D01*
X101983822Y-130503143D01*
X101983822Y-130649133D01*
X102424089Y-130649133D01*
X102424004Y-130742266D01*
X102422396Y-130798307D01*
X102418256Y-130857001D01*
X102412464Y-130905972D01*
X102412226Y-130907462D01*
X102393090Y-130986608D01*
X102363287Y-131047998D01*
X102320878Y-131094695D01*
X102274961Y-131124365D01*
X102224026Y-131142647D01*
X102176200Y-131141229D01*
X102124933Y-131120012D01*
X102071899Y-131078511D01*
X102032600Y-131021002D01*
X102006331Y-130946250D01*
X101997035Y-130896292D01*
X101990507Y-130839584D01*
X101985782Y-130779481D01*
X101983817Y-130728361D01*
X101983808Y-130725333D01*
X101983822Y-130649133D01*
X101983822Y-130503143D01*
X101959851Y-130503740D01*
X101913055Y-130508002D01*
X101879778Y-130516170D01*
X101857759Y-130529444D01*
X101844739Y-130549026D01*
X101838457Y-130576117D01*
X101836653Y-130611918D01*
X101837066Y-130657629D01*
G36*
X96594571Y-134505957D02*
G01*
X96618809Y-134602232D01*
X96661641Y-134688816D01*
X96721419Y-134763627D01*
X96796494Y-134824582D01*
X96885220Y-134869601D01*
X96981530Y-134895864D01*
X97078795Y-134901714D01*
X97172654Y-134886860D01*
X97260511Y-134853160D01*
X97339770Y-134802472D01*
X97407836Y-134736655D01*
X97462112Y-134657566D01*
X97500002Y-134567066D01*
X97512426Y-134515800D01*
X97519947Y-134471302D01*
X97522919Y-134437001D01*
X97521094Y-134404040D01*
X97514225Y-134363566D01*
X97507250Y-134330469D01*
X97475741Y-134237053D01*
X97424617Y-134153381D01*
X97355429Y-134081335D01*
X97269728Y-134022800D01*
X97242489Y-134008852D01*
X97206122Y-133992414D01*
X97175582Y-133982106D01*
X97143450Y-133976540D01*
X97102307Y-133974331D01*
X97056222Y-133974052D01*
X96971865Y-133978139D01*
X96902586Y-133991554D01*
X96841961Y-134016744D01*
X96783567Y-134056154D01*
X96739302Y-134094702D01*
X96673484Y-134166594D01*
X96628053Y-134241687D01*
X96600850Y-134324438D01*
X96590576Y-134402072D01*
X96594571Y-134505957D01*
X96594571Y-134505957D01*
G37*
X96594571Y-134505957D02*
X96618809Y-134602232D01*
X96661641Y-134688816D01*
X96721419Y-134763627D01*
X96796494Y-134824582D01*
X96885220Y-134869601D01*
X96981530Y-134895864D01*
X97078795Y-134901714D01*
X97172654Y-134886860D01*
X97260511Y-134853160D01*
X97339770Y-134802472D01*
X97407836Y-134736655D01*
X97462112Y-134657566D01*
X97500002Y-134567066D01*
X97512426Y-134515800D01*
X97519947Y-134471302D01*
X97522919Y-134437001D01*
X97521094Y-134404040D01*
X97514225Y-134363566D01*
X97507250Y-134330469D01*
X97475741Y-134237053D01*
X97424617Y-134153381D01*
X97355429Y-134081335D01*
X97269728Y-134022800D01*
X97242489Y-134008852D01*
X97206122Y-133992414D01*
X97175582Y-133982106D01*
X97143450Y-133976540D01*
X97102307Y-133974331D01*
X97056222Y-133974052D01*
X96971865Y-133978139D01*
X96902586Y-133991554D01*
X96841961Y-134016744D01*
X96783567Y-134056154D01*
X96739302Y-134094702D01*
X96673484Y-134166594D01*
X96628053Y-134241687D01*
X96600850Y-134324438D01*
X96590576Y-134402072D01*
X96594571Y-134505957D01*
G36*
X99040245Y-142965507D02*
G01*
X99274662Y-142965526D01*
X99487603Y-142965552D01*
X99680168Y-142965625D01*
X99853459Y-142965782D01*
X100008576Y-142966064D01*
X100146620Y-142966509D01*
X100268692Y-142967156D01*
X100375894Y-142968045D01*
X100469326Y-142969213D01*
X100550090Y-142970701D01*
X100619286Y-142972546D01*
X100678015Y-142974789D01*
X100727379Y-142977469D01*
X100768478Y-142980623D01*
X100802413Y-142984292D01*
X100830286Y-142988513D01*
X100853198Y-142993327D01*
X100872249Y-142998773D01*
X100888540Y-143004888D01*
X100903173Y-143011712D01*
X100917249Y-143019285D01*
X100931868Y-143027645D01*
X100940974Y-143032839D01*
X101001689Y-143067104D01*
X101001689Y-142208955D01*
X100905733Y-142208955D01*
X100862370Y-142208224D01*
X100829205Y-142206272D01*
X100811424Y-142203463D01*
X100809778Y-142202221D01*
X100816662Y-142190799D01*
X100834505Y-142168084D01*
X100853879Y-142145385D01*
X100894614Y-142090800D01*
X100935617Y-142021321D01*
X100973123Y-141944270D01*
X101003364Y-141866965D01*
X101013012Y-141836113D01*
X101027578Y-141767616D01*
X101037539Y-141684764D01*
X101042583Y-141595371D01*
X101042396Y-141507248D01*
X101036666Y-141428207D01*
X101030858Y-141390511D01*
X100992797Y-141252414D01*
X100935073Y-141125113D01*
X100858211Y-141009292D01*
X100762739Y-140905637D01*
X100649179Y-140814833D01*
X100538381Y-140748031D01*
X100421625Y-140693164D01*
X100302276Y-140651163D01*
X100176283Y-140621167D01*
X100039594Y-140602311D01*
X99888158Y-140593732D01*
X99810711Y-140593006D01*
X99753934Y-140595100D01*
X99753934Y-141424217D01*
X99847002Y-141424424D01*
X99934692Y-141427337D01*
X100011772Y-141433000D01*
X100073009Y-141441455D01*
X100085350Y-141444038D01*
X100192633Y-141475840D01*
X100279658Y-141517498D01*
X100346642Y-141569363D01*
X100393805Y-141631781D01*
X100421365Y-141705100D01*
X100429541Y-141789669D01*
X100418551Y-141885835D01*
X100402829Y-141949311D01*
X100384639Y-141998454D01*
X100358791Y-142052583D01*
X100335089Y-142093244D01*
X100288721Y-142163800D01*
X99138530Y-142163800D01*
X99094962Y-142096392D01*
X99054040Y-142017867D01*
X99027389Y-141933681D01*
X99015465Y-141848557D01*
X99018722Y-141767216D01*
X99037615Y-141694380D01*
X99053184Y-141662426D01*
X99096181Y-141604501D01*
X99152953Y-141555544D01*
X99225575Y-141514390D01*
X99316121Y-141479874D01*
X99426666Y-141450833D01*
X99432533Y-141449552D01*
X99494788Y-141439381D01*
X99572594Y-141431739D01*
X99660720Y-141426670D01*
X99753934Y-141424217D01*
X99753934Y-140595100D01*
X99597895Y-140600857D01*
X99402059Y-140622802D01*
X99223332Y-140658786D01*
X99061845Y-140708759D01*
X98917726Y-140772668D01*
X98791106Y-140850462D01*
X98682115Y-140942089D01*
X98590883Y-141047497D01*
X98559932Y-141092662D01*
X98503785Y-141193611D01*
X98464174Y-141296901D01*
X98440014Y-141406989D01*
X98430219Y-141528330D01*
X98431265Y-141620836D01*
X98442231Y-141750490D01*
X98464046Y-141863084D01*
X98497714Y-141961875D01*
X98544236Y-142050121D01*
X98578448Y-142098986D01*
X98600362Y-142128353D01*
X98615333Y-142150043D01*
X98619733Y-142158253D01*
X98608904Y-142159868D01*
X98578251Y-142161159D01*
X98530526Y-142162138D01*
X98468479Y-142162817D01*
X98394862Y-142163210D01*
X98312427Y-142163330D01*
X98223925Y-142163188D01*
X98132107Y-142162797D01*
X98039724Y-142162171D01*
X97949528Y-142161320D01*
X97864271Y-142160260D01*
X97786703Y-142159001D01*
X97719576Y-142157556D01*
X97665641Y-142155938D01*
X97627650Y-142154161D01*
X97620667Y-142153669D01*
X97550251Y-142146092D01*
X97495102Y-142134531D01*
X97447981Y-142116792D01*
X97401647Y-142090682D01*
X97392067Y-142084415D01*
X97355378Y-142059983D01*
X97355378Y-142965311D01*
X99040245Y-142965507D01*
X99040245Y-142965507D01*
G37*
X99040245Y-142965507D02*
X99274662Y-142965526D01*
X99487603Y-142965552D01*
X99680168Y-142965625D01*
X99853459Y-142965782D01*
X100008576Y-142966064D01*
X100146620Y-142966509D01*
X100268692Y-142967156D01*
X100375894Y-142968045D01*
X100469326Y-142969213D01*
X100550090Y-142970701D01*
X100619286Y-142972546D01*
X100678015Y-142974789D01*
X100727379Y-142977469D01*
X100768478Y-142980623D01*
X100802413Y-142984292D01*
X100830286Y-142988513D01*
X100853198Y-142993327D01*
X100872249Y-142998773D01*
X100888540Y-143004888D01*
X100903173Y-143011712D01*
X100917249Y-143019285D01*
X100931868Y-143027645D01*
X100940974Y-143032839D01*
X101001689Y-143067104D01*
X101001689Y-142208955D01*
X100905733Y-142208955D01*
X100862370Y-142208224D01*
X100829205Y-142206272D01*
X100811424Y-142203463D01*
X100809778Y-142202221D01*
X100816662Y-142190799D01*
X100834505Y-142168084D01*
X100853879Y-142145385D01*
X100894614Y-142090800D01*
X100935617Y-142021321D01*
X100973123Y-141944270D01*
X101003364Y-141866965D01*
X101013012Y-141836113D01*
X101027578Y-141767616D01*
X101037539Y-141684764D01*
X101042583Y-141595371D01*
X101042396Y-141507248D01*
X101036666Y-141428207D01*
X101030858Y-141390511D01*
X100992797Y-141252414D01*
X100935073Y-141125113D01*
X100858211Y-141009292D01*
X100762739Y-140905637D01*
X100649179Y-140814833D01*
X100538381Y-140748031D01*
X100421625Y-140693164D01*
X100302276Y-140651163D01*
X100176283Y-140621167D01*
X100039594Y-140602311D01*
X99888158Y-140593732D01*
X99810711Y-140593006D01*
X99753934Y-140595100D01*
X99753934Y-141424217D01*
X99847002Y-141424424D01*
X99934692Y-141427337D01*
X100011772Y-141433000D01*
X100073009Y-141441455D01*
X100085350Y-141444038D01*
X100192633Y-141475840D01*
X100279658Y-141517498D01*
X100346642Y-141569363D01*
X100393805Y-141631781D01*
X100421365Y-141705100D01*
X100429541Y-141789669D01*
X100418551Y-141885835D01*
X100402829Y-141949311D01*
X100384639Y-141998454D01*
X100358791Y-142052583D01*
X100335089Y-142093244D01*
X100288721Y-142163800D01*
X99138530Y-142163800D01*
X99094962Y-142096392D01*
X99054040Y-142017867D01*
X99027389Y-141933681D01*
X99015465Y-141848557D01*
X99018722Y-141767216D01*
X99037615Y-141694380D01*
X99053184Y-141662426D01*
X99096181Y-141604501D01*
X99152953Y-141555544D01*
X99225575Y-141514390D01*
X99316121Y-141479874D01*
X99426666Y-141450833D01*
X99432533Y-141449552D01*
X99494788Y-141439381D01*
X99572594Y-141431739D01*
X99660720Y-141426670D01*
X99753934Y-141424217D01*
X99753934Y-140595100D01*
X99597895Y-140600857D01*
X99402059Y-140622802D01*
X99223332Y-140658786D01*
X99061845Y-140708759D01*
X98917726Y-140772668D01*
X98791106Y-140850462D01*
X98682115Y-140942089D01*
X98590883Y-141047497D01*
X98559932Y-141092662D01*
X98503785Y-141193611D01*
X98464174Y-141296901D01*
X98440014Y-141406989D01*
X98430219Y-141528330D01*
X98431265Y-141620836D01*
X98442231Y-141750490D01*
X98464046Y-141863084D01*
X98497714Y-141961875D01*
X98544236Y-142050121D01*
X98578448Y-142098986D01*
X98600362Y-142128353D01*
X98615333Y-142150043D01*
X98619733Y-142158253D01*
X98608904Y-142159868D01*
X98578251Y-142161159D01*
X98530526Y-142162138D01*
X98468479Y-142162817D01*
X98394862Y-142163210D01*
X98312427Y-142163330D01*
X98223925Y-142163188D01*
X98132107Y-142162797D01*
X98039724Y-142162171D01*
X97949528Y-142161320D01*
X97864271Y-142160260D01*
X97786703Y-142159001D01*
X97719576Y-142157556D01*
X97665641Y-142155938D01*
X97627650Y-142154161D01*
X97620667Y-142153669D01*
X97550251Y-142146092D01*
X97495102Y-142134531D01*
X97447981Y-142116792D01*
X97401647Y-142090682D01*
X97392067Y-142084415D01*
X97355378Y-142059983D01*
X97355378Y-142965311D01*
X99040245Y-142965507D01*
G36*
X98434552Y-139452574D02*
G01*
X98454567Y-139604492D01*
X98488202Y-139739756D01*
X98535725Y-139859239D01*
X98597405Y-139963815D01*
X98660965Y-140041424D01*
X98735099Y-140110265D01*
X98814871Y-140164006D01*
X98907091Y-140206910D01*
X98950161Y-140222384D01*
X98989142Y-140235244D01*
X99025289Y-140246446D01*
X99060434Y-140256120D01*
X99096410Y-140264396D01*
X99135050Y-140271403D01*
X99178185Y-140277272D01*
X99227649Y-140282131D01*
X99285273Y-140286110D01*
X99352891Y-140289340D01*
X99432334Y-140291949D01*
X99525436Y-140294067D01*
X99634027Y-140295824D01*
X99759942Y-140297349D01*
X99905012Y-140298772D01*
X100047778Y-140300025D01*
X100203968Y-140301351D01*
X100339239Y-140302556D01*
X100455246Y-140303766D01*
X100553645Y-140305106D01*
X100636093Y-140306700D01*
X100704246Y-140308675D01*
X100759760Y-140311156D01*
X100804292Y-140314269D01*
X100839498Y-140318138D01*
X100867034Y-140322889D01*
X100888556Y-140328648D01*
X100905722Y-140335539D01*
X100920186Y-140343689D01*
X100933606Y-140353223D01*
X100947638Y-140364266D01*
X100953071Y-140368566D01*
X100975910Y-140384386D01*
X100991463Y-140391422D01*
X100991922Y-140391444D01*
X100994121Y-140380567D01*
X100996147Y-140349582D01*
X100997942Y-140300957D01*
X100999451Y-140237163D01*
X101000616Y-140160669D01*
X101001380Y-140073944D01*
X101001686Y-139979457D01*
X101001689Y-139968550D01*
X101001689Y-139545657D01*
X100905622Y-139542395D01*
X100809556Y-139539133D01*
X100860543Y-139477044D01*
X100928057Y-139379714D01*
X100982749Y-139269813D01*
X101012978Y-139183349D01*
X101027666Y-139114278D01*
X101037659Y-139030925D01*
X101042646Y-138941159D01*
X101042313Y-138852845D01*
X101036351Y-138773851D01*
X101030638Y-138737622D01*
X100992776Y-138597603D01*
X100937932Y-138471178D01*
X100866924Y-138359260D01*
X100780568Y-138262762D01*
X100679679Y-138182600D01*
X100565076Y-138119687D01*
X100438984Y-138075312D01*
X100382401Y-138062978D01*
X100320202Y-138055368D01*
X100245363Y-138051739D01*
X100211467Y-138051245D01*
X100208282Y-138051310D01*
X100208282Y-138811248D01*
X100283333Y-138820541D01*
X100347160Y-138848728D01*
X100402798Y-138897197D01*
X100407211Y-138902254D01*
X100442037Y-138950548D01*
X100464620Y-139002257D01*
X100476540Y-139062989D01*
X100479383Y-139138352D01*
X100478978Y-139156459D01*
X100476325Y-139210278D01*
X100470909Y-139250308D01*
X100460745Y-139285324D01*
X100443850Y-139324103D01*
X100438672Y-139334745D01*
X100402844Y-139395396D01*
X100360212Y-139442215D01*
X100344973Y-139454952D01*
X100288462Y-139499622D01*
X100092586Y-139499622D01*
X100013939Y-139499086D01*
X99955988Y-139497396D01*
X99916875Y-139494428D01*
X99894741Y-139490057D01*
X99888274Y-139485972D01*
X99885111Y-139470047D01*
X99882488Y-139436264D01*
X99880655Y-139389340D01*
X99879857Y-139333993D01*
X99879842Y-139325106D01*
X99885096Y-139204330D01*
X99901263Y-139101660D01*
X99928961Y-139015106D01*
X99968808Y-138942681D01*
X100015758Y-138887751D01*
X100073645Y-138843204D01*
X100136693Y-138818480D01*
X100208282Y-138811248D01*
X100208282Y-138051310D01*
X100117712Y-138053178D01*
X100038812Y-138061522D01*
X99967590Y-138077768D01*
X99896864Y-138103405D01*
X99844493Y-138127401D01*
X99749196Y-138186020D01*
X99661170Y-138264117D01*
X99582017Y-138359315D01*
X99513340Y-138469238D01*
X99456741Y-138591510D01*
X99413821Y-138723755D01*
X99398882Y-138788422D01*
X99376777Y-138924604D01*
X99362194Y-139073049D01*
X99355813Y-139224505D01*
X99357445Y-139351064D01*
X99364224Y-139512950D01*
X99305245Y-139505530D01*
X99206092Y-139486238D01*
X99125372Y-139455104D01*
X99062466Y-139411269D01*
X99016756Y-139353871D01*
X98987622Y-139282048D01*
X98974447Y-139194941D01*
X98976611Y-139091686D01*
X98980612Y-139053711D01*
X99005780Y-138912520D01*
X99046814Y-138775707D01*
X99084815Y-138681178D01*
X99104190Y-138636018D01*
X99119760Y-138597585D01*
X99129405Y-138571234D01*
X99131452Y-138563546D01*
X99122374Y-138553802D01*
X99093405Y-138537083D01*
X99044217Y-138513232D01*
X98974484Y-138482093D01*
X98883879Y-138443507D01*
X98868089Y-138436910D01*
X98795772Y-138406853D01*
X98730425Y-138379874D01*
X98674906Y-138357136D01*
X98632072Y-138339806D01*
X98604781Y-138329048D01*
X98595942Y-138325941D01*
X98591187Y-138335940D01*
X98585910Y-138362217D01*
X98582231Y-138390489D01*
X98577474Y-138420646D01*
X98568028Y-138468433D01*
X98554820Y-138529612D01*
X98538776Y-138599946D01*
X98520820Y-138675194D01*
X98513797Y-138703755D01*
X98488209Y-138808816D01*
X98468147Y-138896480D01*
X98452969Y-138971068D01*
X98442035Y-139036903D01*
X98434704Y-139098307D01*
X98430335Y-139159602D01*
X98428287Y-139225110D01*
X98427889Y-139283128D01*
X98434552Y-139452574D01*
X98434552Y-139452574D01*
G37*
X98434552Y-139452574D02*
X98454567Y-139604492D01*
X98488202Y-139739756D01*
X98535725Y-139859239D01*
X98597405Y-139963815D01*
X98660965Y-140041424D01*
X98735099Y-140110265D01*
X98814871Y-140164006D01*
X98907091Y-140206910D01*
X98950161Y-140222384D01*
X98989142Y-140235244D01*
X99025289Y-140246446D01*
X99060434Y-140256120D01*
X99096410Y-140264396D01*
X99135050Y-140271403D01*
X99178185Y-140277272D01*
X99227649Y-140282131D01*
X99285273Y-140286110D01*
X99352891Y-140289340D01*
X99432334Y-140291949D01*
X99525436Y-140294067D01*
X99634027Y-140295824D01*
X99759942Y-140297349D01*
X99905012Y-140298772D01*
X100047778Y-140300025D01*
X100203968Y-140301351D01*
X100339239Y-140302556D01*
X100455246Y-140303766D01*
X100553645Y-140305106D01*
X100636093Y-140306700D01*
X100704246Y-140308675D01*
X100759760Y-140311156D01*
X100804292Y-140314269D01*
X100839498Y-140318138D01*
X100867034Y-140322889D01*
X100888556Y-140328648D01*
X100905722Y-140335539D01*
X100920186Y-140343689D01*
X100933606Y-140353223D01*
X100947638Y-140364266D01*
X100953071Y-140368566D01*
X100975910Y-140384386D01*
X100991463Y-140391422D01*
X100991922Y-140391444D01*
X100994121Y-140380567D01*
X100996147Y-140349582D01*
X100997942Y-140300957D01*
X100999451Y-140237163D01*
X101000616Y-140160669D01*
X101001380Y-140073944D01*
X101001686Y-139979457D01*
X101001689Y-139968550D01*
X101001689Y-139545657D01*
X100905622Y-139542395D01*
X100809556Y-139539133D01*
X100860543Y-139477044D01*
X100928057Y-139379714D01*
X100982749Y-139269813D01*
X101012978Y-139183349D01*
X101027666Y-139114278D01*
X101037659Y-139030925D01*
X101042646Y-138941159D01*
X101042313Y-138852845D01*
X101036351Y-138773851D01*
X101030638Y-138737622D01*
X100992776Y-138597603D01*
X100937932Y-138471178D01*
X100866924Y-138359260D01*
X100780568Y-138262762D01*
X100679679Y-138182600D01*
X100565076Y-138119687D01*
X100438984Y-138075312D01*
X100382401Y-138062978D01*
X100320202Y-138055368D01*
X100245363Y-138051739D01*
X100211467Y-138051245D01*
X100208282Y-138051310D01*
X100208282Y-138811248D01*
X100283333Y-138820541D01*
X100347160Y-138848728D01*
X100402798Y-138897197D01*
X100407211Y-138902254D01*
X100442037Y-138950548D01*
X100464620Y-139002257D01*
X100476540Y-139062989D01*
X100479383Y-139138352D01*
X100478978Y-139156459D01*
X100476325Y-139210278D01*
X100470909Y-139250308D01*
X100460745Y-139285324D01*
X100443850Y-139324103D01*
X100438672Y-139334745D01*
X100402844Y-139395396D01*
X100360212Y-139442215D01*
X100344973Y-139454952D01*
X100288462Y-139499622D01*
X100092586Y-139499622D01*
X100013939Y-139499086D01*
X99955988Y-139497396D01*
X99916875Y-139494428D01*
X99894741Y-139490057D01*
X99888274Y-139485972D01*
X99885111Y-139470047D01*
X99882488Y-139436264D01*
X99880655Y-139389340D01*
X99879857Y-139333993D01*
X99879842Y-139325106D01*
X99885096Y-139204330D01*
X99901263Y-139101660D01*
X99928961Y-139015106D01*
X99968808Y-138942681D01*
X100015758Y-138887751D01*
X100073645Y-138843204D01*
X100136693Y-138818480D01*
X100208282Y-138811248D01*
X100208282Y-138051310D01*
X100117712Y-138053178D01*
X100038812Y-138061522D01*
X99967590Y-138077768D01*
X99896864Y-138103405D01*
X99844493Y-138127401D01*
X99749196Y-138186020D01*
X99661170Y-138264117D01*
X99582017Y-138359315D01*
X99513340Y-138469238D01*
X99456741Y-138591510D01*
X99413821Y-138723755D01*
X99398882Y-138788422D01*
X99376777Y-138924604D01*
X99362194Y-139073049D01*
X99355813Y-139224505D01*
X99357445Y-139351064D01*
X99364224Y-139512950D01*
X99305245Y-139505530D01*
X99206092Y-139486238D01*
X99125372Y-139455104D01*
X99062466Y-139411269D01*
X99016756Y-139353871D01*
X98987622Y-139282048D01*
X98974447Y-139194941D01*
X98976611Y-139091686D01*
X98980612Y-139053711D01*
X99005780Y-138912520D01*
X99046814Y-138775707D01*
X99084815Y-138681178D01*
X99104190Y-138636018D01*
X99119760Y-138597585D01*
X99129405Y-138571234D01*
X99131452Y-138563546D01*
X99122374Y-138553802D01*
X99093405Y-138537083D01*
X99044217Y-138513232D01*
X98974484Y-138482093D01*
X98883879Y-138443507D01*
X98868089Y-138436910D01*
X98795772Y-138406853D01*
X98730425Y-138379874D01*
X98674906Y-138357136D01*
X98632072Y-138339806D01*
X98604781Y-138329048D01*
X98595942Y-138325941D01*
X98591187Y-138335940D01*
X98585910Y-138362217D01*
X98582231Y-138390489D01*
X98577474Y-138420646D01*
X98568028Y-138468433D01*
X98554820Y-138529612D01*
X98538776Y-138599946D01*
X98520820Y-138675194D01*
X98513797Y-138703755D01*
X98488209Y-138808816D01*
X98468147Y-138896480D01*
X98452969Y-138971068D01*
X98442035Y-139036903D01*
X98434704Y-139098307D01*
X98430335Y-139159602D01*
X98428287Y-139225110D01*
X98427889Y-139283128D01*
X98434552Y-139452574D01*
G36*
X97517071Y-137107429D02*
G01*
X97538245Y-137267570D01*
X97578385Y-137431510D01*
X97637889Y-137601313D01*
X97717154Y-137779043D01*
X97722699Y-137790310D01*
X97750725Y-137848005D01*
X97774802Y-137899552D01*
X97793249Y-137941191D01*
X97804386Y-137969162D01*
X97806933Y-137978733D01*
X97811941Y-137997950D01*
X97816147Y-138002561D01*
X97826580Y-137997458D01*
X97852868Y-137981418D01*
X97892257Y-137956288D01*
X97941991Y-137923914D01*
X97999315Y-137886143D01*
X98061476Y-137844822D01*
X98125718Y-137801798D01*
X98189285Y-137758917D01*
X98249425Y-137718026D01*
X98303380Y-137680971D01*
X98348397Y-137649600D01*
X98381721Y-137625759D01*
X98400597Y-137611294D01*
X98402787Y-137609309D01*
X98398138Y-137599191D01*
X98380962Y-137576850D01*
X98354440Y-137546280D01*
X98339964Y-137530536D01*
X98264682Y-137434047D01*
X98209241Y-137327336D01*
X98174141Y-137211832D01*
X98159880Y-137088962D01*
X98161051Y-137019561D01*
X98178212Y-136898423D01*
X98214094Y-136789205D01*
X98268959Y-136691582D01*
X98343070Y-136605228D01*
X98436688Y-136529815D01*
X98550076Y-136465018D01*
X98636667Y-136427601D01*
X98772366Y-136383748D01*
X98919850Y-136351428D01*
X99075314Y-136330557D01*
X99234956Y-136321051D01*
X99394973Y-136322827D01*
X99551561Y-136335803D01*
X99700918Y-136359894D01*
X99839240Y-136395018D01*
X99962724Y-136441092D01*
X99996978Y-136457373D01*
X100111064Y-136525620D01*
X100207557Y-136606079D01*
X100285670Y-136697570D01*
X100344617Y-136798911D01*
X100383612Y-136908920D01*
X100401868Y-137026415D01*
X100403211Y-137067883D01*
X100392290Y-137189441D01*
X100359474Y-137309878D01*
X100305439Y-137427666D01*
X100230865Y-137541277D01*
X100152539Y-137632685D01*
X100108008Y-137679215D01*
X100405271Y-137860483D01*
X100479433Y-137905580D01*
X100547646Y-137946819D01*
X100607459Y-137982735D01*
X100656420Y-138011866D01*
X100692079Y-138032750D01*
X100711984Y-138043924D01*
X100715079Y-138045375D01*
X100724718Y-138037146D01*
X100741999Y-138011567D01*
X100765283Y-137971873D01*
X100792934Y-137921297D01*
X100823315Y-137863074D01*
X100854790Y-137800437D01*
X100885722Y-137736621D01*
X100914473Y-137674860D01*
X100939408Y-137618388D01*
X100958889Y-137570438D01*
X100967318Y-137546986D01*
X101005133Y-137413221D01*
X101030136Y-137275327D01*
X101043140Y-137127622D01*
X101045468Y-137000833D01*
X101044373Y-136932878D01*
X101042275Y-136867277D01*
X101039434Y-136809847D01*
X101036106Y-136766403D01*
X101034422Y-136752298D01*
X101005587Y-136613284D01*
X100960468Y-136471757D01*
X100901750Y-136334275D01*
X100832120Y-136207394D01*
X100779441Y-136129889D01*
X100671239Y-136002481D01*
X100544671Y-135884178D01*
X100402866Y-135777172D01*
X100248951Y-135683652D01*
X100086053Y-135605810D01*
X99968756Y-135561956D01*
X99785128Y-135511708D01*
X99590581Y-135478209D01*
X99389325Y-135461449D01*
X99185568Y-135461416D01*
X98983521Y-135478101D01*
X98787392Y-135511493D01*
X98601391Y-135561580D01*
X98589803Y-135565397D01*
X98427750Y-135628281D01*
X98279832Y-135705028D01*
X98141865Y-135798242D01*
X98009661Y-135910527D01*
X97964399Y-135954392D01*
X97840457Y-136090534D01*
X97737915Y-136230491D01*
X97655656Y-136376411D01*
X97592564Y-136530442D01*
X97547523Y-136694732D01*
X97530033Y-136790289D01*
X97514466Y-136949023D01*
X97517071Y-137107429D01*
X97517071Y-137107429D01*
G37*
X97517071Y-137107429D02*
X97538245Y-137267570D01*
X97578385Y-137431510D01*
X97637889Y-137601313D01*
X97717154Y-137779043D01*
X97722699Y-137790310D01*
X97750725Y-137848005D01*
X97774802Y-137899552D01*
X97793249Y-137941191D01*
X97804386Y-137969162D01*
X97806933Y-137978733D01*
X97811941Y-137997950D01*
X97816147Y-138002561D01*
X97826580Y-137997458D01*
X97852868Y-137981418D01*
X97892257Y-137956288D01*
X97941991Y-137923914D01*
X97999315Y-137886143D01*
X98061476Y-137844822D01*
X98125718Y-137801798D01*
X98189285Y-137758917D01*
X98249425Y-137718026D01*
X98303380Y-137680971D01*
X98348397Y-137649600D01*
X98381721Y-137625759D01*
X98400597Y-137611294D01*
X98402787Y-137609309D01*
X98398138Y-137599191D01*
X98380962Y-137576850D01*
X98354440Y-137546280D01*
X98339964Y-137530536D01*
X98264682Y-137434047D01*
X98209241Y-137327336D01*
X98174141Y-137211832D01*
X98159880Y-137088962D01*
X98161051Y-137019561D01*
X98178212Y-136898423D01*
X98214094Y-136789205D01*
X98268959Y-136691582D01*
X98343070Y-136605228D01*
X98436688Y-136529815D01*
X98550076Y-136465018D01*
X98636667Y-136427601D01*
X98772366Y-136383748D01*
X98919850Y-136351428D01*
X99075314Y-136330557D01*
X99234956Y-136321051D01*
X99394973Y-136322827D01*
X99551561Y-136335803D01*
X99700918Y-136359894D01*
X99839240Y-136395018D01*
X99962724Y-136441092D01*
X99996978Y-136457373D01*
X100111064Y-136525620D01*
X100207557Y-136606079D01*
X100285670Y-136697570D01*
X100344617Y-136798911D01*
X100383612Y-136908920D01*
X100401868Y-137026415D01*
X100403211Y-137067883D01*
X100392290Y-137189441D01*
X100359474Y-137309878D01*
X100305439Y-137427666D01*
X100230865Y-137541277D01*
X100152539Y-137632685D01*
X100108008Y-137679215D01*
X100405271Y-137860483D01*
X100479433Y-137905580D01*
X100547646Y-137946819D01*
X100607459Y-137982735D01*
X100656420Y-138011866D01*
X100692079Y-138032750D01*
X100711984Y-138043924D01*
X100715079Y-138045375D01*
X100724718Y-138037146D01*
X100741999Y-138011567D01*
X100765283Y-137971873D01*
X100792934Y-137921297D01*
X100823315Y-137863074D01*
X100854790Y-137800437D01*
X100885722Y-137736621D01*
X100914473Y-137674860D01*
X100939408Y-137618388D01*
X100958889Y-137570438D01*
X100967318Y-137546986D01*
X101005133Y-137413221D01*
X101030136Y-137275327D01*
X101043140Y-137127622D01*
X101045468Y-137000833D01*
X101044373Y-136932878D01*
X101042275Y-136867277D01*
X101039434Y-136809847D01*
X101036106Y-136766403D01*
X101034422Y-136752298D01*
X101005587Y-136613284D01*
X100960468Y-136471757D01*
X100901750Y-136334275D01*
X100832120Y-136207394D01*
X100779441Y-136129889D01*
X100671239Y-136002481D01*
X100544671Y-135884178D01*
X100402866Y-135777172D01*
X100248951Y-135683652D01*
X100086053Y-135605810D01*
X99968756Y-135561956D01*
X99785128Y-135511708D01*
X99590581Y-135478209D01*
X99389325Y-135461449D01*
X99185568Y-135461416D01*
X98983521Y-135478101D01*
X98787392Y-135511493D01*
X98601391Y-135561580D01*
X98589803Y-135565397D01*
X98427750Y-135628281D01*
X98279832Y-135705028D01*
X98141865Y-135798242D01*
X98009661Y-135910527D01*
X97964399Y-135954392D01*
X97840457Y-136090534D01*
X97737915Y-136230491D01*
X97655656Y-136376411D01*
X97592564Y-136530442D01*
X97547523Y-136694732D01*
X97530033Y-136790289D01*
X97514466Y-136949023D01*
X97517071Y-137107429D01*
G36*
X97057054Y-133832600D02*
G01*
X97170993Y-133843465D01*
X97278616Y-133875082D01*
X97377615Y-133925985D01*
X97465684Y-133994707D01*
X97540516Y-134079781D01*
X97598384Y-134176768D01*
X97638005Y-134283036D01*
X97656573Y-134390050D01*
X97655434Y-134495700D01*
X97635930Y-134597875D01*
X97599406Y-134694466D01*
X97547205Y-134783362D01*
X97480673Y-134862454D01*
X97401152Y-134929631D01*
X97309987Y-134982783D01*
X97208523Y-135019801D01*
X97098102Y-135038573D01*
X97048206Y-135040511D01*
X96960267Y-135040511D01*
X96960267Y-135092440D01*
X96963111Y-135128747D01*
X96974911Y-135155645D01*
X96998649Y-135182751D01*
X97037031Y-135221133D01*
X99228602Y-135221133D01*
X99490739Y-135221124D01*
X99731241Y-135221092D01*
X99951048Y-135221028D01*
X100151101Y-135220924D01*
X100332344Y-135220773D01*
X100495716Y-135220566D01*
X100642160Y-135220294D01*
X100772617Y-135219950D01*
X100888029Y-135219526D01*
X100989338Y-135219013D01*
X101077484Y-135218403D01*
X101153410Y-135217688D01*
X101218057Y-135216860D01*
X101272367Y-135215911D01*
X101317280Y-135214833D01*
X101353740Y-135213617D01*
X101382687Y-135212255D01*
X101405063Y-135210739D01*
X101421809Y-135209062D01*
X101433868Y-135207214D01*
X101442180Y-135205187D01*
X101447687Y-135202975D01*
X101449537Y-135201892D01*
X101456549Y-135197729D01*
X101462996Y-135194195D01*
X101468900Y-135190365D01*
X101474286Y-135185318D01*
X101479178Y-135178129D01*
X101483598Y-135167877D01*
X101487572Y-135153636D01*
X101491121Y-135134486D01*
X101494270Y-135109501D01*
X101497042Y-135077760D01*
X101499461Y-135038338D01*
X101501551Y-134990314D01*
X101503335Y-134932763D01*
X101504837Y-134864763D01*
X101506080Y-134785390D01*
X101507089Y-134693721D01*
X101507885Y-134588834D01*
X101508494Y-134469804D01*
X101508939Y-134335710D01*
X101509243Y-134185627D01*
X101509430Y-134018633D01*
X101509524Y-133833804D01*
X101509548Y-133630217D01*
X101509525Y-133406950D01*
X101509480Y-133163078D01*
X101509437Y-132897679D01*
X101509432Y-132859296D01*
X101509389Y-132592318D01*
X101509318Y-132346998D01*
X101509213Y-132122417D01*
X101509066Y-131917655D01*
X101508869Y-131731794D01*
X101508616Y-131563912D01*
X101508300Y-131413092D01*
X101507913Y-131278413D01*
X101507447Y-131158956D01*
X101506897Y-131053801D01*
X101506253Y-130962029D01*
X101505511Y-130882721D01*
X101504661Y-130814957D01*
X101503697Y-130757818D01*
X101502611Y-130710383D01*
X101501397Y-130671734D01*
X101500047Y-130640951D01*
X101498555Y-130617115D01*
X101496911Y-130599306D01*
X101495111Y-130586605D01*
X101493145Y-130578092D01*
X101491477Y-130573734D01*
X101487906Y-130565272D01*
X101485270Y-130557503D01*
X101482634Y-130550398D01*
X101479062Y-130543927D01*
X101473621Y-130538061D01*
X101465375Y-130532771D01*
X101453390Y-130528026D01*
X101436731Y-130523798D01*
X101414463Y-130520057D01*
X101385652Y-130516773D01*
X101349363Y-130513917D01*
X101304661Y-130511460D01*
X101250611Y-130509371D01*
X101186279Y-130507622D01*
X101110730Y-130506183D01*
X101023030Y-130505024D01*
X100922243Y-130504117D01*
X100807434Y-130503431D01*
X100677670Y-130502937D01*
X100532015Y-130502605D01*
X100369535Y-130502407D01*
X100189295Y-130502313D01*
X99990360Y-130502292D01*
X99771796Y-130502315D01*
X99532668Y-130502354D01*
X99272040Y-130502378D01*
X99229889Y-130502378D01*
X98966992Y-130502364D01*
X98725732Y-130502339D01*
X98505165Y-130502329D01*
X98304352Y-130502358D01*
X98122349Y-130502452D01*
X97958216Y-130502638D01*
X97811011Y-130502941D01*
X97679792Y-130503386D01*
X97569867Y-130503966D01*
X97569867Y-130806803D01*
X97627711Y-130846593D01*
X97643479Y-130857764D01*
X97657441Y-130867834D01*
X97670784Y-130876862D01*
X97684693Y-130884903D01*
X97700356Y-130892014D01*
X97718958Y-130898253D01*
X97741686Y-130903675D01*
X97769727Y-130908338D01*
X97804267Y-130912299D01*
X97846492Y-130915615D01*
X97897589Y-130918341D01*
X97958744Y-130920536D01*
X98031144Y-130922255D01*
X98115975Y-130923556D01*
X98214422Y-130924495D01*
X98327674Y-130925130D01*
X98456916Y-130925516D01*
X98603334Y-130925712D01*
X98768116Y-130925773D01*
X98952447Y-130925757D01*
X99157513Y-130925720D01*
X99280133Y-130925711D01*
X99497082Y-130925735D01*
X99692642Y-130925769D01*
X99867999Y-130925757D01*
X100024341Y-130925642D01*
X100162857Y-130925370D01*
X100284734Y-130924882D01*
X100391160Y-130924124D01*
X100483322Y-130923038D01*
X100562409Y-130921569D01*
X100629608Y-130919660D01*
X100686107Y-130917256D01*
X100733093Y-130914299D01*
X100771755Y-130910734D01*
X100803280Y-130906505D01*
X100828855Y-130901554D01*
X100849670Y-130895827D01*
X100866911Y-130889267D01*
X100881765Y-130881817D01*
X100895422Y-130873421D01*
X100909069Y-130864024D01*
X100923893Y-130853568D01*
X100932783Y-130847477D01*
X100990400Y-130808704D01*
X100990400Y-131340268D01*
X100990365Y-131463517D01*
X100990215Y-131566013D01*
X100989878Y-131649580D01*
X100989286Y-131716044D01*
X100988367Y-131767229D01*
X100987051Y-131804959D01*
X100985269Y-131831060D01*
X100982951Y-131847356D01*
X100980026Y-131855672D01*
X100976424Y-131857832D01*
X100972075Y-131855661D01*
X100970645Y-131854465D01*
X100933573Y-131829315D01*
X100880772Y-131803417D01*
X100818770Y-131779808D01*
X100792357Y-131771539D01*
X100774416Y-131766922D01*
X100753355Y-131763021D01*
X100727089Y-131759752D01*
X100693532Y-131757034D01*
X100650599Y-131754785D01*
X100596204Y-131752923D01*
X100528262Y-131751364D01*
X100444688Y-131750028D01*
X100343395Y-131748831D01*
X100222300Y-131747692D01*
X100177600Y-131747315D01*
X100052449Y-131746298D01*
X99948082Y-131745540D01*
X99862707Y-131745097D01*
X99794533Y-131745030D01*
X99741765Y-131745395D01*
X99702614Y-131746252D01*
X99675285Y-131747659D01*
X99657986Y-131749675D01*
X99648926Y-131752357D01*
X99646312Y-131755764D01*
X99648351Y-131759956D01*
X99652667Y-131764429D01*
X99665602Y-131774784D01*
X99694676Y-131796842D01*
X99737759Y-131829043D01*
X99792718Y-131869826D01*
X99857423Y-131917630D01*
X99929742Y-131970895D01*
X100007544Y-132028060D01*
X100088698Y-132087563D01*
X100171072Y-132147845D01*
X100252536Y-132207345D01*
X100330957Y-132264502D01*
X100404204Y-132317755D01*
X100470147Y-132365543D01*
X100526654Y-132406307D01*
X100571593Y-132438484D01*
X100602834Y-132460515D01*
X100609466Y-132465083D01*
X100646369Y-132488004D01*
X100694359Y-132514812D01*
X100743897Y-132540211D01*
X100750577Y-132543432D01*
X100798772Y-132565110D01*
X100836334Y-132577696D01*
X100872160Y-132583426D01*
X100914200Y-132584544D01*
X100990400Y-132583910D01*
X100990400Y-133738349D01*
X100896669Y-133647185D01*
X100846775Y-133600388D01*
X100790295Y-133550101D01*
X100736026Y-133504056D01*
X100710673Y-133483631D01*
X100671128Y-133453193D01*
X100617916Y-133413138D01*
X100552667Y-133364639D01*
X100477011Y-133308865D01*
X100392577Y-133246989D01*
X100300994Y-133180181D01*
X100203892Y-133109613D01*
X100102901Y-133036455D01*
X99999650Y-132961879D01*
X99895768Y-132887056D01*
X99792885Y-132813157D01*
X99692631Y-132741354D01*
X99596636Y-132672816D01*
X99506527Y-132608716D01*
X99423936Y-132550225D01*
X99350492Y-132498514D01*
X99287824Y-132454753D01*
X99237561Y-132420115D01*
X99201334Y-132395770D01*
X99180771Y-132382889D01*
X99176668Y-132381131D01*
X99165342Y-132389090D01*
X99138162Y-132409885D01*
X99096829Y-132442153D01*
X99043044Y-132484530D01*
X98978506Y-132535653D01*
X98904918Y-132594159D01*
X98823978Y-132658686D01*
X98737388Y-132727869D01*
X98646848Y-132800347D01*
X98554060Y-132874754D01*
X98479702Y-132934483D01*
X98479702Y-133945489D01*
X98492659Y-133951398D01*
X98514908Y-133965728D01*
X98516391Y-133966775D01*
X98546544Y-133985562D01*
X98583375Y-134005209D01*
X98591511Y-134009108D01*
X98599940Y-134012644D01*
X98610059Y-134015770D01*
X98623260Y-134018514D01*
X98640938Y-134020908D01*
X98664484Y-134022981D01*
X98695293Y-134024765D01*
X98734757Y-134026288D01*
X98784269Y-134027581D01*
X98845223Y-134028674D01*
X98919011Y-134029597D01*
X99007028Y-134030381D01*
X99110665Y-134031055D01*
X99231316Y-134031650D01*
X99370374Y-134032195D01*
X99529232Y-134032721D01*
X99708089Y-134033255D01*
X99893207Y-134033794D01*
X100057145Y-134034228D01*
X100201303Y-134034491D01*
X100327079Y-134034516D01*
X100435871Y-134034235D01*
X100529077Y-134033581D01*
X100608097Y-134032486D01*
X100674328Y-134030882D01*
X100729170Y-134028703D01*
X100774021Y-134025881D01*
X100810278Y-134022349D01*
X100839341Y-134018039D01*
X100862609Y-134012883D01*
X100881479Y-134006815D01*
X100897351Y-133999767D01*
X100911622Y-133991671D01*
X100925691Y-133982460D01*
X100938158Y-133973960D01*
X100964452Y-133956824D01*
X100982037Y-133946678D01*
X100985257Y-133945489D01*
X100986334Y-133956396D01*
X100987335Y-133987589D01*
X100988235Y-134036777D01*
X100989010Y-134101667D01*
X100989637Y-134179970D01*
X100990091Y-134269393D01*
X100990349Y-134367644D01*
X100990400Y-134436555D01*
X100990180Y-134541548D01*
X100989548Y-134638390D01*
X100988549Y-134724893D01*
X100987227Y-134798868D01*
X100985626Y-134858126D01*
X100983791Y-134900480D01*
X100981765Y-134923740D01*
X100980493Y-134927622D01*
X100965591Y-134919924D01*
X100957560Y-134911926D01*
X100940434Y-134898754D01*
X100910183Y-134881515D01*
X100885622Y-134869593D01*
X100826711Y-134842955D01*
X99649845Y-134839880D01*
X98472978Y-134836805D01*
X98472978Y-134391147D01*
X98473142Y-134293330D01*
X98473611Y-134202936D01*
X98474347Y-134122370D01*
X98475316Y-134054038D01*
X98476480Y-134000344D01*
X98477803Y-133963695D01*
X98479249Y-133946496D01*
X98479702Y-133945489D01*
X98479702Y-132934483D01*
X98460722Y-132949730D01*
X98368537Y-133023910D01*
X98279204Y-133095931D01*
X98194424Y-133164431D01*
X98115898Y-133228045D01*
X98045326Y-133285412D01*
X97984409Y-133335167D01*
X97934847Y-133375948D01*
X97914178Y-133393112D01*
X97813516Y-133479404D01*
X97730259Y-133556003D01*
X97662438Y-133624817D01*
X97608089Y-133687752D01*
X97600722Y-133697133D01*
X97570117Y-133736644D01*
X97569867Y-132604884D01*
X97617844Y-132610173D01*
X97675188Y-132606870D01*
X97743463Y-132585339D01*
X97823212Y-132545365D01*
X97895495Y-132500057D01*
X97918140Y-132483839D01*
X97955696Y-132455786D01*
X98006021Y-132417570D01*
X98066973Y-132370863D01*
X98136411Y-132317339D01*
X98212194Y-132258669D01*
X98292180Y-132196525D01*
X98374228Y-132132579D01*
X98456196Y-132068505D01*
X98535943Y-132005973D01*
X98611327Y-131946657D01*
X98680207Y-131892229D01*
X98740442Y-131844361D01*
X98789889Y-131804725D01*
X98826408Y-131774994D01*
X98847858Y-131756839D01*
X98851156Y-131753780D01*
X98843149Y-131750921D01*
X98812855Y-131748707D01*
X98760556Y-131747143D01*
X98686531Y-131746233D01*
X98591063Y-131745980D01*
X98474434Y-131746387D01*
X98354445Y-131747296D01*
X98222333Y-131748618D01*
X98110594Y-131750143D01*
X98017025Y-131752119D01*
X97939419Y-131754794D01*
X97875574Y-131758418D01*
X97823283Y-131763239D01*
X97780344Y-131769506D01*
X97744551Y-131777468D01*
X97713700Y-131787373D01*
X97685586Y-131799469D01*
X97658005Y-131814007D01*
X97632966Y-131828689D01*
X97569867Y-131866686D01*
X97569867Y-130806803D01*
X97569867Y-130503966D01*
X97563617Y-130503999D01*
X97461544Y-130504805D01*
X97372633Y-130505830D01*
X97295941Y-130507100D01*
X97230527Y-130508640D01*
X97175449Y-130510476D01*
X97129765Y-130512633D01*
X97092534Y-130515137D01*
X97062813Y-130518013D01*
X97039662Y-130521287D01*
X97022139Y-130524985D01*
X97009301Y-130529131D01*
X97000208Y-130533753D01*
X96993918Y-130538874D01*
X96989488Y-130544522D01*
X96985978Y-130550721D01*
X96982445Y-130557496D01*
X96978876Y-130563492D01*
X96976300Y-130568725D01*
X96973972Y-130576901D01*
X96971878Y-130589114D01*
X96970007Y-130606459D01*
X96968347Y-130630031D01*
X96966884Y-130660923D01*
X96965608Y-130700232D01*
X96964504Y-130749050D01*
X96963561Y-130808473D01*
X96962767Y-130879596D01*
X96962109Y-130963512D01*
X96961575Y-131061317D01*
X96961153Y-131174106D01*
X96960829Y-131302971D01*
X96960592Y-131449009D01*
X96960430Y-131613314D01*
X96960330Y-131796980D01*
X96960280Y-132001103D01*
X96960267Y-132212247D01*
X96960267Y-133832600D01*
X97057054Y-133832600D01*
X97057054Y-133832600D01*
G37*
X97057054Y-133832600D02*
X97170993Y-133843465D01*
X97278616Y-133875082D01*
X97377615Y-133925985D01*
X97465684Y-133994707D01*
X97540516Y-134079781D01*
X97598384Y-134176768D01*
X97638005Y-134283036D01*
X97656573Y-134390050D01*
X97655434Y-134495700D01*
X97635930Y-134597875D01*
X97599406Y-134694466D01*
X97547205Y-134783362D01*
X97480673Y-134862454D01*
X97401152Y-134929631D01*
X97309987Y-134982783D01*
X97208523Y-135019801D01*
X97098102Y-135038573D01*
X97048206Y-135040511D01*
X96960267Y-135040511D01*
X96960267Y-135092440D01*
X96963111Y-135128747D01*
X96974911Y-135155645D01*
X96998649Y-135182751D01*
X97037031Y-135221133D01*
X99228602Y-135221133D01*
X99490739Y-135221124D01*
X99731241Y-135221092D01*
X99951048Y-135221028D01*
X100151101Y-135220924D01*
X100332344Y-135220773D01*
X100495716Y-135220566D01*
X100642160Y-135220294D01*
X100772617Y-135219950D01*
X100888029Y-135219526D01*
X100989338Y-135219013D01*
X101077484Y-135218403D01*
X101153410Y-135217688D01*
X101218057Y-135216860D01*
X101272367Y-135215911D01*
X101317280Y-135214833D01*
X101353740Y-135213617D01*
X101382687Y-135212255D01*
X101405063Y-135210739D01*
X101421809Y-135209062D01*
X101433868Y-135207214D01*
X101442180Y-135205187D01*
X101447687Y-135202975D01*
X101449537Y-135201892D01*
X101456549Y-135197729D01*
X101462996Y-135194195D01*
X101468900Y-135190365D01*
X101474286Y-135185318D01*
X101479178Y-135178129D01*
X101483598Y-135167877D01*
X101487572Y-135153636D01*
X101491121Y-135134486D01*
X101494270Y-135109501D01*
X101497042Y-135077760D01*
X101499461Y-135038338D01*
X101501551Y-134990314D01*
X101503335Y-134932763D01*
X101504837Y-134864763D01*
X101506080Y-134785390D01*
X101507089Y-134693721D01*
X101507885Y-134588834D01*
X101508494Y-134469804D01*
X101508939Y-134335710D01*
X101509243Y-134185627D01*
X101509430Y-134018633D01*
X101509524Y-133833804D01*
X101509548Y-133630217D01*
X101509525Y-133406950D01*
X101509480Y-133163078D01*
X101509437Y-132897679D01*
X101509432Y-132859296D01*
X101509389Y-132592318D01*
X101509318Y-132346998D01*
X101509213Y-132122417D01*
X101509066Y-131917655D01*
X101508869Y-131731794D01*
X101508616Y-131563912D01*
X101508300Y-131413092D01*
X101507913Y-131278413D01*
X101507447Y-131158956D01*
X101506897Y-131053801D01*
X101506253Y-130962029D01*
X101505511Y-130882721D01*
X101504661Y-130814957D01*
X101503697Y-130757818D01*
X101502611Y-130710383D01*
X101501397Y-130671734D01*
X101500047Y-130640951D01*
X101498555Y-130617115D01*
X101496911Y-130599306D01*
X101495111Y-130586605D01*
X101493145Y-130578092D01*
X101491477Y-130573734D01*
X101487906Y-130565272D01*
X101485270Y-130557503D01*
X101482634Y-130550398D01*
X101479062Y-130543927D01*
X101473621Y-130538061D01*
X101465375Y-130532771D01*
X101453390Y-130528026D01*
X101436731Y-130523798D01*
X101414463Y-130520057D01*
X101385652Y-130516773D01*
X101349363Y-130513917D01*
X101304661Y-130511460D01*
X101250611Y-130509371D01*
X101186279Y-130507622D01*
X101110730Y-130506183D01*
X101023030Y-130505024D01*
X100922243Y-130504117D01*
X100807434Y-130503431D01*
X100677670Y-130502937D01*
X100532015Y-130502605D01*
X100369535Y-130502407D01*
X100189295Y-130502313D01*
X99990360Y-130502292D01*
X99771796Y-130502315D01*
X99532668Y-130502354D01*
X99272040Y-130502378D01*
X99229889Y-130502378D01*
X98966992Y-130502364D01*
X98725732Y-130502339D01*
X98505165Y-130502329D01*
X98304352Y-130502358D01*
X98122349Y-130502452D01*
X97958216Y-130502638D01*
X97811011Y-130502941D01*
X97679792Y-130503386D01*
X97569867Y-130503966D01*
X97569867Y-130806803D01*
X97627711Y-130846593D01*
X97643479Y-130857764D01*
X97657441Y-130867834D01*
X97670784Y-130876862D01*
X97684693Y-130884903D01*
X97700356Y-130892014D01*
X97718958Y-130898253D01*
X97741686Y-130903675D01*
X97769727Y-130908338D01*
X97804267Y-130912299D01*
X97846492Y-130915615D01*
X97897589Y-130918341D01*
X97958744Y-130920536D01*
X98031144Y-130922255D01*
X98115975Y-130923556D01*
X98214422Y-130924495D01*
X98327674Y-130925130D01*
X98456916Y-130925516D01*
X98603334Y-130925712D01*
X98768116Y-130925773D01*
X98952447Y-130925757D01*
X99157513Y-130925720D01*
X99280133Y-130925711D01*
X99497082Y-130925735D01*
X99692642Y-130925769D01*
X99867999Y-130925757D01*
X100024341Y-130925642D01*
X100162857Y-130925370D01*
X100284734Y-130924882D01*
X100391160Y-130924124D01*
X100483322Y-130923038D01*
X100562409Y-130921569D01*
X100629608Y-130919660D01*
X100686107Y-130917256D01*
X100733093Y-130914299D01*
X100771755Y-130910734D01*
X100803280Y-130906505D01*
X100828855Y-130901554D01*
X100849670Y-130895827D01*
X100866911Y-130889267D01*
X100881765Y-130881817D01*
X100895422Y-130873421D01*
X100909069Y-130864024D01*
X100923893Y-130853568D01*
X100932783Y-130847477D01*
X100990400Y-130808704D01*
X100990400Y-131340268D01*
X100990365Y-131463517D01*
X100990215Y-131566013D01*
X100989878Y-131649580D01*
X100989286Y-131716044D01*
X100988367Y-131767229D01*
X100987051Y-131804959D01*
X100985269Y-131831060D01*
X100982951Y-131847356D01*
X100980026Y-131855672D01*
X100976424Y-131857832D01*
X100972075Y-131855661D01*
X100970645Y-131854465D01*
X100933573Y-131829315D01*
X100880772Y-131803417D01*
X100818770Y-131779808D01*
X100792357Y-131771539D01*
X100774416Y-131766922D01*
X100753355Y-131763021D01*
X100727089Y-131759752D01*
X100693532Y-131757034D01*
X100650599Y-131754785D01*
X100596204Y-131752923D01*
X100528262Y-131751364D01*
X100444688Y-131750028D01*
X100343395Y-131748831D01*
X100222300Y-131747692D01*
X100177600Y-131747315D01*
X100052449Y-131746298D01*
X99948082Y-131745540D01*
X99862707Y-131745097D01*
X99794533Y-131745030D01*
X99741765Y-131745395D01*
X99702614Y-131746252D01*
X99675285Y-131747659D01*
X99657986Y-131749675D01*
X99648926Y-131752357D01*
X99646312Y-131755764D01*
X99648351Y-131759956D01*
X99652667Y-131764429D01*
X99665602Y-131774784D01*
X99694676Y-131796842D01*
X99737759Y-131829043D01*
X99792718Y-131869826D01*
X99857423Y-131917630D01*
X99929742Y-131970895D01*
X100007544Y-132028060D01*
X100088698Y-132087563D01*
X100171072Y-132147845D01*
X100252536Y-132207345D01*
X100330957Y-132264502D01*
X100404204Y-132317755D01*
X100470147Y-132365543D01*
X100526654Y-132406307D01*
X100571593Y-132438484D01*
X100602834Y-132460515D01*
X100609466Y-132465083D01*
X100646369Y-132488004D01*
X100694359Y-132514812D01*
X100743897Y-132540211D01*
X100750577Y-132543432D01*
X100798772Y-132565110D01*
X100836334Y-132577696D01*
X100872160Y-132583426D01*
X100914200Y-132584544D01*
X100990400Y-132583910D01*
X100990400Y-133738349D01*
X100896669Y-133647185D01*
X100846775Y-133600388D01*
X100790295Y-133550101D01*
X100736026Y-133504056D01*
X100710673Y-133483631D01*
X100671128Y-133453193D01*
X100617916Y-133413138D01*
X100552667Y-133364639D01*
X100477011Y-133308865D01*
X100392577Y-133246989D01*
X100300994Y-133180181D01*
X100203892Y-133109613D01*
X100102901Y-133036455D01*
X99999650Y-132961879D01*
X99895768Y-132887056D01*
X99792885Y-132813157D01*
X99692631Y-132741354D01*
X99596636Y-132672816D01*
X99506527Y-132608716D01*
X99423936Y-132550225D01*
X99350492Y-132498514D01*
X99287824Y-132454753D01*
X99237561Y-132420115D01*
X99201334Y-132395770D01*
X99180771Y-132382889D01*
X99176668Y-132381131D01*
X99165342Y-132389090D01*
X99138162Y-132409885D01*
X99096829Y-132442153D01*
X99043044Y-132484530D01*
X98978506Y-132535653D01*
X98904918Y-132594159D01*
X98823978Y-132658686D01*
X98737388Y-132727869D01*
X98646848Y-132800347D01*
X98554060Y-132874754D01*
X98479702Y-132934483D01*
X98479702Y-133945489D01*
X98492659Y-133951398D01*
X98514908Y-133965728D01*
X98516391Y-133966775D01*
X98546544Y-133985562D01*
X98583375Y-134005209D01*
X98591511Y-134009108D01*
X98599940Y-134012644D01*
X98610059Y-134015770D01*
X98623260Y-134018514D01*
X98640938Y-134020908D01*
X98664484Y-134022981D01*
X98695293Y-134024765D01*
X98734757Y-134026288D01*
X98784269Y-134027581D01*
X98845223Y-134028674D01*
X98919011Y-134029597D01*
X99007028Y-134030381D01*
X99110665Y-134031055D01*
X99231316Y-134031650D01*
X99370374Y-134032195D01*
X99529232Y-134032721D01*
X99708089Y-134033255D01*
X99893207Y-134033794D01*
X100057145Y-134034228D01*
X100201303Y-134034491D01*
X100327079Y-134034516D01*
X100435871Y-134034235D01*
X100529077Y-134033581D01*
X100608097Y-134032486D01*
X100674328Y-134030882D01*
X100729170Y-134028703D01*
X100774021Y-134025881D01*
X100810278Y-134022349D01*
X100839341Y-134018039D01*
X100862609Y-134012883D01*
X100881479Y-134006815D01*
X100897351Y-133999767D01*
X100911622Y-133991671D01*
X100925691Y-133982460D01*
X100938158Y-133973960D01*
X100964452Y-133956824D01*
X100982037Y-133946678D01*
X100985257Y-133945489D01*
X100986334Y-133956396D01*
X100987335Y-133987589D01*
X100988235Y-134036777D01*
X100989010Y-134101667D01*
X100989637Y-134179970D01*
X100990091Y-134269393D01*
X100990349Y-134367644D01*
X100990400Y-134436555D01*
X100990180Y-134541548D01*
X100989548Y-134638390D01*
X100988549Y-134724893D01*
X100987227Y-134798868D01*
X100985626Y-134858126D01*
X100983791Y-134900480D01*
X100981765Y-134923740D01*
X100980493Y-134927622D01*
X100965591Y-134919924D01*
X100957560Y-134911926D01*
X100940434Y-134898754D01*
X100910183Y-134881515D01*
X100885622Y-134869593D01*
X100826711Y-134842955D01*
X99649845Y-134839880D01*
X98472978Y-134836805D01*
X98472978Y-134391147D01*
X98473142Y-134293330D01*
X98473611Y-134202936D01*
X98474347Y-134122370D01*
X98475316Y-134054038D01*
X98476480Y-134000344D01*
X98477803Y-133963695D01*
X98479249Y-133946496D01*
X98479702Y-133945489D01*
X98479702Y-132934483D01*
X98460722Y-132949730D01*
X98368537Y-133023910D01*
X98279204Y-133095931D01*
X98194424Y-133164431D01*
X98115898Y-133228045D01*
X98045326Y-133285412D01*
X97984409Y-133335167D01*
X97934847Y-133375948D01*
X97914178Y-133393112D01*
X97813516Y-133479404D01*
X97730259Y-133556003D01*
X97662438Y-133624817D01*
X97608089Y-133687752D01*
X97600722Y-133697133D01*
X97570117Y-133736644D01*
X97569867Y-132604884D01*
X97617844Y-132610173D01*
X97675188Y-132606870D01*
X97743463Y-132585339D01*
X97823212Y-132545365D01*
X97895495Y-132500057D01*
X97918140Y-132483839D01*
X97955696Y-132455786D01*
X98006021Y-132417570D01*
X98066973Y-132370863D01*
X98136411Y-132317339D01*
X98212194Y-132258669D01*
X98292180Y-132196525D01*
X98374228Y-132132579D01*
X98456196Y-132068505D01*
X98535943Y-132005973D01*
X98611327Y-131946657D01*
X98680207Y-131892229D01*
X98740442Y-131844361D01*
X98789889Y-131804725D01*
X98826408Y-131774994D01*
X98847858Y-131756839D01*
X98851156Y-131753780D01*
X98843149Y-131750921D01*
X98812855Y-131748707D01*
X98760556Y-131747143D01*
X98686531Y-131746233D01*
X98591063Y-131745980D01*
X98474434Y-131746387D01*
X98354445Y-131747296D01*
X98222333Y-131748618D01*
X98110594Y-131750143D01*
X98017025Y-131752119D01*
X97939419Y-131754794D01*
X97875574Y-131758418D01*
X97823283Y-131763239D01*
X97780344Y-131769506D01*
X97744551Y-131777468D01*
X97713700Y-131787373D01*
X97685586Y-131799469D01*
X97658005Y-131814007D01*
X97632966Y-131828689D01*
X97569867Y-131866686D01*
X97569867Y-130806803D01*
X97569867Y-130503966D01*
X97563617Y-130503999D01*
X97461544Y-130504805D01*
X97372633Y-130505830D01*
X97295941Y-130507100D01*
X97230527Y-130508640D01*
X97175449Y-130510476D01*
X97129765Y-130512633D01*
X97092534Y-130515137D01*
X97062813Y-130518013D01*
X97039662Y-130521287D01*
X97022139Y-130524985D01*
X97009301Y-130529131D01*
X97000208Y-130533753D01*
X96993918Y-130538874D01*
X96989488Y-130544522D01*
X96985978Y-130550721D01*
X96982445Y-130557496D01*
X96978876Y-130563492D01*
X96976300Y-130568725D01*
X96973972Y-130576901D01*
X96971878Y-130589114D01*
X96970007Y-130606459D01*
X96968347Y-130630031D01*
X96966884Y-130660923D01*
X96965608Y-130700232D01*
X96964504Y-130749050D01*
X96963561Y-130808473D01*
X96962767Y-130879596D01*
X96962109Y-130963512D01*
X96961575Y-131061317D01*
X96961153Y-131174106D01*
X96960829Y-131302971D01*
X96960592Y-131449009D01*
X96960430Y-131613314D01*
X96960330Y-131796980D01*
X96960280Y-132001103D01*
X96960267Y-132212247D01*
X96960267Y-133832600D01*
X97057054Y-133832600D01*
D13*
X134999500Y-120125000D02*
X136399500Y-120125000D01*
X136399500Y-122445000D02*
X134499500Y-122445000D01*
X138847600Y-51824400D02*
X140247600Y-51824400D01*
X140247600Y-54144400D02*
X138347600Y-54144400D01*
X146363200Y-53100200D02*
X146363200Y-51700200D01*
X148683200Y-51700200D02*
X148683200Y-53600200D01*
X138224800Y-146119667D02*
X138224800Y-145777133D01*
X139244800Y-146119667D02*
X139244800Y-145777133D01*
X137035000Y-145878733D02*
X137035000Y-146221267D01*
X136015000Y-145878733D02*
X136015000Y-146221267D01*
X133449600Y-136416867D02*
X133449600Y-136074333D01*
X134469600Y-136416867D02*
X134469600Y-136074333D01*
X131180300Y-71418633D02*
X131180300Y-71761167D01*
X130160300Y-71418633D02*
X130160300Y-71761167D01*
X131320000Y-67354633D02*
X131320000Y-67697167D01*
X130300000Y-67354633D02*
X130300000Y-67697167D01*
X133801942Y-71418633D02*
X133801942Y-71761167D01*
X132781942Y-71418633D02*
X132781942Y-71761167D01*
X133932571Y-67354633D02*
X133932571Y-67697167D01*
X132912571Y-67354633D02*
X132912571Y-67697167D01*
X136423584Y-71418633D02*
X136423584Y-71761167D01*
X135403584Y-71418633D02*
X135403584Y-71761167D01*
X136545142Y-67354633D02*
X136545142Y-67697167D01*
X135525142Y-67354633D02*
X135525142Y-67697167D01*
X139045226Y-71418633D02*
X139045226Y-71761167D01*
X138025226Y-71418633D02*
X138025226Y-71761167D01*
X139157713Y-67354633D02*
X139157713Y-67697167D01*
X138137713Y-67354633D02*
X138137713Y-67697167D01*
X141666868Y-71418633D02*
X141666868Y-71761167D01*
X140646868Y-71418633D02*
X140646868Y-71761167D01*
X141770284Y-67354633D02*
X141770284Y-67697167D01*
X140750284Y-67354633D02*
X140750284Y-67697167D01*
X144288510Y-71418633D02*
X144288510Y-71761167D01*
X143268510Y-71418633D02*
X143268510Y-71761167D01*
X144382855Y-67354633D02*
X144382855Y-67697167D01*
X143362855Y-67354633D02*
X143362855Y-67697167D01*
X146910152Y-71418633D02*
X146910152Y-71761167D01*
X145890152Y-71418633D02*
X145890152Y-71761167D01*
X146995426Y-67354633D02*
X146995426Y-67697167D01*
X145975426Y-67354633D02*
X145975426Y-67697167D01*
X149531800Y-71418633D02*
X149531800Y-71761167D01*
X148511800Y-71418633D02*
X148511800Y-71761167D01*
X149608000Y-67354633D02*
X149608000Y-67697167D01*
X148588000Y-67354633D02*
X148588000Y-67697167D01*
X128068800Y-71405933D02*
X128068800Y-71748467D01*
X127048800Y-71405933D02*
X127048800Y-71748467D01*
X127967200Y-67240333D02*
X127967200Y-67582867D01*
X126947200Y-67240333D02*
X126947200Y-67582867D01*
X124131800Y-71507533D02*
X124131800Y-71850067D01*
X123111800Y-71507533D02*
X123111800Y-71850067D01*
X124182600Y-67341933D02*
X124182600Y-67684467D01*
X123162600Y-67341933D02*
X123162600Y-67684467D01*
X137047200Y-144111200D02*
X135647200Y-144111200D01*
X135647200Y-141791200D02*
X137547200Y-141791200D01*
X167570333Y-55370000D02*
X167912867Y-55370000D01*
X167570333Y-56390000D02*
X167912867Y-56390000D01*
X166185667Y-77130914D02*
X165843133Y-77130914D01*
X166185667Y-76110914D02*
X165843133Y-76110914D01*
X167671933Y-66734685D02*
X168014467Y-66734685D01*
X167671933Y-67754685D02*
X168014467Y-67754685D01*
X165982467Y-65788000D02*
X165639933Y-65788000D01*
X165982467Y-64768000D02*
X165639933Y-64768000D01*
X165639933Y-87504628D02*
X165982467Y-87504628D01*
X165639933Y-88524628D02*
X165982467Y-88524628D01*
X168014467Y-90426000D02*
X167671933Y-90426000D01*
X168014467Y-89406000D02*
X167671933Y-89406000D01*
X167671933Y-78179200D02*
X168014467Y-78179200D01*
X167671933Y-79199200D02*
X168014467Y-79199200D01*
X165843133Y-98898342D02*
X166185667Y-98898342D01*
X165843133Y-99918342D02*
X166185667Y-99918342D01*
X165666267Y-111000000D02*
X165323733Y-111000000D01*
X165666267Y-109980000D02*
X165323733Y-109980000D01*
X167671933Y-100785200D02*
X168014467Y-100785200D01*
X167671933Y-101805200D02*
X168014467Y-101805200D01*
X168014467Y-113159000D02*
X167671933Y-113159000D01*
X168014467Y-112139000D02*
X167671933Y-112139000D01*
X165843133Y-121685770D02*
X166185667Y-121685770D01*
X165843133Y-122705770D02*
X166185667Y-122705770D01*
X167987767Y-124512800D02*
X167645233Y-124512800D01*
X167987767Y-123492800D02*
X167645233Y-123492800D01*
X168014467Y-135892000D02*
X167671933Y-135892000D01*
X168014467Y-134872000D02*
X167671933Y-134872000D01*
X165690733Y-132941600D02*
X166033267Y-132941600D01*
X165690733Y-133961600D02*
X166033267Y-133961600D01*
X165880867Y-145290000D02*
X165538333Y-145290000D01*
X165880867Y-144270000D02*
X165538333Y-144270000D01*
D14*
X100099503Y-111934436D02*
X100814281Y-111934436D01*
X100957237Y-111886784D01*
X101052541Y-111791480D01*
X101100193Y-111648525D01*
X101100193Y-111553221D01*
X100099503Y-112315651D02*
X100099503Y-112935126D01*
X100480718Y-112601563D01*
X100480718Y-112744519D01*
X100528370Y-112839822D01*
X100576022Y-112887474D01*
X100671325Y-112935126D01*
X100909585Y-112935126D01*
X101004889Y-112887474D01*
X101052541Y-112839822D01*
X101100193Y-112744519D01*
X101100193Y-112458607D01*
X101052541Y-112363303D01*
X101004889Y-112315651D01*
X112974874Y-112699530D02*
X111973784Y-112699530D01*
X112688848Y-113033227D01*
X111973784Y-113366924D01*
X112974874Y-113366924D01*
X112974874Y-113843633D02*
X112307480Y-113843633D01*
X111973784Y-113843633D02*
X112021455Y-113795962D01*
X112069125Y-113843633D01*
X112021455Y-113891304D01*
X111973784Y-113843633D01*
X112069125Y-113843633D01*
X112927203Y-114749381D02*
X112974874Y-114654039D01*
X112974874Y-114463355D01*
X112927203Y-114368014D01*
X112879532Y-114320343D01*
X112784190Y-114272672D01*
X112498164Y-114272672D01*
X112402822Y-114320343D01*
X112355151Y-114368014D01*
X112307480Y-114463355D01*
X112307480Y-114654039D01*
X112355151Y-114749381D01*
X112974874Y-115178420D02*
X112307480Y-115178420D01*
X112498164Y-115178420D02*
X112402822Y-115226091D01*
X112355151Y-115273762D01*
X112307480Y-115369104D01*
X112307480Y-115464445D01*
X112974874Y-115941155D02*
X112927203Y-115845813D01*
X112879532Y-115798142D01*
X112784190Y-115750471D01*
X112498164Y-115750471D01*
X112402822Y-115798142D01*
X112355151Y-115845813D01*
X112307480Y-115941155D01*
X112307480Y-116084168D01*
X112355151Y-116179510D01*
X112402822Y-116227181D01*
X112498164Y-116274852D01*
X112784190Y-116274852D01*
X112879532Y-116227181D01*
X112927203Y-116179510D01*
X112974874Y-116084168D01*
X112974874Y-115941155D01*
X113070215Y-116465535D02*
X113070215Y-117228271D01*
X112927203Y-117418955D02*
X112974874Y-117561967D01*
X112974874Y-117800322D01*
X112927203Y-117895664D01*
X112879532Y-117943335D01*
X112784190Y-117991006D01*
X112688848Y-117991006D01*
X112593506Y-117943335D01*
X112545835Y-117895664D01*
X112498164Y-117800322D01*
X112450493Y-117609638D01*
X112402822Y-117514296D01*
X112355151Y-117466625D01*
X112259809Y-117418955D01*
X112164467Y-117418955D01*
X112069125Y-117466625D01*
X112021455Y-117514296D01*
X111973784Y-117609638D01*
X111973784Y-117847993D01*
X112021455Y-117991006D01*
X112974874Y-118420045D02*
X111973784Y-118420045D01*
X111973784Y-118658399D01*
X112021455Y-118801412D01*
X112116796Y-118896754D01*
X112212138Y-118944425D01*
X112402822Y-118992096D01*
X112545835Y-118992096D01*
X112736519Y-118944425D01*
X112831861Y-118896754D01*
X112927203Y-118801412D01*
X112974874Y-118658399D01*
X112974874Y-118420045D01*
X113070215Y-119182780D02*
X113070215Y-119945515D01*
X112879532Y-120755921D02*
X112927203Y-120708250D01*
X112974874Y-120565237D01*
X112974874Y-120469895D01*
X112927203Y-120326883D01*
X112831861Y-120231541D01*
X112736519Y-120183870D01*
X112545835Y-120136199D01*
X112402822Y-120136199D01*
X112212138Y-120183870D01*
X112116796Y-120231541D01*
X112021455Y-120326883D01*
X111973784Y-120469895D01*
X111973784Y-120565237D01*
X112021455Y-120708250D01*
X112069125Y-120755921D01*
X112974874Y-121613998D02*
X112450493Y-121613998D01*
X112355151Y-121566327D01*
X112307480Y-121470985D01*
X112307480Y-121280302D01*
X112355151Y-121184960D01*
X112927203Y-121613998D02*
X112974874Y-121518656D01*
X112974874Y-121280302D01*
X112927203Y-121184960D01*
X112831861Y-121137289D01*
X112736519Y-121137289D01*
X112641177Y-121184960D01*
X112593506Y-121280302D01*
X112593506Y-121518656D01*
X112545835Y-121613998D01*
X112974874Y-122090708D02*
X112307480Y-122090708D01*
X112498164Y-122090708D02*
X112402822Y-122138379D01*
X112355151Y-122186050D01*
X112307480Y-122281392D01*
X112307480Y-122376734D01*
X112974874Y-123139469D02*
X111973784Y-123139469D01*
X112927203Y-123139469D02*
X112974874Y-123044127D01*
X112974874Y-122853443D01*
X112927203Y-122758101D01*
X112879532Y-122710430D01*
X112784190Y-122662759D01*
X112498164Y-122662759D01*
X112402822Y-122710430D01*
X112355151Y-122758101D01*
X112307480Y-122853443D01*
X112307480Y-123044127D01*
X112355151Y-123139469D01*
D15*
X137961595Y-123909080D02*
X137961595Y-122909080D01*
X137723500Y-122909080D01*
X137580642Y-122956700D01*
X137485404Y-123051938D01*
X137437785Y-123147176D01*
X137390166Y-123337652D01*
X137390166Y-123480509D01*
X137437785Y-123670985D01*
X137485404Y-123766223D01*
X137580642Y-123861461D01*
X137723500Y-123909080D01*
X137961595Y-123909080D01*
X137056833Y-122909080D02*
X136390166Y-122909080D01*
X136818738Y-123909080D01*
X137485285Y-53220880D02*
X137485285Y-52220880D01*
X137247190Y-52220880D01*
X137104333Y-52268500D01*
X137009095Y-52363738D01*
X136961476Y-52458976D01*
X136913857Y-52649452D01*
X136913857Y-52792309D01*
X136961476Y-52982785D01*
X137009095Y-53078023D01*
X137104333Y-53173261D01*
X137247190Y-53220880D01*
X137485285Y-53220880D01*
X135961476Y-53220880D02*
X136532904Y-53220880D01*
X136247190Y-53220880D02*
X136247190Y-52220880D01*
X136342428Y-52363738D01*
X136437666Y-52458976D01*
X136532904Y-52506595D01*
X135580523Y-52316119D02*
X135532904Y-52268500D01*
X135437666Y-52220880D01*
X135199571Y-52220880D01*
X135104333Y-52268500D01*
X135056714Y-52316119D01*
X135009095Y-52411357D01*
X135009095Y-52506595D01*
X135056714Y-52649452D01*
X135628142Y-53220880D01*
X135009095Y-53220880D01*
X149975580Y-51185914D02*
X148975580Y-51185914D01*
X148975580Y-51424009D01*
X149023200Y-51566866D01*
X149118438Y-51662104D01*
X149213676Y-51709723D01*
X149404152Y-51757342D01*
X149547009Y-51757342D01*
X149737485Y-51709723D01*
X149832723Y-51662104D01*
X149927961Y-51566866D01*
X149975580Y-51424009D01*
X149975580Y-51185914D01*
X149975580Y-52709723D02*
X149975580Y-52138295D01*
X149975580Y-52424009D02*
X148975580Y-52424009D01*
X149118438Y-52328771D01*
X149213676Y-52233533D01*
X149261295Y-52138295D01*
X149975580Y-53662104D02*
X149975580Y-53090676D01*
X149975580Y-53376390D02*
X148975580Y-53376390D01*
X149118438Y-53281152D01*
X149213676Y-53185914D01*
X149261295Y-53090676D01*
X140617180Y-145305542D02*
X140140990Y-144972209D01*
X140617180Y-144734114D02*
X139617180Y-144734114D01*
X139617180Y-145115066D01*
X139664800Y-145210304D01*
X139712419Y-145257923D01*
X139807657Y-145305542D01*
X139950514Y-145305542D01*
X140045752Y-145257923D01*
X140093371Y-145210304D01*
X140140990Y-145115066D01*
X140140990Y-144734114D01*
X139617180Y-146210304D02*
X139617180Y-145734114D01*
X140093371Y-145686495D01*
X140045752Y-145734114D01*
X139998133Y-145829352D01*
X139998133Y-146067447D01*
X140045752Y-146162685D01*
X140093371Y-146210304D01*
X140188609Y-146257923D01*
X140426704Y-146257923D01*
X140521942Y-146210304D01*
X140569561Y-146162685D01*
X140617180Y-146067447D01*
X140617180Y-145829352D01*
X140569561Y-145734114D01*
X140521942Y-145686495D01*
X139617180Y-146591257D02*
X139617180Y-147257923D01*
X140617180Y-146829352D01*
X135547380Y-145407142D02*
X135071190Y-145073809D01*
X135547380Y-144835714D02*
X134547380Y-144835714D01*
X134547380Y-145216666D01*
X134595000Y-145311904D01*
X134642619Y-145359523D01*
X134737857Y-145407142D01*
X134880714Y-145407142D01*
X134975952Y-145359523D01*
X135023571Y-145311904D01*
X135071190Y-145216666D01*
X135071190Y-144835714D01*
X134547380Y-146311904D02*
X134547380Y-145835714D01*
X135023571Y-145788095D01*
X134975952Y-145835714D01*
X134928333Y-145930952D01*
X134928333Y-146169047D01*
X134975952Y-146264285D01*
X135023571Y-146311904D01*
X135118809Y-146359523D01*
X135356904Y-146359523D01*
X135452142Y-146311904D01*
X135499761Y-146264285D01*
X135547380Y-146169047D01*
X135547380Y-145930952D01*
X135499761Y-145835714D01*
X135452142Y-145788095D01*
X134547380Y-147216666D02*
X134547380Y-147026190D01*
X134595000Y-146930952D01*
X134642619Y-146883333D01*
X134785476Y-146788095D01*
X134975952Y-146740476D01*
X135356904Y-146740476D01*
X135452142Y-146788095D01*
X135499761Y-146835714D01*
X135547380Y-146930952D01*
X135547380Y-147121428D01*
X135499761Y-147216666D01*
X135452142Y-147264285D01*
X135356904Y-147311904D01*
X135118809Y-147311904D01*
X135023571Y-147264285D01*
X134975952Y-147216666D01*
X134928333Y-147121428D01*
X134928333Y-146930952D01*
X134975952Y-146835714D01*
X135023571Y-146788095D01*
X135118809Y-146740476D01*
X135841980Y-135602742D02*
X135365790Y-135269409D01*
X135841980Y-135031314D02*
X134841980Y-135031314D01*
X134841980Y-135412266D01*
X134889600Y-135507504D01*
X134937219Y-135555123D01*
X135032457Y-135602742D01*
X135175314Y-135602742D01*
X135270552Y-135555123D01*
X135318171Y-135507504D01*
X135365790Y-135412266D01*
X135365790Y-135031314D01*
X134841980Y-136507504D02*
X134841980Y-136031314D01*
X135318171Y-135983695D01*
X135270552Y-136031314D01*
X135222933Y-136126552D01*
X135222933Y-136364647D01*
X135270552Y-136459885D01*
X135318171Y-136507504D01*
X135413409Y-136555123D01*
X135651504Y-136555123D01*
X135746742Y-136507504D01*
X135794361Y-136459885D01*
X135841980Y-136364647D01*
X135841980Y-136126552D01*
X135794361Y-136031314D01*
X135746742Y-135983695D01*
X134841980Y-137459885D02*
X134841980Y-136983695D01*
X135318171Y-136936076D01*
X135270552Y-136983695D01*
X135222933Y-137078933D01*
X135222933Y-137317028D01*
X135270552Y-137412266D01*
X135318171Y-137459885D01*
X135413409Y-137507504D01*
X135651504Y-137507504D01*
X135746742Y-137459885D01*
X135794361Y-137412266D01*
X135841980Y-137317028D01*
X135841980Y-137078933D01*
X135794361Y-136983695D01*
X135746742Y-136936076D01*
X129692680Y-70947042D02*
X129216490Y-70613709D01*
X129692680Y-70375614D02*
X128692680Y-70375614D01*
X128692680Y-70756566D01*
X128740300Y-70851804D01*
X128787919Y-70899423D01*
X128883157Y-70947042D01*
X129026014Y-70947042D01*
X129121252Y-70899423D01*
X129168871Y-70851804D01*
X129216490Y-70756566D01*
X129216490Y-70375614D01*
X129026014Y-71804185D02*
X129692680Y-71804185D01*
X128645061Y-71566090D02*
X129359347Y-71327995D01*
X129359347Y-71947042D01*
X129692680Y-72375614D02*
X129692680Y-72566090D01*
X129645061Y-72661328D01*
X129597442Y-72708947D01*
X129454585Y-72804185D01*
X129264109Y-72851804D01*
X128883157Y-72851804D01*
X128787919Y-72804185D01*
X128740300Y-72756566D01*
X128692680Y-72661328D01*
X128692680Y-72470852D01*
X128740300Y-72375614D01*
X128787919Y-72327995D01*
X128883157Y-72280376D01*
X129121252Y-72280376D01*
X129216490Y-72327995D01*
X129264109Y-72375614D01*
X129311728Y-72470852D01*
X129311728Y-72661328D01*
X129264109Y-72756566D01*
X129216490Y-72804185D01*
X129121252Y-72851804D01*
X129832380Y-66883042D02*
X129356190Y-66549709D01*
X129832380Y-66311614D02*
X128832380Y-66311614D01*
X128832380Y-66692566D01*
X128880000Y-66787804D01*
X128927619Y-66835423D01*
X129022857Y-66883042D01*
X129165714Y-66883042D01*
X129260952Y-66835423D01*
X129308571Y-66787804D01*
X129356190Y-66692566D01*
X129356190Y-66311614D01*
X129165714Y-67740185D02*
X129832380Y-67740185D01*
X128784761Y-67502090D02*
X129499047Y-67263995D01*
X129499047Y-67883042D01*
X129260952Y-68406852D02*
X129213333Y-68311614D01*
X129165714Y-68263995D01*
X129070476Y-68216376D01*
X129022857Y-68216376D01*
X128927619Y-68263995D01*
X128880000Y-68311614D01*
X128832380Y-68406852D01*
X128832380Y-68597328D01*
X128880000Y-68692566D01*
X128927619Y-68740185D01*
X129022857Y-68787804D01*
X129070476Y-68787804D01*
X129165714Y-68740185D01*
X129213333Y-68692566D01*
X129260952Y-68597328D01*
X129260952Y-68406852D01*
X129308571Y-68311614D01*
X129356190Y-68263995D01*
X129451428Y-68216376D01*
X129641904Y-68216376D01*
X129737142Y-68263995D01*
X129784761Y-68311614D01*
X129832380Y-68406852D01*
X129832380Y-68597328D01*
X129784761Y-68692566D01*
X129737142Y-68740185D01*
X129641904Y-68787804D01*
X129451428Y-68787804D01*
X129356190Y-68740185D01*
X129308571Y-68692566D01*
X129260952Y-68597328D01*
X132314322Y-70947042D02*
X131838132Y-70613709D01*
X132314322Y-70375614D02*
X131314322Y-70375614D01*
X131314322Y-70756566D01*
X131361942Y-70851804D01*
X131409561Y-70899423D01*
X131504799Y-70947042D01*
X131647656Y-70947042D01*
X131742894Y-70899423D01*
X131790513Y-70851804D01*
X131838132Y-70756566D01*
X131838132Y-70375614D01*
X131647656Y-71804185D02*
X132314322Y-71804185D01*
X131266703Y-71566090D02*
X131980989Y-71327995D01*
X131980989Y-71947042D01*
X131314322Y-72232757D02*
X131314322Y-72899423D01*
X132314322Y-72470852D01*
X132444951Y-66883042D02*
X131968761Y-66549709D01*
X132444951Y-66311614D02*
X131444951Y-66311614D01*
X131444951Y-66692566D01*
X131492571Y-66787804D01*
X131540190Y-66835423D01*
X131635428Y-66883042D01*
X131778285Y-66883042D01*
X131873523Y-66835423D01*
X131921142Y-66787804D01*
X131968761Y-66692566D01*
X131968761Y-66311614D01*
X131778285Y-67740185D02*
X132444951Y-67740185D01*
X131397332Y-67502090D02*
X132111618Y-67263995D01*
X132111618Y-67883042D01*
X131444951Y-68692566D02*
X131444951Y-68502090D01*
X131492571Y-68406852D01*
X131540190Y-68359233D01*
X131683047Y-68263995D01*
X131873523Y-68216376D01*
X132254475Y-68216376D01*
X132349713Y-68263995D01*
X132397332Y-68311614D01*
X132444951Y-68406852D01*
X132444951Y-68597328D01*
X132397332Y-68692566D01*
X132349713Y-68740185D01*
X132254475Y-68787804D01*
X132016380Y-68787804D01*
X131921142Y-68740185D01*
X131873523Y-68692566D01*
X131825904Y-68597328D01*
X131825904Y-68406852D01*
X131873523Y-68311614D01*
X131921142Y-68263995D01*
X132016380Y-68216376D01*
X134935964Y-70947042D02*
X134459774Y-70613709D01*
X134935964Y-70375614D02*
X133935964Y-70375614D01*
X133935964Y-70756566D01*
X133983584Y-70851804D01*
X134031203Y-70899423D01*
X134126441Y-70947042D01*
X134269298Y-70947042D01*
X134364536Y-70899423D01*
X134412155Y-70851804D01*
X134459774Y-70756566D01*
X134459774Y-70375614D01*
X134269298Y-71804185D02*
X134935964Y-71804185D01*
X133888345Y-71566090D02*
X134602631Y-71327995D01*
X134602631Y-71947042D01*
X134935964Y-72851804D02*
X134935964Y-72280376D01*
X134935964Y-72566090D02*
X133935964Y-72566090D01*
X134078822Y-72470852D01*
X134174060Y-72375614D01*
X134221679Y-72280376D01*
X135057522Y-66883042D02*
X134581332Y-66549709D01*
X135057522Y-66311614D02*
X134057522Y-66311614D01*
X134057522Y-66692566D01*
X134105142Y-66787804D01*
X134152761Y-66835423D01*
X134247999Y-66883042D01*
X134390856Y-66883042D01*
X134486094Y-66835423D01*
X134533713Y-66787804D01*
X134581332Y-66692566D01*
X134581332Y-66311614D01*
X134390856Y-67740185D02*
X135057522Y-67740185D01*
X134009903Y-67502090D02*
X134724189Y-67263995D01*
X134724189Y-67883042D01*
X134057522Y-68454471D02*
X134057522Y-68549709D01*
X134105142Y-68644947D01*
X134152761Y-68692566D01*
X134247999Y-68740185D01*
X134438475Y-68787804D01*
X134676570Y-68787804D01*
X134867046Y-68740185D01*
X134962284Y-68692566D01*
X135009903Y-68644947D01*
X135057522Y-68549709D01*
X135057522Y-68454471D01*
X135009903Y-68359233D01*
X134962284Y-68311614D01*
X134867046Y-68263995D01*
X134676570Y-68216376D01*
X134438475Y-68216376D01*
X134247999Y-68263995D01*
X134152761Y-68311614D01*
X134105142Y-68359233D01*
X134057522Y-68454471D01*
X137557606Y-70947042D02*
X137081416Y-70613709D01*
X137557606Y-70375614D02*
X136557606Y-70375614D01*
X136557606Y-70756566D01*
X136605226Y-70851804D01*
X136652845Y-70899423D01*
X136748083Y-70947042D01*
X136890940Y-70947042D01*
X136986178Y-70899423D01*
X137033797Y-70851804D01*
X137081416Y-70756566D01*
X137081416Y-70375614D01*
X136557606Y-71280376D02*
X136557606Y-71899423D01*
X136938559Y-71566090D01*
X136938559Y-71708947D01*
X136986178Y-71804185D01*
X137033797Y-71851804D01*
X137129035Y-71899423D01*
X137367130Y-71899423D01*
X137462368Y-71851804D01*
X137509987Y-71804185D01*
X137557606Y-71708947D01*
X137557606Y-71423233D01*
X137509987Y-71327995D01*
X137462368Y-71280376D01*
X136557606Y-72232757D02*
X136557606Y-72899423D01*
X137557606Y-72470852D01*
X137670093Y-66883042D02*
X137193903Y-66549709D01*
X137670093Y-66311614D02*
X136670093Y-66311614D01*
X136670093Y-66692566D01*
X136717713Y-66787804D01*
X136765332Y-66835423D01*
X136860570Y-66883042D01*
X137003427Y-66883042D01*
X137098665Y-66835423D01*
X137146284Y-66787804D01*
X137193903Y-66692566D01*
X137193903Y-66311614D01*
X136670093Y-67216376D02*
X136670093Y-67835423D01*
X137051046Y-67502090D01*
X137051046Y-67644947D01*
X137098665Y-67740185D01*
X137146284Y-67787804D01*
X137241522Y-67835423D01*
X137479617Y-67835423D01*
X137574855Y-67787804D01*
X137622474Y-67740185D01*
X137670093Y-67644947D01*
X137670093Y-67359233D01*
X137622474Y-67263995D01*
X137574855Y-67216376D01*
X136670093Y-68692566D02*
X136670093Y-68502090D01*
X136717713Y-68406852D01*
X136765332Y-68359233D01*
X136908189Y-68263995D01*
X137098665Y-68216376D01*
X137479617Y-68216376D01*
X137574855Y-68263995D01*
X137622474Y-68311614D01*
X137670093Y-68406852D01*
X137670093Y-68597328D01*
X137622474Y-68692566D01*
X137574855Y-68740185D01*
X137479617Y-68787804D01*
X137241522Y-68787804D01*
X137146284Y-68740185D01*
X137098665Y-68692566D01*
X137051046Y-68597328D01*
X137051046Y-68406852D01*
X137098665Y-68311614D01*
X137146284Y-68263995D01*
X137241522Y-68216376D01*
X140179248Y-70947042D02*
X139703058Y-70613709D01*
X140179248Y-70375614D02*
X139179248Y-70375614D01*
X139179248Y-70756566D01*
X139226868Y-70851804D01*
X139274487Y-70899423D01*
X139369725Y-70947042D01*
X139512582Y-70947042D01*
X139607820Y-70899423D01*
X139655439Y-70851804D01*
X139703058Y-70756566D01*
X139703058Y-70375614D01*
X139179248Y-71280376D02*
X139179248Y-71899423D01*
X139560201Y-71566090D01*
X139560201Y-71708947D01*
X139607820Y-71804185D01*
X139655439Y-71851804D01*
X139750677Y-71899423D01*
X139988772Y-71899423D01*
X140084010Y-71851804D01*
X140131629Y-71804185D01*
X140179248Y-71708947D01*
X140179248Y-71423233D01*
X140131629Y-71327995D01*
X140084010Y-71280376D01*
X139179248Y-72232757D02*
X139179248Y-72851804D01*
X139560201Y-72518471D01*
X139560201Y-72661328D01*
X139607820Y-72756566D01*
X139655439Y-72804185D01*
X139750677Y-72851804D01*
X139988772Y-72851804D01*
X140084010Y-72804185D01*
X140131629Y-72756566D01*
X140179248Y-72661328D01*
X140179248Y-72375614D01*
X140131629Y-72280376D01*
X140084010Y-72232757D01*
X140282664Y-66883042D02*
X139806474Y-66549709D01*
X140282664Y-66311614D02*
X139282664Y-66311614D01*
X139282664Y-66692566D01*
X139330284Y-66787804D01*
X139377903Y-66835423D01*
X139473141Y-66883042D01*
X139615998Y-66883042D01*
X139711236Y-66835423D01*
X139758855Y-66787804D01*
X139806474Y-66692566D01*
X139806474Y-66311614D01*
X139282664Y-67216376D02*
X139282664Y-67835423D01*
X139663617Y-67502090D01*
X139663617Y-67644947D01*
X139711236Y-67740185D01*
X139758855Y-67787804D01*
X139854093Y-67835423D01*
X140092188Y-67835423D01*
X140187426Y-67787804D01*
X140235045Y-67740185D01*
X140282664Y-67644947D01*
X140282664Y-67359233D01*
X140235045Y-67263995D01*
X140187426Y-67216376D01*
X139377903Y-68216376D02*
X139330284Y-68263995D01*
X139282664Y-68359233D01*
X139282664Y-68597328D01*
X139330284Y-68692566D01*
X139377903Y-68740185D01*
X139473141Y-68787804D01*
X139568379Y-68787804D01*
X139711236Y-68740185D01*
X140282664Y-68168757D01*
X140282664Y-68787804D01*
X142800890Y-70947042D02*
X142324700Y-70613709D01*
X142800890Y-70375614D02*
X141800890Y-70375614D01*
X141800890Y-70756566D01*
X141848510Y-70851804D01*
X141896129Y-70899423D01*
X141991367Y-70947042D01*
X142134224Y-70947042D01*
X142229462Y-70899423D01*
X142277081Y-70851804D01*
X142324700Y-70756566D01*
X142324700Y-70375614D01*
X141800890Y-71280376D02*
X141800890Y-71899423D01*
X142181843Y-71566090D01*
X142181843Y-71708947D01*
X142229462Y-71804185D01*
X142277081Y-71851804D01*
X142372319Y-71899423D01*
X142610414Y-71899423D01*
X142705652Y-71851804D01*
X142753271Y-71804185D01*
X142800890Y-71708947D01*
X142800890Y-71423233D01*
X142753271Y-71327995D01*
X142705652Y-71280376D01*
X142800890Y-72851804D02*
X142800890Y-72280376D01*
X142800890Y-72566090D02*
X141800890Y-72566090D01*
X141943748Y-72470852D01*
X142038986Y-72375614D01*
X142086605Y-72280376D01*
X142895235Y-66883042D02*
X142419045Y-66549709D01*
X142895235Y-66311614D02*
X141895235Y-66311614D01*
X141895235Y-66692566D01*
X141942855Y-66787804D01*
X141990474Y-66835423D01*
X142085712Y-66883042D01*
X142228569Y-66883042D01*
X142323807Y-66835423D01*
X142371426Y-66787804D01*
X142419045Y-66692566D01*
X142419045Y-66311614D01*
X141895235Y-67216376D02*
X141895235Y-67835423D01*
X142276188Y-67502090D01*
X142276188Y-67644947D01*
X142323807Y-67740185D01*
X142371426Y-67787804D01*
X142466664Y-67835423D01*
X142704759Y-67835423D01*
X142799997Y-67787804D01*
X142847616Y-67740185D01*
X142895235Y-67644947D01*
X142895235Y-67359233D01*
X142847616Y-67263995D01*
X142799997Y-67216376D01*
X141895235Y-68454471D02*
X141895235Y-68549709D01*
X141942855Y-68644947D01*
X141990474Y-68692566D01*
X142085712Y-68740185D01*
X142276188Y-68787804D01*
X142514283Y-68787804D01*
X142704759Y-68740185D01*
X142799997Y-68692566D01*
X142847616Y-68644947D01*
X142895235Y-68549709D01*
X142895235Y-68454471D01*
X142847616Y-68359233D01*
X142799997Y-68311614D01*
X142704759Y-68263995D01*
X142514283Y-68216376D01*
X142276188Y-68216376D01*
X142085712Y-68263995D01*
X141990474Y-68311614D01*
X141942855Y-68359233D01*
X141895235Y-68454471D01*
X145422532Y-70947042D02*
X144946342Y-70613709D01*
X145422532Y-70375614D02*
X144422532Y-70375614D01*
X144422532Y-70756566D01*
X144470152Y-70851804D01*
X144517771Y-70899423D01*
X144613009Y-70947042D01*
X144755866Y-70947042D01*
X144851104Y-70899423D01*
X144898723Y-70851804D01*
X144946342Y-70756566D01*
X144946342Y-70375614D01*
X144517771Y-71327995D02*
X144470152Y-71375614D01*
X144422532Y-71470852D01*
X144422532Y-71708947D01*
X144470152Y-71804185D01*
X144517771Y-71851804D01*
X144613009Y-71899423D01*
X144708247Y-71899423D01*
X144851104Y-71851804D01*
X145422532Y-71280376D01*
X145422532Y-71899423D01*
X144422532Y-72804185D02*
X144422532Y-72327995D01*
X144898723Y-72280376D01*
X144851104Y-72327995D01*
X144803485Y-72423233D01*
X144803485Y-72661328D01*
X144851104Y-72756566D01*
X144898723Y-72804185D01*
X144993961Y-72851804D01*
X145232056Y-72851804D01*
X145327294Y-72804185D01*
X145374913Y-72756566D01*
X145422532Y-72661328D01*
X145422532Y-72423233D01*
X145374913Y-72327995D01*
X145327294Y-72280376D01*
X145507806Y-66883042D02*
X145031616Y-66549709D01*
X145507806Y-66311614D02*
X144507806Y-66311614D01*
X144507806Y-66692566D01*
X144555426Y-66787804D01*
X144603045Y-66835423D01*
X144698283Y-66883042D01*
X144841140Y-66883042D01*
X144936378Y-66835423D01*
X144983997Y-66787804D01*
X145031616Y-66692566D01*
X145031616Y-66311614D01*
X144603045Y-67263995D02*
X144555426Y-67311614D01*
X144507806Y-67406852D01*
X144507806Y-67644947D01*
X144555426Y-67740185D01*
X144603045Y-67787804D01*
X144698283Y-67835423D01*
X144793521Y-67835423D01*
X144936378Y-67787804D01*
X145507806Y-67216376D01*
X145507806Y-67835423D01*
X144841140Y-68692566D02*
X145507806Y-68692566D01*
X144460187Y-68454471D02*
X145174473Y-68216376D01*
X145174473Y-68835423D01*
X148044180Y-70947042D02*
X147567990Y-70613709D01*
X148044180Y-70375614D02*
X147044180Y-70375614D01*
X147044180Y-70756566D01*
X147091800Y-70851804D01*
X147139419Y-70899423D01*
X147234657Y-70947042D01*
X147377514Y-70947042D01*
X147472752Y-70899423D01*
X147520371Y-70851804D01*
X147567990Y-70756566D01*
X147567990Y-70375614D01*
X147139419Y-71327995D02*
X147091800Y-71375614D01*
X147044180Y-71470852D01*
X147044180Y-71708947D01*
X147091800Y-71804185D01*
X147139419Y-71851804D01*
X147234657Y-71899423D01*
X147329895Y-71899423D01*
X147472752Y-71851804D01*
X148044180Y-71280376D01*
X148044180Y-71899423D01*
X148044180Y-72851804D02*
X148044180Y-72280376D01*
X148044180Y-72566090D02*
X147044180Y-72566090D01*
X147187038Y-72470852D01*
X147282276Y-72375614D01*
X147329895Y-72280376D01*
X148120380Y-66883042D02*
X147644190Y-66549709D01*
X148120380Y-66311614D02*
X147120380Y-66311614D01*
X147120380Y-66692566D01*
X147168000Y-66787804D01*
X147215619Y-66835423D01*
X147310857Y-66883042D01*
X147453714Y-66883042D01*
X147548952Y-66835423D01*
X147596571Y-66787804D01*
X147644190Y-66692566D01*
X147644190Y-66311614D01*
X147215619Y-67263995D02*
X147168000Y-67311614D01*
X147120380Y-67406852D01*
X147120380Y-67644947D01*
X147168000Y-67740185D01*
X147215619Y-67787804D01*
X147310857Y-67835423D01*
X147406095Y-67835423D01*
X147548952Y-67787804D01*
X148120380Y-67216376D01*
X148120380Y-67835423D01*
X147120380Y-68454471D02*
X147120380Y-68549709D01*
X147168000Y-68644947D01*
X147215619Y-68692566D01*
X147310857Y-68740185D01*
X147501333Y-68787804D01*
X147739428Y-68787804D01*
X147929904Y-68740185D01*
X148025142Y-68692566D01*
X148072761Y-68644947D01*
X148120380Y-68549709D01*
X148120380Y-68454471D01*
X148072761Y-68359233D01*
X148025142Y-68311614D01*
X147929904Y-68263995D01*
X147739428Y-68216376D01*
X147501333Y-68216376D01*
X147310857Y-68263995D01*
X147215619Y-68311614D01*
X147168000Y-68359233D01*
X147120380Y-68454471D01*
X126581180Y-71410533D02*
X126104990Y-71077200D01*
X126581180Y-70839104D02*
X125581180Y-70839104D01*
X125581180Y-71220057D01*
X125628800Y-71315295D01*
X125676419Y-71362914D01*
X125771657Y-71410533D01*
X125914514Y-71410533D01*
X126009752Y-71362914D01*
X126057371Y-71315295D01*
X126104990Y-71220057D01*
X126104990Y-70839104D01*
X125914514Y-72267676D02*
X126581180Y-72267676D01*
X125533561Y-72029580D02*
X126247847Y-71791485D01*
X126247847Y-72410533D01*
X126479580Y-67244933D02*
X126003390Y-66911600D01*
X126479580Y-66673504D02*
X125479580Y-66673504D01*
X125479580Y-67054457D01*
X125527200Y-67149695D01*
X125574819Y-67197314D01*
X125670057Y-67244933D01*
X125812914Y-67244933D01*
X125908152Y-67197314D01*
X125955771Y-67149695D01*
X126003390Y-67054457D01*
X126003390Y-66673504D01*
X125479580Y-67578266D02*
X125479580Y-68197314D01*
X125860533Y-67863980D01*
X125860533Y-68006838D01*
X125908152Y-68102076D01*
X125955771Y-68149695D01*
X126051009Y-68197314D01*
X126289104Y-68197314D01*
X126384342Y-68149695D01*
X126431961Y-68102076D01*
X126479580Y-68006838D01*
X126479580Y-67721123D01*
X126431961Y-67625885D01*
X126384342Y-67578266D01*
X122644180Y-71512133D02*
X122167990Y-71178800D01*
X122644180Y-70940704D02*
X121644180Y-70940704D01*
X121644180Y-71321657D01*
X121691800Y-71416895D01*
X121739419Y-71464514D01*
X121834657Y-71512133D01*
X121977514Y-71512133D01*
X122072752Y-71464514D01*
X122120371Y-71416895D01*
X122167990Y-71321657D01*
X122167990Y-70940704D01*
X121739419Y-71893085D02*
X121691800Y-71940704D01*
X121644180Y-72035942D01*
X121644180Y-72274038D01*
X121691800Y-72369276D01*
X121739419Y-72416895D01*
X121834657Y-72464514D01*
X121929895Y-72464514D01*
X122072752Y-72416895D01*
X122644180Y-71845466D01*
X122644180Y-72464514D01*
X122694980Y-67346533D02*
X122218790Y-67013200D01*
X122694980Y-66775104D02*
X121694980Y-66775104D01*
X121694980Y-67156057D01*
X121742600Y-67251295D01*
X121790219Y-67298914D01*
X121885457Y-67346533D01*
X122028314Y-67346533D01*
X122123552Y-67298914D01*
X122171171Y-67251295D01*
X122218790Y-67156057D01*
X122218790Y-66775104D01*
X122694980Y-68298914D02*
X122694980Y-67727485D01*
X122694980Y-68013200D02*
X121694980Y-68013200D01*
X121837838Y-67917961D01*
X121933076Y-67822723D01*
X121980695Y-67727485D01*
X134659595Y-143327380D02*
X134659595Y-142327380D01*
X134421500Y-142327380D01*
X134278642Y-142375000D01*
X134183404Y-142470238D01*
X134135785Y-142565476D01*
X134088166Y-142755952D01*
X134088166Y-142898809D01*
X134135785Y-143089285D01*
X134183404Y-143184523D01*
X134278642Y-143279761D01*
X134421500Y-143327380D01*
X134659595Y-143327380D01*
X133516738Y-142755952D02*
X133611976Y-142708333D01*
X133659595Y-142660714D01*
X133707214Y-142565476D01*
X133707214Y-142517857D01*
X133659595Y-142422619D01*
X133611976Y-142375000D01*
X133516738Y-142327380D01*
X133326261Y-142327380D01*
X133231023Y-142375000D01*
X133183404Y-142422619D01*
X133135785Y-142517857D01*
X133135785Y-142565476D01*
X133183404Y-142660714D01*
X133231023Y-142708333D01*
X133326261Y-142755952D01*
X133516738Y-142755952D01*
X133611976Y-142803571D01*
X133659595Y-142851190D01*
X133707214Y-142946428D01*
X133707214Y-143136904D01*
X133659595Y-143232142D01*
X133611976Y-143279761D01*
X133516738Y-143327380D01*
X133326261Y-143327380D01*
X133231023Y-143279761D01*
X133183404Y-143232142D01*
X133135785Y-143136904D01*
X133135785Y-142946428D01*
X133183404Y-142851190D01*
X133231023Y-142803571D01*
X133326261Y-142755952D01*
X168384457Y-57667142D02*
X168432076Y-57714761D01*
X168574933Y-57762380D01*
X168670171Y-57762380D01*
X168813028Y-57714761D01*
X168908266Y-57619523D01*
X168955885Y-57524285D01*
X169003504Y-57333809D01*
X169003504Y-57190952D01*
X168955885Y-57000476D01*
X168908266Y-56905238D01*
X168813028Y-56810000D01*
X168670171Y-56762380D01*
X168574933Y-56762380D01*
X168432076Y-56810000D01*
X168384457Y-56857619D01*
X167527314Y-56762380D02*
X167717790Y-56762380D01*
X167813028Y-56810000D01*
X167860647Y-56857619D01*
X167955885Y-57000476D01*
X168003504Y-57190952D01*
X168003504Y-57571904D01*
X167955885Y-57667142D01*
X167908266Y-57714761D01*
X167813028Y-57762380D01*
X167622552Y-57762380D01*
X167527314Y-57714761D01*
X167479695Y-57667142D01*
X167432076Y-57571904D01*
X167432076Y-57333809D01*
X167479695Y-57238571D01*
X167527314Y-57190952D01*
X167622552Y-57143333D01*
X167813028Y-57143333D01*
X167908266Y-57190952D01*
X167955885Y-57238571D01*
X168003504Y-57333809D01*
X166813028Y-56762380D02*
X166717790Y-56762380D01*
X166622552Y-56810000D01*
X166574933Y-56857619D01*
X166527314Y-56952857D01*
X166479695Y-57143333D01*
X166479695Y-57381428D01*
X166527314Y-57571904D01*
X166574933Y-57667142D01*
X166622552Y-57714761D01*
X166717790Y-57762380D01*
X166813028Y-57762380D01*
X166908266Y-57714761D01*
X166955885Y-57667142D01*
X167003504Y-57571904D01*
X167051123Y-57381428D01*
X167051123Y-57143333D01*
X167003504Y-56952857D01*
X166955885Y-56857619D01*
X166908266Y-56810000D01*
X166813028Y-56762380D01*
X166657257Y-75548056D02*
X166704876Y-75595675D01*
X166847733Y-75643294D01*
X166942971Y-75643294D01*
X167085828Y-75595675D01*
X167181066Y-75500437D01*
X167228685Y-75405199D01*
X167276304Y-75214723D01*
X167276304Y-75071866D01*
X167228685Y-74881390D01*
X167181066Y-74786152D01*
X167085828Y-74690914D01*
X166942971Y-74643294D01*
X166847733Y-74643294D01*
X166704876Y-74690914D01*
X166657257Y-74738533D01*
X165752495Y-74643294D02*
X166228685Y-74643294D01*
X166276304Y-75119485D01*
X166228685Y-75071866D01*
X166133447Y-75024247D01*
X165895352Y-75024247D01*
X165800114Y-75071866D01*
X165752495Y-75119485D01*
X165704876Y-75214723D01*
X165704876Y-75452818D01*
X165752495Y-75548056D01*
X165800114Y-75595675D01*
X165895352Y-75643294D01*
X166133447Y-75643294D01*
X166228685Y-75595675D01*
X166276304Y-75548056D01*
X165228685Y-75643294D02*
X165038209Y-75643294D01*
X164942971Y-75595675D01*
X164895352Y-75548056D01*
X164800114Y-75405199D01*
X164752495Y-75214723D01*
X164752495Y-74833771D01*
X164800114Y-74738533D01*
X164847733Y-74690914D01*
X164942971Y-74643294D01*
X165133447Y-74643294D01*
X165228685Y-74690914D01*
X165276304Y-74738533D01*
X165323923Y-74833771D01*
X165323923Y-75071866D01*
X165276304Y-75167104D01*
X165228685Y-75214723D01*
X165133447Y-75262342D01*
X164942971Y-75262342D01*
X164847733Y-75214723D01*
X164800114Y-75167104D01*
X164752495Y-75071866D01*
X168486057Y-69031827D02*
X168533676Y-69079446D01*
X168676533Y-69127065D01*
X168771771Y-69127065D01*
X168914628Y-69079446D01*
X169009866Y-68984208D01*
X169057485Y-68888970D01*
X169105104Y-68698494D01*
X169105104Y-68555637D01*
X169057485Y-68365161D01*
X169009866Y-68269923D01*
X168914628Y-68174685D01*
X168771771Y-68127065D01*
X168676533Y-68127065D01*
X168533676Y-68174685D01*
X168486057Y-68222304D01*
X167581295Y-68127065D02*
X168057485Y-68127065D01*
X168105104Y-68603256D01*
X168057485Y-68555637D01*
X167962247Y-68508018D01*
X167724152Y-68508018D01*
X167628914Y-68555637D01*
X167581295Y-68603256D01*
X167533676Y-68698494D01*
X167533676Y-68936589D01*
X167581295Y-69031827D01*
X167628914Y-69079446D01*
X167724152Y-69127065D01*
X167962247Y-69127065D01*
X168057485Y-69079446D01*
X168105104Y-69031827D01*
X166962247Y-68555637D02*
X167057485Y-68508018D01*
X167105104Y-68460399D01*
X167152723Y-68365161D01*
X167152723Y-68317542D01*
X167105104Y-68222304D01*
X167057485Y-68174685D01*
X166962247Y-68127065D01*
X166771771Y-68127065D01*
X166676533Y-68174685D01*
X166628914Y-68222304D01*
X166581295Y-68317542D01*
X166581295Y-68365161D01*
X166628914Y-68460399D01*
X166676533Y-68508018D01*
X166771771Y-68555637D01*
X166962247Y-68555637D01*
X167057485Y-68603256D01*
X167105104Y-68650875D01*
X167152723Y-68746113D01*
X167152723Y-68936589D01*
X167105104Y-69031827D01*
X167057485Y-69079446D01*
X166962247Y-69127065D01*
X166771771Y-69127065D01*
X166676533Y-69079446D01*
X166628914Y-69031827D01*
X166581295Y-68936589D01*
X166581295Y-68746113D01*
X166628914Y-68650875D01*
X166676533Y-68603256D01*
X166771771Y-68555637D01*
X166481557Y-64558642D02*
X166529176Y-64606261D01*
X166672033Y-64653880D01*
X166767271Y-64653880D01*
X166910128Y-64606261D01*
X167005366Y-64511023D01*
X167052985Y-64415785D01*
X167100604Y-64225309D01*
X167100604Y-64082452D01*
X167052985Y-63891976D01*
X167005366Y-63796738D01*
X166910128Y-63701500D01*
X166767271Y-63653880D01*
X166672033Y-63653880D01*
X166529176Y-63701500D01*
X166481557Y-63749119D01*
X165576795Y-63653880D02*
X166052985Y-63653880D01*
X166100604Y-64130071D01*
X166052985Y-64082452D01*
X165957747Y-64034833D01*
X165719652Y-64034833D01*
X165624414Y-64082452D01*
X165576795Y-64130071D01*
X165529176Y-64225309D01*
X165529176Y-64463404D01*
X165576795Y-64558642D01*
X165624414Y-64606261D01*
X165719652Y-64653880D01*
X165957747Y-64653880D01*
X166052985Y-64606261D01*
X166100604Y-64558642D01*
X164672033Y-63653880D02*
X164862509Y-63653880D01*
X164957747Y-63701500D01*
X165005366Y-63749119D01*
X165100604Y-63891976D01*
X165148223Y-64082452D01*
X165148223Y-64463404D01*
X165100604Y-64558642D01*
X165052985Y-64606261D01*
X164957747Y-64653880D01*
X164767271Y-64653880D01*
X164672033Y-64606261D01*
X164624414Y-64558642D01*
X164576795Y-64463404D01*
X164576795Y-64225309D01*
X164624414Y-64130071D01*
X164672033Y-64082452D01*
X164767271Y-64034833D01*
X164957747Y-64034833D01*
X165052985Y-64082452D01*
X165100604Y-64130071D01*
X165148223Y-64225309D01*
X166454057Y-89801770D02*
X166501676Y-89849389D01*
X166644533Y-89897008D01*
X166739771Y-89897008D01*
X166882628Y-89849389D01*
X166977866Y-89754151D01*
X167025485Y-89658913D01*
X167073104Y-89468437D01*
X167073104Y-89325580D01*
X167025485Y-89135104D01*
X166977866Y-89039866D01*
X166882628Y-88944628D01*
X166739771Y-88897008D01*
X166644533Y-88897008D01*
X166501676Y-88944628D01*
X166454057Y-88992247D01*
X165549295Y-88897008D02*
X166025485Y-88897008D01*
X166073104Y-89373199D01*
X166025485Y-89325580D01*
X165930247Y-89277961D01*
X165692152Y-89277961D01*
X165596914Y-89325580D01*
X165549295Y-89373199D01*
X165501676Y-89468437D01*
X165501676Y-89706532D01*
X165549295Y-89801770D01*
X165596914Y-89849389D01*
X165692152Y-89897008D01*
X165930247Y-89897008D01*
X166025485Y-89849389D01*
X166073104Y-89801770D01*
X165120723Y-88992247D02*
X165073104Y-88944628D01*
X164977866Y-88897008D01*
X164739771Y-88897008D01*
X164644533Y-88944628D01*
X164596914Y-88992247D01*
X164549295Y-89087485D01*
X164549295Y-89182723D01*
X164596914Y-89325580D01*
X165168342Y-89897008D01*
X164549295Y-89897008D01*
X168486057Y-88843142D02*
X168533676Y-88890761D01*
X168676533Y-88938380D01*
X168771771Y-88938380D01*
X168914628Y-88890761D01*
X169009866Y-88795523D01*
X169057485Y-88700285D01*
X169105104Y-88509809D01*
X169105104Y-88366952D01*
X169057485Y-88176476D01*
X169009866Y-88081238D01*
X168914628Y-87986000D01*
X168771771Y-87938380D01*
X168676533Y-87938380D01*
X168533676Y-87986000D01*
X168486057Y-88033619D01*
X167581295Y-87938380D02*
X168057485Y-87938380D01*
X168105104Y-88414571D01*
X168057485Y-88366952D01*
X167962247Y-88319333D01*
X167724152Y-88319333D01*
X167628914Y-88366952D01*
X167581295Y-88414571D01*
X167533676Y-88509809D01*
X167533676Y-88747904D01*
X167581295Y-88843142D01*
X167628914Y-88890761D01*
X167724152Y-88938380D01*
X167962247Y-88938380D01*
X168057485Y-88890761D01*
X168105104Y-88843142D01*
X166581295Y-88938380D02*
X167152723Y-88938380D01*
X166867009Y-88938380D02*
X166867009Y-87938380D01*
X166962247Y-88081238D01*
X167057485Y-88176476D01*
X167152723Y-88224095D01*
X168486057Y-80476342D02*
X168533676Y-80523961D01*
X168676533Y-80571580D01*
X168771771Y-80571580D01*
X168914628Y-80523961D01*
X169009866Y-80428723D01*
X169057485Y-80333485D01*
X169105104Y-80143009D01*
X169105104Y-80000152D01*
X169057485Y-79809676D01*
X169009866Y-79714438D01*
X168914628Y-79619200D01*
X168771771Y-79571580D01*
X168676533Y-79571580D01*
X168533676Y-79619200D01*
X168486057Y-79666819D01*
X167628914Y-79904914D02*
X167628914Y-80571580D01*
X167867009Y-79523961D02*
X168105104Y-80238247D01*
X167486057Y-80238247D01*
X167057485Y-80571580D02*
X166867009Y-80571580D01*
X166771771Y-80523961D01*
X166724152Y-80476342D01*
X166628914Y-80333485D01*
X166581295Y-80143009D01*
X166581295Y-79762057D01*
X166628914Y-79666819D01*
X166676533Y-79619200D01*
X166771771Y-79571580D01*
X166962247Y-79571580D01*
X167057485Y-79619200D01*
X167105104Y-79666819D01*
X167152723Y-79762057D01*
X167152723Y-80000152D01*
X167105104Y-80095390D01*
X167057485Y-80143009D01*
X166962247Y-80190628D01*
X166771771Y-80190628D01*
X166676533Y-80143009D01*
X166628914Y-80095390D01*
X166581295Y-80000152D01*
X166657257Y-101195484D02*
X166704876Y-101243103D01*
X166847733Y-101290722D01*
X166942971Y-101290722D01*
X167085828Y-101243103D01*
X167181066Y-101147865D01*
X167228685Y-101052627D01*
X167276304Y-100862151D01*
X167276304Y-100719294D01*
X167228685Y-100528818D01*
X167181066Y-100433580D01*
X167085828Y-100338342D01*
X166942971Y-100290722D01*
X166847733Y-100290722D01*
X166704876Y-100338342D01*
X166657257Y-100385961D01*
X165800114Y-100624056D02*
X165800114Y-101290722D01*
X166038209Y-100243103D02*
X166276304Y-100957389D01*
X165657257Y-100957389D01*
X165371542Y-100290722D02*
X164704876Y-100290722D01*
X165133447Y-101290722D01*
X166137857Y-109417142D02*
X166185476Y-109464761D01*
X166328333Y-109512380D01*
X166423571Y-109512380D01*
X166566428Y-109464761D01*
X166661666Y-109369523D01*
X166709285Y-109274285D01*
X166756904Y-109083809D01*
X166756904Y-108940952D01*
X166709285Y-108750476D01*
X166661666Y-108655238D01*
X166566428Y-108560000D01*
X166423571Y-108512380D01*
X166328333Y-108512380D01*
X166185476Y-108560000D01*
X166137857Y-108607619D01*
X165804523Y-108512380D02*
X165185476Y-108512380D01*
X165518809Y-108893333D01*
X165375952Y-108893333D01*
X165280714Y-108940952D01*
X165233095Y-108988571D01*
X165185476Y-109083809D01*
X165185476Y-109321904D01*
X165233095Y-109417142D01*
X165280714Y-109464761D01*
X165375952Y-109512380D01*
X165661666Y-109512380D01*
X165756904Y-109464761D01*
X165804523Y-109417142D01*
X164709285Y-109512380D02*
X164518809Y-109512380D01*
X164423571Y-109464761D01*
X164375952Y-109417142D01*
X164280714Y-109274285D01*
X164233095Y-109083809D01*
X164233095Y-108702857D01*
X164280714Y-108607619D01*
X164328333Y-108560000D01*
X164423571Y-108512380D01*
X164614047Y-108512380D01*
X164709285Y-108560000D01*
X164756904Y-108607619D01*
X164804523Y-108702857D01*
X164804523Y-108940952D01*
X164756904Y-109036190D01*
X164709285Y-109083809D01*
X164614047Y-109131428D01*
X164423571Y-109131428D01*
X164328333Y-109083809D01*
X164280714Y-109036190D01*
X164233095Y-108940952D01*
X168486057Y-103082342D02*
X168533676Y-103129961D01*
X168676533Y-103177580D01*
X168771771Y-103177580D01*
X168914628Y-103129961D01*
X169009866Y-103034723D01*
X169057485Y-102939485D01*
X169105104Y-102749009D01*
X169105104Y-102606152D01*
X169057485Y-102415676D01*
X169009866Y-102320438D01*
X168914628Y-102225200D01*
X168771771Y-102177580D01*
X168676533Y-102177580D01*
X168533676Y-102225200D01*
X168486057Y-102272819D01*
X168152723Y-102177580D02*
X167533676Y-102177580D01*
X167867009Y-102558533D01*
X167724152Y-102558533D01*
X167628914Y-102606152D01*
X167581295Y-102653771D01*
X167533676Y-102749009D01*
X167533676Y-102987104D01*
X167581295Y-103082342D01*
X167628914Y-103129961D01*
X167724152Y-103177580D01*
X168009866Y-103177580D01*
X168105104Y-103129961D01*
X168152723Y-103082342D01*
X166962247Y-102606152D02*
X167057485Y-102558533D01*
X167105104Y-102510914D01*
X167152723Y-102415676D01*
X167152723Y-102368057D01*
X167105104Y-102272819D01*
X167057485Y-102225200D01*
X166962247Y-102177580D01*
X166771771Y-102177580D01*
X166676533Y-102225200D01*
X166628914Y-102272819D01*
X166581295Y-102368057D01*
X166581295Y-102415676D01*
X166628914Y-102510914D01*
X166676533Y-102558533D01*
X166771771Y-102606152D01*
X166962247Y-102606152D01*
X167057485Y-102653771D01*
X167105104Y-102701390D01*
X167152723Y-102796628D01*
X167152723Y-102987104D01*
X167105104Y-103082342D01*
X167057485Y-103129961D01*
X166962247Y-103177580D01*
X166771771Y-103177580D01*
X166676533Y-103129961D01*
X166628914Y-103082342D01*
X166581295Y-102987104D01*
X166581295Y-102796628D01*
X166628914Y-102701390D01*
X166676533Y-102653771D01*
X166771771Y-102606152D01*
X168486057Y-111576142D02*
X168533676Y-111623761D01*
X168676533Y-111671380D01*
X168771771Y-111671380D01*
X168914628Y-111623761D01*
X169009866Y-111528523D01*
X169057485Y-111433285D01*
X169105104Y-111242809D01*
X169105104Y-111099952D01*
X169057485Y-110909476D01*
X169009866Y-110814238D01*
X168914628Y-110719000D01*
X168771771Y-110671380D01*
X168676533Y-110671380D01*
X168533676Y-110719000D01*
X168486057Y-110766619D01*
X168152723Y-110671380D02*
X167533676Y-110671380D01*
X167867009Y-111052333D01*
X167724152Y-111052333D01*
X167628914Y-111099952D01*
X167581295Y-111147571D01*
X167533676Y-111242809D01*
X167533676Y-111480904D01*
X167581295Y-111576142D01*
X167628914Y-111623761D01*
X167724152Y-111671380D01*
X168009866Y-111671380D01*
X168105104Y-111623761D01*
X168152723Y-111576142D01*
X167200342Y-110671380D02*
X166581295Y-110671380D01*
X166914628Y-111052333D01*
X166771771Y-111052333D01*
X166676533Y-111099952D01*
X166628914Y-111147571D01*
X166581295Y-111242809D01*
X166581295Y-111480904D01*
X166628914Y-111576142D01*
X166676533Y-111623761D01*
X166771771Y-111671380D01*
X167057485Y-111671380D01*
X167152723Y-111623761D01*
X167200342Y-111576142D01*
X166657257Y-123982912D02*
X166704876Y-124030531D01*
X166847733Y-124078150D01*
X166942971Y-124078150D01*
X167085828Y-124030531D01*
X167181066Y-123935293D01*
X167228685Y-123840055D01*
X167276304Y-123649579D01*
X167276304Y-123506722D01*
X167228685Y-123316246D01*
X167181066Y-123221008D01*
X167085828Y-123125770D01*
X166942971Y-123078150D01*
X166847733Y-123078150D01*
X166704876Y-123125770D01*
X166657257Y-123173389D01*
X166323923Y-123078150D02*
X165704876Y-123078150D01*
X166038209Y-123459103D01*
X165895352Y-123459103D01*
X165800114Y-123506722D01*
X165752495Y-123554341D01*
X165704876Y-123649579D01*
X165704876Y-123887674D01*
X165752495Y-123982912D01*
X165800114Y-124030531D01*
X165895352Y-124078150D01*
X166181066Y-124078150D01*
X166276304Y-124030531D01*
X166323923Y-123982912D01*
X165323923Y-123173389D02*
X165276304Y-123125770D01*
X165181066Y-123078150D01*
X164942971Y-123078150D01*
X164847733Y-123125770D01*
X164800114Y-123173389D01*
X164752495Y-123268627D01*
X164752495Y-123363865D01*
X164800114Y-123506722D01*
X165371542Y-124078150D01*
X164752495Y-124078150D01*
X168459357Y-122929942D02*
X168506976Y-122977561D01*
X168649833Y-123025180D01*
X168745071Y-123025180D01*
X168887928Y-122977561D01*
X168983166Y-122882323D01*
X169030785Y-122787085D01*
X169078404Y-122596609D01*
X169078404Y-122453752D01*
X169030785Y-122263276D01*
X168983166Y-122168038D01*
X168887928Y-122072800D01*
X168745071Y-122025180D01*
X168649833Y-122025180D01*
X168506976Y-122072800D01*
X168459357Y-122120419D01*
X168078404Y-122120419D02*
X168030785Y-122072800D01*
X167935547Y-122025180D01*
X167697452Y-122025180D01*
X167602214Y-122072800D01*
X167554595Y-122120419D01*
X167506976Y-122215657D01*
X167506976Y-122310895D01*
X167554595Y-122453752D01*
X168126023Y-123025180D01*
X167506976Y-123025180D01*
X166649833Y-122358514D02*
X166649833Y-123025180D01*
X166887928Y-121977561D02*
X167126023Y-122691847D01*
X166506976Y-122691847D01*
X168486057Y-134309142D02*
X168533676Y-134356761D01*
X168676533Y-134404380D01*
X168771771Y-134404380D01*
X168914628Y-134356761D01*
X169009866Y-134261523D01*
X169057485Y-134166285D01*
X169105104Y-133975809D01*
X169105104Y-133832952D01*
X169057485Y-133642476D01*
X169009866Y-133547238D01*
X168914628Y-133452000D01*
X168771771Y-133404380D01*
X168676533Y-133404380D01*
X168533676Y-133452000D01*
X168486057Y-133499619D01*
X167533676Y-134404380D02*
X168105104Y-134404380D01*
X167819390Y-134404380D02*
X167819390Y-133404380D01*
X167914628Y-133547238D01*
X168009866Y-133642476D01*
X168105104Y-133690095D01*
X166962247Y-133832952D02*
X167057485Y-133785333D01*
X167105104Y-133737714D01*
X167152723Y-133642476D01*
X167152723Y-133594857D01*
X167105104Y-133499619D01*
X167057485Y-133452000D01*
X166962247Y-133404380D01*
X166771771Y-133404380D01*
X166676533Y-133452000D01*
X166628914Y-133499619D01*
X166581295Y-133594857D01*
X166581295Y-133642476D01*
X166628914Y-133737714D01*
X166676533Y-133785333D01*
X166771771Y-133832952D01*
X166962247Y-133832952D01*
X167057485Y-133880571D01*
X167105104Y-133928190D01*
X167152723Y-134023428D01*
X167152723Y-134213904D01*
X167105104Y-134309142D01*
X167057485Y-134356761D01*
X166962247Y-134404380D01*
X166771771Y-134404380D01*
X166676533Y-134356761D01*
X166628914Y-134309142D01*
X166581295Y-134213904D01*
X166581295Y-134023428D01*
X166628914Y-133928190D01*
X166676533Y-133880571D01*
X166771771Y-133832952D01*
X166504857Y-135238742D02*
X166552476Y-135286361D01*
X166695333Y-135333980D01*
X166790571Y-135333980D01*
X166933428Y-135286361D01*
X167028666Y-135191123D01*
X167076285Y-135095885D01*
X167123904Y-134905409D01*
X167123904Y-134762552D01*
X167076285Y-134572076D01*
X167028666Y-134476838D01*
X166933428Y-134381600D01*
X166790571Y-134333980D01*
X166695333Y-134333980D01*
X166552476Y-134381600D01*
X166504857Y-134429219D01*
X165552476Y-135333980D02*
X166123904Y-135333980D01*
X165838190Y-135333980D02*
X165838190Y-134333980D01*
X165933428Y-134476838D01*
X166028666Y-134572076D01*
X166123904Y-134619695D01*
X165219142Y-134333980D02*
X164552476Y-134333980D01*
X164981047Y-135333980D01*
X166352457Y-143707142D02*
X166400076Y-143754761D01*
X166542933Y-143802380D01*
X166638171Y-143802380D01*
X166781028Y-143754761D01*
X166876266Y-143659523D01*
X166923885Y-143564285D01*
X166971504Y-143373809D01*
X166971504Y-143230952D01*
X166923885Y-143040476D01*
X166876266Y-142945238D01*
X166781028Y-142850000D01*
X166638171Y-142802380D01*
X166542933Y-142802380D01*
X166400076Y-142850000D01*
X166352457Y-142897619D01*
X165400076Y-143802380D02*
X165971504Y-143802380D01*
X165685790Y-143802380D02*
X165685790Y-142802380D01*
X165781028Y-142945238D01*
X165876266Y-143040476D01*
X165971504Y-143088095D01*
X164542933Y-142802380D02*
X164733409Y-142802380D01*
X164828647Y-142850000D01*
X164876266Y-142897619D01*
X164971504Y-143040476D01*
X165019123Y-143230952D01*
X165019123Y-143611904D01*
X164971504Y-143707142D01*
X164923885Y-143754761D01*
X164828647Y-143802380D01*
X164638171Y-143802380D01*
X164542933Y-143754761D01*
X164495314Y-143707142D01*
X164447695Y-143611904D01*
X164447695Y-143373809D01*
X164495314Y-143278571D01*
X164542933Y-143230952D01*
X164638171Y-143183333D01*
X164828647Y-143183333D01*
X164923885Y-143230952D01*
X164971504Y-143278571D01*
X165019123Y-143373809D01*
M02*
