M48
; DRILL file {KiCad (5.1.0)-1} date 24.05.2019 17:58:44
; FORMAT={-:-/ absolute / inch / decimal}
; #@! TF.CreationDate,2019-05-24T17:58:44+02:00
; #@! TF.GenerationSoftware,Kicad,Pcbnew,(5.1.0)-1
; #@! TF.FileFunction,Plated,1,2,PTH
FMAT,2
INCH
T1C0.0157
T2C0.0394
T3C0.0984
%
G90
G05
T1
X3.795Y-2.5825
X3.7975Y-5.2725
X3.8Y-4.785
X3.8025Y-2.775
X3.805Y-5.5125
X3.815Y-2.6825
X3.815Y-4.2625
X3.82Y-3.3975
X3.8225Y-5.135
X3.83Y-2.9025
X3.83Y-2.995
X3.83Y-3.095
X3.83Y-3.195
X3.83Y-3.295
X3.8375Y-3.52
X3.8375Y-3.62
X3.8375Y-3.72
X3.8375Y-3.82
X3.84Y-2.36
X3.8425Y-5.0075
X3.8525Y-2.2625
X3.86Y-2.55
X3.87Y-2.445
X3.8725Y-3.425
X3.9125Y-5.5075
X3.915Y-5.2825
X3.93Y-2.995
X3.93Y-3.095
X3.93Y-3.195
X3.93Y-3.295
X3.93Y-3.3925
X3.9375Y-2.2675
X3.9375Y-3.52
X3.9375Y-3.62
X3.9375Y-3.72
X3.9375Y-3.82
X3.94Y-5.0425
X3.9475Y-4.2725
X3.95Y-4.749
X3.9525Y-4.9625
X3.955Y-2.46
X3.9575Y-2.35
X3.96Y-2.6
X3.96Y-5.125
X3.961Y-4.661
X3.967Y-4.488
X3.9725Y-3.4225
X4.0275Y-3.39
X4.0275Y-5.65
X4.03Y-2.995
X4.03Y-3.095
X4.03Y-3.195
X4.03Y-3.295
X4.035Y-4.1525
X4.0375Y-3.52
X4.0375Y-3.62
X4.0375Y-3.72
X4.0375Y-3.82
X4.0375Y-4.0525
X4.0375Y-4.255
X4.04Y-4.5275
X4.047Y-4.434
X4.06Y-2.2975
X4.062Y-4.871
X4.0625Y-3.42
X4.063Y-4.659
X4.065Y-5.815
X4.066Y-4.744
X4.0675Y-4.9725
X4.0725Y-2.655
X4.075Y-2.575
X4.095Y-2.735
X4.1225Y-4.2525
X4.1275Y-4.3025
X4.13Y-2.995
X4.13Y-3.095
X4.13Y-3.195
X4.13Y-3.295
X4.13Y-3.3875
X4.135Y-4.115
X4.1375Y-3.52
X4.1375Y-3.62
X4.1375Y-3.72
X4.1375Y-3.82
X4.1375Y-4.185
X4.14Y-2.3375
X4.14Y-3.995
X4.14Y-4.06
X4.1425Y-2.775
X4.159Y-4.659
X4.162Y-4.747
X4.164Y-4.499
X4.1645Y-4.425
X4.165Y-4.869
X4.17Y-3.425
X4.1775Y-5.0725
X4.1825Y-2.495
X4.19Y-2.415
X4.2175Y-3.995
X4.22Y-5.7475
X4.22Y-5.855
X4.2225Y-5.25
X4.2225Y-5.3575
X4.2275Y-5.0725
X4.23Y-2.995
X4.23Y-3.095
X4.23Y-3.195
X4.23Y-3.295
X4.2325Y-2.3125
X4.2375Y-3.52
X4.2375Y-3.62
X4.2375Y-3.72
X4.2375Y-3.82
X4.2375Y-4.195
X4.2404Y-4.824
X4.2425Y-3.3875
X4.26Y-4.0875
X4.2675Y-2.2275
X4.273Y-4.656
X4.279Y-4.747
X4.285Y-3.425
X4.285Y-4.447
X4.29Y-4.507
X4.2925Y-3.1525
X4.295Y-3.255
X4.295Y-3.9775
X4.2975Y-2.965
X4.3Y-3.355
X4.305Y-3.5175
X4.31Y-4.594
X4.3225Y-4.9275
X4.333Y-4.746
X4.348Y-4.306
X4.35Y-4.659
X4.354Y-4.536
X4.3575Y-4.095
X4.3625Y-4.01
X4.3725Y-3.905
X4.43Y-4.395
X4.4325Y-3.4725
X4.44Y-5.19
X4.4425Y-4.885
X4.4425Y-5.08
X4.4475Y-3.6675
X4.4475Y-5.855
X4.45Y-3.93
X4.45Y-5.2525
X4.45Y-5.7525
X4.4525Y-2.93
X4.4525Y-3.1575
X4.4525Y-5.36
X4.4575Y-3.3825
X4.472Y-4.79
X4.4761Y-4.2321
X4.4761Y-4.4743
X4.4775Y-3.9025
X4.48Y-2.58
X4.4825Y-2.77
X4.498Y-3.968
X4.5025Y-3.8775
X4.5225Y-2.4125
X4.528Y-4.67
X4.53Y-4.606
X4.532Y-3.934
X4.538Y-4.54
X4.5387Y-3.8693
X4.5425Y-3.0
X4.5425Y-3.485
X4.5425Y-4.8325
X4.5475Y-3.09
X4.5475Y-5.05
X4.554Y-2.62
X4.558Y-2.31
X4.56Y-2.89
X4.56Y-4.286
X4.5611Y-4.1251
X4.5625Y-4.915
X4.5625Y-5.18
X4.57Y-3.3625
X4.5727Y-3.8693
X4.5775Y-2.23
X4.5775Y-2.8175
X4.585Y-3.0891
X4.5925Y-5.2825
X4.6Y-4.0775
X4.6Y-5.505
X4.606Y-4.73
X4.614Y-4.682
X4.625Y-5.7075
X4.6275Y-5.8625
X4.63Y-4.41
X4.635Y-2.075
X4.642Y-4.186
X4.646Y-4.464
X4.6475Y-5.08
X4.65Y-3.5825
X4.6525Y-4.835
X4.658Y-4.678
X4.66Y-4.29
X4.66Y-4.364
X4.662Y-3.176
X4.6631Y-4.0231
X4.685Y-3.9525
X4.695Y-5.28
X4.7Y-5.505
X4.7129Y-2.0078
X4.716Y-4.088
X4.7225Y-5.805
X4.73Y-3.345
X4.73Y-5.7025
X4.732Y-4.252
X4.732Y-4.334
X4.734Y-4.44
X4.734Y-4.562
X4.7375Y-3.6925
X4.738Y-2.452
X4.738Y-2.826
X4.754Y-4.178
X4.765Y-4.82
X4.77Y-5.0
X4.7725Y-5.8025
X4.7825Y-5.1725
X4.786Y-4.018
X4.7916Y-3.9178
X4.7975Y-2.645
X4.8075Y-2.9925
X4.819Y-3.214
X4.819Y-2.9328
X4.82Y-5.7075
X4.8225Y-3.0825
X4.8225Y-3.47
X4.83Y-4.522
X4.834Y-4.376
X4.836Y-4.098
X4.8375Y-5.185
X4.84Y-3.6325
X4.852Y-4.266
X4.855Y-5.8575
X4.865Y-5.41
X4.8675Y-5.2825
X4.872Y-4.83
X4.8725Y-5.47
X4.876Y-4.698
X4.895Y-3.795
X4.9Y-2.405
X4.9Y-2.5275
X4.9Y-5.08
X4.9Y-5.715
X4.92Y-3.005
X4.92Y-4.2
X4.922Y-4.466
X4.924Y-4.32
X4.925Y-2.7425
X4.926Y-4.002
X4.9275Y-5.5425
X4.941Y-2.9328
X4.9447Y-5.6643
X4.948Y-4.82
X4.95Y-4.678
X4.9681Y-5.7919
X4.97Y-2.555
X4.97Y-4.154
X4.9825Y-4.76
X4.9825Y-5.2725
X4.985Y-5.4275
X4.985Y-5.865
X4.995Y-5.09
X4.9975Y-3.2625
X5.0Y-4.236
X5.0Y-4.612
X5.0Y-4.972
X5.002Y-4.042
X5.002Y-4.872
X5.0075Y-4.3775
X5.0125Y-3.0875
X5.0125Y-5.5675
X5.0286Y-4.1076
X5.0325Y-3.62
X5.04Y-2.915
X5.067Y-5.84
X5.071Y-4.0542
X5.085Y-2.3975
X5.0875Y-2.69
X5.095Y-2.555
X5.095Y-3.4625
X5.095Y-5.475
X5.096Y-2.9328
X5.0975Y-5.74
X5.1Y-5.63
X5.105Y-5.3025
X5.1175Y-5.815
X5.12Y-3.91
X5.125Y-4.0346
X5.132Y-3.808
X5.137Y-4.17
X5.15Y-4.8575
X5.156Y-4.764
X5.16Y-2.9675
X5.165Y-5.375
X5.17Y-4.6125
X5.174Y-4.206
X5.175Y-4.3
X5.175Y-5.705
X5.18Y-5.1475
X5.18Y-5.5825
X5.1825Y-3.2475
X5.185Y-5.825
X5.19Y-4.69
X5.205Y-5.0225
X5.212Y-2.9328
X5.2125Y-3.62
X5.2276Y-4.8344
X5.2325Y-2.1275
X5.2425Y-5.77
X5.25Y-2.99
X5.25Y-4.415
X5.2525Y-3.065
X5.265Y-4.7325
X5.299Y-2.9328
X5.3Y-3.812
X5.302Y-5.048
X5.3075Y-3.425
X5.315Y-5.1275
X5.3275Y-3.6025
X5.3325Y-5.2925
X5.34Y-2.995
X5.345Y-3.12
X5.36Y-2.1275
X5.362Y-4.974
X5.3775Y-5.4125
X5.394Y-2.9328
X5.407Y-4.319
X5.4156Y-5.0224
X5.4225Y-4.78
X5.436Y-5.164
X5.4425Y-2.9925
X5.4438Y-4.3493
X5.4475Y-3.185
X5.455Y-5.275
X5.46Y-5.6275
X5.4776Y-5.0844
X5.4798Y-4.3752
X5.495Y-5.425
X5.495Y-5.425
X5.495Y-5.425
X5.495Y-5.425
X5.495Y-5.425
X5.495Y-5.425
X5.5Y-2.9328
X5.5075Y-4.9725
X5.545Y-3.0125
X5.55Y-3.2575
X5.552Y-4.372
X5.575Y-5.83
X5.5825Y-4.6075
X5.586Y-5.472
X5.588Y-5.228
X5.588Y-5.342
X5.5898Y-2.9328
X5.59Y-4.545
X5.5921Y-5.0929
X5.61Y-4.8375
X5.61Y-5.0525
X5.635Y-4.54
X5.6375Y-4.6625
X5.664Y-4.336
X5.6752Y-3.8427
X5.6752Y-3.8427
X5.7Y-3.2
X5.701Y-2.9328
X5.7025Y-3.7425
X5.705Y-5.8025
X5.7125Y-3.585
X5.7175Y-3.3975
X5.72Y-4.4525
X5.725Y-4.6175
X5.7275Y-4.6875
X5.735Y-5.1825
X5.7375Y-4.9725
X5.7475Y-5.33
X5.75Y-5.482
X5.755Y-3.8475
X5.762Y-5.414
X5.7675Y-4.3375
X5.7775Y-3.065
X5.79Y-4.525
X5.795Y-3.99
X5.8025Y-5.8275
X5.808Y-2.9328
X5.8175Y-5.065
X5.82Y-3.7825
X5.8225Y-4.7975
X5.825Y-4.615
X5.825Y-5.2475
X5.8325Y-3.515
X5.8325Y-3.6575
X5.835Y-5.41
X5.836Y-4.338
X5.845Y-3.375
X5.8525Y-3.23
X5.8525Y-3.8925
X5.8575Y-3.0725
X5.862Y-5.776
X5.8625Y-4.4275
X5.8675Y-2.9225
X5.87Y-4.2875
X5.8925Y-4.18
X5.908Y-5.732
X5.9103Y-3.7097
X5.911Y-4.116
X5.915Y-5.37
X5.9225Y-4.2975
X5.925Y-4.57
X5.925Y-5.1725
X5.9275Y-4.85
X5.94Y-2.27
X5.94Y-2.325
X5.9475Y-3.985
X5.95Y-5.8725
X5.9525Y-3.66
X5.9575Y-2.8925
X5.9625Y-3.4675
X5.9625Y-4.09
X5.965Y-3.2475
X5.9675Y-3.5825
X5.9682Y-4.2591
X5.9725Y-3.0525
X5.9775Y-2.795
X6.0125Y-3.785
X6.02Y-3.92
X6.0225Y-3.985
X6.0225Y-4.0825
X6.045Y-5.615
X6.045Y-5.7675
X6.0475Y-2.2025
X6.0475Y-4.4025
X6.048Y-4.478
X6.052Y-4.588
X6.055Y-4.2275
X6.07Y-5.3575
X6.075Y-5.52
X6.0775Y-2.675
X6.0825Y-2.6075
X6.0825Y-4.645
X6.085Y-3.45
X6.09Y-2.85
X6.09Y-4.9125
X6.09Y-5.125
X6.095Y-3.2175
X6.095Y-4.125
X6.11Y-4.31
X6.1175Y-2.3275
X6.14Y-2.6375
X6.1425Y-5.8675
X6.15Y-2.925
X6.15Y-3.36
X6.15Y-5.715
X6.155Y-3.045
X6.155Y-5.4525
X6.16Y-3.155
X6.16Y-3.27
X6.16Y-4.5075
X6.1625Y-3.4425
X6.165Y-2.2625
X6.165Y-5.6075
X6.1675Y-2.7625
X6.1755Y-3.5775
X6.1755Y-3.6975
X6.1755Y-3.8675
X6.1755Y-4.0775
X6.1852Y-2.6669
X6.1925Y-5.2375
X6.1975Y-2.3625
X6.21Y-4.205
X6.229Y-2.714
X6.23Y-4.3625
X6.23Y-4.635
X6.2325Y-2.2075
X6.2425Y-4.985
X6.245Y-2.87
X6.245Y-3.2
X6.245Y-3.315
X6.245Y-3.95
X6.25Y-3.025
X6.25Y-3.55
X6.25Y-3.77
X6.2675Y-2.3525
X6.2675Y-2.47
X6.2875Y-5.3475
X6.29Y-5.735
X6.29Y-5.8625
X6.295Y-5.5875
X6.3075Y-5.085
X6.3375Y-2.25
X6.3375Y-4.7825
X6.3475Y-4.5875
X6.3525Y-4.94
X6.3725Y-5.5725
X6.3725Y-5.6675
X6.375Y-4.7175
X6.39Y-5.7925
X6.4025Y-5.105
X6.4025Y-5.2375
X6.4025Y-5.285
X6.405Y-4.6425
X6.415Y-2.1225
X6.435Y-4.3375
X6.435Y-4.3725
X6.4375Y-5.685
X6.4375Y-5.7175
X6.44Y-5.24
X6.4425Y-5.2875
X6.445Y-3.4475
X6.445Y-3.485
X6.45Y-2.545
X6.45Y-2.595
X6.4525Y-5.87
X6.455Y-2.9975
X6.455Y-3.0375
X6.455Y-3.8925
X6.455Y-3.935
X6.455Y-4.835
X6.4575Y-4.7925
X6.505Y-5.0575
X6.5075Y-2.37
X6.51Y-3.7225
X6.5225Y-4.18
X6.5225Y-4.605
X6.525Y-2.162
X6.525Y-2.8375
X6.525Y-3.2775
X6.525Y-5.5175
X6.5275Y-3.505
X6.5275Y-2.6115
X6.53Y-3.9575
X6.53Y-4.85
X6.5325Y-4.4
X6.5325Y-5.3
X6.5375Y-3.06
X6.54Y-5.79
X6.5725Y-3.6975
X6.5725Y-4.155
X6.5725Y-5.495
X6.575Y-2.81
X6.575Y-3.25
X6.575Y-5.0525
X6.588Y-5.678
X6.588Y-5.7225
X6.5888Y-2.3451
X6.592Y-2.552
X6.592Y-3.49
X6.592Y-4.784
X6.594Y-2.594
X6.594Y-3.444
X6.594Y-5.232
X6.594Y-5.278
X6.595Y-4.59
X6.596Y-4.338
X6.596Y-4.374
X6.598Y-3.042
X6.602Y-2.998
X6.602Y-3.936
X6.604Y-3.896
X6.6125Y-4.8375
X6.6325Y-5.8675
X6.668Y-5.306
X6.6725Y-4.8525
X6.674Y-2.1835
X6.674Y-2.216
X6.674Y-2.628
X6.674Y-4.42
X6.678Y-3.08
X6.678Y-3.53
X6.678Y-3.978
X6.7075Y-5.7925
X6.7175Y-5.335
X6.73Y-2.4075
X6.775Y-2.66
X6.79Y-4.455
X6.7925Y-3.1
X6.8025Y-4.9225
X6.8025Y-5.345
X6.8075Y-2.035
X6.8075Y-2.07
X6.82Y-5.865
X6.8275Y-3.595
X6.8325Y-2.8
X6.8375Y-5.13
X6.8375Y-5.4925
X6.84Y-3.3425
X6.84Y-3.7925
X6.8425Y-2.035
X6.8425Y-4.5825
X6.8425Y-5.415
X6.845Y-2.07
X6.845Y-3.695
X6.845Y-4.09
X6.845Y-4.255
X6.845Y-4.7125
X6.8475Y-2.455
X6.8475Y-2.8875
X6.8625Y-2.5775
X6.8675Y-3.4625
X6.8675Y-5.2625
X6.8675Y-5.675
X6.87Y-3.995
X6.8725Y-3.0025
X6.88Y-2.4125
X6.88Y-2.67
X6.88Y-4.365
X6.8825Y-3.09
X6.8875Y-4.9875
X6.89Y-4.14
X6.89Y-4.5075
X6.895Y-4.795
X6.8975Y-2.185
X6.8975Y-3.89
X6.905Y-3.1975
X6.9075Y-5.5975
X6.91Y-4.6625
X6.91Y-5.49
X6.915Y-5.7925
X6.9175Y-2.46
X6.925Y-2.5525
X6.93Y-2.3
X6.935Y-5.3425
X6.94Y-2.725
X6.9475Y-3.5975
X6.9475Y-5.2075
X6.955Y-3.3375
X6.9575Y-5.415
X6.96Y-4.25
X6.9625Y-4.0825
X6.9625Y-4.455
X6.965Y-4.7325
X6.9675Y-4.5825
X6.97Y-2.995
X6.97Y-3.7025
X6.97Y-3.79
X6.9725Y-2.81
X6.975Y-4.1425
X6.975Y-5.125
X6.9775Y-2.8925
X6.9775Y-4.33
X6.9775Y-5.0425
X6.9775Y-5.495
X6.98Y-3.2475
X6.9875Y-2.455
X6.9925Y-2.3675
X6.9925Y-5.6775
X7.0Y-3.1025
X7.0025Y-3.875
X7.0025Y-4.9125
X7.005Y-5.3475
X7.0125Y-5.8675
X7.014Y-3.96
X7.015Y-2.58
X7.018Y-2.628
X7.0225Y-2.6875
X7.0225Y-3.4
X7.026Y-3.522
X7.03Y-2.53
X7.0325Y-3.2
X7.0325Y-4.7475
X7.035Y-2.7575
X7.038Y-4.862
X7.04Y-3.046
X7.04Y-3.5875
X7.04Y-3.655
X7.04Y-4.5475
X7.04Y-4.9925
X7.04Y-5.1975
X7.0425Y-2.21
X7.0425Y-4.0975
X7.0425Y-4.47
X7.044Y-4.42
X7.045Y-2.3225
X7.046Y-5.31
X7.0475Y-5.2625
X7.05Y-3.47
X7.0525Y-5.3625
X7.0525Y-5.445
X7.055Y-3.9975
X7.085Y-5.79
X7.1275Y-2.165
X7.136Y-5.084
X7.136Y-5.308
X7.142Y-3.292
X7.142Y-3.742
X7.144Y-3.5
X7.144Y-4.626
X7.146Y-3.93
X7.146Y-4.826
X7.146Y-5.532
X7.148Y-3.048
X7.148Y-4.194
X7.148Y-4.372
X7.15Y-2.596
X7.15Y-2.844
X7.1525Y-4.89
X7.1575Y-2.6425
X7.16Y-3.1025
X7.1725Y-5.8675
X7.1775Y-4.485
X7.1825Y-2.6925
X7.195Y-3.5875
X7.195Y-4.375
X7.1975Y-4.9275
X7.1975Y-5.2675
X7.2Y-2.2475
X7.2Y-2.38
X7.2Y-3.1375
X7.2Y-3.4775
X7.2Y-3.9225
X7.2Y-4.0325
X7.2Y-4.4275
X7.2Y-4.685
X7.2Y-4.825
X7.2Y-5.38
X7.2Y-5.715
X7.2025Y-3.79
X7.205Y-3.0325
X7.205Y-5.585
X7.215Y-4.485
X7.25Y-2.59
X7.25Y-2.882
X7.25Y-3.334
X7.25Y-3.78
X7.25Y-4.222
X7.25Y-4.67
X7.25Y-5.12
X7.25Y-5.568
X7.2525Y-5.7925
X7.255Y-2.2475
X7.2575Y-2.38
X7.298Y-3.782
X7.298Y-5.574
X7.2999Y-2.5859
X7.3Y-2.874
X7.3Y-3.322
X7.3Y-4.218
X7.3Y-4.68
X7.3Y-5.114
X7.3275Y-5.8675
X7.33Y-2.01
X7.332Y-2.626
X7.332Y-3.492
X7.334Y-3.036
X7.334Y-3.934
X7.334Y-4.384
X7.334Y-4.838
X7.338Y-5.298
X7.35Y-2.1075
X7.39Y-5.7875
X7.398Y-2.7
X7.3991Y-3.1249
X7.3991Y-4.9351
X7.3991Y-5.3852
X7.4Y-2.384
X7.4Y-3.578
X7.4Y-4.008
X7.4Y-4.4938
X7.42Y-2.1075
X7.435Y-4.3675
X7.445Y-2.5475
X7.4525Y-4.5525
X7.4525Y-5.2275
X7.455Y-5.4625
X7.4575Y-3.67
X7.4625Y-5.355
X7.465Y-3.55
X7.465Y-5.8225
X7.4675Y-2.285
X7.4675Y-3.9275
X7.47Y-2.755
X7.47Y-3.4125
X7.4725Y-2.6625
X7.4725Y-3.06
X7.4725Y-4.995
X7.475Y-3.21
X7.475Y-4.1075
X7.484Y-2.494
X7.495Y-4.5525
X7.4975Y-5.6775
X7.5025Y-4.3025
X7.515Y-2.9925
X7.515Y-4.9375
X7.5175Y-3.145
X7.52Y-3.7375
X7.5225Y-2.7075
X7.5225Y-4.015
X7.5225Y-4.1625
X7.525Y-3.26
X7.525Y-3.4875
X7.525Y-4.4075
X7.525Y-4.78
X7.525Y-5.0625
X7.525Y-5.42
X7.5275Y-4.5275
X7.53Y-5.285
X7.5325Y-2.5825
X7.535Y-2.81
X7.535Y-3.6575
X7.535Y-3.9125
X7.54Y-5.53
X7.55Y-2.254
X7.605Y-4.3775
X7.605Y-4.5725
X7.605Y-4.7925
X7.6075Y-3.4625
X7.6075Y-4.94
X7.61Y-2.9975
X7.6125Y-4.245
X7.6125Y-5.14
X7.615Y-2.5275
X7.615Y-2.725
X7.615Y-3.7075
X7.6175Y-3.22
X7.6175Y-3.965
X7.6175Y-5.4725
X7.62Y-2.19
X7.62Y-2.885
X7.62Y-4.1025
X7.6225Y-5.3525
X7.625Y-2.6275
X7.625Y-3.11
X7.625Y-3.605
X7.625Y-5.6225
X7.6275Y-3.35
X7.63Y-2.0225
X7.63Y-3.8675
X7.638Y-2.306
T2
X5.179Y-4.496
X5.279Y-4.496
X5.379Y-4.496
X5.479Y-4.496
X4.794Y-2.19
X4.794Y-2.29
X4.894Y-2.19
X4.894Y-2.29
X5.624Y-5.65
X5.724Y-5.65
X5.824Y-5.65
X5.924Y-5.65
X5.2725Y-5.51
X5.3725Y-5.51
X5.4725Y-5.51
X5.28Y-4.645
X5.38Y-4.645
X5.48Y-4.645
X5.154Y-2.192
X5.154Y-2.292
X5.254Y-2.192
X5.254Y-2.292
X5.354Y-2.192
X5.354Y-2.292
X5.454Y-2.192
X5.454Y-2.292
X5.554Y-2.192
X5.554Y-2.292
X5.654Y-2.192
X5.654Y-2.292
X5.754Y-2.192
X5.754Y-2.292
X5.854Y-2.192
X5.854Y-2.292
T3
X4.105Y-2.1075
X4.4375Y-2.1075
T2
G00X4.0738Y-2.3956
M15
G01X4.0738Y-2.4744
M16
G05
G00X4.1525Y-2.62
M15
G01X4.2313Y-2.62
M16
G05
G00X4.31Y-2.3956
M15
G01X4.31Y-2.4744
M16
G05
T0
M30
