G04 #@! TF.GenerationSoftware,KiCad,Pcbnew,(5.1.0)-1*
G04 #@! TF.CreationDate,2019-05-24T17:58:47+02:00*
G04 #@! TF.ProjectId,TiN_analog_sensor_emulation,54694e5f-616e-4616-9c6f-675f73656e73,rev?*
G04 #@! TF.SameCoordinates,Original*
G04 #@! TF.FileFunction,Paste,Bot*
G04 #@! TF.FilePolarity,Positive*
%FSLAX46Y46*%
G04 Gerber Fmt 4.6, Leading zero omitted, Abs format (unit mm)*
G04 Created by KiCad (PCBNEW (5.1.0)-1) date 2019-05-24 17:58:47*
%MOMM*%
%LPD*%
G04 APERTURE LIST*
%ADD10R,0.780000X1.050000*%
%ADD11R,0.930000X0.900000*%
%ADD12R,3.330000X0.700000*%
%ADD13R,2.800000X0.860000*%
%ADD14R,1.830000X1.140000*%
%ADD15R,1.100000X0.700000*%
%ADD16R,0.650000X0.400000*%
%ADD17R,0.400000X0.650000*%
%ADD18C,0.100000*%
%ADD19C,0.950000*%
G04 APERTURE END LIST*
D10*
X111309000Y-117443000D03*
D11*
X111234000Y-113178000D03*
D12*
X110034000Y-123828000D03*
X110034000Y-110868000D03*
D13*
X99269000Y-123748000D03*
D14*
X98784000Y-111088000D03*
D15*
X98769000Y-122668000D03*
X98769000Y-121568000D03*
X98769000Y-120468000D03*
X98769000Y-119368000D03*
X98769000Y-118268000D03*
X98769000Y-117168000D03*
X98769000Y-116068000D03*
X98769000Y-114968000D03*
D16*
X136649500Y-121935000D03*
X136649500Y-120635000D03*
X134749500Y-121285000D03*
X134749500Y-120635000D03*
X134749500Y-121935000D03*
X140497600Y-53634400D03*
X140497600Y-52334400D03*
X138597600Y-52984400D03*
X138597600Y-52334400D03*
X138597600Y-53634400D03*
D17*
X148173200Y-51450200D03*
X146873200Y-51450200D03*
X147523200Y-53350200D03*
X146873200Y-53350200D03*
X148173200Y-53350200D03*
D18*
G36*
X138995579Y-144549544D02*
G01*
X139018634Y-144552963D01*
X139041243Y-144558627D01*
X139063187Y-144566479D01*
X139084257Y-144576444D01*
X139104248Y-144588426D01*
X139122968Y-144602310D01*
X139140238Y-144617962D01*
X139155890Y-144635232D01*
X139169774Y-144653952D01*
X139181756Y-144673943D01*
X139191721Y-144695013D01*
X139199573Y-144716957D01*
X139205237Y-144739566D01*
X139208656Y-144762621D01*
X139209800Y-144785900D01*
X139209800Y-145360900D01*
X139208656Y-145384179D01*
X139205237Y-145407234D01*
X139199573Y-145429843D01*
X139191721Y-145451787D01*
X139181756Y-145472857D01*
X139169774Y-145492848D01*
X139155890Y-145511568D01*
X139140238Y-145528838D01*
X139122968Y-145544490D01*
X139104248Y-145558374D01*
X139084257Y-145570356D01*
X139063187Y-145580321D01*
X139041243Y-145588173D01*
X139018634Y-145593837D01*
X138995579Y-145597256D01*
X138972300Y-145598400D01*
X138497300Y-145598400D01*
X138474021Y-145597256D01*
X138450966Y-145593837D01*
X138428357Y-145588173D01*
X138406413Y-145580321D01*
X138385343Y-145570356D01*
X138365352Y-145558374D01*
X138346632Y-145544490D01*
X138329362Y-145528838D01*
X138313710Y-145511568D01*
X138299826Y-145492848D01*
X138287844Y-145472857D01*
X138277879Y-145451787D01*
X138270027Y-145429843D01*
X138264363Y-145407234D01*
X138260944Y-145384179D01*
X138259800Y-145360900D01*
X138259800Y-144785900D01*
X138260944Y-144762621D01*
X138264363Y-144739566D01*
X138270027Y-144716957D01*
X138277879Y-144695013D01*
X138287844Y-144673943D01*
X138299826Y-144653952D01*
X138313710Y-144635232D01*
X138329362Y-144617962D01*
X138346632Y-144602310D01*
X138365352Y-144588426D01*
X138385343Y-144576444D01*
X138406413Y-144566479D01*
X138428357Y-144558627D01*
X138450966Y-144552963D01*
X138474021Y-144549544D01*
X138497300Y-144548400D01*
X138972300Y-144548400D01*
X138995579Y-144549544D01*
X138995579Y-144549544D01*
G37*
D19*
X138734800Y-145073400D03*
D18*
G36*
X138995579Y-146299544D02*
G01*
X139018634Y-146302963D01*
X139041243Y-146308627D01*
X139063187Y-146316479D01*
X139084257Y-146326444D01*
X139104248Y-146338426D01*
X139122968Y-146352310D01*
X139140238Y-146367962D01*
X139155890Y-146385232D01*
X139169774Y-146403952D01*
X139181756Y-146423943D01*
X139191721Y-146445013D01*
X139199573Y-146466957D01*
X139205237Y-146489566D01*
X139208656Y-146512621D01*
X139209800Y-146535900D01*
X139209800Y-147110900D01*
X139208656Y-147134179D01*
X139205237Y-147157234D01*
X139199573Y-147179843D01*
X139191721Y-147201787D01*
X139181756Y-147222857D01*
X139169774Y-147242848D01*
X139155890Y-147261568D01*
X139140238Y-147278838D01*
X139122968Y-147294490D01*
X139104248Y-147308374D01*
X139084257Y-147320356D01*
X139063187Y-147330321D01*
X139041243Y-147338173D01*
X139018634Y-147343837D01*
X138995579Y-147347256D01*
X138972300Y-147348400D01*
X138497300Y-147348400D01*
X138474021Y-147347256D01*
X138450966Y-147343837D01*
X138428357Y-147338173D01*
X138406413Y-147330321D01*
X138385343Y-147320356D01*
X138365352Y-147308374D01*
X138346632Y-147294490D01*
X138329362Y-147278838D01*
X138313710Y-147261568D01*
X138299826Y-147242848D01*
X138287844Y-147222857D01*
X138277879Y-147201787D01*
X138270027Y-147179843D01*
X138264363Y-147157234D01*
X138260944Y-147134179D01*
X138259800Y-147110900D01*
X138259800Y-146535900D01*
X138260944Y-146512621D01*
X138264363Y-146489566D01*
X138270027Y-146466957D01*
X138277879Y-146445013D01*
X138287844Y-146423943D01*
X138299826Y-146403952D01*
X138313710Y-146385232D01*
X138329362Y-146367962D01*
X138346632Y-146352310D01*
X138365352Y-146338426D01*
X138385343Y-146326444D01*
X138406413Y-146316479D01*
X138428357Y-146308627D01*
X138450966Y-146302963D01*
X138474021Y-146299544D01*
X138497300Y-146298400D01*
X138972300Y-146298400D01*
X138995579Y-146299544D01*
X138995579Y-146299544D01*
G37*
D19*
X138734800Y-146823400D03*
D18*
G36*
X136785779Y-146401144D02*
G01*
X136808834Y-146404563D01*
X136831443Y-146410227D01*
X136853387Y-146418079D01*
X136874457Y-146428044D01*
X136894448Y-146440026D01*
X136913168Y-146453910D01*
X136930438Y-146469562D01*
X136946090Y-146486832D01*
X136959974Y-146505552D01*
X136971956Y-146525543D01*
X136981921Y-146546613D01*
X136989773Y-146568557D01*
X136995437Y-146591166D01*
X136998856Y-146614221D01*
X137000000Y-146637500D01*
X137000000Y-147212500D01*
X136998856Y-147235779D01*
X136995437Y-147258834D01*
X136989773Y-147281443D01*
X136981921Y-147303387D01*
X136971956Y-147324457D01*
X136959974Y-147344448D01*
X136946090Y-147363168D01*
X136930438Y-147380438D01*
X136913168Y-147396090D01*
X136894448Y-147409974D01*
X136874457Y-147421956D01*
X136853387Y-147431921D01*
X136831443Y-147439773D01*
X136808834Y-147445437D01*
X136785779Y-147448856D01*
X136762500Y-147450000D01*
X136287500Y-147450000D01*
X136264221Y-147448856D01*
X136241166Y-147445437D01*
X136218557Y-147439773D01*
X136196613Y-147431921D01*
X136175543Y-147421956D01*
X136155552Y-147409974D01*
X136136832Y-147396090D01*
X136119562Y-147380438D01*
X136103910Y-147363168D01*
X136090026Y-147344448D01*
X136078044Y-147324457D01*
X136068079Y-147303387D01*
X136060227Y-147281443D01*
X136054563Y-147258834D01*
X136051144Y-147235779D01*
X136050000Y-147212500D01*
X136050000Y-146637500D01*
X136051144Y-146614221D01*
X136054563Y-146591166D01*
X136060227Y-146568557D01*
X136068079Y-146546613D01*
X136078044Y-146525543D01*
X136090026Y-146505552D01*
X136103910Y-146486832D01*
X136119562Y-146469562D01*
X136136832Y-146453910D01*
X136155552Y-146440026D01*
X136175543Y-146428044D01*
X136196613Y-146418079D01*
X136218557Y-146410227D01*
X136241166Y-146404563D01*
X136264221Y-146401144D01*
X136287500Y-146400000D01*
X136762500Y-146400000D01*
X136785779Y-146401144D01*
X136785779Y-146401144D01*
G37*
D19*
X136525000Y-146925000D03*
D18*
G36*
X136785779Y-144651144D02*
G01*
X136808834Y-144654563D01*
X136831443Y-144660227D01*
X136853387Y-144668079D01*
X136874457Y-144678044D01*
X136894448Y-144690026D01*
X136913168Y-144703910D01*
X136930438Y-144719562D01*
X136946090Y-144736832D01*
X136959974Y-144755552D01*
X136971956Y-144775543D01*
X136981921Y-144796613D01*
X136989773Y-144818557D01*
X136995437Y-144841166D01*
X136998856Y-144864221D01*
X137000000Y-144887500D01*
X137000000Y-145462500D01*
X136998856Y-145485779D01*
X136995437Y-145508834D01*
X136989773Y-145531443D01*
X136981921Y-145553387D01*
X136971956Y-145574457D01*
X136959974Y-145594448D01*
X136946090Y-145613168D01*
X136930438Y-145630438D01*
X136913168Y-145646090D01*
X136894448Y-145659974D01*
X136874457Y-145671956D01*
X136853387Y-145681921D01*
X136831443Y-145689773D01*
X136808834Y-145695437D01*
X136785779Y-145698856D01*
X136762500Y-145700000D01*
X136287500Y-145700000D01*
X136264221Y-145698856D01*
X136241166Y-145695437D01*
X136218557Y-145689773D01*
X136196613Y-145681921D01*
X136175543Y-145671956D01*
X136155552Y-145659974D01*
X136136832Y-145646090D01*
X136119562Y-145630438D01*
X136103910Y-145613168D01*
X136090026Y-145594448D01*
X136078044Y-145574457D01*
X136068079Y-145553387D01*
X136060227Y-145531443D01*
X136054563Y-145508834D01*
X136051144Y-145485779D01*
X136050000Y-145462500D01*
X136050000Y-144887500D01*
X136051144Y-144864221D01*
X136054563Y-144841166D01*
X136060227Y-144818557D01*
X136068079Y-144796613D01*
X136078044Y-144775543D01*
X136090026Y-144755552D01*
X136103910Y-144736832D01*
X136119562Y-144719562D01*
X136136832Y-144703910D01*
X136155552Y-144690026D01*
X136175543Y-144678044D01*
X136196613Y-144668079D01*
X136218557Y-144660227D01*
X136241166Y-144654563D01*
X136264221Y-144651144D01*
X136287500Y-144650000D01*
X136762500Y-144650000D01*
X136785779Y-144651144D01*
X136785779Y-144651144D01*
G37*
D19*
X136525000Y-145175000D03*
D18*
G36*
X134220379Y-134846744D02*
G01*
X134243434Y-134850163D01*
X134266043Y-134855827D01*
X134287987Y-134863679D01*
X134309057Y-134873644D01*
X134329048Y-134885626D01*
X134347768Y-134899510D01*
X134365038Y-134915162D01*
X134380690Y-134932432D01*
X134394574Y-134951152D01*
X134406556Y-134971143D01*
X134416521Y-134992213D01*
X134424373Y-135014157D01*
X134430037Y-135036766D01*
X134433456Y-135059821D01*
X134434600Y-135083100D01*
X134434600Y-135658100D01*
X134433456Y-135681379D01*
X134430037Y-135704434D01*
X134424373Y-135727043D01*
X134416521Y-135748987D01*
X134406556Y-135770057D01*
X134394574Y-135790048D01*
X134380690Y-135808768D01*
X134365038Y-135826038D01*
X134347768Y-135841690D01*
X134329048Y-135855574D01*
X134309057Y-135867556D01*
X134287987Y-135877521D01*
X134266043Y-135885373D01*
X134243434Y-135891037D01*
X134220379Y-135894456D01*
X134197100Y-135895600D01*
X133722100Y-135895600D01*
X133698821Y-135894456D01*
X133675766Y-135891037D01*
X133653157Y-135885373D01*
X133631213Y-135877521D01*
X133610143Y-135867556D01*
X133590152Y-135855574D01*
X133571432Y-135841690D01*
X133554162Y-135826038D01*
X133538510Y-135808768D01*
X133524626Y-135790048D01*
X133512644Y-135770057D01*
X133502679Y-135748987D01*
X133494827Y-135727043D01*
X133489163Y-135704434D01*
X133485744Y-135681379D01*
X133484600Y-135658100D01*
X133484600Y-135083100D01*
X133485744Y-135059821D01*
X133489163Y-135036766D01*
X133494827Y-135014157D01*
X133502679Y-134992213D01*
X133512644Y-134971143D01*
X133524626Y-134951152D01*
X133538510Y-134932432D01*
X133554162Y-134915162D01*
X133571432Y-134899510D01*
X133590152Y-134885626D01*
X133610143Y-134873644D01*
X133631213Y-134863679D01*
X133653157Y-134855827D01*
X133675766Y-134850163D01*
X133698821Y-134846744D01*
X133722100Y-134845600D01*
X134197100Y-134845600D01*
X134220379Y-134846744D01*
X134220379Y-134846744D01*
G37*
D19*
X133959600Y-135370600D03*
D18*
G36*
X134220379Y-136596744D02*
G01*
X134243434Y-136600163D01*
X134266043Y-136605827D01*
X134287987Y-136613679D01*
X134309057Y-136623644D01*
X134329048Y-136635626D01*
X134347768Y-136649510D01*
X134365038Y-136665162D01*
X134380690Y-136682432D01*
X134394574Y-136701152D01*
X134406556Y-136721143D01*
X134416521Y-136742213D01*
X134424373Y-136764157D01*
X134430037Y-136786766D01*
X134433456Y-136809821D01*
X134434600Y-136833100D01*
X134434600Y-137408100D01*
X134433456Y-137431379D01*
X134430037Y-137454434D01*
X134424373Y-137477043D01*
X134416521Y-137498987D01*
X134406556Y-137520057D01*
X134394574Y-137540048D01*
X134380690Y-137558768D01*
X134365038Y-137576038D01*
X134347768Y-137591690D01*
X134329048Y-137605574D01*
X134309057Y-137617556D01*
X134287987Y-137627521D01*
X134266043Y-137635373D01*
X134243434Y-137641037D01*
X134220379Y-137644456D01*
X134197100Y-137645600D01*
X133722100Y-137645600D01*
X133698821Y-137644456D01*
X133675766Y-137641037D01*
X133653157Y-137635373D01*
X133631213Y-137627521D01*
X133610143Y-137617556D01*
X133590152Y-137605574D01*
X133571432Y-137591690D01*
X133554162Y-137576038D01*
X133538510Y-137558768D01*
X133524626Y-137540048D01*
X133512644Y-137520057D01*
X133502679Y-137498987D01*
X133494827Y-137477043D01*
X133489163Y-137454434D01*
X133485744Y-137431379D01*
X133484600Y-137408100D01*
X133484600Y-136833100D01*
X133485744Y-136809821D01*
X133489163Y-136786766D01*
X133494827Y-136764157D01*
X133502679Y-136742213D01*
X133512644Y-136721143D01*
X133524626Y-136701152D01*
X133538510Y-136682432D01*
X133554162Y-136665162D01*
X133571432Y-136649510D01*
X133590152Y-136635626D01*
X133610143Y-136623644D01*
X133631213Y-136613679D01*
X133653157Y-136605827D01*
X133675766Y-136600163D01*
X133698821Y-136596744D01*
X133722100Y-136595600D01*
X134197100Y-136595600D01*
X134220379Y-136596744D01*
X134220379Y-136596744D01*
G37*
D19*
X133959600Y-137120600D03*
D18*
G36*
X130931079Y-71941044D02*
G01*
X130954134Y-71944463D01*
X130976743Y-71950127D01*
X130998687Y-71957979D01*
X131019757Y-71967944D01*
X131039748Y-71979926D01*
X131058468Y-71993810D01*
X131075738Y-72009462D01*
X131091390Y-72026732D01*
X131105274Y-72045452D01*
X131117256Y-72065443D01*
X131127221Y-72086513D01*
X131135073Y-72108457D01*
X131140737Y-72131066D01*
X131144156Y-72154121D01*
X131145300Y-72177400D01*
X131145300Y-72752400D01*
X131144156Y-72775679D01*
X131140737Y-72798734D01*
X131135073Y-72821343D01*
X131127221Y-72843287D01*
X131117256Y-72864357D01*
X131105274Y-72884348D01*
X131091390Y-72903068D01*
X131075738Y-72920338D01*
X131058468Y-72935990D01*
X131039748Y-72949874D01*
X131019757Y-72961856D01*
X130998687Y-72971821D01*
X130976743Y-72979673D01*
X130954134Y-72985337D01*
X130931079Y-72988756D01*
X130907800Y-72989900D01*
X130432800Y-72989900D01*
X130409521Y-72988756D01*
X130386466Y-72985337D01*
X130363857Y-72979673D01*
X130341913Y-72971821D01*
X130320843Y-72961856D01*
X130300852Y-72949874D01*
X130282132Y-72935990D01*
X130264862Y-72920338D01*
X130249210Y-72903068D01*
X130235326Y-72884348D01*
X130223344Y-72864357D01*
X130213379Y-72843287D01*
X130205527Y-72821343D01*
X130199863Y-72798734D01*
X130196444Y-72775679D01*
X130195300Y-72752400D01*
X130195300Y-72177400D01*
X130196444Y-72154121D01*
X130199863Y-72131066D01*
X130205527Y-72108457D01*
X130213379Y-72086513D01*
X130223344Y-72065443D01*
X130235326Y-72045452D01*
X130249210Y-72026732D01*
X130264862Y-72009462D01*
X130282132Y-71993810D01*
X130300852Y-71979926D01*
X130320843Y-71967944D01*
X130341913Y-71957979D01*
X130363857Y-71950127D01*
X130386466Y-71944463D01*
X130409521Y-71941044D01*
X130432800Y-71939900D01*
X130907800Y-71939900D01*
X130931079Y-71941044D01*
X130931079Y-71941044D01*
G37*
D19*
X130670300Y-72464900D03*
D18*
G36*
X130931079Y-70191044D02*
G01*
X130954134Y-70194463D01*
X130976743Y-70200127D01*
X130998687Y-70207979D01*
X131019757Y-70217944D01*
X131039748Y-70229926D01*
X131058468Y-70243810D01*
X131075738Y-70259462D01*
X131091390Y-70276732D01*
X131105274Y-70295452D01*
X131117256Y-70315443D01*
X131127221Y-70336513D01*
X131135073Y-70358457D01*
X131140737Y-70381066D01*
X131144156Y-70404121D01*
X131145300Y-70427400D01*
X131145300Y-71002400D01*
X131144156Y-71025679D01*
X131140737Y-71048734D01*
X131135073Y-71071343D01*
X131127221Y-71093287D01*
X131117256Y-71114357D01*
X131105274Y-71134348D01*
X131091390Y-71153068D01*
X131075738Y-71170338D01*
X131058468Y-71185990D01*
X131039748Y-71199874D01*
X131019757Y-71211856D01*
X130998687Y-71221821D01*
X130976743Y-71229673D01*
X130954134Y-71235337D01*
X130931079Y-71238756D01*
X130907800Y-71239900D01*
X130432800Y-71239900D01*
X130409521Y-71238756D01*
X130386466Y-71235337D01*
X130363857Y-71229673D01*
X130341913Y-71221821D01*
X130320843Y-71211856D01*
X130300852Y-71199874D01*
X130282132Y-71185990D01*
X130264862Y-71170338D01*
X130249210Y-71153068D01*
X130235326Y-71134348D01*
X130223344Y-71114357D01*
X130213379Y-71093287D01*
X130205527Y-71071343D01*
X130199863Y-71048734D01*
X130196444Y-71025679D01*
X130195300Y-71002400D01*
X130195300Y-70427400D01*
X130196444Y-70404121D01*
X130199863Y-70381066D01*
X130205527Y-70358457D01*
X130213379Y-70336513D01*
X130223344Y-70315443D01*
X130235326Y-70295452D01*
X130249210Y-70276732D01*
X130264862Y-70259462D01*
X130282132Y-70243810D01*
X130300852Y-70229926D01*
X130320843Y-70217944D01*
X130341913Y-70207979D01*
X130363857Y-70200127D01*
X130386466Y-70194463D01*
X130409521Y-70191044D01*
X130432800Y-70189900D01*
X130907800Y-70189900D01*
X130931079Y-70191044D01*
X130931079Y-70191044D01*
G37*
D19*
X130670300Y-70714900D03*
D18*
G36*
X131070779Y-67877044D02*
G01*
X131093834Y-67880463D01*
X131116443Y-67886127D01*
X131138387Y-67893979D01*
X131159457Y-67903944D01*
X131179448Y-67915926D01*
X131198168Y-67929810D01*
X131215438Y-67945462D01*
X131231090Y-67962732D01*
X131244974Y-67981452D01*
X131256956Y-68001443D01*
X131266921Y-68022513D01*
X131274773Y-68044457D01*
X131280437Y-68067066D01*
X131283856Y-68090121D01*
X131285000Y-68113400D01*
X131285000Y-68688400D01*
X131283856Y-68711679D01*
X131280437Y-68734734D01*
X131274773Y-68757343D01*
X131266921Y-68779287D01*
X131256956Y-68800357D01*
X131244974Y-68820348D01*
X131231090Y-68839068D01*
X131215438Y-68856338D01*
X131198168Y-68871990D01*
X131179448Y-68885874D01*
X131159457Y-68897856D01*
X131138387Y-68907821D01*
X131116443Y-68915673D01*
X131093834Y-68921337D01*
X131070779Y-68924756D01*
X131047500Y-68925900D01*
X130572500Y-68925900D01*
X130549221Y-68924756D01*
X130526166Y-68921337D01*
X130503557Y-68915673D01*
X130481613Y-68907821D01*
X130460543Y-68897856D01*
X130440552Y-68885874D01*
X130421832Y-68871990D01*
X130404562Y-68856338D01*
X130388910Y-68839068D01*
X130375026Y-68820348D01*
X130363044Y-68800357D01*
X130353079Y-68779287D01*
X130345227Y-68757343D01*
X130339563Y-68734734D01*
X130336144Y-68711679D01*
X130335000Y-68688400D01*
X130335000Y-68113400D01*
X130336144Y-68090121D01*
X130339563Y-68067066D01*
X130345227Y-68044457D01*
X130353079Y-68022513D01*
X130363044Y-68001443D01*
X130375026Y-67981452D01*
X130388910Y-67962732D01*
X130404562Y-67945462D01*
X130421832Y-67929810D01*
X130440552Y-67915926D01*
X130460543Y-67903944D01*
X130481613Y-67893979D01*
X130503557Y-67886127D01*
X130526166Y-67880463D01*
X130549221Y-67877044D01*
X130572500Y-67875900D01*
X131047500Y-67875900D01*
X131070779Y-67877044D01*
X131070779Y-67877044D01*
G37*
D19*
X130810000Y-68400900D03*
D18*
G36*
X131070779Y-66127044D02*
G01*
X131093834Y-66130463D01*
X131116443Y-66136127D01*
X131138387Y-66143979D01*
X131159457Y-66153944D01*
X131179448Y-66165926D01*
X131198168Y-66179810D01*
X131215438Y-66195462D01*
X131231090Y-66212732D01*
X131244974Y-66231452D01*
X131256956Y-66251443D01*
X131266921Y-66272513D01*
X131274773Y-66294457D01*
X131280437Y-66317066D01*
X131283856Y-66340121D01*
X131285000Y-66363400D01*
X131285000Y-66938400D01*
X131283856Y-66961679D01*
X131280437Y-66984734D01*
X131274773Y-67007343D01*
X131266921Y-67029287D01*
X131256956Y-67050357D01*
X131244974Y-67070348D01*
X131231090Y-67089068D01*
X131215438Y-67106338D01*
X131198168Y-67121990D01*
X131179448Y-67135874D01*
X131159457Y-67147856D01*
X131138387Y-67157821D01*
X131116443Y-67165673D01*
X131093834Y-67171337D01*
X131070779Y-67174756D01*
X131047500Y-67175900D01*
X130572500Y-67175900D01*
X130549221Y-67174756D01*
X130526166Y-67171337D01*
X130503557Y-67165673D01*
X130481613Y-67157821D01*
X130460543Y-67147856D01*
X130440552Y-67135874D01*
X130421832Y-67121990D01*
X130404562Y-67106338D01*
X130388910Y-67089068D01*
X130375026Y-67070348D01*
X130363044Y-67050357D01*
X130353079Y-67029287D01*
X130345227Y-67007343D01*
X130339563Y-66984734D01*
X130336144Y-66961679D01*
X130335000Y-66938400D01*
X130335000Y-66363400D01*
X130336144Y-66340121D01*
X130339563Y-66317066D01*
X130345227Y-66294457D01*
X130353079Y-66272513D01*
X130363044Y-66251443D01*
X130375026Y-66231452D01*
X130388910Y-66212732D01*
X130404562Y-66195462D01*
X130421832Y-66179810D01*
X130440552Y-66165926D01*
X130460543Y-66153944D01*
X130481613Y-66143979D01*
X130503557Y-66136127D01*
X130526166Y-66130463D01*
X130549221Y-66127044D01*
X130572500Y-66125900D01*
X131047500Y-66125900D01*
X131070779Y-66127044D01*
X131070779Y-66127044D01*
G37*
D19*
X130810000Y-66650900D03*
D18*
G36*
X133552721Y-71941044D02*
G01*
X133575776Y-71944463D01*
X133598385Y-71950127D01*
X133620329Y-71957979D01*
X133641399Y-71967944D01*
X133661390Y-71979926D01*
X133680110Y-71993810D01*
X133697380Y-72009462D01*
X133713032Y-72026732D01*
X133726916Y-72045452D01*
X133738898Y-72065443D01*
X133748863Y-72086513D01*
X133756715Y-72108457D01*
X133762379Y-72131066D01*
X133765798Y-72154121D01*
X133766942Y-72177400D01*
X133766942Y-72752400D01*
X133765798Y-72775679D01*
X133762379Y-72798734D01*
X133756715Y-72821343D01*
X133748863Y-72843287D01*
X133738898Y-72864357D01*
X133726916Y-72884348D01*
X133713032Y-72903068D01*
X133697380Y-72920338D01*
X133680110Y-72935990D01*
X133661390Y-72949874D01*
X133641399Y-72961856D01*
X133620329Y-72971821D01*
X133598385Y-72979673D01*
X133575776Y-72985337D01*
X133552721Y-72988756D01*
X133529442Y-72989900D01*
X133054442Y-72989900D01*
X133031163Y-72988756D01*
X133008108Y-72985337D01*
X132985499Y-72979673D01*
X132963555Y-72971821D01*
X132942485Y-72961856D01*
X132922494Y-72949874D01*
X132903774Y-72935990D01*
X132886504Y-72920338D01*
X132870852Y-72903068D01*
X132856968Y-72884348D01*
X132844986Y-72864357D01*
X132835021Y-72843287D01*
X132827169Y-72821343D01*
X132821505Y-72798734D01*
X132818086Y-72775679D01*
X132816942Y-72752400D01*
X132816942Y-72177400D01*
X132818086Y-72154121D01*
X132821505Y-72131066D01*
X132827169Y-72108457D01*
X132835021Y-72086513D01*
X132844986Y-72065443D01*
X132856968Y-72045452D01*
X132870852Y-72026732D01*
X132886504Y-72009462D01*
X132903774Y-71993810D01*
X132922494Y-71979926D01*
X132942485Y-71967944D01*
X132963555Y-71957979D01*
X132985499Y-71950127D01*
X133008108Y-71944463D01*
X133031163Y-71941044D01*
X133054442Y-71939900D01*
X133529442Y-71939900D01*
X133552721Y-71941044D01*
X133552721Y-71941044D01*
G37*
D19*
X133291942Y-72464900D03*
D18*
G36*
X133552721Y-70191044D02*
G01*
X133575776Y-70194463D01*
X133598385Y-70200127D01*
X133620329Y-70207979D01*
X133641399Y-70217944D01*
X133661390Y-70229926D01*
X133680110Y-70243810D01*
X133697380Y-70259462D01*
X133713032Y-70276732D01*
X133726916Y-70295452D01*
X133738898Y-70315443D01*
X133748863Y-70336513D01*
X133756715Y-70358457D01*
X133762379Y-70381066D01*
X133765798Y-70404121D01*
X133766942Y-70427400D01*
X133766942Y-71002400D01*
X133765798Y-71025679D01*
X133762379Y-71048734D01*
X133756715Y-71071343D01*
X133748863Y-71093287D01*
X133738898Y-71114357D01*
X133726916Y-71134348D01*
X133713032Y-71153068D01*
X133697380Y-71170338D01*
X133680110Y-71185990D01*
X133661390Y-71199874D01*
X133641399Y-71211856D01*
X133620329Y-71221821D01*
X133598385Y-71229673D01*
X133575776Y-71235337D01*
X133552721Y-71238756D01*
X133529442Y-71239900D01*
X133054442Y-71239900D01*
X133031163Y-71238756D01*
X133008108Y-71235337D01*
X132985499Y-71229673D01*
X132963555Y-71221821D01*
X132942485Y-71211856D01*
X132922494Y-71199874D01*
X132903774Y-71185990D01*
X132886504Y-71170338D01*
X132870852Y-71153068D01*
X132856968Y-71134348D01*
X132844986Y-71114357D01*
X132835021Y-71093287D01*
X132827169Y-71071343D01*
X132821505Y-71048734D01*
X132818086Y-71025679D01*
X132816942Y-71002400D01*
X132816942Y-70427400D01*
X132818086Y-70404121D01*
X132821505Y-70381066D01*
X132827169Y-70358457D01*
X132835021Y-70336513D01*
X132844986Y-70315443D01*
X132856968Y-70295452D01*
X132870852Y-70276732D01*
X132886504Y-70259462D01*
X132903774Y-70243810D01*
X132922494Y-70229926D01*
X132942485Y-70217944D01*
X132963555Y-70207979D01*
X132985499Y-70200127D01*
X133008108Y-70194463D01*
X133031163Y-70191044D01*
X133054442Y-70189900D01*
X133529442Y-70189900D01*
X133552721Y-70191044D01*
X133552721Y-70191044D01*
G37*
D19*
X133291942Y-70714900D03*
D18*
G36*
X133683350Y-67877044D02*
G01*
X133706405Y-67880463D01*
X133729014Y-67886127D01*
X133750958Y-67893979D01*
X133772028Y-67903944D01*
X133792019Y-67915926D01*
X133810739Y-67929810D01*
X133828009Y-67945462D01*
X133843661Y-67962732D01*
X133857545Y-67981452D01*
X133869527Y-68001443D01*
X133879492Y-68022513D01*
X133887344Y-68044457D01*
X133893008Y-68067066D01*
X133896427Y-68090121D01*
X133897571Y-68113400D01*
X133897571Y-68688400D01*
X133896427Y-68711679D01*
X133893008Y-68734734D01*
X133887344Y-68757343D01*
X133879492Y-68779287D01*
X133869527Y-68800357D01*
X133857545Y-68820348D01*
X133843661Y-68839068D01*
X133828009Y-68856338D01*
X133810739Y-68871990D01*
X133792019Y-68885874D01*
X133772028Y-68897856D01*
X133750958Y-68907821D01*
X133729014Y-68915673D01*
X133706405Y-68921337D01*
X133683350Y-68924756D01*
X133660071Y-68925900D01*
X133185071Y-68925900D01*
X133161792Y-68924756D01*
X133138737Y-68921337D01*
X133116128Y-68915673D01*
X133094184Y-68907821D01*
X133073114Y-68897856D01*
X133053123Y-68885874D01*
X133034403Y-68871990D01*
X133017133Y-68856338D01*
X133001481Y-68839068D01*
X132987597Y-68820348D01*
X132975615Y-68800357D01*
X132965650Y-68779287D01*
X132957798Y-68757343D01*
X132952134Y-68734734D01*
X132948715Y-68711679D01*
X132947571Y-68688400D01*
X132947571Y-68113400D01*
X132948715Y-68090121D01*
X132952134Y-68067066D01*
X132957798Y-68044457D01*
X132965650Y-68022513D01*
X132975615Y-68001443D01*
X132987597Y-67981452D01*
X133001481Y-67962732D01*
X133017133Y-67945462D01*
X133034403Y-67929810D01*
X133053123Y-67915926D01*
X133073114Y-67903944D01*
X133094184Y-67893979D01*
X133116128Y-67886127D01*
X133138737Y-67880463D01*
X133161792Y-67877044D01*
X133185071Y-67875900D01*
X133660071Y-67875900D01*
X133683350Y-67877044D01*
X133683350Y-67877044D01*
G37*
D19*
X133422571Y-68400900D03*
D18*
G36*
X133683350Y-66127044D02*
G01*
X133706405Y-66130463D01*
X133729014Y-66136127D01*
X133750958Y-66143979D01*
X133772028Y-66153944D01*
X133792019Y-66165926D01*
X133810739Y-66179810D01*
X133828009Y-66195462D01*
X133843661Y-66212732D01*
X133857545Y-66231452D01*
X133869527Y-66251443D01*
X133879492Y-66272513D01*
X133887344Y-66294457D01*
X133893008Y-66317066D01*
X133896427Y-66340121D01*
X133897571Y-66363400D01*
X133897571Y-66938400D01*
X133896427Y-66961679D01*
X133893008Y-66984734D01*
X133887344Y-67007343D01*
X133879492Y-67029287D01*
X133869527Y-67050357D01*
X133857545Y-67070348D01*
X133843661Y-67089068D01*
X133828009Y-67106338D01*
X133810739Y-67121990D01*
X133792019Y-67135874D01*
X133772028Y-67147856D01*
X133750958Y-67157821D01*
X133729014Y-67165673D01*
X133706405Y-67171337D01*
X133683350Y-67174756D01*
X133660071Y-67175900D01*
X133185071Y-67175900D01*
X133161792Y-67174756D01*
X133138737Y-67171337D01*
X133116128Y-67165673D01*
X133094184Y-67157821D01*
X133073114Y-67147856D01*
X133053123Y-67135874D01*
X133034403Y-67121990D01*
X133017133Y-67106338D01*
X133001481Y-67089068D01*
X132987597Y-67070348D01*
X132975615Y-67050357D01*
X132965650Y-67029287D01*
X132957798Y-67007343D01*
X132952134Y-66984734D01*
X132948715Y-66961679D01*
X132947571Y-66938400D01*
X132947571Y-66363400D01*
X132948715Y-66340121D01*
X132952134Y-66317066D01*
X132957798Y-66294457D01*
X132965650Y-66272513D01*
X132975615Y-66251443D01*
X132987597Y-66231452D01*
X133001481Y-66212732D01*
X133017133Y-66195462D01*
X133034403Y-66179810D01*
X133053123Y-66165926D01*
X133073114Y-66153944D01*
X133094184Y-66143979D01*
X133116128Y-66136127D01*
X133138737Y-66130463D01*
X133161792Y-66127044D01*
X133185071Y-66125900D01*
X133660071Y-66125900D01*
X133683350Y-66127044D01*
X133683350Y-66127044D01*
G37*
D19*
X133422571Y-66650900D03*
D18*
G36*
X136174363Y-71941044D02*
G01*
X136197418Y-71944463D01*
X136220027Y-71950127D01*
X136241971Y-71957979D01*
X136263041Y-71967944D01*
X136283032Y-71979926D01*
X136301752Y-71993810D01*
X136319022Y-72009462D01*
X136334674Y-72026732D01*
X136348558Y-72045452D01*
X136360540Y-72065443D01*
X136370505Y-72086513D01*
X136378357Y-72108457D01*
X136384021Y-72131066D01*
X136387440Y-72154121D01*
X136388584Y-72177400D01*
X136388584Y-72752400D01*
X136387440Y-72775679D01*
X136384021Y-72798734D01*
X136378357Y-72821343D01*
X136370505Y-72843287D01*
X136360540Y-72864357D01*
X136348558Y-72884348D01*
X136334674Y-72903068D01*
X136319022Y-72920338D01*
X136301752Y-72935990D01*
X136283032Y-72949874D01*
X136263041Y-72961856D01*
X136241971Y-72971821D01*
X136220027Y-72979673D01*
X136197418Y-72985337D01*
X136174363Y-72988756D01*
X136151084Y-72989900D01*
X135676084Y-72989900D01*
X135652805Y-72988756D01*
X135629750Y-72985337D01*
X135607141Y-72979673D01*
X135585197Y-72971821D01*
X135564127Y-72961856D01*
X135544136Y-72949874D01*
X135525416Y-72935990D01*
X135508146Y-72920338D01*
X135492494Y-72903068D01*
X135478610Y-72884348D01*
X135466628Y-72864357D01*
X135456663Y-72843287D01*
X135448811Y-72821343D01*
X135443147Y-72798734D01*
X135439728Y-72775679D01*
X135438584Y-72752400D01*
X135438584Y-72177400D01*
X135439728Y-72154121D01*
X135443147Y-72131066D01*
X135448811Y-72108457D01*
X135456663Y-72086513D01*
X135466628Y-72065443D01*
X135478610Y-72045452D01*
X135492494Y-72026732D01*
X135508146Y-72009462D01*
X135525416Y-71993810D01*
X135544136Y-71979926D01*
X135564127Y-71967944D01*
X135585197Y-71957979D01*
X135607141Y-71950127D01*
X135629750Y-71944463D01*
X135652805Y-71941044D01*
X135676084Y-71939900D01*
X136151084Y-71939900D01*
X136174363Y-71941044D01*
X136174363Y-71941044D01*
G37*
D19*
X135913584Y-72464900D03*
D18*
G36*
X136174363Y-70191044D02*
G01*
X136197418Y-70194463D01*
X136220027Y-70200127D01*
X136241971Y-70207979D01*
X136263041Y-70217944D01*
X136283032Y-70229926D01*
X136301752Y-70243810D01*
X136319022Y-70259462D01*
X136334674Y-70276732D01*
X136348558Y-70295452D01*
X136360540Y-70315443D01*
X136370505Y-70336513D01*
X136378357Y-70358457D01*
X136384021Y-70381066D01*
X136387440Y-70404121D01*
X136388584Y-70427400D01*
X136388584Y-71002400D01*
X136387440Y-71025679D01*
X136384021Y-71048734D01*
X136378357Y-71071343D01*
X136370505Y-71093287D01*
X136360540Y-71114357D01*
X136348558Y-71134348D01*
X136334674Y-71153068D01*
X136319022Y-71170338D01*
X136301752Y-71185990D01*
X136283032Y-71199874D01*
X136263041Y-71211856D01*
X136241971Y-71221821D01*
X136220027Y-71229673D01*
X136197418Y-71235337D01*
X136174363Y-71238756D01*
X136151084Y-71239900D01*
X135676084Y-71239900D01*
X135652805Y-71238756D01*
X135629750Y-71235337D01*
X135607141Y-71229673D01*
X135585197Y-71221821D01*
X135564127Y-71211856D01*
X135544136Y-71199874D01*
X135525416Y-71185990D01*
X135508146Y-71170338D01*
X135492494Y-71153068D01*
X135478610Y-71134348D01*
X135466628Y-71114357D01*
X135456663Y-71093287D01*
X135448811Y-71071343D01*
X135443147Y-71048734D01*
X135439728Y-71025679D01*
X135438584Y-71002400D01*
X135438584Y-70427400D01*
X135439728Y-70404121D01*
X135443147Y-70381066D01*
X135448811Y-70358457D01*
X135456663Y-70336513D01*
X135466628Y-70315443D01*
X135478610Y-70295452D01*
X135492494Y-70276732D01*
X135508146Y-70259462D01*
X135525416Y-70243810D01*
X135544136Y-70229926D01*
X135564127Y-70217944D01*
X135585197Y-70207979D01*
X135607141Y-70200127D01*
X135629750Y-70194463D01*
X135652805Y-70191044D01*
X135676084Y-70189900D01*
X136151084Y-70189900D01*
X136174363Y-70191044D01*
X136174363Y-70191044D01*
G37*
D19*
X135913584Y-70714900D03*
D18*
G36*
X136295921Y-67877044D02*
G01*
X136318976Y-67880463D01*
X136341585Y-67886127D01*
X136363529Y-67893979D01*
X136384599Y-67903944D01*
X136404590Y-67915926D01*
X136423310Y-67929810D01*
X136440580Y-67945462D01*
X136456232Y-67962732D01*
X136470116Y-67981452D01*
X136482098Y-68001443D01*
X136492063Y-68022513D01*
X136499915Y-68044457D01*
X136505579Y-68067066D01*
X136508998Y-68090121D01*
X136510142Y-68113400D01*
X136510142Y-68688400D01*
X136508998Y-68711679D01*
X136505579Y-68734734D01*
X136499915Y-68757343D01*
X136492063Y-68779287D01*
X136482098Y-68800357D01*
X136470116Y-68820348D01*
X136456232Y-68839068D01*
X136440580Y-68856338D01*
X136423310Y-68871990D01*
X136404590Y-68885874D01*
X136384599Y-68897856D01*
X136363529Y-68907821D01*
X136341585Y-68915673D01*
X136318976Y-68921337D01*
X136295921Y-68924756D01*
X136272642Y-68925900D01*
X135797642Y-68925900D01*
X135774363Y-68924756D01*
X135751308Y-68921337D01*
X135728699Y-68915673D01*
X135706755Y-68907821D01*
X135685685Y-68897856D01*
X135665694Y-68885874D01*
X135646974Y-68871990D01*
X135629704Y-68856338D01*
X135614052Y-68839068D01*
X135600168Y-68820348D01*
X135588186Y-68800357D01*
X135578221Y-68779287D01*
X135570369Y-68757343D01*
X135564705Y-68734734D01*
X135561286Y-68711679D01*
X135560142Y-68688400D01*
X135560142Y-68113400D01*
X135561286Y-68090121D01*
X135564705Y-68067066D01*
X135570369Y-68044457D01*
X135578221Y-68022513D01*
X135588186Y-68001443D01*
X135600168Y-67981452D01*
X135614052Y-67962732D01*
X135629704Y-67945462D01*
X135646974Y-67929810D01*
X135665694Y-67915926D01*
X135685685Y-67903944D01*
X135706755Y-67893979D01*
X135728699Y-67886127D01*
X135751308Y-67880463D01*
X135774363Y-67877044D01*
X135797642Y-67875900D01*
X136272642Y-67875900D01*
X136295921Y-67877044D01*
X136295921Y-67877044D01*
G37*
D19*
X136035142Y-68400900D03*
D18*
G36*
X136295921Y-66127044D02*
G01*
X136318976Y-66130463D01*
X136341585Y-66136127D01*
X136363529Y-66143979D01*
X136384599Y-66153944D01*
X136404590Y-66165926D01*
X136423310Y-66179810D01*
X136440580Y-66195462D01*
X136456232Y-66212732D01*
X136470116Y-66231452D01*
X136482098Y-66251443D01*
X136492063Y-66272513D01*
X136499915Y-66294457D01*
X136505579Y-66317066D01*
X136508998Y-66340121D01*
X136510142Y-66363400D01*
X136510142Y-66938400D01*
X136508998Y-66961679D01*
X136505579Y-66984734D01*
X136499915Y-67007343D01*
X136492063Y-67029287D01*
X136482098Y-67050357D01*
X136470116Y-67070348D01*
X136456232Y-67089068D01*
X136440580Y-67106338D01*
X136423310Y-67121990D01*
X136404590Y-67135874D01*
X136384599Y-67147856D01*
X136363529Y-67157821D01*
X136341585Y-67165673D01*
X136318976Y-67171337D01*
X136295921Y-67174756D01*
X136272642Y-67175900D01*
X135797642Y-67175900D01*
X135774363Y-67174756D01*
X135751308Y-67171337D01*
X135728699Y-67165673D01*
X135706755Y-67157821D01*
X135685685Y-67147856D01*
X135665694Y-67135874D01*
X135646974Y-67121990D01*
X135629704Y-67106338D01*
X135614052Y-67089068D01*
X135600168Y-67070348D01*
X135588186Y-67050357D01*
X135578221Y-67029287D01*
X135570369Y-67007343D01*
X135564705Y-66984734D01*
X135561286Y-66961679D01*
X135560142Y-66938400D01*
X135560142Y-66363400D01*
X135561286Y-66340121D01*
X135564705Y-66317066D01*
X135570369Y-66294457D01*
X135578221Y-66272513D01*
X135588186Y-66251443D01*
X135600168Y-66231452D01*
X135614052Y-66212732D01*
X135629704Y-66195462D01*
X135646974Y-66179810D01*
X135665694Y-66165926D01*
X135685685Y-66153944D01*
X135706755Y-66143979D01*
X135728699Y-66136127D01*
X135751308Y-66130463D01*
X135774363Y-66127044D01*
X135797642Y-66125900D01*
X136272642Y-66125900D01*
X136295921Y-66127044D01*
X136295921Y-66127044D01*
G37*
D19*
X136035142Y-66650900D03*
D18*
G36*
X138796005Y-71941044D02*
G01*
X138819060Y-71944463D01*
X138841669Y-71950127D01*
X138863613Y-71957979D01*
X138884683Y-71967944D01*
X138904674Y-71979926D01*
X138923394Y-71993810D01*
X138940664Y-72009462D01*
X138956316Y-72026732D01*
X138970200Y-72045452D01*
X138982182Y-72065443D01*
X138992147Y-72086513D01*
X138999999Y-72108457D01*
X139005663Y-72131066D01*
X139009082Y-72154121D01*
X139010226Y-72177400D01*
X139010226Y-72752400D01*
X139009082Y-72775679D01*
X139005663Y-72798734D01*
X138999999Y-72821343D01*
X138992147Y-72843287D01*
X138982182Y-72864357D01*
X138970200Y-72884348D01*
X138956316Y-72903068D01*
X138940664Y-72920338D01*
X138923394Y-72935990D01*
X138904674Y-72949874D01*
X138884683Y-72961856D01*
X138863613Y-72971821D01*
X138841669Y-72979673D01*
X138819060Y-72985337D01*
X138796005Y-72988756D01*
X138772726Y-72989900D01*
X138297726Y-72989900D01*
X138274447Y-72988756D01*
X138251392Y-72985337D01*
X138228783Y-72979673D01*
X138206839Y-72971821D01*
X138185769Y-72961856D01*
X138165778Y-72949874D01*
X138147058Y-72935990D01*
X138129788Y-72920338D01*
X138114136Y-72903068D01*
X138100252Y-72884348D01*
X138088270Y-72864357D01*
X138078305Y-72843287D01*
X138070453Y-72821343D01*
X138064789Y-72798734D01*
X138061370Y-72775679D01*
X138060226Y-72752400D01*
X138060226Y-72177400D01*
X138061370Y-72154121D01*
X138064789Y-72131066D01*
X138070453Y-72108457D01*
X138078305Y-72086513D01*
X138088270Y-72065443D01*
X138100252Y-72045452D01*
X138114136Y-72026732D01*
X138129788Y-72009462D01*
X138147058Y-71993810D01*
X138165778Y-71979926D01*
X138185769Y-71967944D01*
X138206839Y-71957979D01*
X138228783Y-71950127D01*
X138251392Y-71944463D01*
X138274447Y-71941044D01*
X138297726Y-71939900D01*
X138772726Y-71939900D01*
X138796005Y-71941044D01*
X138796005Y-71941044D01*
G37*
D19*
X138535226Y-72464900D03*
D18*
G36*
X138796005Y-70191044D02*
G01*
X138819060Y-70194463D01*
X138841669Y-70200127D01*
X138863613Y-70207979D01*
X138884683Y-70217944D01*
X138904674Y-70229926D01*
X138923394Y-70243810D01*
X138940664Y-70259462D01*
X138956316Y-70276732D01*
X138970200Y-70295452D01*
X138982182Y-70315443D01*
X138992147Y-70336513D01*
X138999999Y-70358457D01*
X139005663Y-70381066D01*
X139009082Y-70404121D01*
X139010226Y-70427400D01*
X139010226Y-71002400D01*
X139009082Y-71025679D01*
X139005663Y-71048734D01*
X138999999Y-71071343D01*
X138992147Y-71093287D01*
X138982182Y-71114357D01*
X138970200Y-71134348D01*
X138956316Y-71153068D01*
X138940664Y-71170338D01*
X138923394Y-71185990D01*
X138904674Y-71199874D01*
X138884683Y-71211856D01*
X138863613Y-71221821D01*
X138841669Y-71229673D01*
X138819060Y-71235337D01*
X138796005Y-71238756D01*
X138772726Y-71239900D01*
X138297726Y-71239900D01*
X138274447Y-71238756D01*
X138251392Y-71235337D01*
X138228783Y-71229673D01*
X138206839Y-71221821D01*
X138185769Y-71211856D01*
X138165778Y-71199874D01*
X138147058Y-71185990D01*
X138129788Y-71170338D01*
X138114136Y-71153068D01*
X138100252Y-71134348D01*
X138088270Y-71114357D01*
X138078305Y-71093287D01*
X138070453Y-71071343D01*
X138064789Y-71048734D01*
X138061370Y-71025679D01*
X138060226Y-71002400D01*
X138060226Y-70427400D01*
X138061370Y-70404121D01*
X138064789Y-70381066D01*
X138070453Y-70358457D01*
X138078305Y-70336513D01*
X138088270Y-70315443D01*
X138100252Y-70295452D01*
X138114136Y-70276732D01*
X138129788Y-70259462D01*
X138147058Y-70243810D01*
X138165778Y-70229926D01*
X138185769Y-70217944D01*
X138206839Y-70207979D01*
X138228783Y-70200127D01*
X138251392Y-70194463D01*
X138274447Y-70191044D01*
X138297726Y-70189900D01*
X138772726Y-70189900D01*
X138796005Y-70191044D01*
X138796005Y-70191044D01*
G37*
D19*
X138535226Y-70714900D03*
D18*
G36*
X138908492Y-67877044D02*
G01*
X138931547Y-67880463D01*
X138954156Y-67886127D01*
X138976100Y-67893979D01*
X138997170Y-67903944D01*
X139017161Y-67915926D01*
X139035881Y-67929810D01*
X139053151Y-67945462D01*
X139068803Y-67962732D01*
X139082687Y-67981452D01*
X139094669Y-68001443D01*
X139104634Y-68022513D01*
X139112486Y-68044457D01*
X139118150Y-68067066D01*
X139121569Y-68090121D01*
X139122713Y-68113400D01*
X139122713Y-68688400D01*
X139121569Y-68711679D01*
X139118150Y-68734734D01*
X139112486Y-68757343D01*
X139104634Y-68779287D01*
X139094669Y-68800357D01*
X139082687Y-68820348D01*
X139068803Y-68839068D01*
X139053151Y-68856338D01*
X139035881Y-68871990D01*
X139017161Y-68885874D01*
X138997170Y-68897856D01*
X138976100Y-68907821D01*
X138954156Y-68915673D01*
X138931547Y-68921337D01*
X138908492Y-68924756D01*
X138885213Y-68925900D01*
X138410213Y-68925900D01*
X138386934Y-68924756D01*
X138363879Y-68921337D01*
X138341270Y-68915673D01*
X138319326Y-68907821D01*
X138298256Y-68897856D01*
X138278265Y-68885874D01*
X138259545Y-68871990D01*
X138242275Y-68856338D01*
X138226623Y-68839068D01*
X138212739Y-68820348D01*
X138200757Y-68800357D01*
X138190792Y-68779287D01*
X138182940Y-68757343D01*
X138177276Y-68734734D01*
X138173857Y-68711679D01*
X138172713Y-68688400D01*
X138172713Y-68113400D01*
X138173857Y-68090121D01*
X138177276Y-68067066D01*
X138182940Y-68044457D01*
X138190792Y-68022513D01*
X138200757Y-68001443D01*
X138212739Y-67981452D01*
X138226623Y-67962732D01*
X138242275Y-67945462D01*
X138259545Y-67929810D01*
X138278265Y-67915926D01*
X138298256Y-67903944D01*
X138319326Y-67893979D01*
X138341270Y-67886127D01*
X138363879Y-67880463D01*
X138386934Y-67877044D01*
X138410213Y-67875900D01*
X138885213Y-67875900D01*
X138908492Y-67877044D01*
X138908492Y-67877044D01*
G37*
D19*
X138647713Y-68400900D03*
D18*
G36*
X138908492Y-66127044D02*
G01*
X138931547Y-66130463D01*
X138954156Y-66136127D01*
X138976100Y-66143979D01*
X138997170Y-66153944D01*
X139017161Y-66165926D01*
X139035881Y-66179810D01*
X139053151Y-66195462D01*
X139068803Y-66212732D01*
X139082687Y-66231452D01*
X139094669Y-66251443D01*
X139104634Y-66272513D01*
X139112486Y-66294457D01*
X139118150Y-66317066D01*
X139121569Y-66340121D01*
X139122713Y-66363400D01*
X139122713Y-66938400D01*
X139121569Y-66961679D01*
X139118150Y-66984734D01*
X139112486Y-67007343D01*
X139104634Y-67029287D01*
X139094669Y-67050357D01*
X139082687Y-67070348D01*
X139068803Y-67089068D01*
X139053151Y-67106338D01*
X139035881Y-67121990D01*
X139017161Y-67135874D01*
X138997170Y-67147856D01*
X138976100Y-67157821D01*
X138954156Y-67165673D01*
X138931547Y-67171337D01*
X138908492Y-67174756D01*
X138885213Y-67175900D01*
X138410213Y-67175900D01*
X138386934Y-67174756D01*
X138363879Y-67171337D01*
X138341270Y-67165673D01*
X138319326Y-67157821D01*
X138298256Y-67147856D01*
X138278265Y-67135874D01*
X138259545Y-67121990D01*
X138242275Y-67106338D01*
X138226623Y-67089068D01*
X138212739Y-67070348D01*
X138200757Y-67050357D01*
X138190792Y-67029287D01*
X138182940Y-67007343D01*
X138177276Y-66984734D01*
X138173857Y-66961679D01*
X138172713Y-66938400D01*
X138172713Y-66363400D01*
X138173857Y-66340121D01*
X138177276Y-66317066D01*
X138182940Y-66294457D01*
X138190792Y-66272513D01*
X138200757Y-66251443D01*
X138212739Y-66231452D01*
X138226623Y-66212732D01*
X138242275Y-66195462D01*
X138259545Y-66179810D01*
X138278265Y-66165926D01*
X138298256Y-66153944D01*
X138319326Y-66143979D01*
X138341270Y-66136127D01*
X138363879Y-66130463D01*
X138386934Y-66127044D01*
X138410213Y-66125900D01*
X138885213Y-66125900D01*
X138908492Y-66127044D01*
X138908492Y-66127044D01*
G37*
D19*
X138647713Y-66650900D03*
D18*
G36*
X141417647Y-71941044D02*
G01*
X141440702Y-71944463D01*
X141463311Y-71950127D01*
X141485255Y-71957979D01*
X141506325Y-71967944D01*
X141526316Y-71979926D01*
X141545036Y-71993810D01*
X141562306Y-72009462D01*
X141577958Y-72026732D01*
X141591842Y-72045452D01*
X141603824Y-72065443D01*
X141613789Y-72086513D01*
X141621641Y-72108457D01*
X141627305Y-72131066D01*
X141630724Y-72154121D01*
X141631868Y-72177400D01*
X141631868Y-72752400D01*
X141630724Y-72775679D01*
X141627305Y-72798734D01*
X141621641Y-72821343D01*
X141613789Y-72843287D01*
X141603824Y-72864357D01*
X141591842Y-72884348D01*
X141577958Y-72903068D01*
X141562306Y-72920338D01*
X141545036Y-72935990D01*
X141526316Y-72949874D01*
X141506325Y-72961856D01*
X141485255Y-72971821D01*
X141463311Y-72979673D01*
X141440702Y-72985337D01*
X141417647Y-72988756D01*
X141394368Y-72989900D01*
X140919368Y-72989900D01*
X140896089Y-72988756D01*
X140873034Y-72985337D01*
X140850425Y-72979673D01*
X140828481Y-72971821D01*
X140807411Y-72961856D01*
X140787420Y-72949874D01*
X140768700Y-72935990D01*
X140751430Y-72920338D01*
X140735778Y-72903068D01*
X140721894Y-72884348D01*
X140709912Y-72864357D01*
X140699947Y-72843287D01*
X140692095Y-72821343D01*
X140686431Y-72798734D01*
X140683012Y-72775679D01*
X140681868Y-72752400D01*
X140681868Y-72177400D01*
X140683012Y-72154121D01*
X140686431Y-72131066D01*
X140692095Y-72108457D01*
X140699947Y-72086513D01*
X140709912Y-72065443D01*
X140721894Y-72045452D01*
X140735778Y-72026732D01*
X140751430Y-72009462D01*
X140768700Y-71993810D01*
X140787420Y-71979926D01*
X140807411Y-71967944D01*
X140828481Y-71957979D01*
X140850425Y-71950127D01*
X140873034Y-71944463D01*
X140896089Y-71941044D01*
X140919368Y-71939900D01*
X141394368Y-71939900D01*
X141417647Y-71941044D01*
X141417647Y-71941044D01*
G37*
D19*
X141156868Y-72464900D03*
D18*
G36*
X141417647Y-70191044D02*
G01*
X141440702Y-70194463D01*
X141463311Y-70200127D01*
X141485255Y-70207979D01*
X141506325Y-70217944D01*
X141526316Y-70229926D01*
X141545036Y-70243810D01*
X141562306Y-70259462D01*
X141577958Y-70276732D01*
X141591842Y-70295452D01*
X141603824Y-70315443D01*
X141613789Y-70336513D01*
X141621641Y-70358457D01*
X141627305Y-70381066D01*
X141630724Y-70404121D01*
X141631868Y-70427400D01*
X141631868Y-71002400D01*
X141630724Y-71025679D01*
X141627305Y-71048734D01*
X141621641Y-71071343D01*
X141613789Y-71093287D01*
X141603824Y-71114357D01*
X141591842Y-71134348D01*
X141577958Y-71153068D01*
X141562306Y-71170338D01*
X141545036Y-71185990D01*
X141526316Y-71199874D01*
X141506325Y-71211856D01*
X141485255Y-71221821D01*
X141463311Y-71229673D01*
X141440702Y-71235337D01*
X141417647Y-71238756D01*
X141394368Y-71239900D01*
X140919368Y-71239900D01*
X140896089Y-71238756D01*
X140873034Y-71235337D01*
X140850425Y-71229673D01*
X140828481Y-71221821D01*
X140807411Y-71211856D01*
X140787420Y-71199874D01*
X140768700Y-71185990D01*
X140751430Y-71170338D01*
X140735778Y-71153068D01*
X140721894Y-71134348D01*
X140709912Y-71114357D01*
X140699947Y-71093287D01*
X140692095Y-71071343D01*
X140686431Y-71048734D01*
X140683012Y-71025679D01*
X140681868Y-71002400D01*
X140681868Y-70427400D01*
X140683012Y-70404121D01*
X140686431Y-70381066D01*
X140692095Y-70358457D01*
X140699947Y-70336513D01*
X140709912Y-70315443D01*
X140721894Y-70295452D01*
X140735778Y-70276732D01*
X140751430Y-70259462D01*
X140768700Y-70243810D01*
X140787420Y-70229926D01*
X140807411Y-70217944D01*
X140828481Y-70207979D01*
X140850425Y-70200127D01*
X140873034Y-70194463D01*
X140896089Y-70191044D01*
X140919368Y-70189900D01*
X141394368Y-70189900D01*
X141417647Y-70191044D01*
X141417647Y-70191044D01*
G37*
D19*
X141156868Y-70714900D03*
D18*
G36*
X141521063Y-67877044D02*
G01*
X141544118Y-67880463D01*
X141566727Y-67886127D01*
X141588671Y-67893979D01*
X141609741Y-67903944D01*
X141629732Y-67915926D01*
X141648452Y-67929810D01*
X141665722Y-67945462D01*
X141681374Y-67962732D01*
X141695258Y-67981452D01*
X141707240Y-68001443D01*
X141717205Y-68022513D01*
X141725057Y-68044457D01*
X141730721Y-68067066D01*
X141734140Y-68090121D01*
X141735284Y-68113400D01*
X141735284Y-68688400D01*
X141734140Y-68711679D01*
X141730721Y-68734734D01*
X141725057Y-68757343D01*
X141717205Y-68779287D01*
X141707240Y-68800357D01*
X141695258Y-68820348D01*
X141681374Y-68839068D01*
X141665722Y-68856338D01*
X141648452Y-68871990D01*
X141629732Y-68885874D01*
X141609741Y-68897856D01*
X141588671Y-68907821D01*
X141566727Y-68915673D01*
X141544118Y-68921337D01*
X141521063Y-68924756D01*
X141497784Y-68925900D01*
X141022784Y-68925900D01*
X140999505Y-68924756D01*
X140976450Y-68921337D01*
X140953841Y-68915673D01*
X140931897Y-68907821D01*
X140910827Y-68897856D01*
X140890836Y-68885874D01*
X140872116Y-68871990D01*
X140854846Y-68856338D01*
X140839194Y-68839068D01*
X140825310Y-68820348D01*
X140813328Y-68800357D01*
X140803363Y-68779287D01*
X140795511Y-68757343D01*
X140789847Y-68734734D01*
X140786428Y-68711679D01*
X140785284Y-68688400D01*
X140785284Y-68113400D01*
X140786428Y-68090121D01*
X140789847Y-68067066D01*
X140795511Y-68044457D01*
X140803363Y-68022513D01*
X140813328Y-68001443D01*
X140825310Y-67981452D01*
X140839194Y-67962732D01*
X140854846Y-67945462D01*
X140872116Y-67929810D01*
X140890836Y-67915926D01*
X140910827Y-67903944D01*
X140931897Y-67893979D01*
X140953841Y-67886127D01*
X140976450Y-67880463D01*
X140999505Y-67877044D01*
X141022784Y-67875900D01*
X141497784Y-67875900D01*
X141521063Y-67877044D01*
X141521063Y-67877044D01*
G37*
D19*
X141260284Y-68400900D03*
D18*
G36*
X141521063Y-66127044D02*
G01*
X141544118Y-66130463D01*
X141566727Y-66136127D01*
X141588671Y-66143979D01*
X141609741Y-66153944D01*
X141629732Y-66165926D01*
X141648452Y-66179810D01*
X141665722Y-66195462D01*
X141681374Y-66212732D01*
X141695258Y-66231452D01*
X141707240Y-66251443D01*
X141717205Y-66272513D01*
X141725057Y-66294457D01*
X141730721Y-66317066D01*
X141734140Y-66340121D01*
X141735284Y-66363400D01*
X141735284Y-66938400D01*
X141734140Y-66961679D01*
X141730721Y-66984734D01*
X141725057Y-67007343D01*
X141717205Y-67029287D01*
X141707240Y-67050357D01*
X141695258Y-67070348D01*
X141681374Y-67089068D01*
X141665722Y-67106338D01*
X141648452Y-67121990D01*
X141629732Y-67135874D01*
X141609741Y-67147856D01*
X141588671Y-67157821D01*
X141566727Y-67165673D01*
X141544118Y-67171337D01*
X141521063Y-67174756D01*
X141497784Y-67175900D01*
X141022784Y-67175900D01*
X140999505Y-67174756D01*
X140976450Y-67171337D01*
X140953841Y-67165673D01*
X140931897Y-67157821D01*
X140910827Y-67147856D01*
X140890836Y-67135874D01*
X140872116Y-67121990D01*
X140854846Y-67106338D01*
X140839194Y-67089068D01*
X140825310Y-67070348D01*
X140813328Y-67050357D01*
X140803363Y-67029287D01*
X140795511Y-67007343D01*
X140789847Y-66984734D01*
X140786428Y-66961679D01*
X140785284Y-66938400D01*
X140785284Y-66363400D01*
X140786428Y-66340121D01*
X140789847Y-66317066D01*
X140795511Y-66294457D01*
X140803363Y-66272513D01*
X140813328Y-66251443D01*
X140825310Y-66231452D01*
X140839194Y-66212732D01*
X140854846Y-66195462D01*
X140872116Y-66179810D01*
X140890836Y-66165926D01*
X140910827Y-66153944D01*
X140931897Y-66143979D01*
X140953841Y-66136127D01*
X140976450Y-66130463D01*
X140999505Y-66127044D01*
X141022784Y-66125900D01*
X141497784Y-66125900D01*
X141521063Y-66127044D01*
X141521063Y-66127044D01*
G37*
D19*
X141260284Y-66650900D03*
D18*
G36*
X144039289Y-71941044D02*
G01*
X144062344Y-71944463D01*
X144084953Y-71950127D01*
X144106897Y-71957979D01*
X144127967Y-71967944D01*
X144147958Y-71979926D01*
X144166678Y-71993810D01*
X144183948Y-72009462D01*
X144199600Y-72026732D01*
X144213484Y-72045452D01*
X144225466Y-72065443D01*
X144235431Y-72086513D01*
X144243283Y-72108457D01*
X144248947Y-72131066D01*
X144252366Y-72154121D01*
X144253510Y-72177400D01*
X144253510Y-72752400D01*
X144252366Y-72775679D01*
X144248947Y-72798734D01*
X144243283Y-72821343D01*
X144235431Y-72843287D01*
X144225466Y-72864357D01*
X144213484Y-72884348D01*
X144199600Y-72903068D01*
X144183948Y-72920338D01*
X144166678Y-72935990D01*
X144147958Y-72949874D01*
X144127967Y-72961856D01*
X144106897Y-72971821D01*
X144084953Y-72979673D01*
X144062344Y-72985337D01*
X144039289Y-72988756D01*
X144016010Y-72989900D01*
X143541010Y-72989900D01*
X143517731Y-72988756D01*
X143494676Y-72985337D01*
X143472067Y-72979673D01*
X143450123Y-72971821D01*
X143429053Y-72961856D01*
X143409062Y-72949874D01*
X143390342Y-72935990D01*
X143373072Y-72920338D01*
X143357420Y-72903068D01*
X143343536Y-72884348D01*
X143331554Y-72864357D01*
X143321589Y-72843287D01*
X143313737Y-72821343D01*
X143308073Y-72798734D01*
X143304654Y-72775679D01*
X143303510Y-72752400D01*
X143303510Y-72177400D01*
X143304654Y-72154121D01*
X143308073Y-72131066D01*
X143313737Y-72108457D01*
X143321589Y-72086513D01*
X143331554Y-72065443D01*
X143343536Y-72045452D01*
X143357420Y-72026732D01*
X143373072Y-72009462D01*
X143390342Y-71993810D01*
X143409062Y-71979926D01*
X143429053Y-71967944D01*
X143450123Y-71957979D01*
X143472067Y-71950127D01*
X143494676Y-71944463D01*
X143517731Y-71941044D01*
X143541010Y-71939900D01*
X144016010Y-71939900D01*
X144039289Y-71941044D01*
X144039289Y-71941044D01*
G37*
D19*
X143778510Y-72464900D03*
D18*
G36*
X144039289Y-70191044D02*
G01*
X144062344Y-70194463D01*
X144084953Y-70200127D01*
X144106897Y-70207979D01*
X144127967Y-70217944D01*
X144147958Y-70229926D01*
X144166678Y-70243810D01*
X144183948Y-70259462D01*
X144199600Y-70276732D01*
X144213484Y-70295452D01*
X144225466Y-70315443D01*
X144235431Y-70336513D01*
X144243283Y-70358457D01*
X144248947Y-70381066D01*
X144252366Y-70404121D01*
X144253510Y-70427400D01*
X144253510Y-71002400D01*
X144252366Y-71025679D01*
X144248947Y-71048734D01*
X144243283Y-71071343D01*
X144235431Y-71093287D01*
X144225466Y-71114357D01*
X144213484Y-71134348D01*
X144199600Y-71153068D01*
X144183948Y-71170338D01*
X144166678Y-71185990D01*
X144147958Y-71199874D01*
X144127967Y-71211856D01*
X144106897Y-71221821D01*
X144084953Y-71229673D01*
X144062344Y-71235337D01*
X144039289Y-71238756D01*
X144016010Y-71239900D01*
X143541010Y-71239900D01*
X143517731Y-71238756D01*
X143494676Y-71235337D01*
X143472067Y-71229673D01*
X143450123Y-71221821D01*
X143429053Y-71211856D01*
X143409062Y-71199874D01*
X143390342Y-71185990D01*
X143373072Y-71170338D01*
X143357420Y-71153068D01*
X143343536Y-71134348D01*
X143331554Y-71114357D01*
X143321589Y-71093287D01*
X143313737Y-71071343D01*
X143308073Y-71048734D01*
X143304654Y-71025679D01*
X143303510Y-71002400D01*
X143303510Y-70427400D01*
X143304654Y-70404121D01*
X143308073Y-70381066D01*
X143313737Y-70358457D01*
X143321589Y-70336513D01*
X143331554Y-70315443D01*
X143343536Y-70295452D01*
X143357420Y-70276732D01*
X143373072Y-70259462D01*
X143390342Y-70243810D01*
X143409062Y-70229926D01*
X143429053Y-70217944D01*
X143450123Y-70207979D01*
X143472067Y-70200127D01*
X143494676Y-70194463D01*
X143517731Y-70191044D01*
X143541010Y-70189900D01*
X144016010Y-70189900D01*
X144039289Y-70191044D01*
X144039289Y-70191044D01*
G37*
D19*
X143778510Y-70714900D03*
D18*
G36*
X144133634Y-67877044D02*
G01*
X144156689Y-67880463D01*
X144179298Y-67886127D01*
X144201242Y-67893979D01*
X144222312Y-67903944D01*
X144242303Y-67915926D01*
X144261023Y-67929810D01*
X144278293Y-67945462D01*
X144293945Y-67962732D01*
X144307829Y-67981452D01*
X144319811Y-68001443D01*
X144329776Y-68022513D01*
X144337628Y-68044457D01*
X144343292Y-68067066D01*
X144346711Y-68090121D01*
X144347855Y-68113400D01*
X144347855Y-68688400D01*
X144346711Y-68711679D01*
X144343292Y-68734734D01*
X144337628Y-68757343D01*
X144329776Y-68779287D01*
X144319811Y-68800357D01*
X144307829Y-68820348D01*
X144293945Y-68839068D01*
X144278293Y-68856338D01*
X144261023Y-68871990D01*
X144242303Y-68885874D01*
X144222312Y-68897856D01*
X144201242Y-68907821D01*
X144179298Y-68915673D01*
X144156689Y-68921337D01*
X144133634Y-68924756D01*
X144110355Y-68925900D01*
X143635355Y-68925900D01*
X143612076Y-68924756D01*
X143589021Y-68921337D01*
X143566412Y-68915673D01*
X143544468Y-68907821D01*
X143523398Y-68897856D01*
X143503407Y-68885874D01*
X143484687Y-68871990D01*
X143467417Y-68856338D01*
X143451765Y-68839068D01*
X143437881Y-68820348D01*
X143425899Y-68800357D01*
X143415934Y-68779287D01*
X143408082Y-68757343D01*
X143402418Y-68734734D01*
X143398999Y-68711679D01*
X143397855Y-68688400D01*
X143397855Y-68113400D01*
X143398999Y-68090121D01*
X143402418Y-68067066D01*
X143408082Y-68044457D01*
X143415934Y-68022513D01*
X143425899Y-68001443D01*
X143437881Y-67981452D01*
X143451765Y-67962732D01*
X143467417Y-67945462D01*
X143484687Y-67929810D01*
X143503407Y-67915926D01*
X143523398Y-67903944D01*
X143544468Y-67893979D01*
X143566412Y-67886127D01*
X143589021Y-67880463D01*
X143612076Y-67877044D01*
X143635355Y-67875900D01*
X144110355Y-67875900D01*
X144133634Y-67877044D01*
X144133634Y-67877044D01*
G37*
D19*
X143872855Y-68400900D03*
D18*
G36*
X144133634Y-66127044D02*
G01*
X144156689Y-66130463D01*
X144179298Y-66136127D01*
X144201242Y-66143979D01*
X144222312Y-66153944D01*
X144242303Y-66165926D01*
X144261023Y-66179810D01*
X144278293Y-66195462D01*
X144293945Y-66212732D01*
X144307829Y-66231452D01*
X144319811Y-66251443D01*
X144329776Y-66272513D01*
X144337628Y-66294457D01*
X144343292Y-66317066D01*
X144346711Y-66340121D01*
X144347855Y-66363400D01*
X144347855Y-66938400D01*
X144346711Y-66961679D01*
X144343292Y-66984734D01*
X144337628Y-67007343D01*
X144329776Y-67029287D01*
X144319811Y-67050357D01*
X144307829Y-67070348D01*
X144293945Y-67089068D01*
X144278293Y-67106338D01*
X144261023Y-67121990D01*
X144242303Y-67135874D01*
X144222312Y-67147856D01*
X144201242Y-67157821D01*
X144179298Y-67165673D01*
X144156689Y-67171337D01*
X144133634Y-67174756D01*
X144110355Y-67175900D01*
X143635355Y-67175900D01*
X143612076Y-67174756D01*
X143589021Y-67171337D01*
X143566412Y-67165673D01*
X143544468Y-67157821D01*
X143523398Y-67147856D01*
X143503407Y-67135874D01*
X143484687Y-67121990D01*
X143467417Y-67106338D01*
X143451765Y-67089068D01*
X143437881Y-67070348D01*
X143425899Y-67050357D01*
X143415934Y-67029287D01*
X143408082Y-67007343D01*
X143402418Y-66984734D01*
X143398999Y-66961679D01*
X143397855Y-66938400D01*
X143397855Y-66363400D01*
X143398999Y-66340121D01*
X143402418Y-66317066D01*
X143408082Y-66294457D01*
X143415934Y-66272513D01*
X143425899Y-66251443D01*
X143437881Y-66231452D01*
X143451765Y-66212732D01*
X143467417Y-66195462D01*
X143484687Y-66179810D01*
X143503407Y-66165926D01*
X143523398Y-66153944D01*
X143544468Y-66143979D01*
X143566412Y-66136127D01*
X143589021Y-66130463D01*
X143612076Y-66127044D01*
X143635355Y-66125900D01*
X144110355Y-66125900D01*
X144133634Y-66127044D01*
X144133634Y-66127044D01*
G37*
D19*
X143872855Y-66650900D03*
D18*
G36*
X146660931Y-71941044D02*
G01*
X146683986Y-71944463D01*
X146706595Y-71950127D01*
X146728539Y-71957979D01*
X146749609Y-71967944D01*
X146769600Y-71979926D01*
X146788320Y-71993810D01*
X146805590Y-72009462D01*
X146821242Y-72026732D01*
X146835126Y-72045452D01*
X146847108Y-72065443D01*
X146857073Y-72086513D01*
X146864925Y-72108457D01*
X146870589Y-72131066D01*
X146874008Y-72154121D01*
X146875152Y-72177400D01*
X146875152Y-72752400D01*
X146874008Y-72775679D01*
X146870589Y-72798734D01*
X146864925Y-72821343D01*
X146857073Y-72843287D01*
X146847108Y-72864357D01*
X146835126Y-72884348D01*
X146821242Y-72903068D01*
X146805590Y-72920338D01*
X146788320Y-72935990D01*
X146769600Y-72949874D01*
X146749609Y-72961856D01*
X146728539Y-72971821D01*
X146706595Y-72979673D01*
X146683986Y-72985337D01*
X146660931Y-72988756D01*
X146637652Y-72989900D01*
X146162652Y-72989900D01*
X146139373Y-72988756D01*
X146116318Y-72985337D01*
X146093709Y-72979673D01*
X146071765Y-72971821D01*
X146050695Y-72961856D01*
X146030704Y-72949874D01*
X146011984Y-72935990D01*
X145994714Y-72920338D01*
X145979062Y-72903068D01*
X145965178Y-72884348D01*
X145953196Y-72864357D01*
X145943231Y-72843287D01*
X145935379Y-72821343D01*
X145929715Y-72798734D01*
X145926296Y-72775679D01*
X145925152Y-72752400D01*
X145925152Y-72177400D01*
X145926296Y-72154121D01*
X145929715Y-72131066D01*
X145935379Y-72108457D01*
X145943231Y-72086513D01*
X145953196Y-72065443D01*
X145965178Y-72045452D01*
X145979062Y-72026732D01*
X145994714Y-72009462D01*
X146011984Y-71993810D01*
X146030704Y-71979926D01*
X146050695Y-71967944D01*
X146071765Y-71957979D01*
X146093709Y-71950127D01*
X146116318Y-71944463D01*
X146139373Y-71941044D01*
X146162652Y-71939900D01*
X146637652Y-71939900D01*
X146660931Y-71941044D01*
X146660931Y-71941044D01*
G37*
D19*
X146400152Y-72464900D03*
D18*
G36*
X146660931Y-70191044D02*
G01*
X146683986Y-70194463D01*
X146706595Y-70200127D01*
X146728539Y-70207979D01*
X146749609Y-70217944D01*
X146769600Y-70229926D01*
X146788320Y-70243810D01*
X146805590Y-70259462D01*
X146821242Y-70276732D01*
X146835126Y-70295452D01*
X146847108Y-70315443D01*
X146857073Y-70336513D01*
X146864925Y-70358457D01*
X146870589Y-70381066D01*
X146874008Y-70404121D01*
X146875152Y-70427400D01*
X146875152Y-71002400D01*
X146874008Y-71025679D01*
X146870589Y-71048734D01*
X146864925Y-71071343D01*
X146857073Y-71093287D01*
X146847108Y-71114357D01*
X146835126Y-71134348D01*
X146821242Y-71153068D01*
X146805590Y-71170338D01*
X146788320Y-71185990D01*
X146769600Y-71199874D01*
X146749609Y-71211856D01*
X146728539Y-71221821D01*
X146706595Y-71229673D01*
X146683986Y-71235337D01*
X146660931Y-71238756D01*
X146637652Y-71239900D01*
X146162652Y-71239900D01*
X146139373Y-71238756D01*
X146116318Y-71235337D01*
X146093709Y-71229673D01*
X146071765Y-71221821D01*
X146050695Y-71211856D01*
X146030704Y-71199874D01*
X146011984Y-71185990D01*
X145994714Y-71170338D01*
X145979062Y-71153068D01*
X145965178Y-71134348D01*
X145953196Y-71114357D01*
X145943231Y-71093287D01*
X145935379Y-71071343D01*
X145929715Y-71048734D01*
X145926296Y-71025679D01*
X145925152Y-71002400D01*
X145925152Y-70427400D01*
X145926296Y-70404121D01*
X145929715Y-70381066D01*
X145935379Y-70358457D01*
X145943231Y-70336513D01*
X145953196Y-70315443D01*
X145965178Y-70295452D01*
X145979062Y-70276732D01*
X145994714Y-70259462D01*
X146011984Y-70243810D01*
X146030704Y-70229926D01*
X146050695Y-70217944D01*
X146071765Y-70207979D01*
X146093709Y-70200127D01*
X146116318Y-70194463D01*
X146139373Y-70191044D01*
X146162652Y-70189900D01*
X146637652Y-70189900D01*
X146660931Y-70191044D01*
X146660931Y-70191044D01*
G37*
D19*
X146400152Y-70714900D03*
D18*
G36*
X146746205Y-67877044D02*
G01*
X146769260Y-67880463D01*
X146791869Y-67886127D01*
X146813813Y-67893979D01*
X146834883Y-67903944D01*
X146854874Y-67915926D01*
X146873594Y-67929810D01*
X146890864Y-67945462D01*
X146906516Y-67962732D01*
X146920400Y-67981452D01*
X146932382Y-68001443D01*
X146942347Y-68022513D01*
X146950199Y-68044457D01*
X146955863Y-68067066D01*
X146959282Y-68090121D01*
X146960426Y-68113400D01*
X146960426Y-68688400D01*
X146959282Y-68711679D01*
X146955863Y-68734734D01*
X146950199Y-68757343D01*
X146942347Y-68779287D01*
X146932382Y-68800357D01*
X146920400Y-68820348D01*
X146906516Y-68839068D01*
X146890864Y-68856338D01*
X146873594Y-68871990D01*
X146854874Y-68885874D01*
X146834883Y-68897856D01*
X146813813Y-68907821D01*
X146791869Y-68915673D01*
X146769260Y-68921337D01*
X146746205Y-68924756D01*
X146722926Y-68925900D01*
X146247926Y-68925900D01*
X146224647Y-68924756D01*
X146201592Y-68921337D01*
X146178983Y-68915673D01*
X146157039Y-68907821D01*
X146135969Y-68897856D01*
X146115978Y-68885874D01*
X146097258Y-68871990D01*
X146079988Y-68856338D01*
X146064336Y-68839068D01*
X146050452Y-68820348D01*
X146038470Y-68800357D01*
X146028505Y-68779287D01*
X146020653Y-68757343D01*
X146014989Y-68734734D01*
X146011570Y-68711679D01*
X146010426Y-68688400D01*
X146010426Y-68113400D01*
X146011570Y-68090121D01*
X146014989Y-68067066D01*
X146020653Y-68044457D01*
X146028505Y-68022513D01*
X146038470Y-68001443D01*
X146050452Y-67981452D01*
X146064336Y-67962732D01*
X146079988Y-67945462D01*
X146097258Y-67929810D01*
X146115978Y-67915926D01*
X146135969Y-67903944D01*
X146157039Y-67893979D01*
X146178983Y-67886127D01*
X146201592Y-67880463D01*
X146224647Y-67877044D01*
X146247926Y-67875900D01*
X146722926Y-67875900D01*
X146746205Y-67877044D01*
X146746205Y-67877044D01*
G37*
D19*
X146485426Y-68400900D03*
D18*
G36*
X146746205Y-66127044D02*
G01*
X146769260Y-66130463D01*
X146791869Y-66136127D01*
X146813813Y-66143979D01*
X146834883Y-66153944D01*
X146854874Y-66165926D01*
X146873594Y-66179810D01*
X146890864Y-66195462D01*
X146906516Y-66212732D01*
X146920400Y-66231452D01*
X146932382Y-66251443D01*
X146942347Y-66272513D01*
X146950199Y-66294457D01*
X146955863Y-66317066D01*
X146959282Y-66340121D01*
X146960426Y-66363400D01*
X146960426Y-66938400D01*
X146959282Y-66961679D01*
X146955863Y-66984734D01*
X146950199Y-67007343D01*
X146942347Y-67029287D01*
X146932382Y-67050357D01*
X146920400Y-67070348D01*
X146906516Y-67089068D01*
X146890864Y-67106338D01*
X146873594Y-67121990D01*
X146854874Y-67135874D01*
X146834883Y-67147856D01*
X146813813Y-67157821D01*
X146791869Y-67165673D01*
X146769260Y-67171337D01*
X146746205Y-67174756D01*
X146722926Y-67175900D01*
X146247926Y-67175900D01*
X146224647Y-67174756D01*
X146201592Y-67171337D01*
X146178983Y-67165673D01*
X146157039Y-67157821D01*
X146135969Y-67147856D01*
X146115978Y-67135874D01*
X146097258Y-67121990D01*
X146079988Y-67106338D01*
X146064336Y-67089068D01*
X146050452Y-67070348D01*
X146038470Y-67050357D01*
X146028505Y-67029287D01*
X146020653Y-67007343D01*
X146014989Y-66984734D01*
X146011570Y-66961679D01*
X146010426Y-66938400D01*
X146010426Y-66363400D01*
X146011570Y-66340121D01*
X146014989Y-66317066D01*
X146020653Y-66294457D01*
X146028505Y-66272513D01*
X146038470Y-66251443D01*
X146050452Y-66231452D01*
X146064336Y-66212732D01*
X146079988Y-66195462D01*
X146097258Y-66179810D01*
X146115978Y-66165926D01*
X146135969Y-66153944D01*
X146157039Y-66143979D01*
X146178983Y-66136127D01*
X146201592Y-66130463D01*
X146224647Y-66127044D01*
X146247926Y-66125900D01*
X146722926Y-66125900D01*
X146746205Y-66127044D01*
X146746205Y-66127044D01*
G37*
D19*
X146485426Y-66650900D03*
D18*
G36*
X149282579Y-71941044D02*
G01*
X149305634Y-71944463D01*
X149328243Y-71950127D01*
X149350187Y-71957979D01*
X149371257Y-71967944D01*
X149391248Y-71979926D01*
X149409968Y-71993810D01*
X149427238Y-72009462D01*
X149442890Y-72026732D01*
X149456774Y-72045452D01*
X149468756Y-72065443D01*
X149478721Y-72086513D01*
X149486573Y-72108457D01*
X149492237Y-72131066D01*
X149495656Y-72154121D01*
X149496800Y-72177400D01*
X149496800Y-72752400D01*
X149495656Y-72775679D01*
X149492237Y-72798734D01*
X149486573Y-72821343D01*
X149478721Y-72843287D01*
X149468756Y-72864357D01*
X149456774Y-72884348D01*
X149442890Y-72903068D01*
X149427238Y-72920338D01*
X149409968Y-72935990D01*
X149391248Y-72949874D01*
X149371257Y-72961856D01*
X149350187Y-72971821D01*
X149328243Y-72979673D01*
X149305634Y-72985337D01*
X149282579Y-72988756D01*
X149259300Y-72989900D01*
X148784300Y-72989900D01*
X148761021Y-72988756D01*
X148737966Y-72985337D01*
X148715357Y-72979673D01*
X148693413Y-72971821D01*
X148672343Y-72961856D01*
X148652352Y-72949874D01*
X148633632Y-72935990D01*
X148616362Y-72920338D01*
X148600710Y-72903068D01*
X148586826Y-72884348D01*
X148574844Y-72864357D01*
X148564879Y-72843287D01*
X148557027Y-72821343D01*
X148551363Y-72798734D01*
X148547944Y-72775679D01*
X148546800Y-72752400D01*
X148546800Y-72177400D01*
X148547944Y-72154121D01*
X148551363Y-72131066D01*
X148557027Y-72108457D01*
X148564879Y-72086513D01*
X148574844Y-72065443D01*
X148586826Y-72045452D01*
X148600710Y-72026732D01*
X148616362Y-72009462D01*
X148633632Y-71993810D01*
X148652352Y-71979926D01*
X148672343Y-71967944D01*
X148693413Y-71957979D01*
X148715357Y-71950127D01*
X148737966Y-71944463D01*
X148761021Y-71941044D01*
X148784300Y-71939900D01*
X149259300Y-71939900D01*
X149282579Y-71941044D01*
X149282579Y-71941044D01*
G37*
D19*
X149021800Y-72464900D03*
D18*
G36*
X149282579Y-70191044D02*
G01*
X149305634Y-70194463D01*
X149328243Y-70200127D01*
X149350187Y-70207979D01*
X149371257Y-70217944D01*
X149391248Y-70229926D01*
X149409968Y-70243810D01*
X149427238Y-70259462D01*
X149442890Y-70276732D01*
X149456774Y-70295452D01*
X149468756Y-70315443D01*
X149478721Y-70336513D01*
X149486573Y-70358457D01*
X149492237Y-70381066D01*
X149495656Y-70404121D01*
X149496800Y-70427400D01*
X149496800Y-71002400D01*
X149495656Y-71025679D01*
X149492237Y-71048734D01*
X149486573Y-71071343D01*
X149478721Y-71093287D01*
X149468756Y-71114357D01*
X149456774Y-71134348D01*
X149442890Y-71153068D01*
X149427238Y-71170338D01*
X149409968Y-71185990D01*
X149391248Y-71199874D01*
X149371257Y-71211856D01*
X149350187Y-71221821D01*
X149328243Y-71229673D01*
X149305634Y-71235337D01*
X149282579Y-71238756D01*
X149259300Y-71239900D01*
X148784300Y-71239900D01*
X148761021Y-71238756D01*
X148737966Y-71235337D01*
X148715357Y-71229673D01*
X148693413Y-71221821D01*
X148672343Y-71211856D01*
X148652352Y-71199874D01*
X148633632Y-71185990D01*
X148616362Y-71170338D01*
X148600710Y-71153068D01*
X148586826Y-71134348D01*
X148574844Y-71114357D01*
X148564879Y-71093287D01*
X148557027Y-71071343D01*
X148551363Y-71048734D01*
X148547944Y-71025679D01*
X148546800Y-71002400D01*
X148546800Y-70427400D01*
X148547944Y-70404121D01*
X148551363Y-70381066D01*
X148557027Y-70358457D01*
X148564879Y-70336513D01*
X148574844Y-70315443D01*
X148586826Y-70295452D01*
X148600710Y-70276732D01*
X148616362Y-70259462D01*
X148633632Y-70243810D01*
X148652352Y-70229926D01*
X148672343Y-70217944D01*
X148693413Y-70207979D01*
X148715357Y-70200127D01*
X148737966Y-70194463D01*
X148761021Y-70191044D01*
X148784300Y-70189900D01*
X149259300Y-70189900D01*
X149282579Y-70191044D01*
X149282579Y-70191044D01*
G37*
D19*
X149021800Y-70714900D03*
D18*
G36*
X149358779Y-67877044D02*
G01*
X149381834Y-67880463D01*
X149404443Y-67886127D01*
X149426387Y-67893979D01*
X149447457Y-67903944D01*
X149467448Y-67915926D01*
X149486168Y-67929810D01*
X149503438Y-67945462D01*
X149519090Y-67962732D01*
X149532974Y-67981452D01*
X149544956Y-68001443D01*
X149554921Y-68022513D01*
X149562773Y-68044457D01*
X149568437Y-68067066D01*
X149571856Y-68090121D01*
X149573000Y-68113400D01*
X149573000Y-68688400D01*
X149571856Y-68711679D01*
X149568437Y-68734734D01*
X149562773Y-68757343D01*
X149554921Y-68779287D01*
X149544956Y-68800357D01*
X149532974Y-68820348D01*
X149519090Y-68839068D01*
X149503438Y-68856338D01*
X149486168Y-68871990D01*
X149467448Y-68885874D01*
X149447457Y-68897856D01*
X149426387Y-68907821D01*
X149404443Y-68915673D01*
X149381834Y-68921337D01*
X149358779Y-68924756D01*
X149335500Y-68925900D01*
X148860500Y-68925900D01*
X148837221Y-68924756D01*
X148814166Y-68921337D01*
X148791557Y-68915673D01*
X148769613Y-68907821D01*
X148748543Y-68897856D01*
X148728552Y-68885874D01*
X148709832Y-68871990D01*
X148692562Y-68856338D01*
X148676910Y-68839068D01*
X148663026Y-68820348D01*
X148651044Y-68800357D01*
X148641079Y-68779287D01*
X148633227Y-68757343D01*
X148627563Y-68734734D01*
X148624144Y-68711679D01*
X148623000Y-68688400D01*
X148623000Y-68113400D01*
X148624144Y-68090121D01*
X148627563Y-68067066D01*
X148633227Y-68044457D01*
X148641079Y-68022513D01*
X148651044Y-68001443D01*
X148663026Y-67981452D01*
X148676910Y-67962732D01*
X148692562Y-67945462D01*
X148709832Y-67929810D01*
X148728552Y-67915926D01*
X148748543Y-67903944D01*
X148769613Y-67893979D01*
X148791557Y-67886127D01*
X148814166Y-67880463D01*
X148837221Y-67877044D01*
X148860500Y-67875900D01*
X149335500Y-67875900D01*
X149358779Y-67877044D01*
X149358779Y-67877044D01*
G37*
D19*
X149098000Y-68400900D03*
D18*
G36*
X149358779Y-66127044D02*
G01*
X149381834Y-66130463D01*
X149404443Y-66136127D01*
X149426387Y-66143979D01*
X149447457Y-66153944D01*
X149467448Y-66165926D01*
X149486168Y-66179810D01*
X149503438Y-66195462D01*
X149519090Y-66212732D01*
X149532974Y-66231452D01*
X149544956Y-66251443D01*
X149554921Y-66272513D01*
X149562773Y-66294457D01*
X149568437Y-66317066D01*
X149571856Y-66340121D01*
X149573000Y-66363400D01*
X149573000Y-66938400D01*
X149571856Y-66961679D01*
X149568437Y-66984734D01*
X149562773Y-67007343D01*
X149554921Y-67029287D01*
X149544956Y-67050357D01*
X149532974Y-67070348D01*
X149519090Y-67089068D01*
X149503438Y-67106338D01*
X149486168Y-67121990D01*
X149467448Y-67135874D01*
X149447457Y-67147856D01*
X149426387Y-67157821D01*
X149404443Y-67165673D01*
X149381834Y-67171337D01*
X149358779Y-67174756D01*
X149335500Y-67175900D01*
X148860500Y-67175900D01*
X148837221Y-67174756D01*
X148814166Y-67171337D01*
X148791557Y-67165673D01*
X148769613Y-67157821D01*
X148748543Y-67147856D01*
X148728552Y-67135874D01*
X148709832Y-67121990D01*
X148692562Y-67106338D01*
X148676910Y-67089068D01*
X148663026Y-67070348D01*
X148651044Y-67050357D01*
X148641079Y-67029287D01*
X148633227Y-67007343D01*
X148627563Y-66984734D01*
X148624144Y-66961679D01*
X148623000Y-66938400D01*
X148623000Y-66363400D01*
X148624144Y-66340121D01*
X148627563Y-66317066D01*
X148633227Y-66294457D01*
X148641079Y-66272513D01*
X148651044Y-66251443D01*
X148663026Y-66231452D01*
X148676910Y-66212732D01*
X148692562Y-66195462D01*
X148709832Y-66179810D01*
X148728552Y-66165926D01*
X148748543Y-66153944D01*
X148769613Y-66143979D01*
X148791557Y-66136127D01*
X148814166Y-66130463D01*
X148837221Y-66127044D01*
X148860500Y-66125900D01*
X149335500Y-66125900D01*
X149358779Y-66127044D01*
X149358779Y-66127044D01*
G37*
D19*
X149098000Y-66650900D03*
D18*
G36*
X127819579Y-71928344D02*
G01*
X127842634Y-71931763D01*
X127865243Y-71937427D01*
X127887187Y-71945279D01*
X127908257Y-71955244D01*
X127928248Y-71967226D01*
X127946968Y-71981110D01*
X127964238Y-71996762D01*
X127979890Y-72014032D01*
X127993774Y-72032752D01*
X128005756Y-72052743D01*
X128015721Y-72073813D01*
X128023573Y-72095757D01*
X128029237Y-72118366D01*
X128032656Y-72141421D01*
X128033800Y-72164700D01*
X128033800Y-72739700D01*
X128032656Y-72762979D01*
X128029237Y-72786034D01*
X128023573Y-72808643D01*
X128015721Y-72830587D01*
X128005756Y-72851657D01*
X127993774Y-72871648D01*
X127979890Y-72890368D01*
X127964238Y-72907638D01*
X127946968Y-72923290D01*
X127928248Y-72937174D01*
X127908257Y-72949156D01*
X127887187Y-72959121D01*
X127865243Y-72966973D01*
X127842634Y-72972637D01*
X127819579Y-72976056D01*
X127796300Y-72977200D01*
X127321300Y-72977200D01*
X127298021Y-72976056D01*
X127274966Y-72972637D01*
X127252357Y-72966973D01*
X127230413Y-72959121D01*
X127209343Y-72949156D01*
X127189352Y-72937174D01*
X127170632Y-72923290D01*
X127153362Y-72907638D01*
X127137710Y-72890368D01*
X127123826Y-72871648D01*
X127111844Y-72851657D01*
X127101879Y-72830587D01*
X127094027Y-72808643D01*
X127088363Y-72786034D01*
X127084944Y-72762979D01*
X127083800Y-72739700D01*
X127083800Y-72164700D01*
X127084944Y-72141421D01*
X127088363Y-72118366D01*
X127094027Y-72095757D01*
X127101879Y-72073813D01*
X127111844Y-72052743D01*
X127123826Y-72032752D01*
X127137710Y-72014032D01*
X127153362Y-71996762D01*
X127170632Y-71981110D01*
X127189352Y-71967226D01*
X127209343Y-71955244D01*
X127230413Y-71945279D01*
X127252357Y-71937427D01*
X127274966Y-71931763D01*
X127298021Y-71928344D01*
X127321300Y-71927200D01*
X127796300Y-71927200D01*
X127819579Y-71928344D01*
X127819579Y-71928344D01*
G37*
D19*
X127558800Y-72452200D03*
D18*
G36*
X127819579Y-70178344D02*
G01*
X127842634Y-70181763D01*
X127865243Y-70187427D01*
X127887187Y-70195279D01*
X127908257Y-70205244D01*
X127928248Y-70217226D01*
X127946968Y-70231110D01*
X127964238Y-70246762D01*
X127979890Y-70264032D01*
X127993774Y-70282752D01*
X128005756Y-70302743D01*
X128015721Y-70323813D01*
X128023573Y-70345757D01*
X128029237Y-70368366D01*
X128032656Y-70391421D01*
X128033800Y-70414700D01*
X128033800Y-70989700D01*
X128032656Y-71012979D01*
X128029237Y-71036034D01*
X128023573Y-71058643D01*
X128015721Y-71080587D01*
X128005756Y-71101657D01*
X127993774Y-71121648D01*
X127979890Y-71140368D01*
X127964238Y-71157638D01*
X127946968Y-71173290D01*
X127928248Y-71187174D01*
X127908257Y-71199156D01*
X127887187Y-71209121D01*
X127865243Y-71216973D01*
X127842634Y-71222637D01*
X127819579Y-71226056D01*
X127796300Y-71227200D01*
X127321300Y-71227200D01*
X127298021Y-71226056D01*
X127274966Y-71222637D01*
X127252357Y-71216973D01*
X127230413Y-71209121D01*
X127209343Y-71199156D01*
X127189352Y-71187174D01*
X127170632Y-71173290D01*
X127153362Y-71157638D01*
X127137710Y-71140368D01*
X127123826Y-71121648D01*
X127111844Y-71101657D01*
X127101879Y-71080587D01*
X127094027Y-71058643D01*
X127088363Y-71036034D01*
X127084944Y-71012979D01*
X127083800Y-70989700D01*
X127083800Y-70414700D01*
X127084944Y-70391421D01*
X127088363Y-70368366D01*
X127094027Y-70345757D01*
X127101879Y-70323813D01*
X127111844Y-70302743D01*
X127123826Y-70282752D01*
X127137710Y-70264032D01*
X127153362Y-70246762D01*
X127170632Y-70231110D01*
X127189352Y-70217226D01*
X127209343Y-70205244D01*
X127230413Y-70195279D01*
X127252357Y-70187427D01*
X127274966Y-70181763D01*
X127298021Y-70178344D01*
X127321300Y-70177200D01*
X127796300Y-70177200D01*
X127819579Y-70178344D01*
X127819579Y-70178344D01*
G37*
D19*
X127558800Y-70702200D03*
D18*
G36*
X127717979Y-67762744D02*
G01*
X127741034Y-67766163D01*
X127763643Y-67771827D01*
X127785587Y-67779679D01*
X127806657Y-67789644D01*
X127826648Y-67801626D01*
X127845368Y-67815510D01*
X127862638Y-67831162D01*
X127878290Y-67848432D01*
X127892174Y-67867152D01*
X127904156Y-67887143D01*
X127914121Y-67908213D01*
X127921973Y-67930157D01*
X127927637Y-67952766D01*
X127931056Y-67975821D01*
X127932200Y-67999100D01*
X127932200Y-68574100D01*
X127931056Y-68597379D01*
X127927637Y-68620434D01*
X127921973Y-68643043D01*
X127914121Y-68664987D01*
X127904156Y-68686057D01*
X127892174Y-68706048D01*
X127878290Y-68724768D01*
X127862638Y-68742038D01*
X127845368Y-68757690D01*
X127826648Y-68771574D01*
X127806657Y-68783556D01*
X127785587Y-68793521D01*
X127763643Y-68801373D01*
X127741034Y-68807037D01*
X127717979Y-68810456D01*
X127694700Y-68811600D01*
X127219700Y-68811600D01*
X127196421Y-68810456D01*
X127173366Y-68807037D01*
X127150757Y-68801373D01*
X127128813Y-68793521D01*
X127107743Y-68783556D01*
X127087752Y-68771574D01*
X127069032Y-68757690D01*
X127051762Y-68742038D01*
X127036110Y-68724768D01*
X127022226Y-68706048D01*
X127010244Y-68686057D01*
X127000279Y-68664987D01*
X126992427Y-68643043D01*
X126986763Y-68620434D01*
X126983344Y-68597379D01*
X126982200Y-68574100D01*
X126982200Y-67999100D01*
X126983344Y-67975821D01*
X126986763Y-67952766D01*
X126992427Y-67930157D01*
X127000279Y-67908213D01*
X127010244Y-67887143D01*
X127022226Y-67867152D01*
X127036110Y-67848432D01*
X127051762Y-67831162D01*
X127069032Y-67815510D01*
X127087752Y-67801626D01*
X127107743Y-67789644D01*
X127128813Y-67779679D01*
X127150757Y-67771827D01*
X127173366Y-67766163D01*
X127196421Y-67762744D01*
X127219700Y-67761600D01*
X127694700Y-67761600D01*
X127717979Y-67762744D01*
X127717979Y-67762744D01*
G37*
D19*
X127457200Y-68286600D03*
D18*
G36*
X127717979Y-66012744D02*
G01*
X127741034Y-66016163D01*
X127763643Y-66021827D01*
X127785587Y-66029679D01*
X127806657Y-66039644D01*
X127826648Y-66051626D01*
X127845368Y-66065510D01*
X127862638Y-66081162D01*
X127878290Y-66098432D01*
X127892174Y-66117152D01*
X127904156Y-66137143D01*
X127914121Y-66158213D01*
X127921973Y-66180157D01*
X127927637Y-66202766D01*
X127931056Y-66225821D01*
X127932200Y-66249100D01*
X127932200Y-66824100D01*
X127931056Y-66847379D01*
X127927637Y-66870434D01*
X127921973Y-66893043D01*
X127914121Y-66914987D01*
X127904156Y-66936057D01*
X127892174Y-66956048D01*
X127878290Y-66974768D01*
X127862638Y-66992038D01*
X127845368Y-67007690D01*
X127826648Y-67021574D01*
X127806657Y-67033556D01*
X127785587Y-67043521D01*
X127763643Y-67051373D01*
X127741034Y-67057037D01*
X127717979Y-67060456D01*
X127694700Y-67061600D01*
X127219700Y-67061600D01*
X127196421Y-67060456D01*
X127173366Y-67057037D01*
X127150757Y-67051373D01*
X127128813Y-67043521D01*
X127107743Y-67033556D01*
X127087752Y-67021574D01*
X127069032Y-67007690D01*
X127051762Y-66992038D01*
X127036110Y-66974768D01*
X127022226Y-66956048D01*
X127010244Y-66936057D01*
X127000279Y-66914987D01*
X126992427Y-66893043D01*
X126986763Y-66870434D01*
X126983344Y-66847379D01*
X126982200Y-66824100D01*
X126982200Y-66249100D01*
X126983344Y-66225821D01*
X126986763Y-66202766D01*
X126992427Y-66180157D01*
X127000279Y-66158213D01*
X127010244Y-66137143D01*
X127022226Y-66117152D01*
X127036110Y-66098432D01*
X127051762Y-66081162D01*
X127069032Y-66065510D01*
X127087752Y-66051626D01*
X127107743Y-66039644D01*
X127128813Y-66029679D01*
X127150757Y-66021827D01*
X127173366Y-66016163D01*
X127196421Y-66012744D01*
X127219700Y-66011600D01*
X127694700Y-66011600D01*
X127717979Y-66012744D01*
X127717979Y-66012744D01*
G37*
D19*
X127457200Y-66536600D03*
D18*
G36*
X123882579Y-72029944D02*
G01*
X123905634Y-72033363D01*
X123928243Y-72039027D01*
X123950187Y-72046879D01*
X123971257Y-72056844D01*
X123991248Y-72068826D01*
X124009968Y-72082710D01*
X124027238Y-72098362D01*
X124042890Y-72115632D01*
X124056774Y-72134352D01*
X124068756Y-72154343D01*
X124078721Y-72175413D01*
X124086573Y-72197357D01*
X124092237Y-72219966D01*
X124095656Y-72243021D01*
X124096800Y-72266300D01*
X124096800Y-72841300D01*
X124095656Y-72864579D01*
X124092237Y-72887634D01*
X124086573Y-72910243D01*
X124078721Y-72932187D01*
X124068756Y-72953257D01*
X124056774Y-72973248D01*
X124042890Y-72991968D01*
X124027238Y-73009238D01*
X124009968Y-73024890D01*
X123991248Y-73038774D01*
X123971257Y-73050756D01*
X123950187Y-73060721D01*
X123928243Y-73068573D01*
X123905634Y-73074237D01*
X123882579Y-73077656D01*
X123859300Y-73078800D01*
X123384300Y-73078800D01*
X123361021Y-73077656D01*
X123337966Y-73074237D01*
X123315357Y-73068573D01*
X123293413Y-73060721D01*
X123272343Y-73050756D01*
X123252352Y-73038774D01*
X123233632Y-73024890D01*
X123216362Y-73009238D01*
X123200710Y-72991968D01*
X123186826Y-72973248D01*
X123174844Y-72953257D01*
X123164879Y-72932187D01*
X123157027Y-72910243D01*
X123151363Y-72887634D01*
X123147944Y-72864579D01*
X123146800Y-72841300D01*
X123146800Y-72266300D01*
X123147944Y-72243021D01*
X123151363Y-72219966D01*
X123157027Y-72197357D01*
X123164879Y-72175413D01*
X123174844Y-72154343D01*
X123186826Y-72134352D01*
X123200710Y-72115632D01*
X123216362Y-72098362D01*
X123233632Y-72082710D01*
X123252352Y-72068826D01*
X123272343Y-72056844D01*
X123293413Y-72046879D01*
X123315357Y-72039027D01*
X123337966Y-72033363D01*
X123361021Y-72029944D01*
X123384300Y-72028800D01*
X123859300Y-72028800D01*
X123882579Y-72029944D01*
X123882579Y-72029944D01*
G37*
D19*
X123621800Y-72553800D03*
D18*
G36*
X123882579Y-70279944D02*
G01*
X123905634Y-70283363D01*
X123928243Y-70289027D01*
X123950187Y-70296879D01*
X123971257Y-70306844D01*
X123991248Y-70318826D01*
X124009968Y-70332710D01*
X124027238Y-70348362D01*
X124042890Y-70365632D01*
X124056774Y-70384352D01*
X124068756Y-70404343D01*
X124078721Y-70425413D01*
X124086573Y-70447357D01*
X124092237Y-70469966D01*
X124095656Y-70493021D01*
X124096800Y-70516300D01*
X124096800Y-71091300D01*
X124095656Y-71114579D01*
X124092237Y-71137634D01*
X124086573Y-71160243D01*
X124078721Y-71182187D01*
X124068756Y-71203257D01*
X124056774Y-71223248D01*
X124042890Y-71241968D01*
X124027238Y-71259238D01*
X124009968Y-71274890D01*
X123991248Y-71288774D01*
X123971257Y-71300756D01*
X123950187Y-71310721D01*
X123928243Y-71318573D01*
X123905634Y-71324237D01*
X123882579Y-71327656D01*
X123859300Y-71328800D01*
X123384300Y-71328800D01*
X123361021Y-71327656D01*
X123337966Y-71324237D01*
X123315357Y-71318573D01*
X123293413Y-71310721D01*
X123272343Y-71300756D01*
X123252352Y-71288774D01*
X123233632Y-71274890D01*
X123216362Y-71259238D01*
X123200710Y-71241968D01*
X123186826Y-71223248D01*
X123174844Y-71203257D01*
X123164879Y-71182187D01*
X123157027Y-71160243D01*
X123151363Y-71137634D01*
X123147944Y-71114579D01*
X123146800Y-71091300D01*
X123146800Y-70516300D01*
X123147944Y-70493021D01*
X123151363Y-70469966D01*
X123157027Y-70447357D01*
X123164879Y-70425413D01*
X123174844Y-70404343D01*
X123186826Y-70384352D01*
X123200710Y-70365632D01*
X123216362Y-70348362D01*
X123233632Y-70332710D01*
X123252352Y-70318826D01*
X123272343Y-70306844D01*
X123293413Y-70296879D01*
X123315357Y-70289027D01*
X123337966Y-70283363D01*
X123361021Y-70279944D01*
X123384300Y-70278800D01*
X123859300Y-70278800D01*
X123882579Y-70279944D01*
X123882579Y-70279944D01*
G37*
D19*
X123621800Y-70803800D03*
D18*
G36*
X123933379Y-67864344D02*
G01*
X123956434Y-67867763D01*
X123979043Y-67873427D01*
X124000987Y-67881279D01*
X124022057Y-67891244D01*
X124042048Y-67903226D01*
X124060768Y-67917110D01*
X124078038Y-67932762D01*
X124093690Y-67950032D01*
X124107574Y-67968752D01*
X124119556Y-67988743D01*
X124129521Y-68009813D01*
X124137373Y-68031757D01*
X124143037Y-68054366D01*
X124146456Y-68077421D01*
X124147600Y-68100700D01*
X124147600Y-68675700D01*
X124146456Y-68698979D01*
X124143037Y-68722034D01*
X124137373Y-68744643D01*
X124129521Y-68766587D01*
X124119556Y-68787657D01*
X124107574Y-68807648D01*
X124093690Y-68826368D01*
X124078038Y-68843638D01*
X124060768Y-68859290D01*
X124042048Y-68873174D01*
X124022057Y-68885156D01*
X124000987Y-68895121D01*
X123979043Y-68902973D01*
X123956434Y-68908637D01*
X123933379Y-68912056D01*
X123910100Y-68913200D01*
X123435100Y-68913200D01*
X123411821Y-68912056D01*
X123388766Y-68908637D01*
X123366157Y-68902973D01*
X123344213Y-68895121D01*
X123323143Y-68885156D01*
X123303152Y-68873174D01*
X123284432Y-68859290D01*
X123267162Y-68843638D01*
X123251510Y-68826368D01*
X123237626Y-68807648D01*
X123225644Y-68787657D01*
X123215679Y-68766587D01*
X123207827Y-68744643D01*
X123202163Y-68722034D01*
X123198744Y-68698979D01*
X123197600Y-68675700D01*
X123197600Y-68100700D01*
X123198744Y-68077421D01*
X123202163Y-68054366D01*
X123207827Y-68031757D01*
X123215679Y-68009813D01*
X123225644Y-67988743D01*
X123237626Y-67968752D01*
X123251510Y-67950032D01*
X123267162Y-67932762D01*
X123284432Y-67917110D01*
X123303152Y-67903226D01*
X123323143Y-67891244D01*
X123344213Y-67881279D01*
X123366157Y-67873427D01*
X123388766Y-67867763D01*
X123411821Y-67864344D01*
X123435100Y-67863200D01*
X123910100Y-67863200D01*
X123933379Y-67864344D01*
X123933379Y-67864344D01*
G37*
D19*
X123672600Y-68388200D03*
D18*
G36*
X123933379Y-66114344D02*
G01*
X123956434Y-66117763D01*
X123979043Y-66123427D01*
X124000987Y-66131279D01*
X124022057Y-66141244D01*
X124042048Y-66153226D01*
X124060768Y-66167110D01*
X124078038Y-66182762D01*
X124093690Y-66200032D01*
X124107574Y-66218752D01*
X124119556Y-66238743D01*
X124129521Y-66259813D01*
X124137373Y-66281757D01*
X124143037Y-66304366D01*
X124146456Y-66327421D01*
X124147600Y-66350700D01*
X124147600Y-66925700D01*
X124146456Y-66948979D01*
X124143037Y-66972034D01*
X124137373Y-66994643D01*
X124129521Y-67016587D01*
X124119556Y-67037657D01*
X124107574Y-67057648D01*
X124093690Y-67076368D01*
X124078038Y-67093638D01*
X124060768Y-67109290D01*
X124042048Y-67123174D01*
X124022057Y-67135156D01*
X124000987Y-67145121D01*
X123979043Y-67152973D01*
X123956434Y-67158637D01*
X123933379Y-67162056D01*
X123910100Y-67163200D01*
X123435100Y-67163200D01*
X123411821Y-67162056D01*
X123388766Y-67158637D01*
X123366157Y-67152973D01*
X123344213Y-67145121D01*
X123323143Y-67135156D01*
X123303152Y-67123174D01*
X123284432Y-67109290D01*
X123267162Y-67093638D01*
X123251510Y-67076368D01*
X123237626Y-67057648D01*
X123225644Y-67037657D01*
X123215679Y-67016587D01*
X123207827Y-66994643D01*
X123202163Y-66972034D01*
X123198744Y-66948979D01*
X123197600Y-66925700D01*
X123197600Y-66350700D01*
X123198744Y-66327421D01*
X123202163Y-66304366D01*
X123207827Y-66281757D01*
X123215679Y-66259813D01*
X123225644Y-66238743D01*
X123237626Y-66218752D01*
X123251510Y-66200032D01*
X123267162Y-66182762D01*
X123284432Y-66167110D01*
X123303152Y-66153226D01*
X123323143Y-66141244D01*
X123344213Y-66131279D01*
X123366157Y-66123427D01*
X123388766Y-66117763D01*
X123411821Y-66114344D01*
X123435100Y-66113200D01*
X123910100Y-66113200D01*
X123933379Y-66114344D01*
X123933379Y-66114344D01*
G37*
D19*
X123672600Y-66638200D03*
D16*
X135397200Y-142301200D03*
X135397200Y-143601200D03*
X137297200Y-142951200D03*
X137297200Y-143601200D03*
X137297200Y-142301200D03*
D18*
G36*
X168927379Y-55406144D02*
G01*
X168950434Y-55409563D01*
X168973043Y-55415227D01*
X168994987Y-55423079D01*
X169016057Y-55433044D01*
X169036048Y-55445026D01*
X169054768Y-55458910D01*
X169072038Y-55474562D01*
X169087690Y-55491832D01*
X169101574Y-55510552D01*
X169113556Y-55530543D01*
X169123521Y-55551613D01*
X169131373Y-55573557D01*
X169137037Y-55596166D01*
X169140456Y-55619221D01*
X169141600Y-55642500D01*
X169141600Y-56117500D01*
X169140456Y-56140779D01*
X169137037Y-56163834D01*
X169131373Y-56186443D01*
X169123521Y-56208387D01*
X169113556Y-56229457D01*
X169101574Y-56249448D01*
X169087690Y-56268168D01*
X169072038Y-56285438D01*
X169054768Y-56301090D01*
X169036048Y-56314974D01*
X169016057Y-56326956D01*
X168994987Y-56336921D01*
X168973043Y-56344773D01*
X168950434Y-56350437D01*
X168927379Y-56353856D01*
X168904100Y-56355000D01*
X168329100Y-56355000D01*
X168305821Y-56353856D01*
X168282766Y-56350437D01*
X168260157Y-56344773D01*
X168238213Y-56336921D01*
X168217143Y-56326956D01*
X168197152Y-56314974D01*
X168178432Y-56301090D01*
X168161162Y-56285438D01*
X168145510Y-56268168D01*
X168131626Y-56249448D01*
X168119644Y-56229457D01*
X168109679Y-56208387D01*
X168101827Y-56186443D01*
X168096163Y-56163834D01*
X168092744Y-56140779D01*
X168091600Y-56117500D01*
X168091600Y-55642500D01*
X168092744Y-55619221D01*
X168096163Y-55596166D01*
X168101827Y-55573557D01*
X168109679Y-55551613D01*
X168119644Y-55530543D01*
X168131626Y-55510552D01*
X168145510Y-55491832D01*
X168161162Y-55474562D01*
X168178432Y-55458910D01*
X168197152Y-55445026D01*
X168217143Y-55433044D01*
X168238213Y-55423079D01*
X168260157Y-55415227D01*
X168282766Y-55409563D01*
X168305821Y-55406144D01*
X168329100Y-55405000D01*
X168904100Y-55405000D01*
X168927379Y-55406144D01*
X168927379Y-55406144D01*
G37*
D19*
X168616600Y-55880000D03*
D18*
G36*
X167177379Y-55406144D02*
G01*
X167200434Y-55409563D01*
X167223043Y-55415227D01*
X167244987Y-55423079D01*
X167266057Y-55433044D01*
X167286048Y-55445026D01*
X167304768Y-55458910D01*
X167322038Y-55474562D01*
X167337690Y-55491832D01*
X167351574Y-55510552D01*
X167363556Y-55530543D01*
X167373521Y-55551613D01*
X167381373Y-55573557D01*
X167387037Y-55596166D01*
X167390456Y-55619221D01*
X167391600Y-55642500D01*
X167391600Y-56117500D01*
X167390456Y-56140779D01*
X167387037Y-56163834D01*
X167381373Y-56186443D01*
X167373521Y-56208387D01*
X167363556Y-56229457D01*
X167351574Y-56249448D01*
X167337690Y-56268168D01*
X167322038Y-56285438D01*
X167304768Y-56301090D01*
X167286048Y-56314974D01*
X167266057Y-56326956D01*
X167244987Y-56336921D01*
X167223043Y-56344773D01*
X167200434Y-56350437D01*
X167177379Y-56353856D01*
X167154100Y-56355000D01*
X166579100Y-56355000D01*
X166555821Y-56353856D01*
X166532766Y-56350437D01*
X166510157Y-56344773D01*
X166488213Y-56336921D01*
X166467143Y-56326956D01*
X166447152Y-56314974D01*
X166428432Y-56301090D01*
X166411162Y-56285438D01*
X166395510Y-56268168D01*
X166381626Y-56249448D01*
X166369644Y-56229457D01*
X166359679Y-56208387D01*
X166351827Y-56186443D01*
X166346163Y-56163834D01*
X166342744Y-56140779D01*
X166341600Y-56117500D01*
X166341600Y-55642500D01*
X166342744Y-55619221D01*
X166346163Y-55596166D01*
X166351827Y-55573557D01*
X166359679Y-55551613D01*
X166369644Y-55530543D01*
X166381626Y-55510552D01*
X166395510Y-55491832D01*
X166411162Y-55474562D01*
X166428432Y-55458910D01*
X166447152Y-55445026D01*
X166467143Y-55433044D01*
X166488213Y-55423079D01*
X166510157Y-55415227D01*
X166532766Y-55409563D01*
X166555821Y-55406144D01*
X166579100Y-55405000D01*
X167154100Y-55405000D01*
X167177379Y-55406144D01*
X167177379Y-55406144D01*
G37*
D19*
X166866600Y-55880000D03*
D18*
G36*
X165450179Y-76147058D02*
G01*
X165473234Y-76150477D01*
X165495843Y-76156141D01*
X165517787Y-76163993D01*
X165538857Y-76173958D01*
X165558848Y-76185940D01*
X165577568Y-76199824D01*
X165594838Y-76215476D01*
X165610490Y-76232746D01*
X165624374Y-76251466D01*
X165636356Y-76271457D01*
X165646321Y-76292527D01*
X165654173Y-76314471D01*
X165659837Y-76337080D01*
X165663256Y-76360135D01*
X165664400Y-76383414D01*
X165664400Y-76858414D01*
X165663256Y-76881693D01*
X165659837Y-76904748D01*
X165654173Y-76927357D01*
X165646321Y-76949301D01*
X165636356Y-76970371D01*
X165624374Y-76990362D01*
X165610490Y-77009082D01*
X165594838Y-77026352D01*
X165577568Y-77042004D01*
X165558848Y-77055888D01*
X165538857Y-77067870D01*
X165517787Y-77077835D01*
X165495843Y-77085687D01*
X165473234Y-77091351D01*
X165450179Y-77094770D01*
X165426900Y-77095914D01*
X164851900Y-77095914D01*
X164828621Y-77094770D01*
X164805566Y-77091351D01*
X164782957Y-77085687D01*
X164761013Y-77077835D01*
X164739943Y-77067870D01*
X164719952Y-77055888D01*
X164701232Y-77042004D01*
X164683962Y-77026352D01*
X164668310Y-77009082D01*
X164654426Y-76990362D01*
X164642444Y-76970371D01*
X164632479Y-76949301D01*
X164624627Y-76927357D01*
X164618963Y-76904748D01*
X164615544Y-76881693D01*
X164614400Y-76858414D01*
X164614400Y-76383414D01*
X164615544Y-76360135D01*
X164618963Y-76337080D01*
X164624627Y-76314471D01*
X164632479Y-76292527D01*
X164642444Y-76271457D01*
X164654426Y-76251466D01*
X164668310Y-76232746D01*
X164683962Y-76215476D01*
X164701232Y-76199824D01*
X164719952Y-76185940D01*
X164739943Y-76173958D01*
X164761013Y-76163993D01*
X164782957Y-76156141D01*
X164805566Y-76150477D01*
X164828621Y-76147058D01*
X164851900Y-76145914D01*
X165426900Y-76145914D01*
X165450179Y-76147058D01*
X165450179Y-76147058D01*
G37*
D19*
X165139400Y-76620914D03*
D18*
G36*
X167200179Y-76147058D02*
G01*
X167223234Y-76150477D01*
X167245843Y-76156141D01*
X167267787Y-76163993D01*
X167288857Y-76173958D01*
X167308848Y-76185940D01*
X167327568Y-76199824D01*
X167344838Y-76215476D01*
X167360490Y-76232746D01*
X167374374Y-76251466D01*
X167386356Y-76271457D01*
X167396321Y-76292527D01*
X167404173Y-76314471D01*
X167409837Y-76337080D01*
X167413256Y-76360135D01*
X167414400Y-76383414D01*
X167414400Y-76858414D01*
X167413256Y-76881693D01*
X167409837Y-76904748D01*
X167404173Y-76927357D01*
X167396321Y-76949301D01*
X167386356Y-76970371D01*
X167374374Y-76990362D01*
X167360490Y-77009082D01*
X167344838Y-77026352D01*
X167327568Y-77042004D01*
X167308848Y-77055888D01*
X167288857Y-77067870D01*
X167267787Y-77077835D01*
X167245843Y-77085687D01*
X167223234Y-77091351D01*
X167200179Y-77094770D01*
X167176900Y-77095914D01*
X166601900Y-77095914D01*
X166578621Y-77094770D01*
X166555566Y-77091351D01*
X166532957Y-77085687D01*
X166511013Y-77077835D01*
X166489943Y-77067870D01*
X166469952Y-77055888D01*
X166451232Y-77042004D01*
X166433962Y-77026352D01*
X166418310Y-77009082D01*
X166404426Y-76990362D01*
X166392444Y-76970371D01*
X166382479Y-76949301D01*
X166374627Y-76927357D01*
X166368963Y-76904748D01*
X166365544Y-76881693D01*
X166364400Y-76858414D01*
X166364400Y-76383414D01*
X166365544Y-76360135D01*
X166368963Y-76337080D01*
X166374627Y-76314471D01*
X166382479Y-76292527D01*
X166392444Y-76271457D01*
X166404426Y-76251466D01*
X166418310Y-76232746D01*
X166433962Y-76215476D01*
X166451232Y-76199824D01*
X166469952Y-76185940D01*
X166489943Y-76173958D01*
X166511013Y-76163993D01*
X166532957Y-76156141D01*
X166555566Y-76150477D01*
X166578621Y-76147058D01*
X166601900Y-76145914D01*
X167176900Y-76145914D01*
X167200179Y-76147058D01*
X167200179Y-76147058D01*
G37*
D19*
X166889400Y-76620914D03*
D18*
G36*
X169028979Y-66770829D02*
G01*
X169052034Y-66774248D01*
X169074643Y-66779912D01*
X169096587Y-66787764D01*
X169117657Y-66797729D01*
X169137648Y-66809711D01*
X169156368Y-66823595D01*
X169173638Y-66839247D01*
X169189290Y-66856517D01*
X169203174Y-66875237D01*
X169215156Y-66895228D01*
X169225121Y-66916298D01*
X169232973Y-66938242D01*
X169238637Y-66960851D01*
X169242056Y-66983906D01*
X169243200Y-67007185D01*
X169243200Y-67482185D01*
X169242056Y-67505464D01*
X169238637Y-67528519D01*
X169232973Y-67551128D01*
X169225121Y-67573072D01*
X169215156Y-67594142D01*
X169203174Y-67614133D01*
X169189290Y-67632853D01*
X169173638Y-67650123D01*
X169156368Y-67665775D01*
X169137648Y-67679659D01*
X169117657Y-67691641D01*
X169096587Y-67701606D01*
X169074643Y-67709458D01*
X169052034Y-67715122D01*
X169028979Y-67718541D01*
X169005700Y-67719685D01*
X168430700Y-67719685D01*
X168407421Y-67718541D01*
X168384366Y-67715122D01*
X168361757Y-67709458D01*
X168339813Y-67701606D01*
X168318743Y-67691641D01*
X168298752Y-67679659D01*
X168280032Y-67665775D01*
X168262762Y-67650123D01*
X168247110Y-67632853D01*
X168233226Y-67614133D01*
X168221244Y-67594142D01*
X168211279Y-67573072D01*
X168203427Y-67551128D01*
X168197763Y-67528519D01*
X168194344Y-67505464D01*
X168193200Y-67482185D01*
X168193200Y-67007185D01*
X168194344Y-66983906D01*
X168197763Y-66960851D01*
X168203427Y-66938242D01*
X168211279Y-66916298D01*
X168221244Y-66895228D01*
X168233226Y-66875237D01*
X168247110Y-66856517D01*
X168262762Y-66839247D01*
X168280032Y-66823595D01*
X168298752Y-66809711D01*
X168318743Y-66797729D01*
X168339813Y-66787764D01*
X168361757Y-66779912D01*
X168384366Y-66774248D01*
X168407421Y-66770829D01*
X168430700Y-66769685D01*
X169005700Y-66769685D01*
X169028979Y-66770829D01*
X169028979Y-66770829D01*
G37*
D19*
X168718200Y-67244685D03*
D18*
G36*
X167278979Y-66770829D02*
G01*
X167302034Y-66774248D01*
X167324643Y-66779912D01*
X167346587Y-66787764D01*
X167367657Y-66797729D01*
X167387648Y-66809711D01*
X167406368Y-66823595D01*
X167423638Y-66839247D01*
X167439290Y-66856517D01*
X167453174Y-66875237D01*
X167465156Y-66895228D01*
X167475121Y-66916298D01*
X167482973Y-66938242D01*
X167488637Y-66960851D01*
X167492056Y-66983906D01*
X167493200Y-67007185D01*
X167493200Y-67482185D01*
X167492056Y-67505464D01*
X167488637Y-67528519D01*
X167482973Y-67551128D01*
X167475121Y-67573072D01*
X167465156Y-67594142D01*
X167453174Y-67614133D01*
X167439290Y-67632853D01*
X167423638Y-67650123D01*
X167406368Y-67665775D01*
X167387648Y-67679659D01*
X167367657Y-67691641D01*
X167346587Y-67701606D01*
X167324643Y-67709458D01*
X167302034Y-67715122D01*
X167278979Y-67718541D01*
X167255700Y-67719685D01*
X166680700Y-67719685D01*
X166657421Y-67718541D01*
X166634366Y-67715122D01*
X166611757Y-67709458D01*
X166589813Y-67701606D01*
X166568743Y-67691641D01*
X166548752Y-67679659D01*
X166530032Y-67665775D01*
X166512762Y-67650123D01*
X166497110Y-67632853D01*
X166483226Y-67614133D01*
X166471244Y-67594142D01*
X166461279Y-67573072D01*
X166453427Y-67551128D01*
X166447763Y-67528519D01*
X166444344Y-67505464D01*
X166443200Y-67482185D01*
X166443200Y-67007185D01*
X166444344Y-66983906D01*
X166447763Y-66960851D01*
X166453427Y-66938242D01*
X166461279Y-66916298D01*
X166471244Y-66895228D01*
X166483226Y-66875237D01*
X166497110Y-66856517D01*
X166512762Y-66839247D01*
X166530032Y-66823595D01*
X166548752Y-66809711D01*
X166568743Y-66797729D01*
X166589813Y-66787764D01*
X166611757Y-66779912D01*
X166634366Y-66774248D01*
X166657421Y-66770829D01*
X166680700Y-66769685D01*
X167255700Y-66769685D01*
X167278979Y-66770829D01*
X167278979Y-66770829D01*
G37*
D19*
X166968200Y-67244685D03*
D18*
G36*
X165246979Y-64804144D02*
G01*
X165270034Y-64807563D01*
X165292643Y-64813227D01*
X165314587Y-64821079D01*
X165335657Y-64831044D01*
X165355648Y-64843026D01*
X165374368Y-64856910D01*
X165391638Y-64872562D01*
X165407290Y-64889832D01*
X165421174Y-64908552D01*
X165433156Y-64928543D01*
X165443121Y-64949613D01*
X165450973Y-64971557D01*
X165456637Y-64994166D01*
X165460056Y-65017221D01*
X165461200Y-65040500D01*
X165461200Y-65515500D01*
X165460056Y-65538779D01*
X165456637Y-65561834D01*
X165450973Y-65584443D01*
X165443121Y-65606387D01*
X165433156Y-65627457D01*
X165421174Y-65647448D01*
X165407290Y-65666168D01*
X165391638Y-65683438D01*
X165374368Y-65699090D01*
X165355648Y-65712974D01*
X165335657Y-65724956D01*
X165314587Y-65734921D01*
X165292643Y-65742773D01*
X165270034Y-65748437D01*
X165246979Y-65751856D01*
X165223700Y-65753000D01*
X164648700Y-65753000D01*
X164625421Y-65751856D01*
X164602366Y-65748437D01*
X164579757Y-65742773D01*
X164557813Y-65734921D01*
X164536743Y-65724956D01*
X164516752Y-65712974D01*
X164498032Y-65699090D01*
X164480762Y-65683438D01*
X164465110Y-65666168D01*
X164451226Y-65647448D01*
X164439244Y-65627457D01*
X164429279Y-65606387D01*
X164421427Y-65584443D01*
X164415763Y-65561834D01*
X164412344Y-65538779D01*
X164411200Y-65515500D01*
X164411200Y-65040500D01*
X164412344Y-65017221D01*
X164415763Y-64994166D01*
X164421427Y-64971557D01*
X164429279Y-64949613D01*
X164439244Y-64928543D01*
X164451226Y-64908552D01*
X164465110Y-64889832D01*
X164480762Y-64872562D01*
X164498032Y-64856910D01*
X164516752Y-64843026D01*
X164536743Y-64831044D01*
X164557813Y-64821079D01*
X164579757Y-64813227D01*
X164602366Y-64807563D01*
X164625421Y-64804144D01*
X164648700Y-64803000D01*
X165223700Y-64803000D01*
X165246979Y-64804144D01*
X165246979Y-64804144D01*
G37*
D19*
X164936200Y-65278000D03*
D18*
G36*
X166996979Y-64804144D02*
G01*
X167020034Y-64807563D01*
X167042643Y-64813227D01*
X167064587Y-64821079D01*
X167085657Y-64831044D01*
X167105648Y-64843026D01*
X167124368Y-64856910D01*
X167141638Y-64872562D01*
X167157290Y-64889832D01*
X167171174Y-64908552D01*
X167183156Y-64928543D01*
X167193121Y-64949613D01*
X167200973Y-64971557D01*
X167206637Y-64994166D01*
X167210056Y-65017221D01*
X167211200Y-65040500D01*
X167211200Y-65515500D01*
X167210056Y-65538779D01*
X167206637Y-65561834D01*
X167200973Y-65584443D01*
X167193121Y-65606387D01*
X167183156Y-65627457D01*
X167171174Y-65647448D01*
X167157290Y-65666168D01*
X167141638Y-65683438D01*
X167124368Y-65699090D01*
X167105648Y-65712974D01*
X167085657Y-65724956D01*
X167064587Y-65734921D01*
X167042643Y-65742773D01*
X167020034Y-65748437D01*
X166996979Y-65751856D01*
X166973700Y-65753000D01*
X166398700Y-65753000D01*
X166375421Y-65751856D01*
X166352366Y-65748437D01*
X166329757Y-65742773D01*
X166307813Y-65734921D01*
X166286743Y-65724956D01*
X166266752Y-65712974D01*
X166248032Y-65699090D01*
X166230762Y-65683438D01*
X166215110Y-65666168D01*
X166201226Y-65647448D01*
X166189244Y-65627457D01*
X166179279Y-65606387D01*
X166171427Y-65584443D01*
X166165763Y-65561834D01*
X166162344Y-65538779D01*
X166161200Y-65515500D01*
X166161200Y-65040500D01*
X166162344Y-65017221D01*
X166165763Y-64994166D01*
X166171427Y-64971557D01*
X166179279Y-64949613D01*
X166189244Y-64928543D01*
X166201226Y-64908552D01*
X166215110Y-64889832D01*
X166230762Y-64872562D01*
X166248032Y-64856910D01*
X166266752Y-64843026D01*
X166286743Y-64831044D01*
X166307813Y-64821079D01*
X166329757Y-64813227D01*
X166352366Y-64807563D01*
X166375421Y-64804144D01*
X166398700Y-64803000D01*
X166973700Y-64803000D01*
X166996979Y-64804144D01*
X166996979Y-64804144D01*
G37*
D19*
X166686200Y-65278000D03*
D18*
G36*
X166996979Y-87540772D02*
G01*
X167020034Y-87544191D01*
X167042643Y-87549855D01*
X167064587Y-87557707D01*
X167085657Y-87567672D01*
X167105648Y-87579654D01*
X167124368Y-87593538D01*
X167141638Y-87609190D01*
X167157290Y-87626460D01*
X167171174Y-87645180D01*
X167183156Y-87665171D01*
X167193121Y-87686241D01*
X167200973Y-87708185D01*
X167206637Y-87730794D01*
X167210056Y-87753849D01*
X167211200Y-87777128D01*
X167211200Y-88252128D01*
X167210056Y-88275407D01*
X167206637Y-88298462D01*
X167200973Y-88321071D01*
X167193121Y-88343015D01*
X167183156Y-88364085D01*
X167171174Y-88384076D01*
X167157290Y-88402796D01*
X167141638Y-88420066D01*
X167124368Y-88435718D01*
X167105648Y-88449602D01*
X167085657Y-88461584D01*
X167064587Y-88471549D01*
X167042643Y-88479401D01*
X167020034Y-88485065D01*
X166996979Y-88488484D01*
X166973700Y-88489628D01*
X166398700Y-88489628D01*
X166375421Y-88488484D01*
X166352366Y-88485065D01*
X166329757Y-88479401D01*
X166307813Y-88471549D01*
X166286743Y-88461584D01*
X166266752Y-88449602D01*
X166248032Y-88435718D01*
X166230762Y-88420066D01*
X166215110Y-88402796D01*
X166201226Y-88384076D01*
X166189244Y-88364085D01*
X166179279Y-88343015D01*
X166171427Y-88321071D01*
X166165763Y-88298462D01*
X166162344Y-88275407D01*
X166161200Y-88252128D01*
X166161200Y-87777128D01*
X166162344Y-87753849D01*
X166165763Y-87730794D01*
X166171427Y-87708185D01*
X166179279Y-87686241D01*
X166189244Y-87665171D01*
X166201226Y-87645180D01*
X166215110Y-87626460D01*
X166230762Y-87609190D01*
X166248032Y-87593538D01*
X166266752Y-87579654D01*
X166286743Y-87567672D01*
X166307813Y-87557707D01*
X166329757Y-87549855D01*
X166352366Y-87544191D01*
X166375421Y-87540772D01*
X166398700Y-87539628D01*
X166973700Y-87539628D01*
X166996979Y-87540772D01*
X166996979Y-87540772D01*
G37*
D19*
X166686200Y-88014628D03*
D18*
G36*
X165246979Y-87540772D02*
G01*
X165270034Y-87544191D01*
X165292643Y-87549855D01*
X165314587Y-87557707D01*
X165335657Y-87567672D01*
X165355648Y-87579654D01*
X165374368Y-87593538D01*
X165391638Y-87609190D01*
X165407290Y-87626460D01*
X165421174Y-87645180D01*
X165433156Y-87665171D01*
X165443121Y-87686241D01*
X165450973Y-87708185D01*
X165456637Y-87730794D01*
X165460056Y-87753849D01*
X165461200Y-87777128D01*
X165461200Y-88252128D01*
X165460056Y-88275407D01*
X165456637Y-88298462D01*
X165450973Y-88321071D01*
X165443121Y-88343015D01*
X165433156Y-88364085D01*
X165421174Y-88384076D01*
X165407290Y-88402796D01*
X165391638Y-88420066D01*
X165374368Y-88435718D01*
X165355648Y-88449602D01*
X165335657Y-88461584D01*
X165314587Y-88471549D01*
X165292643Y-88479401D01*
X165270034Y-88485065D01*
X165246979Y-88488484D01*
X165223700Y-88489628D01*
X164648700Y-88489628D01*
X164625421Y-88488484D01*
X164602366Y-88485065D01*
X164579757Y-88479401D01*
X164557813Y-88471549D01*
X164536743Y-88461584D01*
X164516752Y-88449602D01*
X164498032Y-88435718D01*
X164480762Y-88420066D01*
X164465110Y-88402796D01*
X164451226Y-88384076D01*
X164439244Y-88364085D01*
X164429279Y-88343015D01*
X164421427Y-88321071D01*
X164415763Y-88298462D01*
X164412344Y-88275407D01*
X164411200Y-88252128D01*
X164411200Y-87777128D01*
X164412344Y-87753849D01*
X164415763Y-87730794D01*
X164421427Y-87708185D01*
X164429279Y-87686241D01*
X164439244Y-87665171D01*
X164451226Y-87645180D01*
X164465110Y-87626460D01*
X164480762Y-87609190D01*
X164498032Y-87593538D01*
X164516752Y-87579654D01*
X164536743Y-87567672D01*
X164557813Y-87557707D01*
X164579757Y-87549855D01*
X164602366Y-87544191D01*
X164625421Y-87540772D01*
X164648700Y-87539628D01*
X165223700Y-87539628D01*
X165246979Y-87540772D01*
X165246979Y-87540772D01*
G37*
D19*
X164936200Y-88014628D03*
D18*
G36*
X167278979Y-89442144D02*
G01*
X167302034Y-89445563D01*
X167324643Y-89451227D01*
X167346587Y-89459079D01*
X167367657Y-89469044D01*
X167387648Y-89481026D01*
X167406368Y-89494910D01*
X167423638Y-89510562D01*
X167439290Y-89527832D01*
X167453174Y-89546552D01*
X167465156Y-89566543D01*
X167475121Y-89587613D01*
X167482973Y-89609557D01*
X167488637Y-89632166D01*
X167492056Y-89655221D01*
X167493200Y-89678500D01*
X167493200Y-90153500D01*
X167492056Y-90176779D01*
X167488637Y-90199834D01*
X167482973Y-90222443D01*
X167475121Y-90244387D01*
X167465156Y-90265457D01*
X167453174Y-90285448D01*
X167439290Y-90304168D01*
X167423638Y-90321438D01*
X167406368Y-90337090D01*
X167387648Y-90350974D01*
X167367657Y-90362956D01*
X167346587Y-90372921D01*
X167324643Y-90380773D01*
X167302034Y-90386437D01*
X167278979Y-90389856D01*
X167255700Y-90391000D01*
X166680700Y-90391000D01*
X166657421Y-90389856D01*
X166634366Y-90386437D01*
X166611757Y-90380773D01*
X166589813Y-90372921D01*
X166568743Y-90362956D01*
X166548752Y-90350974D01*
X166530032Y-90337090D01*
X166512762Y-90321438D01*
X166497110Y-90304168D01*
X166483226Y-90285448D01*
X166471244Y-90265457D01*
X166461279Y-90244387D01*
X166453427Y-90222443D01*
X166447763Y-90199834D01*
X166444344Y-90176779D01*
X166443200Y-90153500D01*
X166443200Y-89678500D01*
X166444344Y-89655221D01*
X166447763Y-89632166D01*
X166453427Y-89609557D01*
X166461279Y-89587613D01*
X166471244Y-89566543D01*
X166483226Y-89546552D01*
X166497110Y-89527832D01*
X166512762Y-89510562D01*
X166530032Y-89494910D01*
X166548752Y-89481026D01*
X166568743Y-89469044D01*
X166589813Y-89459079D01*
X166611757Y-89451227D01*
X166634366Y-89445563D01*
X166657421Y-89442144D01*
X166680700Y-89441000D01*
X167255700Y-89441000D01*
X167278979Y-89442144D01*
X167278979Y-89442144D01*
G37*
D19*
X166968200Y-89916000D03*
D18*
G36*
X169028979Y-89442144D02*
G01*
X169052034Y-89445563D01*
X169074643Y-89451227D01*
X169096587Y-89459079D01*
X169117657Y-89469044D01*
X169137648Y-89481026D01*
X169156368Y-89494910D01*
X169173638Y-89510562D01*
X169189290Y-89527832D01*
X169203174Y-89546552D01*
X169215156Y-89566543D01*
X169225121Y-89587613D01*
X169232973Y-89609557D01*
X169238637Y-89632166D01*
X169242056Y-89655221D01*
X169243200Y-89678500D01*
X169243200Y-90153500D01*
X169242056Y-90176779D01*
X169238637Y-90199834D01*
X169232973Y-90222443D01*
X169225121Y-90244387D01*
X169215156Y-90265457D01*
X169203174Y-90285448D01*
X169189290Y-90304168D01*
X169173638Y-90321438D01*
X169156368Y-90337090D01*
X169137648Y-90350974D01*
X169117657Y-90362956D01*
X169096587Y-90372921D01*
X169074643Y-90380773D01*
X169052034Y-90386437D01*
X169028979Y-90389856D01*
X169005700Y-90391000D01*
X168430700Y-90391000D01*
X168407421Y-90389856D01*
X168384366Y-90386437D01*
X168361757Y-90380773D01*
X168339813Y-90372921D01*
X168318743Y-90362956D01*
X168298752Y-90350974D01*
X168280032Y-90337090D01*
X168262762Y-90321438D01*
X168247110Y-90304168D01*
X168233226Y-90285448D01*
X168221244Y-90265457D01*
X168211279Y-90244387D01*
X168203427Y-90222443D01*
X168197763Y-90199834D01*
X168194344Y-90176779D01*
X168193200Y-90153500D01*
X168193200Y-89678500D01*
X168194344Y-89655221D01*
X168197763Y-89632166D01*
X168203427Y-89609557D01*
X168211279Y-89587613D01*
X168221244Y-89566543D01*
X168233226Y-89546552D01*
X168247110Y-89527832D01*
X168262762Y-89510562D01*
X168280032Y-89494910D01*
X168298752Y-89481026D01*
X168318743Y-89469044D01*
X168339813Y-89459079D01*
X168361757Y-89451227D01*
X168384366Y-89445563D01*
X168407421Y-89442144D01*
X168430700Y-89441000D01*
X169005700Y-89441000D01*
X169028979Y-89442144D01*
X169028979Y-89442144D01*
G37*
D19*
X168718200Y-89916000D03*
D18*
G36*
X169028979Y-78215344D02*
G01*
X169052034Y-78218763D01*
X169074643Y-78224427D01*
X169096587Y-78232279D01*
X169117657Y-78242244D01*
X169137648Y-78254226D01*
X169156368Y-78268110D01*
X169173638Y-78283762D01*
X169189290Y-78301032D01*
X169203174Y-78319752D01*
X169215156Y-78339743D01*
X169225121Y-78360813D01*
X169232973Y-78382757D01*
X169238637Y-78405366D01*
X169242056Y-78428421D01*
X169243200Y-78451700D01*
X169243200Y-78926700D01*
X169242056Y-78949979D01*
X169238637Y-78973034D01*
X169232973Y-78995643D01*
X169225121Y-79017587D01*
X169215156Y-79038657D01*
X169203174Y-79058648D01*
X169189290Y-79077368D01*
X169173638Y-79094638D01*
X169156368Y-79110290D01*
X169137648Y-79124174D01*
X169117657Y-79136156D01*
X169096587Y-79146121D01*
X169074643Y-79153973D01*
X169052034Y-79159637D01*
X169028979Y-79163056D01*
X169005700Y-79164200D01*
X168430700Y-79164200D01*
X168407421Y-79163056D01*
X168384366Y-79159637D01*
X168361757Y-79153973D01*
X168339813Y-79146121D01*
X168318743Y-79136156D01*
X168298752Y-79124174D01*
X168280032Y-79110290D01*
X168262762Y-79094638D01*
X168247110Y-79077368D01*
X168233226Y-79058648D01*
X168221244Y-79038657D01*
X168211279Y-79017587D01*
X168203427Y-78995643D01*
X168197763Y-78973034D01*
X168194344Y-78949979D01*
X168193200Y-78926700D01*
X168193200Y-78451700D01*
X168194344Y-78428421D01*
X168197763Y-78405366D01*
X168203427Y-78382757D01*
X168211279Y-78360813D01*
X168221244Y-78339743D01*
X168233226Y-78319752D01*
X168247110Y-78301032D01*
X168262762Y-78283762D01*
X168280032Y-78268110D01*
X168298752Y-78254226D01*
X168318743Y-78242244D01*
X168339813Y-78232279D01*
X168361757Y-78224427D01*
X168384366Y-78218763D01*
X168407421Y-78215344D01*
X168430700Y-78214200D01*
X169005700Y-78214200D01*
X169028979Y-78215344D01*
X169028979Y-78215344D01*
G37*
D19*
X168718200Y-78689200D03*
D18*
G36*
X167278979Y-78215344D02*
G01*
X167302034Y-78218763D01*
X167324643Y-78224427D01*
X167346587Y-78232279D01*
X167367657Y-78242244D01*
X167387648Y-78254226D01*
X167406368Y-78268110D01*
X167423638Y-78283762D01*
X167439290Y-78301032D01*
X167453174Y-78319752D01*
X167465156Y-78339743D01*
X167475121Y-78360813D01*
X167482973Y-78382757D01*
X167488637Y-78405366D01*
X167492056Y-78428421D01*
X167493200Y-78451700D01*
X167493200Y-78926700D01*
X167492056Y-78949979D01*
X167488637Y-78973034D01*
X167482973Y-78995643D01*
X167475121Y-79017587D01*
X167465156Y-79038657D01*
X167453174Y-79058648D01*
X167439290Y-79077368D01*
X167423638Y-79094638D01*
X167406368Y-79110290D01*
X167387648Y-79124174D01*
X167367657Y-79136156D01*
X167346587Y-79146121D01*
X167324643Y-79153973D01*
X167302034Y-79159637D01*
X167278979Y-79163056D01*
X167255700Y-79164200D01*
X166680700Y-79164200D01*
X166657421Y-79163056D01*
X166634366Y-79159637D01*
X166611757Y-79153973D01*
X166589813Y-79146121D01*
X166568743Y-79136156D01*
X166548752Y-79124174D01*
X166530032Y-79110290D01*
X166512762Y-79094638D01*
X166497110Y-79077368D01*
X166483226Y-79058648D01*
X166471244Y-79038657D01*
X166461279Y-79017587D01*
X166453427Y-78995643D01*
X166447763Y-78973034D01*
X166444344Y-78949979D01*
X166443200Y-78926700D01*
X166443200Y-78451700D01*
X166444344Y-78428421D01*
X166447763Y-78405366D01*
X166453427Y-78382757D01*
X166461279Y-78360813D01*
X166471244Y-78339743D01*
X166483226Y-78319752D01*
X166497110Y-78301032D01*
X166512762Y-78283762D01*
X166530032Y-78268110D01*
X166548752Y-78254226D01*
X166568743Y-78242244D01*
X166589813Y-78232279D01*
X166611757Y-78224427D01*
X166634366Y-78218763D01*
X166657421Y-78215344D01*
X166680700Y-78214200D01*
X167255700Y-78214200D01*
X167278979Y-78215344D01*
X167278979Y-78215344D01*
G37*
D19*
X166968200Y-78689200D03*
D18*
G36*
X167200179Y-98934486D02*
G01*
X167223234Y-98937905D01*
X167245843Y-98943569D01*
X167267787Y-98951421D01*
X167288857Y-98961386D01*
X167308848Y-98973368D01*
X167327568Y-98987252D01*
X167344838Y-99002904D01*
X167360490Y-99020174D01*
X167374374Y-99038894D01*
X167386356Y-99058885D01*
X167396321Y-99079955D01*
X167404173Y-99101899D01*
X167409837Y-99124508D01*
X167413256Y-99147563D01*
X167414400Y-99170842D01*
X167414400Y-99645842D01*
X167413256Y-99669121D01*
X167409837Y-99692176D01*
X167404173Y-99714785D01*
X167396321Y-99736729D01*
X167386356Y-99757799D01*
X167374374Y-99777790D01*
X167360490Y-99796510D01*
X167344838Y-99813780D01*
X167327568Y-99829432D01*
X167308848Y-99843316D01*
X167288857Y-99855298D01*
X167267787Y-99865263D01*
X167245843Y-99873115D01*
X167223234Y-99878779D01*
X167200179Y-99882198D01*
X167176900Y-99883342D01*
X166601900Y-99883342D01*
X166578621Y-99882198D01*
X166555566Y-99878779D01*
X166532957Y-99873115D01*
X166511013Y-99865263D01*
X166489943Y-99855298D01*
X166469952Y-99843316D01*
X166451232Y-99829432D01*
X166433962Y-99813780D01*
X166418310Y-99796510D01*
X166404426Y-99777790D01*
X166392444Y-99757799D01*
X166382479Y-99736729D01*
X166374627Y-99714785D01*
X166368963Y-99692176D01*
X166365544Y-99669121D01*
X166364400Y-99645842D01*
X166364400Y-99170842D01*
X166365544Y-99147563D01*
X166368963Y-99124508D01*
X166374627Y-99101899D01*
X166382479Y-99079955D01*
X166392444Y-99058885D01*
X166404426Y-99038894D01*
X166418310Y-99020174D01*
X166433962Y-99002904D01*
X166451232Y-98987252D01*
X166469952Y-98973368D01*
X166489943Y-98961386D01*
X166511013Y-98951421D01*
X166532957Y-98943569D01*
X166555566Y-98937905D01*
X166578621Y-98934486D01*
X166601900Y-98933342D01*
X167176900Y-98933342D01*
X167200179Y-98934486D01*
X167200179Y-98934486D01*
G37*
D19*
X166889400Y-99408342D03*
D18*
G36*
X165450179Y-98934486D02*
G01*
X165473234Y-98937905D01*
X165495843Y-98943569D01*
X165517787Y-98951421D01*
X165538857Y-98961386D01*
X165558848Y-98973368D01*
X165577568Y-98987252D01*
X165594838Y-99002904D01*
X165610490Y-99020174D01*
X165624374Y-99038894D01*
X165636356Y-99058885D01*
X165646321Y-99079955D01*
X165654173Y-99101899D01*
X165659837Y-99124508D01*
X165663256Y-99147563D01*
X165664400Y-99170842D01*
X165664400Y-99645842D01*
X165663256Y-99669121D01*
X165659837Y-99692176D01*
X165654173Y-99714785D01*
X165646321Y-99736729D01*
X165636356Y-99757799D01*
X165624374Y-99777790D01*
X165610490Y-99796510D01*
X165594838Y-99813780D01*
X165577568Y-99829432D01*
X165558848Y-99843316D01*
X165538857Y-99855298D01*
X165517787Y-99865263D01*
X165495843Y-99873115D01*
X165473234Y-99878779D01*
X165450179Y-99882198D01*
X165426900Y-99883342D01*
X164851900Y-99883342D01*
X164828621Y-99882198D01*
X164805566Y-99878779D01*
X164782957Y-99873115D01*
X164761013Y-99865263D01*
X164739943Y-99855298D01*
X164719952Y-99843316D01*
X164701232Y-99829432D01*
X164683962Y-99813780D01*
X164668310Y-99796510D01*
X164654426Y-99777790D01*
X164642444Y-99757799D01*
X164632479Y-99736729D01*
X164624627Y-99714785D01*
X164618963Y-99692176D01*
X164615544Y-99669121D01*
X164614400Y-99645842D01*
X164614400Y-99170842D01*
X164615544Y-99147563D01*
X164618963Y-99124508D01*
X164624627Y-99101899D01*
X164632479Y-99079955D01*
X164642444Y-99058885D01*
X164654426Y-99038894D01*
X164668310Y-99020174D01*
X164683962Y-99002904D01*
X164701232Y-98987252D01*
X164719952Y-98973368D01*
X164739943Y-98961386D01*
X164761013Y-98951421D01*
X164782957Y-98943569D01*
X164805566Y-98937905D01*
X164828621Y-98934486D01*
X164851900Y-98933342D01*
X165426900Y-98933342D01*
X165450179Y-98934486D01*
X165450179Y-98934486D01*
G37*
D19*
X165139400Y-99408342D03*
D18*
G36*
X164930779Y-110016144D02*
G01*
X164953834Y-110019563D01*
X164976443Y-110025227D01*
X164998387Y-110033079D01*
X165019457Y-110043044D01*
X165039448Y-110055026D01*
X165058168Y-110068910D01*
X165075438Y-110084562D01*
X165091090Y-110101832D01*
X165104974Y-110120552D01*
X165116956Y-110140543D01*
X165126921Y-110161613D01*
X165134773Y-110183557D01*
X165140437Y-110206166D01*
X165143856Y-110229221D01*
X165145000Y-110252500D01*
X165145000Y-110727500D01*
X165143856Y-110750779D01*
X165140437Y-110773834D01*
X165134773Y-110796443D01*
X165126921Y-110818387D01*
X165116956Y-110839457D01*
X165104974Y-110859448D01*
X165091090Y-110878168D01*
X165075438Y-110895438D01*
X165058168Y-110911090D01*
X165039448Y-110924974D01*
X165019457Y-110936956D01*
X164998387Y-110946921D01*
X164976443Y-110954773D01*
X164953834Y-110960437D01*
X164930779Y-110963856D01*
X164907500Y-110965000D01*
X164332500Y-110965000D01*
X164309221Y-110963856D01*
X164286166Y-110960437D01*
X164263557Y-110954773D01*
X164241613Y-110946921D01*
X164220543Y-110936956D01*
X164200552Y-110924974D01*
X164181832Y-110911090D01*
X164164562Y-110895438D01*
X164148910Y-110878168D01*
X164135026Y-110859448D01*
X164123044Y-110839457D01*
X164113079Y-110818387D01*
X164105227Y-110796443D01*
X164099563Y-110773834D01*
X164096144Y-110750779D01*
X164095000Y-110727500D01*
X164095000Y-110252500D01*
X164096144Y-110229221D01*
X164099563Y-110206166D01*
X164105227Y-110183557D01*
X164113079Y-110161613D01*
X164123044Y-110140543D01*
X164135026Y-110120552D01*
X164148910Y-110101832D01*
X164164562Y-110084562D01*
X164181832Y-110068910D01*
X164200552Y-110055026D01*
X164220543Y-110043044D01*
X164241613Y-110033079D01*
X164263557Y-110025227D01*
X164286166Y-110019563D01*
X164309221Y-110016144D01*
X164332500Y-110015000D01*
X164907500Y-110015000D01*
X164930779Y-110016144D01*
X164930779Y-110016144D01*
G37*
D19*
X164620000Y-110490000D03*
D18*
G36*
X166680779Y-110016144D02*
G01*
X166703834Y-110019563D01*
X166726443Y-110025227D01*
X166748387Y-110033079D01*
X166769457Y-110043044D01*
X166789448Y-110055026D01*
X166808168Y-110068910D01*
X166825438Y-110084562D01*
X166841090Y-110101832D01*
X166854974Y-110120552D01*
X166866956Y-110140543D01*
X166876921Y-110161613D01*
X166884773Y-110183557D01*
X166890437Y-110206166D01*
X166893856Y-110229221D01*
X166895000Y-110252500D01*
X166895000Y-110727500D01*
X166893856Y-110750779D01*
X166890437Y-110773834D01*
X166884773Y-110796443D01*
X166876921Y-110818387D01*
X166866956Y-110839457D01*
X166854974Y-110859448D01*
X166841090Y-110878168D01*
X166825438Y-110895438D01*
X166808168Y-110911090D01*
X166789448Y-110924974D01*
X166769457Y-110936956D01*
X166748387Y-110946921D01*
X166726443Y-110954773D01*
X166703834Y-110960437D01*
X166680779Y-110963856D01*
X166657500Y-110965000D01*
X166082500Y-110965000D01*
X166059221Y-110963856D01*
X166036166Y-110960437D01*
X166013557Y-110954773D01*
X165991613Y-110946921D01*
X165970543Y-110936956D01*
X165950552Y-110924974D01*
X165931832Y-110911090D01*
X165914562Y-110895438D01*
X165898910Y-110878168D01*
X165885026Y-110859448D01*
X165873044Y-110839457D01*
X165863079Y-110818387D01*
X165855227Y-110796443D01*
X165849563Y-110773834D01*
X165846144Y-110750779D01*
X165845000Y-110727500D01*
X165845000Y-110252500D01*
X165846144Y-110229221D01*
X165849563Y-110206166D01*
X165855227Y-110183557D01*
X165863079Y-110161613D01*
X165873044Y-110140543D01*
X165885026Y-110120552D01*
X165898910Y-110101832D01*
X165914562Y-110084562D01*
X165931832Y-110068910D01*
X165950552Y-110055026D01*
X165970543Y-110043044D01*
X165991613Y-110033079D01*
X166013557Y-110025227D01*
X166036166Y-110019563D01*
X166059221Y-110016144D01*
X166082500Y-110015000D01*
X166657500Y-110015000D01*
X166680779Y-110016144D01*
X166680779Y-110016144D01*
G37*
D19*
X166370000Y-110490000D03*
D18*
G36*
X169028979Y-100821344D02*
G01*
X169052034Y-100824763D01*
X169074643Y-100830427D01*
X169096587Y-100838279D01*
X169117657Y-100848244D01*
X169137648Y-100860226D01*
X169156368Y-100874110D01*
X169173638Y-100889762D01*
X169189290Y-100907032D01*
X169203174Y-100925752D01*
X169215156Y-100945743D01*
X169225121Y-100966813D01*
X169232973Y-100988757D01*
X169238637Y-101011366D01*
X169242056Y-101034421D01*
X169243200Y-101057700D01*
X169243200Y-101532700D01*
X169242056Y-101555979D01*
X169238637Y-101579034D01*
X169232973Y-101601643D01*
X169225121Y-101623587D01*
X169215156Y-101644657D01*
X169203174Y-101664648D01*
X169189290Y-101683368D01*
X169173638Y-101700638D01*
X169156368Y-101716290D01*
X169137648Y-101730174D01*
X169117657Y-101742156D01*
X169096587Y-101752121D01*
X169074643Y-101759973D01*
X169052034Y-101765637D01*
X169028979Y-101769056D01*
X169005700Y-101770200D01*
X168430700Y-101770200D01*
X168407421Y-101769056D01*
X168384366Y-101765637D01*
X168361757Y-101759973D01*
X168339813Y-101752121D01*
X168318743Y-101742156D01*
X168298752Y-101730174D01*
X168280032Y-101716290D01*
X168262762Y-101700638D01*
X168247110Y-101683368D01*
X168233226Y-101664648D01*
X168221244Y-101644657D01*
X168211279Y-101623587D01*
X168203427Y-101601643D01*
X168197763Y-101579034D01*
X168194344Y-101555979D01*
X168193200Y-101532700D01*
X168193200Y-101057700D01*
X168194344Y-101034421D01*
X168197763Y-101011366D01*
X168203427Y-100988757D01*
X168211279Y-100966813D01*
X168221244Y-100945743D01*
X168233226Y-100925752D01*
X168247110Y-100907032D01*
X168262762Y-100889762D01*
X168280032Y-100874110D01*
X168298752Y-100860226D01*
X168318743Y-100848244D01*
X168339813Y-100838279D01*
X168361757Y-100830427D01*
X168384366Y-100824763D01*
X168407421Y-100821344D01*
X168430700Y-100820200D01*
X169005700Y-100820200D01*
X169028979Y-100821344D01*
X169028979Y-100821344D01*
G37*
D19*
X168718200Y-101295200D03*
D18*
G36*
X167278979Y-100821344D02*
G01*
X167302034Y-100824763D01*
X167324643Y-100830427D01*
X167346587Y-100838279D01*
X167367657Y-100848244D01*
X167387648Y-100860226D01*
X167406368Y-100874110D01*
X167423638Y-100889762D01*
X167439290Y-100907032D01*
X167453174Y-100925752D01*
X167465156Y-100945743D01*
X167475121Y-100966813D01*
X167482973Y-100988757D01*
X167488637Y-101011366D01*
X167492056Y-101034421D01*
X167493200Y-101057700D01*
X167493200Y-101532700D01*
X167492056Y-101555979D01*
X167488637Y-101579034D01*
X167482973Y-101601643D01*
X167475121Y-101623587D01*
X167465156Y-101644657D01*
X167453174Y-101664648D01*
X167439290Y-101683368D01*
X167423638Y-101700638D01*
X167406368Y-101716290D01*
X167387648Y-101730174D01*
X167367657Y-101742156D01*
X167346587Y-101752121D01*
X167324643Y-101759973D01*
X167302034Y-101765637D01*
X167278979Y-101769056D01*
X167255700Y-101770200D01*
X166680700Y-101770200D01*
X166657421Y-101769056D01*
X166634366Y-101765637D01*
X166611757Y-101759973D01*
X166589813Y-101752121D01*
X166568743Y-101742156D01*
X166548752Y-101730174D01*
X166530032Y-101716290D01*
X166512762Y-101700638D01*
X166497110Y-101683368D01*
X166483226Y-101664648D01*
X166471244Y-101644657D01*
X166461279Y-101623587D01*
X166453427Y-101601643D01*
X166447763Y-101579034D01*
X166444344Y-101555979D01*
X166443200Y-101532700D01*
X166443200Y-101057700D01*
X166444344Y-101034421D01*
X166447763Y-101011366D01*
X166453427Y-100988757D01*
X166461279Y-100966813D01*
X166471244Y-100945743D01*
X166483226Y-100925752D01*
X166497110Y-100907032D01*
X166512762Y-100889762D01*
X166530032Y-100874110D01*
X166548752Y-100860226D01*
X166568743Y-100848244D01*
X166589813Y-100838279D01*
X166611757Y-100830427D01*
X166634366Y-100824763D01*
X166657421Y-100821344D01*
X166680700Y-100820200D01*
X167255700Y-100820200D01*
X167278979Y-100821344D01*
X167278979Y-100821344D01*
G37*
D19*
X166968200Y-101295200D03*
D18*
G36*
X167278979Y-112175144D02*
G01*
X167302034Y-112178563D01*
X167324643Y-112184227D01*
X167346587Y-112192079D01*
X167367657Y-112202044D01*
X167387648Y-112214026D01*
X167406368Y-112227910D01*
X167423638Y-112243562D01*
X167439290Y-112260832D01*
X167453174Y-112279552D01*
X167465156Y-112299543D01*
X167475121Y-112320613D01*
X167482973Y-112342557D01*
X167488637Y-112365166D01*
X167492056Y-112388221D01*
X167493200Y-112411500D01*
X167493200Y-112886500D01*
X167492056Y-112909779D01*
X167488637Y-112932834D01*
X167482973Y-112955443D01*
X167475121Y-112977387D01*
X167465156Y-112998457D01*
X167453174Y-113018448D01*
X167439290Y-113037168D01*
X167423638Y-113054438D01*
X167406368Y-113070090D01*
X167387648Y-113083974D01*
X167367657Y-113095956D01*
X167346587Y-113105921D01*
X167324643Y-113113773D01*
X167302034Y-113119437D01*
X167278979Y-113122856D01*
X167255700Y-113124000D01*
X166680700Y-113124000D01*
X166657421Y-113122856D01*
X166634366Y-113119437D01*
X166611757Y-113113773D01*
X166589813Y-113105921D01*
X166568743Y-113095956D01*
X166548752Y-113083974D01*
X166530032Y-113070090D01*
X166512762Y-113054438D01*
X166497110Y-113037168D01*
X166483226Y-113018448D01*
X166471244Y-112998457D01*
X166461279Y-112977387D01*
X166453427Y-112955443D01*
X166447763Y-112932834D01*
X166444344Y-112909779D01*
X166443200Y-112886500D01*
X166443200Y-112411500D01*
X166444344Y-112388221D01*
X166447763Y-112365166D01*
X166453427Y-112342557D01*
X166461279Y-112320613D01*
X166471244Y-112299543D01*
X166483226Y-112279552D01*
X166497110Y-112260832D01*
X166512762Y-112243562D01*
X166530032Y-112227910D01*
X166548752Y-112214026D01*
X166568743Y-112202044D01*
X166589813Y-112192079D01*
X166611757Y-112184227D01*
X166634366Y-112178563D01*
X166657421Y-112175144D01*
X166680700Y-112174000D01*
X167255700Y-112174000D01*
X167278979Y-112175144D01*
X167278979Y-112175144D01*
G37*
D19*
X166968200Y-112649000D03*
D18*
G36*
X169028979Y-112175144D02*
G01*
X169052034Y-112178563D01*
X169074643Y-112184227D01*
X169096587Y-112192079D01*
X169117657Y-112202044D01*
X169137648Y-112214026D01*
X169156368Y-112227910D01*
X169173638Y-112243562D01*
X169189290Y-112260832D01*
X169203174Y-112279552D01*
X169215156Y-112299543D01*
X169225121Y-112320613D01*
X169232973Y-112342557D01*
X169238637Y-112365166D01*
X169242056Y-112388221D01*
X169243200Y-112411500D01*
X169243200Y-112886500D01*
X169242056Y-112909779D01*
X169238637Y-112932834D01*
X169232973Y-112955443D01*
X169225121Y-112977387D01*
X169215156Y-112998457D01*
X169203174Y-113018448D01*
X169189290Y-113037168D01*
X169173638Y-113054438D01*
X169156368Y-113070090D01*
X169137648Y-113083974D01*
X169117657Y-113095956D01*
X169096587Y-113105921D01*
X169074643Y-113113773D01*
X169052034Y-113119437D01*
X169028979Y-113122856D01*
X169005700Y-113124000D01*
X168430700Y-113124000D01*
X168407421Y-113122856D01*
X168384366Y-113119437D01*
X168361757Y-113113773D01*
X168339813Y-113105921D01*
X168318743Y-113095956D01*
X168298752Y-113083974D01*
X168280032Y-113070090D01*
X168262762Y-113054438D01*
X168247110Y-113037168D01*
X168233226Y-113018448D01*
X168221244Y-112998457D01*
X168211279Y-112977387D01*
X168203427Y-112955443D01*
X168197763Y-112932834D01*
X168194344Y-112909779D01*
X168193200Y-112886500D01*
X168193200Y-112411500D01*
X168194344Y-112388221D01*
X168197763Y-112365166D01*
X168203427Y-112342557D01*
X168211279Y-112320613D01*
X168221244Y-112299543D01*
X168233226Y-112279552D01*
X168247110Y-112260832D01*
X168262762Y-112243562D01*
X168280032Y-112227910D01*
X168298752Y-112214026D01*
X168318743Y-112202044D01*
X168339813Y-112192079D01*
X168361757Y-112184227D01*
X168384366Y-112178563D01*
X168407421Y-112175144D01*
X168430700Y-112174000D01*
X169005700Y-112174000D01*
X169028979Y-112175144D01*
X169028979Y-112175144D01*
G37*
D19*
X168718200Y-112649000D03*
D18*
G36*
X167200179Y-121721914D02*
G01*
X167223234Y-121725333D01*
X167245843Y-121730997D01*
X167267787Y-121738849D01*
X167288857Y-121748814D01*
X167308848Y-121760796D01*
X167327568Y-121774680D01*
X167344838Y-121790332D01*
X167360490Y-121807602D01*
X167374374Y-121826322D01*
X167386356Y-121846313D01*
X167396321Y-121867383D01*
X167404173Y-121889327D01*
X167409837Y-121911936D01*
X167413256Y-121934991D01*
X167414400Y-121958270D01*
X167414400Y-122433270D01*
X167413256Y-122456549D01*
X167409837Y-122479604D01*
X167404173Y-122502213D01*
X167396321Y-122524157D01*
X167386356Y-122545227D01*
X167374374Y-122565218D01*
X167360490Y-122583938D01*
X167344838Y-122601208D01*
X167327568Y-122616860D01*
X167308848Y-122630744D01*
X167288857Y-122642726D01*
X167267787Y-122652691D01*
X167245843Y-122660543D01*
X167223234Y-122666207D01*
X167200179Y-122669626D01*
X167176900Y-122670770D01*
X166601900Y-122670770D01*
X166578621Y-122669626D01*
X166555566Y-122666207D01*
X166532957Y-122660543D01*
X166511013Y-122652691D01*
X166489943Y-122642726D01*
X166469952Y-122630744D01*
X166451232Y-122616860D01*
X166433962Y-122601208D01*
X166418310Y-122583938D01*
X166404426Y-122565218D01*
X166392444Y-122545227D01*
X166382479Y-122524157D01*
X166374627Y-122502213D01*
X166368963Y-122479604D01*
X166365544Y-122456549D01*
X166364400Y-122433270D01*
X166364400Y-121958270D01*
X166365544Y-121934991D01*
X166368963Y-121911936D01*
X166374627Y-121889327D01*
X166382479Y-121867383D01*
X166392444Y-121846313D01*
X166404426Y-121826322D01*
X166418310Y-121807602D01*
X166433962Y-121790332D01*
X166451232Y-121774680D01*
X166469952Y-121760796D01*
X166489943Y-121748814D01*
X166511013Y-121738849D01*
X166532957Y-121730997D01*
X166555566Y-121725333D01*
X166578621Y-121721914D01*
X166601900Y-121720770D01*
X167176900Y-121720770D01*
X167200179Y-121721914D01*
X167200179Y-121721914D01*
G37*
D19*
X166889400Y-122195770D03*
D18*
G36*
X165450179Y-121721914D02*
G01*
X165473234Y-121725333D01*
X165495843Y-121730997D01*
X165517787Y-121738849D01*
X165538857Y-121748814D01*
X165558848Y-121760796D01*
X165577568Y-121774680D01*
X165594838Y-121790332D01*
X165610490Y-121807602D01*
X165624374Y-121826322D01*
X165636356Y-121846313D01*
X165646321Y-121867383D01*
X165654173Y-121889327D01*
X165659837Y-121911936D01*
X165663256Y-121934991D01*
X165664400Y-121958270D01*
X165664400Y-122433270D01*
X165663256Y-122456549D01*
X165659837Y-122479604D01*
X165654173Y-122502213D01*
X165646321Y-122524157D01*
X165636356Y-122545227D01*
X165624374Y-122565218D01*
X165610490Y-122583938D01*
X165594838Y-122601208D01*
X165577568Y-122616860D01*
X165558848Y-122630744D01*
X165538857Y-122642726D01*
X165517787Y-122652691D01*
X165495843Y-122660543D01*
X165473234Y-122666207D01*
X165450179Y-122669626D01*
X165426900Y-122670770D01*
X164851900Y-122670770D01*
X164828621Y-122669626D01*
X164805566Y-122666207D01*
X164782957Y-122660543D01*
X164761013Y-122652691D01*
X164739943Y-122642726D01*
X164719952Y-122630744D01*
X164701232Y-122616860D01*
X164683962Y-122601208D01*
X164668310Y-122583938D01*
X164654426Y-122565218D01*
X164642444Y-122545227D01*
X164632479Y-122524157D01*
X164624627Y-122502213D01*
X164618963Y-122479604D01*
X164615544Y-122456549D01*
X164614400Y-122433270D01*
X164614400Y-121958270D01*
X164615544Y-121934991D01*
X164618963Y-121911936D01*
X164624627Y-121889327D01*
X164632479Y-121867383D01*
X164642444Y-121846313D01*
X164654426Y-121826322D01*
X164668310Y-121807602D01*
X164683962Y-121790332D01*
X164701232Y-121774680D01*
X164719952Y-121760796D01*
X164739943Y-121748814D01*
X164761013Y-121738849D01*
X164782957Y-121730997D01*
X164805566Y-121725333D01*
X164828621Y-121721914D01*
X164851900Y-121720770D01*
X165426900Y-121720770D01*
X165450179Y-121721914D01*
X165450179Y-121721914D01*
G37*
D19*
X165139400Y-122195770D03*
D18*
G36*
X167252279Y-123528944D02*
G01*
X167275334Y-123532363D01*
X167297943Y-123538027D01*
X167319887Y-123545879D01*
X167340957Y-123555844D01*
X167360948Y-123567826D01*
X167379668Y-123581710D01*
X167396938Y-123597362D01*
X167412590Y-123614632D01*
X167426474Y-123633352D01*
X167438456Y-123653343D01*
X167448421Y-123674413D01*
X167456273Y-123696357D01*
X167461937Y-123718966D01*
X167465356Y-123742021D01*
X167466500Y-123765300D01*
X167466500Y-124240300D01*
X167465356Y-124263579D01*
X167461937Y-124286634D01*
X167456273Y-124309243D01*
X167448421Y-124331187D01*
X167438456Y-124352257D01*
X167426474Y-124372248D01*
X167412590Y-124390968D01*
X167396938Y-124408238D01*
X167379668Y-124423890D01*
X167360948Y-124437774D01*
X167340957Y-124449756D01*
X167319887Y-124459721D01*
X167297943Y-124467573D01*
X167275334Y-124473237D01*
X167252279Y-124476656D01*
X167229000Y-124477800D01*
X166654000Y-124477800D01*
X166630721Y-124476656D01*
X166607666Y-124473237D01*
X166585057Y-124467573D01*
X166563113Y-124459721D01*
X166542043Y-124449756D01*
X166522052Y-124437774D01*
X166503332Y-124423890D01*
X166486062Y-124408238D01*
X166470410Y-124390968D01*
X166456526Y-124372248D01*
X166444544Y-124352257D01*
X166434579Y-124331187D01*
X166426727Y-124309243D01*
X166421063Y-124286634D01*
X166417644Y-124263579D01*
X166416500Y-124240300D01*
X166416500Y-123765300D01*
X166417644Y-123742021D01*
X166421063Y-123718966D01*
X166426727Y-123696357D01*
X166434579Y-123674413D01*
X166444544Y-123653343D01*
X166456526Y-123633352D01*
X166470410Y-123614632D01*
X166486062Y-123597362D01*
X166503332Y-123581710D01*
X166522052Y-123567826D01*
X166542043Y-123555844D01*
X166563113Y-123545879D01*
X166585057Y-123538027D01*
X166607666Y-123532363D01*
X166630721Y-123528944D01*
X166654000Y-123527800D01*
X167229000Y-123527800D01*
X167252279Y-123528944D01*
X167252279Y-123528944D01*
G37*
D19*
X166941500Y-124002800D03*
D18*
G36*
X169002279Y-123528944D02*
G01*
X169025334Y-123532363D01*
X169047943Y-123538027D01*
X169069887Y-123545879D01*
X169090957Y-123555844D01*
X169110948Y-123567826D01*
X169129668Y-123581710D01*
X169146938Y-123597362D01*
X169162590Y-123614632D01*
X169176474Y-123633352D01*
X169188456Y-123653343D01*
X169198421Y-123674413D01*
X169206273Y-123696357D01*
X169211937Y-123718966D01*
X169215356Y-123742021D01*
X169216500Y-123765300D01*
X169216500Y-124240300D01*
X169215356Y-124263579D01*
X169211937Y-124286634D01*
X169206273Y-124309243D01*
X169198421Y-124331187D01*
X169188456Y-124352257D01*
X169176474Y-124372248D01*
X169162590Y-124390968D01*
X169146938Y-124408238D01*
X169129668Y-124423890D01*
X169110948Y-124437774D01*
X169090957Y-124449756D01*
X169069887Y-124459721D01*
X169047943Y-124467573D01*
X169025334Y-124473237D01*
X169002279Y-124476656D01*
X168979000Y-124477800D01*
X168404000Y-124477800D01*
X168380721Y-124476656D01*
X168357666Y-124473237D01*
X168335057Y-124467573D01*
X168313113Y-124459721D01*
X168292043Y-124449756D01*
X168272052Y-124437774D01*
X168253332Y-124423890D01*
X168236062Y-124408238D01*
X168220410Y-124390968D01*
X168206526Y-124372248D01*
X168194544Y-124352257D01*
X168184579Y-124331187D01*
X168176727Y-124309243D01*
X168171063Y-124286634D01*
X168167644Y-124263579D01*
X168166500Y-124240300D01*
X168166500Y-123765300D01*
X168167644Y-123742021D01*
X168171063Y-123718966D01*
X168176727Y-123696357D01*
X168184579Y-123674413D01*
X168194544Y-123653343D01*
X168206526Y-123633352D01*
X168220410Y-123614632D01*
X168236062Y-123597362D01*
X168253332Y-123581710D01*
X168272052Y-123567826D01*
X168292043Y-123555844D01*
X168313113Y-123545879D01*
X168335057Y-123538027D01*
X168357666Y-123532363D01*
X168380721Y-123528944D01*
X168404000Y-123527800D01*
X168979000Y-123527800D01*
X169002279Y-123528944D01*
X169002279Y-123528944D01*
G37*
D19*
X168691500Y-124002800D03*
D18*
G36*
X167278979Y-134908144D02*
G01*
X167302034Y-134911563D01*
X167324643Y-134917227D01*
X167346587Y-134925079D01*
X167367657Y-134935044D01*
X167387648Y-134947026D01*
X167406368Y-134960910D01*
X167423638Y-134976562D01*
X167439290Y-134993832D01*
X167453174Y-135012552D01*
X167465156Y-135032543D01*
X167475121Y-135053613D01*
X167482973Y-135075557D01*
X167488637Y-135098166D01*
X167492056Y-135121221D01*
X167493200Y-135144500D01*
X167493200Y-135619500D01*
X167492056Y-135642779D01*
X167488637Y-135665834D01*
X167482973Y-135688443D01*
X167475121Y-135710387D01*
X167465156Y-135731457D01*
X167453174Y-135751448D01*
X167439290Y-135770168D01*
X167423638Y-135787438D01*
X167406368Y-135803090D01*
X167387648Y-135816974D01*
X167367657Y-135828956D01*
X167346587Y-135838921D01*
X167324643Y-135846773D01*
X167302034Y-135852437D01*
X167278979Y-135855856D01*
X167255700Y-135857000D01*
X166680700Y-135857000D01*
X166657421Y-135855856D01*
X166634366Y-135852437D01*
X166611757Y-135846773D01*
X166589813Y-135838921D01*
X166568743Y-135828956D01*
X166548752Y-135816974D01*
X166530032Y-135803090D01*
X166512762Y-135787438D01*
X166497110Y-135770168D01*
X166483226Y-135751448D01*
X166471244Y-135731457D01*
X166461279Y-135710387D01*
X166453427Y-135688443D01*
X166447763Y-135665834D01*
X166444344Y-135642779D01*
X166443200Y-135619500D01*
X166443200Y-135144500D01*
X166444344Y-135121221D01*
X166447763Y-135098166D01*
X166453427Y-135075557D01*
X166461279Y-135053613D01*
X166471244Y-135032543D01*
X166483226Y-135012552D01*
X166497110Y-134993832D01*
X166512762Y-134976562D01*
X166530032Y-134960910D01*
X166548752Y-134947026D01*
X166568743Y-134935044D01*
X166589813Y-134925079D01*
X166611757Y-134917227D01*
X166634366Y-134911563D01*
X166657421Y-134908144D01*
X166680700Y-134907000D01*
X167255700Y-134907000D01*
X167278979Y-134908144D01*
X167278979Y-134908144D01*
G37*
D19*
X166968200Y-135382000D03*
D18*
G36*
X169028979Y-134908144D02*
G01*
X169052034Y-134911563D01*
X169074643Y-134917227D01*
X169096587Y-134925079D01*
X169117657Y-134935044D01*
X169137648Y-134947026D01*
X169156368Y-134960910D01*
X169173638Y-134976562D01*
X169189290Y-134993832D01*
X169203174Y-135012552D01*
X169215156Y-135032543D01*
X169225121Y-135053613D01*
X169232973Y-135075557D01*
X169238637Y-135098166D01*
X169242056Y-135121221D01*
X169243200Y-135144500D01*
X169243200Y-135619500D01*
X169242056Y-135642779D01*
X169238637Y-135665834D01*
X169232973Y-135688443D01*
X169225121Y-135710387D01*
X169215156Y-135731457D01*
X169203174Y-135751448D01*
X169189290Y-135770168D01*
X169173638Y-135787438D01*
X169156368Y-135803090D01*
X169137648Y-135816974D01*
X169117657Y-135828956D01*
X169096587Y-135838921D01*
X169074643Y-135846773D01*
X169052034Y-135852437D01*
X169028979Y-135855856D01*
X169005700Y-135857000D01*
X168430700Y-135857000D01*
X168407421Y-135855856D01*
X168384366Y-135852437D01*
X168361757Y-135846773D01*
X168339813Y-135838921D01*
X168318743Y-135828956D01*
X168298752Y-135816974D01*
X168280032Y-135803090D01*
X168262762Y-135787438D01*
X168247110Y-135770168D01*
X168233226Y-135751448D01*
X168221244Y-135731457D01*
X168211279Y-135710387D01*
X168203427Y-135688443D01*
X168197763Y-135665834D01*
X168194344Y-135642779D01*
X168193200Y-135619500D01*
X168193200Y-135144500D01*
X168194344Y-135121221D01*
X168197763Y-135098166D01*
X168203427Y-135075557D01*
X168211279Y-135053613D01*
X168221244Y-135032543D01*
X168233226Y-135012552D01*
X168247110Y-134993832D01*
X168262762Y-134976562D01*
X168280032Y-134960910D01*
X168298752Y-134947026D01*
X168318743Y-134935044D01*
X168339813Y-134925079D01*
X168361757Y-134917227D01*
X168384366Y-134911563D01*
X168407421Y-134908144D01*
X168430700Y-134907000D01*
X169005700Y-134907000D01*
X169028979Y-134908144D01*
X169028979Y-134908144D01*
G37*
D19*
X168718200Y-135382000D03*
D18*
G36*
X167047779Y-132977744D02*
G01*
X167070834Y-132981163D01*
X167093443Y-132986827D01*
X167115387Y-132994679D01*
X167136457Y-133004644D01*
X167156448Y-133016626D01*
X167175168Y-133030510D01*
X167192438Y-133046162D01*
X167208090Y-133063432D01*
X167221974Y-133082152D01*
X167233956Y-133102143D01*
X167243921Y-133123213D01*
X167251773Y-133145157D01*
X167257437Y-133167766D01*
X167260856Y-133190821D01*
X167262000Y-133214100D01*
X167262000Y-133689100D01*
X167260856Y-133712379D01*
X167257437Y-133735434D01*
X167251773Y-133758043D01*
X167243921Y-133779987D01*
X167233956Y-133801057D01*
X167221974Y-133821048D01*
X167208090Y-133839768D01*
X167192438Y-133857038D01*
X167175168Y-133872690D01*
X167156448Y-133886574D01*
X167136457Y-133898556D01*
X167115387Y-133908521D01*
X167093443Y-133916373D01*
X167070834Y-133922037D01*
X167047779Y-133925456D01*
X167024500Y-133926600D01*
X166449500Y-133926600D01*
X166426221Y-133925456D01*
X166403166Y-133922037D01*
X166380557Y-133916373D01*
X166358613Y-133908521D01*
X166337543Y-133898556D01*
X166317552Y-133886574D01*
X166298832Y-133872690D01*
X166281562Y-133857038D01*
X166265910Y-133839768D01*
X166252026Y-133821048D01*
X166240044Y-133801057D01*
X166230079Y-133779987D01*
X166222227Y-133758043D01*
X166216563Y-133735434D01*
X166213144Y-133712379D01*
X166212000Y-133689100D01*
X166212000Y-133214100D01*
X166213144Y-133190821D01*
X166216563Y-133167766D01*
X166222227Y-133145157D01*
X166230079Y-133123213D01*
X166240044Y-133102143D01*
X166252026Y-133082152D01*
X166265910Y-133063432D01*
X166281562Y-133046162D01*
X166298832Y-133030510D01*
X166317552Y-133016626D01*
X166337543Y-133004644D01*
X166358613Y-132994679D01*
X166380557Y-132986827D01*
X166403166Y-132981163D01*
X166426221Y-132977744D01*
X166449500Y-132976600D01*
X167024500Y-132976600D01*
X167047779Y-132977744D01*
X167047779Y-132977744D01*
G37*
D19*
X166737000Y-133451600D03*
D18*
G36*
X165297779Y-132977744D02*
G01*
X165320834Y-132981163D01*
X165343443Y-132986827D01*
X165365387Y-132994679D01*
X165386457Y-133004644D01*
X165406448Y-133016626D01*
X165425168Y-133030510D01*
X165442438Y-133046162D01*
X165458090Y-133063432D01*
X165471974Y-133082152D01*
X165483956Y-133102143D01*
X165493921Y-133123213D01*
X165501773Y-133145157D01*
X165507437Y-133167766D01*
X165510856Y-133190821D01*
X165512000Y-133214100D01*
X165512000Y-133689100D01*
X165510856Y-133712379D01*
X165507437Y-133735434D01*
X165501773Y-133758043D01*
X165493921Y-133779987D01*
X165483956Y-133801057D01*
X165471974Y-133821048D01*
X165458090Y-133839768D01*
X165442438Y-133857038D01*
X165425168Y-133872690D01*
X165406448Y-133886574D01*
X165386457Y-133898556D01*
X165365387Y-133908521D01*
X165343443Y-133916373D01*
X165320834Y-133922037D01*
X165297779Y-133925456D01*
X165274500Y-133926600D01*
X164699500Y-133926600D01*
X164676221Y-133925456D01*
X164653166Y-133922037D01*
X164630557Y-133916373D01*
X164608613Y-133908521D01*
X164587543Y-133898556D01*
X164567552Y-133886574D01*
X164548832Y-133872690D01*
X164531562Y-133857038D01*
X164515910Y-133839768D01*
X164502026Y-133821048D01*
X164490044Y-133801057D01*
X164480079Y-133779987D01*
X164472227Y-133758043D01*
X164466563Y-133735434D01*
X164463144Y-133712379D01*
X164462000Y-133689100D01*
X164462000Y-133214100D01*
X164463144Y-133190821D01*
X164466563Y-133167766D01*
X164472227Y-133145157D01*
X164480079Y-133123213D01*
X164490044Y-133102143D01*
X164502026Y-133082152D01*
X164515910Y-133063432D01*
X164531562Y-133046162D01*
X164548832Y-133030510D01*
X164567552Y-133016626D01*
X164587543Y-133004644D01*
X164608613Y-132994679D01*
X164630557Y-132986827D01*
X164653166Y-132981163D01*
X164676221Y-132977744D01*
X164699500Y-132976600D01*
X165274500Y-132976600D01*
X165297779Y-132977744D01*
X165297779Y-132977744D01*
G37*
D19*
X164987000Y-133451600D03*
D18*
G36*
X165145379Y-144306144D02*
G01*
X165168434Y-144309563D01*
X165191043Y-144315227D01*
X165212987Y-144323079D01*
X165234057Y-144333044D01*
X165254048Y-144345026D01*
X165272768Y-144358910D01*
X165290038Y-144374562D01*
X165305690Y-144391832D01*
X165319574Y-144410552D01*
X165331556Y-144430543D01*
X165341521Y-144451613D01*
X165349373Y-144473557D01*
X165355037Y-144496166D01*
X165358456Y-144519221D01*
X165359600Y-144542500D01*
X165359600Y-145017500D01*
X165358456Y-145040779D01*
X165355037Y-145063834D01*
X165349373Y-145086443D01*
X165341521Y-145108387D01*
X165331556Y-145129457D01*
X165319574Y-145149448D01*
X165305690Y-145168168D01*
X165290038Y-145185438D01*
X165272768Y-145201090D01*
X165254048Y-145214974D01*
X165234057Y-145226956D01*
X165212987Y-145236921D01*
X165191043Y-145244773D01*
X165168434Y-145250437D01*
X165145379Y-145253856D01*
X165122100Y-145255000D01*
X164547100Y-145255000D01*
X164523821Y-145253856D01*
X164500766Y-145250437D01*
X164478157Y-145244773D01*
X164456213Y-145236921D01*
X164435143Y-145226956D01*
X164415152Y-145214974D01*
X164396432Y-145201090D01*
X164379162Y-145185438D01*
X164363510Y-145168168D01*
X164349626Y-145149448D01*
X164337644Y-145129457D01*
X164327679Y-145108387D01*
X164319827Y-145086443D01*
X164314163Y-145063834D01*
X164310744Y-145040779D01*
X164309600Y-145017500D01*
X164309600Y-144542500D01*
X164310744Y-144519221D01*
X164314163Y-144496166D01*
X164319827Y-144473557D01*
X164327679Y-144451613D01*
X164337644Y-144430543D01*
X164349626Y-144410552D01*
X164363510Y-144391832D01*
X164379162Y-144374562D01*
X164396432Y-144358910D01*
X164415152Y-144345026D01*
X164435143Y-144333044D01*
X164456213Y-144323079D01*
X164478157Y-144315227D01*
X164500766Y-144309563D01*
X164523821Y-144306144D01*
X164547100Y-144305000D01*
X165122100Y-144305000D01*
X165145379Y-144306144D01*
X165145379Y-144306144D01*
G37*
D19*
X164834600Y-144780000D03*
D18*
G36*
X166895379Y-144306144D02*
G01*
X166918434Y-144309563D01*
X166941043Y-144315227D01*
X166962987Y-144323079D01*
X166984057Y-144333044D01*
X167004048Y-144345026D01*
X167022768Y-144358910D01*
X167040038Y-144374562D01*
X167055690Y-144391832D01*
X167069574Y-144410552D01*
X167081556Y-144430543D01*
X167091521Y-144451613D01*
X167099373Y-144473557D01*
X167105037Y-144496166D01*
X167108456Y-144519221D01*
X167109600Y-144542500D01*
X167109600Y-145017500D01*
X167108456Y-145040779D01*
X167105037Y-145063834D01*
X167099373Y-145086443D01*
X167091521Y-145108387D01*
X167081556Y-145129457D01*
X167069574Y-145149448D01*
X167055690Y-145168168D01*
X167040038Y-145185438D01*
X167022768Y-145201090D01*
X167004048Y-145214974D01*
X166984057Y-145226956D01*
X166962987Y-145236921D01*
X166941043Y-145244773D01*
X166918434Y-145250437D01*
X166895379Y-145253856D01*
X166872100Y-145255000D01*
X166297100Y-145255000D01*
X166273821Y-145253856D01*
X166250766Y-145250437D01*
X166228157Y-145244773D01*
X166206213Y-145236921D01*
X166185143Y-145226956D01*
X166165152Y-145214974D01*
X166146432Y-145201090D01*
X166129162Y-145185438D01*
X166113510Y-145168168D01*
X166099626Y-145149448D01*
X166087644Y-145129457D01*
X166077679Y-145108387D01*
X166069827Y-145086443D01*
X166064163Y-145063834D01*
X166060744Y-145040779D01*
X166059600Y-145017500D01*
X166059600Y-144542500D01*
X166060744Y-144519221D01*
X166064163Y-144496166D01*
X166069827Y-144473557D01*
X166077679Y-144451613D01*
X166087644Y-144430543D01*
X166099626Y-144410552D01*
X166113510Y-144391832D01*
X166129162Y-144374562D01*
X166146432Y-144358910D01*
X166165152Y-144345026D01*
X166185143Y-144333044D01*
X166206213Y-144323079D01*
X166228157Y-144315227D01*
X166250766Y-144309563D01*
X166273821Y-144306144D01*
X166297100Y-144305000D01*
X166872100Y-144305000D01*
X166895379Y-144306144D01*
X166895379Y-144306144D01*
G37*
D19*
X166584600Y-144780000D03*
M02*
